<svg id="Capa_1" data-name="Capa 1" xmlns="http://www.w3.org/2000/svg" viewBox="0 0 120 120"><defs><style>.cls-1{fill:#fff;}</style></defs><path class="cls-1" d="M65.24,62.48,61,65.85a3,3,0,0,1-1.86.65,3,3,0,0,1-2-.72l-4.52-3.85,0,.07L42.21,73.63H77Z"/><polygon class="cls-1" points="43.65 46.38 59.19 59.62 75.89 46.38 43.65 46.38"/><polygon class="cls-1" points="38.5 49.87 38.5 68.77 48.1 58.05 38.5 49.87"/><polygon class="cls-1" points="69.98 58.72 81.5 69.64 81.5 49.58 69.98 58.72"/><path class="cls-1" d="M60,5a55,55,0,1,0,55,55A55,55,0,0,0,60,5ZM87.5,76.63c0,.07,0,.13,0,.2a2.09,2.09,0,0,1,0,.35,1.34,1.34,0,0,1-.07.27c0,.09-.05.19-.09.28s-.09.19-.13.28-.08.16-.14.24a2.92,2.92,0,0,1-.21.28l-.12.16,0,0a2.52,2.52,0,0,1-.35.3.87.87,0,0,1-.11.09,3,3,0,0,1-.52.29l-.08,0a2.13,2.13,0,0,1-.49.15,2.76,2.76,0,0,1-.57.06h-49a3.68,3.68,0,0,1-.57-.06l-.2-.06-.34-.1-.22-.11a2.49,2.49,0,0,1-.28-.15,1.84,1.84,0,0,1-.22-.17,1,1,0,0,1-.17-.12l0-.06c-.08-.07-.15-.16-.23-.24l-.17-.21-.15-.25a2,2,0,0,1-.13-.25c0-.09-.07-.18-.1-.27s-.07-.19-.09-.28a2.51,2.51,0,0,1,0-.27c0-.11,0-.22,0-.33s0,0,0-.07V43.38a.78.78,0,0,1,0-.16,1.73,1.73,0,0,1,0-.32,1.57,1.57,0,0,1,.06-.28c0-.09,0-.18.08-.28l.12-.27c0-.09.09-.17.13-.25a2.48,2.48,0,0,1,.19-.26,1,1,0,0,1,.09-.13l.08-.08a2.39,2.39,0,0,1,.23-.22l.21-.18.25-.16.25-.13.28-.11.27-.08.28,0a1.73,1.73,0,0,1,.32,0H84.65l.33,0,.26.06.3.09.25.11a2.29,2.29,0,0,1,.27.14l.23.16a2.11,2.11,0,0,1,.23.19l.22.22.11.12.06.09c.06.09.12.18.17.27a1.19,1.19,0,0,1,.13.25,1.53,1.53,0,0,1,.11.27c0,.1.07.19.09.28s0,.18,0,.28a3.16,3.16,0,0,1,0,.32s0,.07,0,.11Z"/></svg>