<svg id="Capa_1" data-name="Capa 1" xmlns="http://www.w3.org/2000/svg" viewBox="0 0 120 120"><defs><style>.cls-1{fill:#fff;}</style></defs><path class="cls-1" d="M80,48.89A11.11,11.11,0,1,0,91.07,60,11.12,11.12,0,0,0,80,48.89Z"/><path class="cls-1" d="M60,5a55,55,0,1,0,55,55A55,55,0,0,0,60,5ZM80,77.11A17.12,17.12,0,0,1,63.05,62.48a11.54,11.54,0,0,1-3.39.5,10.07,10.07,0,0,1-2.73-.37,17.12,17.12,0,1,1-.3-6.7,5.2,5.2,0,0,0,3,1.07,4.66,4.66,0,0,0,2.92-.84l.59.63A17.1,17.1,0,1,1,80,77.11Z"/><path class="cls-1" d="M40,48.89A11.11,11.11,0,1,0,51.15,60,11.13,11.13,0,0,0,40,48.89Z"/></svg>