<svg id="Capa_1" data-name="Capa 1" xmlns="http://www.w3.org/2000/svg" xmlns:xlink="http://www.w3.org/1999/xlink" viewBox="0 0 220 226"><defs><style>.cls-1{fill:#fff;}.cls-2{clip-path:url(#clip-path);}.cls-3{clip-path:url(#clip-path-2);}.cls-4{clip-path:url(#clip-path-3);}.cls-5{clip-path:url(#clip-path-4);}.cls-6{clip-path:url(#clip-path-5);}.cls-7{clip-path:url(#clip-path-6);}.cls-8{clip-path:url(#clip-path-7);}</style><clipPath id="clip-path"><path class="cls-1" d="M476.94,1.19c-.05,2.11-.12,2.61-.43,3.29A7.86,7.86,0,0,1,471.2,8.4c-2.41.5-5.3-.15-6.26-1.42a4.28,4.28,0,0,1,.85-5.77c1.13-.76,2.28-1.15,6-2.08,1.79-.46,3.69-1,4.19-1.23l.91-.41S477-.18,476.94,1.19ZM469.1-19.54c-6.58.61-11,4.16-11.7,9.51a1,1,0,0,0,.85,1.1h5.87a1,1,0,0,0,1-.82l0-.14c.58-2.3,1.94-3.19,4.86-3.5,2.62-.25,5.07.38,6,1.56a3.39,3.39,0,0,1,.37,3.59c-.49,1-2.24,1.52-7.19,2.31-4,.63-6.07,1.18-8.06,2.14a8.84,8.84,0,0,0-5.32,9.27A9,9,0,0,0,458.89,12a13.21,13.21,0,0,0,4.94,2.26,21.92,21.92,0,0,0,6.86,0,9.59,9.59,0,0,0,5.62-3.39,2.25,2.25,0,0,1,.51-.62c.07,0,.15.4.22.88a11.91,11.91,0,0,0,.46,1.8l.1.25a1,1,0,0,0,1,.67h5.9a1,1,0,0,0,1-1v-.08c0-.46-.09-.5-.11-.95s-.19-4.38-.19-9.85c0-5-.09-9.95-.17-11-.41-4.7-2.43-7.75-6.13-9.33A23.68,23.68,0,0,0,469.1-19.54Z"/></clipPath><clipPath id="clip-path-2"><path class="cls-1" d="M506.16-19.44a9.54,9.54,0,0,0-5,2.71c-.65.66-1.41,1.49-1.66,1.81l-.47.6v-3.52a1,1,0,0,0-1-1h-6.51a1,1,0,0,0-1,1V12.84a1,1,0,0,0,1,1h6.67a1,1,0,0,0,1-1V4.05c0-10.69,0-11.1,1-12.85a7,7,0,0,1,2.91-2.81,4.61,4.61,0,0,1,2.69-.48,5.09,5.09,0,0,1,2.6.41,5.25,5.25,0,0,1,3,4.15c.11.67.17,5.09.17,11.24v9.13a1,1,0,0,0,1,1h6.52a1,1,0,0,0,1-1h0l0-11.1,0-10.38v-.9a9.85,9.85,0,0,0-3.43-7,8.54,8.54,0,0,0-2.66-2A12.77,12.77,0,0,0,506.16-19.44Z"/></clipPath><clipPath id="clip-path-3"><path class="cls-1" d="M542.76-12.95c3,.62,5.06,2.38,6.1,6a16.84,16.84,0,0,1,.44,4.45,12.77,12.77,0,0,1-1.4,6.37,7.21,7.21,0,0,1-5.7,4.18,7.76,7.76,0,0,1-6.4-1.75c-2.25-2.07-3.41-6.08-3-10.35A11.36,11.36,0,0,1,534-8.7,7.41,7.41,0,0,1,542.76-12.95Zm-5.06-6.49a17,17,0,0,0-8.92,4.63c-5.91,5.89-6.53,16.38-1.36,23.15,3.51,4.61,9,6.89,15.34,6.35a16.32,16.32,0,0,0,10.17-4.57,16.47,16.47,0,0,0,4.54-8,20.11,20.11,0,0,0,0-9.22,16.59,16.59,0,0,0-8.68-10.88A18.92,18.92,0,0,0,537.7-19.44Z"/></clipPath><clipPath id="clip-path-4"><path class="cls-1" d="M428.35-10.38V12.84a1,1,0,0,0,1,1h6.67a1,1,0,0,0,1-1V-30.7a1,1,0,0,0-1-1h-6.67a1,1,0,0,0-1,1Z"/></clipPath><clipPath id="clip-path-5"><path class="cls-1" d="M442.9-10.38V12.84a1,1,0,0,0,1,1h6.68a1,1,0,0,0,1-1V-41a1,1,0,0,0-1-1h-6.68a1,1,0,0,0-1,1Z"/></clipPath><clipPath id="clip-path-6"><path class="cls-1" d="M409.9-12.84a6.6,6.6,0,0,1,5,5,6,6,0,0,1,.24,1.32V-6H408c-5.84,0-7.19,0-7.19-.22a10.82,10.82,0,0,1,2.11-4.66C404.35-12.57,407.3-13.39,409.9-12.84Zm-4.61-6.62A15.93,15.93,0,0,0,392.56-6.9,21.4,21.4,0,0,0,393,3.69c2.48,7.63,9,11.71,17.73,11,5.17-.41,9.68-3.15,11.75-7.14a16,16,0,0,0,.83-2.12h0a1,1,0,0,0-.66-1.3,1.13,1.13,0,0,0-.32-.05H415.9a1,1,0,0,0-1,.65l0,.1a5.29,5.29,0,0,1-3.58,3,10.7,10.7,0,0,1-2.52.25A6.94,6.94,0,0,1,403,5.7a10.14,10.14,0,0,1-2.09-4.13c-.17-.71-.32-1.36-.32-1.44S405.94,0,412.47,0h10.74a1,1,0,0,0,1-1v-.05L424.19-2c-.39-7.59-3.52-13.37-8.69-16.06A17.39,17.39,0,0,0,405.29-19.46Z"/></clipPath><clipPath id="clip-path-7"><path class="cls-1" d="M386.6-18.93a14.88,14.88,0,0,0-1.53.53,11.7,11.7,0,0,0-3.5,3.53l-.9,1.37-.05-2.69,0-1.66a1,1,0,0,0-1-1h-6.33a1,1,0,0,0-1,1V12.84a1,1,0,0,0,1,1h6.66a1,1,0,0,0,1-1L381,4.57l0-9.29.48-1.37A7.52,7.52,0,0,1,388-11.34a10,10,0,0,1,2.06-.08.71.71,0,0,0,.81-.61.34.34,0,0,0,0-.1v-6.44a.51.51,0,0,0-.42-.51l-.11,0A11.22,11.22,0,0,0,386.6-18.93Z"/></clipPath></defs><path class="cls-1" d="M476.94,1.19c-.05,2.11-.12,2.61-.43,3.29A7.86,7.86,0,0,1,471.2,8.4c-2.41.5-5.3-.15-6.26-1.42a4.28,4.28,0,0,1,.85-5.77c1.13-.76,2.28-1.15,6-2.08,1.79-.46,3.69-1,4.19-1.23l.91-.41S477-.18,476.94,1.19ZM469.1-19.54c-6.58.61-11,4.16-11.7,9.51a1,1,0,0,0,.85,1.1h5.87a1,1,0,0,0,1-.82l0-.14c.58-2.3,1.94-3.19,4.86-3.5,2.62-.25,5.07.38,6,1.56a3.39,3.39,0,0,1,.37,3.59c-.49,1-2.24,1.52-7.19,2.31-4,.63-6.07,1.18-8.06,2.14a8.84,8.84,0,0,0-5.32,9.27A9,9,0,0,0,458.89,12a13.21,13.21,0,0,0,4.94,2.26,21.92,21.92,0,0,0,6.86,0,9.59,9.59,0,0,0,5.62-3.39,2.25,2.25,0,0,1,.51-.62c.07,0,.15.4.22.88a11.91,11.91,0,0,0,.46,1.8l.1.25a1,1,0,0,0,1,.67h5.9a1,1,0,0,0,1-1v-.08c0-.46-.09-.5-.11-.95s-.19-4.38-.19-9.85c0-5-.09-9.95-.17-11-.41-4.7-2.43-7.75-6.13-9.33A23.68,23.68,0,0,0,469.1-19.54Z"/><g class="cls-2"><rect class="cls-1" x="207.72" y="-139.69" width="451.1" height="507.74"/></g><path class="cls-1" d="M506.16-19.44a9.54,9.54,0,0,0-5,2.71c-.65.66-1.41,1.49-1.66,1.81l-.47.6v-3.52a1,1,0,0,0-1-1h-6.51a1,1,0,0,0-1,1V12.84a1,1,0,0,0,1,1h6.67a1,1,0,0,0,1-1V4.05c0-10.69,0-11.1,1-12.85a7,7,0,0,1,2.91-2.81,4.61,4.61,0,0,1,2.69-.48,5.09,5.09,0,0,1,2.6.41,5.25,5.25,0,0,1,3,4.15c.11.67.17,5.09.17,11.24v9.13a1,1,0,0,0,1,1h6.52a1,1,0,0,0,1-1h0l0-11.1,0-10.38v-.9a9.85,9.85,0,0,0-3.43-7,8.54,8.54,0,0,0-2.66-2A12.77,12.77,0,0,0,506.16-19.44Z"/><g class="cls-3"><rect class="cls-1" x="207.72" y="-139.69" width="451.1" height="507.74"/></g><path class="cls-1" d="M542.76-12.95c3,.62,5.06,2.38,6.1,6a16.84,16.84,0,0,1,.44,4.45,12.77,12.77,0,0,1-1.4,6.37,7.21,7.21,0,0,1-5.7,4.18,7.76,7.76,0,0,1-6.4-1.75c-2.25-2.07-3.41-6.08-3-10.35A11.36,11.36,0,0,1,534-8.7,7.41,7.41,0,0,1,542.76-12.95Zm-5.06-6.49a17,17,0,0,0-8.92,4.63c-5.91,5.89-6.53,16.38-1.36,23.15,3.51,4.61,9,6.89,15.34,6.35a16.32,16.32,0,0,0,10.17-4.57,16.47,16.47,0,0,0,4.54-8,20.11,20.11,0,0,0,0-9.22,16.59,16.59,0,0,0-8.68-10.88A18.92,18.92,0,0,0,537.7-19.44Z"/><g class="cls-4"><rect class="cls-1" x="207.72" y="-139.69" width="451.1" height="507.74"/></g><path class="cls-1" d="M428.35-10.38V12.84a1,1,0,0,0,1,1h6.67a1,1,0,0,0,1-1V-30.7a1,1,0,0,0-1-1h-6.67a1,1,0,0,0-1,1Z"/><g class="cls-5"><rect class="cls-1" x="207.72" y="-139.69" width="451.1" height="507.74"/></g><path class="cls-1" d="M442.9-10.38V12.84a1,1,0,0,0,1,1h6.68a1,1,0,0,0,1-1V-41a1,1,0,0,0-1-1h-6.68a1,1,0,0,0-1,1Z"/><g class="cls-6"><rect class="cls-1" x="207.72" y="-139.69" width="451.1" height="507.74"/></g><path class="cls-1" d="M409.9-12.84a6.6,6.6,0,0,1,5,5,6,6,0,0,1,.24,1.32V-6H408c-5.84,0-7.19,0-7.19-.22a10.82,10.82,0,0,1,2.11-4.66C404.35-12.57,407.3-13.39,409.9-12.84Zm-4.61-6.62A15.93,15.93,0,0,0,392.56-6.9,21.4,21.4,0,0,0,393,3.69c2.48,7.63,9,11.71,17.73,11,5.17-.41,9.68-3.15,11.75-7.14a16,16,0,0,0,.83-2.12h0a1,1,0,0,0-.66-1.3,1.13,1.13,0,0,0-.32-.05H415.9a1,1,0,0,0-1,.65l0,.1a5.29,5.29,0,0,1-3.58,3,10.7,10.7,0,0,1-2.52.25A6.94,6.94,0,0,1,403,5.7a10.14,10.14,0,0,1-2.09-4.13c-.17-.71-.32-1.36-.32-1.44S405.94,0,412.47,0h10.74a1,1,0,0,0,1-1v-.05L424.19-2c-.39-7.59-3.52-13.37-8.69-16.06A17.39,17.39,0,0,0,405.29-19.46Z"/><g class="cls-7"><rect class="cls-1" x="207.72" y="-139.69" width="451.1" height="507.74"/></g><path class="cls-1" d="M386.6-18.93a14.88,14.88,0,0,0-1.53.53,11.7,11.7,0,0,0-3.5,3.53l-.9,1.37-.05-2.69,0-1.66a1,1,0,0,0-1-1h-6.33a1,1,0,0,0-1,1V12.84a1,1,0,0,0,1,1h6.66a1,1,0,0,0,1-1L381,4.57l0-9.29.48-1.37A7.52,7.52,0,0,1,388-11.34a10,10,0,0,1,2.06-.08.71.71,0,0,0,.81-.61.34.34,0,0,0,0-.1v-6.44a.51.51,0,0,0-.42-.51l-.11,0A11.22,11.22,0,0,0,386.6-18.93Z"/><g class="cls-8"><rect class="cls-1" x="207.72" y="-139.69" width="451.1" height="507.74"/></g><path class="cls-1" d="M192.7,153.4H109.55a1.56,1.56,0,0,1,0-3.09H192.7a1.56,1.56,0,0,1,0,3.09ZM90.54,151.85a1.78,1.78,0,0,0-1.85-1.68H29.83a1.69,1.69,0,1,0,0,3.37H88.69A1.78,1.78,0,0,0,90.54,151.85ZM111.27,41a.91.91,0,0,0,.91-.91V27.4a.92.92,0,1,0-1.83,0V40.09A.92.92,0,0,0,111.27,41Zm0-23a.91.91,0,0,0,.91-.91V7.82a.92.92,0,1,0-1.83,0v9.26A.92.92,0,0,0,111.27,18Zm-6.83,23.39h.1a.92.92,0,0,0,.82-1l-2.55-24.26a.91.91,0,1,0-1.82.19l2.55,24.26A.91.91,0,0,0,104.44,41.38Zm-7.31-2.54a.91.91,0,0,0-.7,1.08l.39,1.87a.92.92,0,0,0,.89.72l.19,0a.92.92,0,0,0,.71-1.08l-.4-1.86A.91.91,0,0,0,97.13,38.84Zm-1.31-1.75a.93.93,0,0,0,.89.73l.2,0a.92.92,0,0,0,.7-1.09L91.9,9.83a.92.92,0,0,0-1.09-.7.91.91,0,0,0-.7,1.08Zm-5.53,6.66a.93.93,0,0,0,1.15.59A.92.92,0,0,0,92,43.19L88.42,32.1a.91.91,0,1,0-1.73.56ZM84.7,26.56a.92.92,0,0,0,.87.63.86.86,0,0,0,.28,0A.9.9,0,0,0,86.44,26L82.05,12.48a.92.92,0,0,0-1.74.57ZM84.87,47a1,1,0,0,0,.37-.08.91.91,0,0,0,.46-1.2l-.83-1.87a.93.93,0,0,0-1.21-.47.92.92,0,0,0-.46,1.21L84,46.43A.92.92,0,0,0,84.87,47ZM74.63,25.31,81.71,41.2a.9.9,0,0,0,.83.54,1,1,0,0,0,.37-.07.92.92,0,0,0,.46-1.21L76.3,24.57a.91.91,0,1,0-1.67.74ZM73,21.66a.93.93,0,0,0,.83.54,1,1,0,0,0,.38-.08.92.92,0,0,0,.46-1.21l-2.11-4.72a.91.91,0,0,0-1.2-.47.92.92,0,0,0-.46,1.21Zm5.92,28.58a.84.84,0,0,0,.45-.13.91.91,0,0,0,.34-1.24L76,42.38a.91.91,0,0,0-1.58.91l3.75,6.49A.92.92,0,0,0,78.92,50.24Zm-8.62-14a.92.92,0,0,0,.79.45,1,1,0,0,0,.46-.12.92.92,0,0,0,.33-1.25L63.56,20.9a.91.91,0,1,0-1.58.91Zm2.34,17.51a.91.91,0,0,0,.74.38.92.92,0,0,0,.74-1.45L61.47,35.26a.92.92,0,0,0-1.28-.2.91.91,0,0,0-.2,1.28Zm-15.24-21a.91.91,0,0,0,.74.38.89.89,0,0,0,.53-.18.91.91,0,0,0,.21-1.27l-3.74-5.14a.91.91,0,0,0-1.27-.21.92.92,0,0,0-.21,1.28ZM68.33,58.58a.91.91,0,0,0,.61-.24A.92.92,0,0,0,69,57.05l-5.23-5.8a.91.91,0,0,0-1.29-.06.9.9,0,0,0-.06,1.28l5.22,5.8A.89.89,0,0,0,68.33,58.58ZM59,48.63a.91.91,0,0,0,.68.3.88.88,0,0,0,.61-.23.91.91,0,0,0,.07-1.29L50.48,36.47a.92.92,0,0,0-1.29-.06.91.91,0,0,0-.07,1.29Zm-11.73-13a.87.87,0,0,0,.67.3.9.9,0,0,0,.68-1.52l-1.19-1.32A.91.91,0,1,0,46,34.28Zm15,26.6,1.11,1a.73.73,0,0,0,.5.19.75.75,0,0,0,.57-.25.77.77,0,0,0-.05-1.08l-1.11-1a.76.76,0,0,0-1.08,0A.77.77,0,0,0,62.19,62.19Zm-1.67-1.77A.76.76,0,0,0,61,59.1l-9.8-8.83a.78.78,0,0,0-1.08,0,.77.77,0,0,0,.06,1.08L60,60.23A.77.77,0,0,0,60.52,60.42ZM43.27,45.15a.76.76,0,0,0,1-1.13l-4-3.58a.76.76,0,0,0-1,1.13Zm16.6,23.62a.8.8,0,0,0,.62-.31.77.77,0,0,0-.17-1.06l-5.48-4A.76.76,0,0,0,54,64.65l5.47,4A.82.82,0,0,0,59.87,68.77ZM51.13,62.6a.76.76,0,0,0,.45.15.75.75,0,0,0,.61-.32A.76.76,0,0,0,52,61.37l-17.85-13a.76.76,0,0,0-.89,1.23Zm-7.64,2.74a.77.77,0,0,0-1,.28.76.76,0,0,0,.28,1l13.45,7.77a.75.75,0,0,0,.38.1.77.77,0,0,0,.66-.38.76.76,0,0,0-.28-1ZM31.32,60.08l8.25,4.76a.75.75,0,0,0,.38.1.77.77,0,0,0,.66-.38.76.76,0,0,0-.28-1l-8.25-4.76A.75.75,0,0,0,31,59,.77.77,0,0,0,31.32,60.08ZM118,41.37h.1a.91.91,0,0,0,.9-.82l.68-6.45a.92.92,0,0,0-.81-1,.93.93,0,0,0-1,.82l-.67,6.45A.9.9,0,0,0,118,41.37Zm1.31-12.52h.1a.92.92,0,0,0,.91-.82l1.39-13.23a.93.93,0,0,0-.81-1,.91.91,0,0,0-1,.82l-1.4,13.23A.92.92,0,0,0,119.3,28.85Zm5.33,13.64.19,0a.92.92,0,0,0,.89-.72l.6-2.8a.91.91,0,1,0-1.79-.38l-.6,2.8A.92.92,0,0,0,124.63,42.49Zm1.29-6.11a.69.69,0,0,0,.2,0,.92.92,0,0,0,.89-.73l5.41-25.47a.91.91,0,1,0-1.78-.38L125.22,35.3A.91.91,0,0,0,125.92,36.38Zm6,2.31-1.46,4.5a.92.92,0,0,0,.59,1.15.93.93,0,0,0,1.15-.59l1.46-4.49a.92.92,0,1,0-1.74-.57Zm2.46-4.6a1,1,0,0,0,.28,0,.91.91,0,0,0,.87-.63L140.92,17a.91.91,0,1,0-1.73-.57l-5.35,16.46A.91.91,0,0,0,134.42,34.09Zm6.18-19a.69.69,0,0,0,.28,0,.9.9,0,0,0,.87-.63l.47-1.44a.92.92,0,1,0-1.74-.57L140,13.92A.92.92,0,0,0,140.6,15.07Zm-3.31,31.82a1,1,0,0,0,.38.08.91.91,0,0,0,.83-.54l7.83-17.59a.92.92,0,1,0-1.67-.75l-7.83,17.6A.91.91,0,0,0,137.29,46.89Zm10.44-23.45a.84.84,0,0,0,.38.08.91.91,0,0,0,.83-.54l2.69-6.05a.92.92,0,0,0-.46-1.21.93.93,0,0,0-1.21.47l-2.69,6A.91.91,0,0,0,147.73,23.44ZM150,38.19a.92.92,0,0,0-1.25.33l-6,10.35a.91.91,0,0,0,.34,1.24.84.84,0,0,0,.45.13.92.92,0,0,0,.79-.46l6-10.34A.9.9,0,0,0,150,38.19Zm1-1.73a.85.85,0,0,0,.45.12.92.92,0,0,0,.8-.45l8.26-14.32A.91.91,0,1,0,159,20.9L150.7,35.21A.92.92,0,0,0,151,36.46ZM148.62,54a1,1,0,0,0,.53.17.91.91,0,0,0,.74-.38l4.69-6.45a.91.91,0,1,0-1.48-1.07l-4.69,6.45A.92.92,0,0,0,148.62,54ZM155,45.17a.88.88,0,0,0,.53.17.93.93,0,0,0,.75-.37l8.85-12.18a.92.92,0,0,0-.21-1.28.91.91,0,0,0-1.27.2L154.79,43.9A.9.9,0,0,0,155,45.17ZM166.4,30.39a.88.88,0,0,0,.73-.38l1.74-2.39a.91.91,0,0,0-1.48-1.07l-1.73,2.39a.92.92,0,0,0,.74,1.45ZM157,54.55a.91.91,0,0,0-1.29.07l-2.19,2.43a.91.91,0,0,0,.07,1.29.86.86,0,0,0,.6.24.89.89,0,0,0,.68-.31l2.19-2.43A.92.92,0,0,0,157,54.55Zm5.36-5.95a.9.9,0,0,0,.61.23.91.91,0,0,0,.68-.3l12.83-14.25a.91.91,0,1,0-1.35-1.23L162.3,47.31A.91.91,0,0,0,162.37,48.6Zm3.09,8a.77.77,0,0,0-1.08-.06l-6.16,5.55a.76.76,0,0,0-.06,1.08.75.75,0,0,0,.57.25.73.73,0,0,0,.5-.19l6.17-5.56A.76.76,0,0,0,165.46,56.56ZM168,54.25a.78.78,0,0,0,.56.25.74.74,0,0,0,.51-.2l9-8.07a.76.76,0,0,0,.05-1.07.74.74,0,0,0-1.07-.06l-9,8.07A.77.77,0,0,0,168,54.25Zm12.46-10.47a.77.77,0,0,0,.51-.19l2.24-2a.76.76,0,0,0,.06-1.07.77.77,0,0,0-1.08-.06l-2.24,2a.75.75,0,0,0,0,1.07A.73.73,0,0,0,180.49,43.78Zm-17.82,25a.79.79,0,0,0,.44-.14l8.95-6.51a.76.76,0,0,0-.89-1.23l-8.95,6.51a.75.75,0,0,0-.17,1.06A.77.77,0,0,0,162.67,68.77Zm13-10.2a.77.77,0,0,0,.62.31.76.76,0,0,0,.45-.15l12.52-9.09a.76.76,0,0,0,.16-1.06.75.75,0,0,0-1.06-.17L175.83,57.5A.78.78,0,0,0,175.66,58.57Zm8.49,4.71a.76.76,0,0,0-1-.28L165.59,73.11a.76.76,0,0,0-.28,1,.79.79,0,0,0,.67.38.8.8,0,0,0,.38-.1l17.51-10.11A.78.78,0,0,0,184.15,63.28Zm1.36-.79a.76.76,0,0,0,.66.38.74.74,0,0,0,.37-.1l7.8-4.5a.76.76,0,0,0-.76-1.32l-7.8,4.5A.75.75,0,0,0,185.51,62.49Zm-7.2,12.18-10,4.45a.75.75,0,0,0-.38,1,.74.74,0,0,0,.69.45.85.85,0,0,0,.31-.06l10-4.45a.76.76,0,1,0-.61-1.39Zm6.14-1.14a.8.8,0,0,0,.3-.06l9.52-4.24a.76.76,0,0,0-.62-1.39l-9.52,4.24a.76.76,0,0,0-.38,1A.75.75,0,0,0,184.45,73.53Zm11.66-5.19a.67.67,0,0,0,.31-.07l2.05-.91a.76.76,0,0,0-.63-1.39l-2,.91a.76.76,0,0,0-.38,1A.75.75,0,0,0,196.11,68.34ZM28.19,58.27,29.5,59a.76.76,0,0,0,.38.11.73.73,0,0,0,.65-.39.75.75,0,0,0-.27-1L29,57a.78.78,0,0,0-1.05.28A.77.77,0,0,0,28.19,58.27Zm105,145.4a.83.83,0,0,0-1-.62.82.82,0,0,0-.62,1L134,215.13a.81.81,0,0,0,.8.64.44.44,0,0,0,.16,0,.81.81,0,0,0,.63-1ZM127,178.48a.81.81,0,0,0-.63,1l2,9.52a.81.81,0,0,0,.79.65l.17,0a.81.81,0,0,0,.63-1l-2-9.53A.8.8,0,0,0,127,178.48Zm-3.44-16.2a.82.82,0,0,0-.63,1l1.38,6.48a.81.81,0,0,0,.8.65l.16,0a.81.81,0,0,0,.63-1l-1.38-6.48A.81.81,0,0,0,123.56,162.28ZM97.22,187.85a.83.83,0,0,0-1,.63l-5.59,26.31a.81.81,0,0,0,.62,1,.52.52,0,0,0,.17,0,.81.81,0,0,0,.8-.64l5.59-26.32A.82.82,0,0,0,97.22,187.85Zm4.47-24.94-3.45,16.23a.82.82,0,0,0,.62,1l.17,0a.82.82,0,0,0,.8-.65l3.45-16.23a.82.82,0,0,0-.63-1A.81.81,0,0,0,101.69,162.91ZM58.86,183.74a.8.8,0,0,0-1.12.23l-7.33,11.28a.83.83,0,0,0,.24,1.13.9.9,0,0,0,.44.13.8.8,0,0,0,.68-.37l7.33-11.28A.81.81,0,0,0,58.86,183.74Zm12.73-21.11-7.67,11.83a.8.8,0,0,0,.24,1.12.78.78,0,0,0,.44.13.82.82,0,0,0,.68-.37L73,163.52a.81.81,0,0,0-.24-1.12A.82.82,0,0,0,71.59,162.63Zm-30.28-.08a.8.8,0,0,0-1.14-.09l-11,9.21a.81.81,0,0,0,.52,1.43.78.78,0,0,0,.52-.19l11-9.21A.81.81,0,0,0,41.31,162.55ZM28.73,166.5a3.43,3.43,0,1,1,3.43-3.42A3.43,3.43,0,0,1,28.73,166.5Zm1.8-3.42a1.8,1.8,0,1,0-1.8,1.8A1.81,1.81,0,0,0,30.53,163.08Zm54.93,43.77A3.43,3.43,0,1,1,82,203.42,3.42,3.42,0,0,1,85.46,206.85Zm-1.62,0a1.81,1.81,0,1,0-1.8,1.8A1.81,1.81,0,0,0,83.84,206.85ZM71,188a21.18,21.18,0,0,1-2.32.14h0c-3.37,0-5.91-1-7.55-3-2.18-2.6-2.07-6.1-1.94-7.41A12.39,12.39,0,0,0,53,175.45a7.68,7.68,0,0,0-5.58,1.69L40,185.35a.83.83,0,0,1-.6.26.84.84,0,0,1-.55-.21.81.81,0,0,1-.05-1.14l9.78-10.87c1.6-1.78.69-4.37.08-5.66a3.42,3.42,0,1,1,1.75-3,3.39,3.39,0,0,1-.53,1.8,9.92,9.92,0,0,1,1.21,4l7.27-8.07a.81.81,0,0,1,1.21,1.09L50.21,174a10,10,0,0,1,2.86-.21,14.14,14.14,0,0,1,7.21,2.8c11.24.18,11.37,10.51,11.37,10.61V188ZM47,166.56a1.81,1.81,0,1,0-1.8-1.8A1.81,1.81,0,0,0,47,166.56Zm23,20a8.85,8.85,0,0,0-7.48-8.09A36.58,36.58,0,0,1,66.75,183a.82.82,0,0,1-.63,1.32.79.79,0,0,1-.64-.31,33.82,33.82,0,0,0-4.82-5,8.14,8.14,0,0,0,1.63,5.25c1.33,1.59,3.46,2.39,6.33,2.39h0C69.07,186.59,69.54,186.57,70,186.53Zm11.36,6.35A97.36,97.36,0,0,0,73,201.2l-2.73,6.44a.8.8,0,0,1-.75.49,1,1,0,0,1-.32-.06.82.82,0,0,1-.43-1.06l10.76-25.33c.89-2.75-1.08-5-2.12-5.93a3.42,3.42,0,1,1,1-2.43,3.31,3.31,0,0,1-.18,1.05A9.11,9.11,0,0,1,81,178.24l6.57-15.48a.81.81,0,1,1,1.49.63L74.82,196.93c1.47-1.49,3.35-3.32,5.5-5.23,0-2,1-10.73,14.63-12.52l.91-.11,0,.92c0,.13-.42,13-12.22,13A19.44,19.44,0,0,1,81.38,192.88ZM76.8,173.32a1.8,1.8,0,1,0-1.8,1.81A1.8,1.8,0,0,0,76.8,173.32ZM82,190.2A80.64,80.64,0,0,1,88.88,185a.79.79,0,0,1,1.1.22.8.8,0,0,1-.21,1.1A74.19,74.19,0,0,0,83,191.43c4.61.18,7.89-1.73,9.77-5.67a16.5,16.5,0,0,0,1.37-4.86C84.78,182.43,82.55,187.47,82,190.2ZM168.47,184a.81.81,0,0,0-1.36.89l7.33,11.28a.8.8,0,0,0,.68.37.9.9,0,0,0,.44-.13.82.82,0,0,0,.24-1.13Zm-15-21.57a.81.81,0,0,0-.24,1.12l7.68,11.82a.82.82,0,0,0,.68.37.78.78,0,0,0,.44-.13.8.8,0,0,0,.24-1.12l-7.68-11.83A.8.8,0,0,0,153.49,162.4Zm32.55.06a.8.8,0,0,0-1.14.09.81.81,0,0,0,.1,1.15l11,9.21a.8.8,0,0,0,.52.19.81.81,0,0,0,.52-1.43ZM147.6,206.85a3.43,3.43,0,1,1-3.43-3.43A3.43,3.43,0,0,1,147.6,206.85Zm-1.63,0a1.8,1.8,0,1,0-1.8,1.8A1.8,1.8,0,0,0,146,206.85Zm41.41-22.59a.8.8,0,0,1-.06,1.14.82.82,0,0,1-.54.21.83.83,0,0,1-.6-.26l-7.39-8.21a7.69,7.69,0,0,0-5.59-1.69,12.4,12.4,0,0,0-6.12,2.35c.13,1.31.24,4.81-1.94,7.41-1.65,2-4.18,3-7.56,3a21.5,21.5,0,0,1-2.33-.14l-.69-.08v-.71c0-.1.13-10.43,11.38-10.61a14.08,14.08,0,0,1,7.2-2.8A10,10,0,0,1,176,174l-9.39-10.42a.81.81,0,1,1,1.21-1.09l7.27,8.07a9.77,9.77,0,0,1,1.21-4,3.39,3.39,0,0,1-.53-1.8,3.46,3.46,0,1,1,1.75,3c-.61,1.29-1.51,3.9.08,5.66ZM165.55,179a33.82,33.82,0,0,0-4.82,5,.79.79,0,0,1-.64.31.82.82,0,0,1-.63-1.32,36.58,36.58,0,0,1,4.21-4.52,8.85,8.85,0,0,0-7.48,8.09c3.6.29,6.2-.5,7.73-2.33A8.1,8.1,0,0,0,165.55,179Zm11.85-14.19a1.8,1.8,0,1,0,1.8-1.81A1.81,1.81,0,0,0,177.4,164.76Zm-20,42.25a.81.81,0,0,1-.43,1.06.85.85,0,0,1-.31.06.8.8,0,0,1-.75-.49l-2.7-6.36a100.15,100.15,0,0,0-8.39-8.38,19.61,19.61,0,0,1-2.25.15h0c-11.82,0-12.23-12.93-12.24-13.06l0-1,.94.13c13.63,1.78,14.61,10.49,14.64,12.52,2.13,1.89,4,3.7,5.45,5.19l-6-14.17h0l-8.2-19.32a.8.8,0,0,1,.43-1.06.81.81,0,0,1,1.06.43l6.56,15.45a9.15,9.15,0,0,1,2.75-3.87,3.42,3.42,0,1,1,.86,1.42c-1.1,1-3.22,3.36-2,6.32l7.84,18.46h0Zm-8-33.69a1.81,1.81,0,1,0,1.81-1.8A1.81,1.81,0,0,0,149.4,173.32Zm-6.27,18.09a78.09,78.09,0,0,0-6.7-5.12.81.81,0,0,1,.91-1.35,81,81,0,0,1,6.81,5.21c-.54-2.73-2.79-7.7-12.09-9.23a15.84,15.84,0,0,0,1.38,4.88,9.43,9.43,0,0,0,9.15,5.63h0Zm-10.67,10.3c-3.41,0-6.05-1-7.81-3a9.11,9.11,0,0,1-2.15-5c0-.34-.06-.64-.07-.92a6.12,6.12,0,0,0-4-.28c-3.14,1-4.36,5-4.53,5.64v19.15a.82.82,0,0,1-.82.81.81.81,0,0,1-.81-.81v-23.5a4.59,4.59,0,0,0-1-2.66,8.73,8.73,0,0,1-3.46.76h0c-2.79,0-5.48-1.52-7.77-4.41a19.42,19.42,0,0,1-2.59-4.29l-.39-.92,1-.19a30.21,30.21,0,0,1,5.28-.53c3.67,0,6.3,1,7.8,2.91a6.11,6.11,0,0,1,1.09,2.2V163.08a.82.82,0,0,1,.81-.82.82.82,0,0,1,.82.82v15.07a15.79,15.79,0,0,1,4.28-4,3.41,3.41,0,1,1,.23,1.82c-1.57,1.13-4.51,3.69-4.51,7h0v10.91h0v.45a7.6,7.6,0,0,1,4-3.29,7.72,7.72,0,0,1,5.33.43,11,11,0,0,1,2.22-.25c6.18,0,8.6,6.27,9,9.59l.11.85-.86.06c-.45,0-.89,0-1.32,0Zm-12.68-27.1a1.8,1.8,0,1,0,1.8-1.8A1.81,1.81,0,0,0,119.78,174.61Zm-11.9,15.69a7.3,7.3,0,0,0,2.3-.41,12.86,12.86,0,0,0-2-1.46,21.91,21.91,0,0,0-4.27-2,.82.82,0,0,1-.52-1,.81.81,0,0,1,1-.52,21.8,21.8,0,0,1,6.46,3.54,5.09,5.09,0,0,0-1-2.91c-1.18-1.52-3.37-2.28-6.51-2.28a26.11,26.11,0,0,0-3.93.33C100.54,185.58,103.49,190.3,107.88,190.3Zm24.58,9.79h.3a13.61,13.61,0,0,0-1.21-3.33q-2-3.76-5.66-4a25.51,25.51,0,0,1,3,2.29.81.81,0,1,1-1.07,1.21,23,23,0,0,0-3.66-2.69,7.48,7.48,0,0,0,1.61,3.89C127.17,199.22,129.43,200.09,132.46,200.09ZM52.71,128.73l7.45-17.92c1.55-3.73,5.72-6.66,9.49-6.66a5.18,5.18,0,0,1,4.5,2.19,5.9,5.9,0,0,1,.23,5.6l-7.84,18.72a9.39,9.39,0,0,1-9.1,5.86,5.2,5.2,0,0,1-4.5-2.18A5.92,5.92,0,0,1,52.71,128.73Zm2.7,4a2.36,2.36,0,0,0,2,.87,6.45,6.45,0,0,0,6.36-4l7.84-18.72a3.06,3.06,0,0,0,0-2.82,2.36,2.36,0,0,0-2-.86c-2.57,0-5.67,2.21-6.75,4.82l-7.45,17.93A3,3,0,0,0,55.41,132.69Zm73.39-21.1L121,130.31a9.39,9.39,0,0,1-9.11,5.86,5.31,5.31,0,0,1-4.06-1.64l-8.9,21.39a1.47,1.47,0,0,1-1.37.92,1.69,1.69,0,0,1-.57-.11,1.5,1.5,0,0,1-.8-1.94l7.55-18.16a10.87,10.87,0,0,1-3.84.68,5.2,5.2,0,0,1-4.5-2.18,5.92,5.92,0,0,1-.23-5.61h0L103,110.8a3,3,0,0,0,0-2.82,2.34,2.34,0,0,0-2-.86c-2.44,0-5.34,2-6.56,4.41,0,.13-.1.27-.16.41l-7.83,18.72-2.06,5a1.5,1.5,0,0,1-1.37.91,1.44,1.44,0,0,1-.57-.11,1.49,1.49,0,0,1-.8-1.94l2.06-4.95h0L91.4,111.1a.75.75,0,0,1,.09-.29c.05-.13.11-.25.17-.37a2.85,2.85,0,0,0-.1-2.46,2.36,2.36,0,0,0-2-.86c-2.57,0-5.66,2.21-6.75,4.82l-7.45,17.93h0L73,135.61a1.5,1.5,0,0,1-1.37.91,1.41,1.41,0,0,1-.57-.11,1.48,1.48,0,0,1-.8-1.94l2.38-5.74L80,110.81l.06-.14a1.87,1.87,0,0,1,.07-.22c.61-1.46.45-2.69-.41-3.28a1.48,1.48,0,1,1,1.67-2.45,4.6,4.6,0,0,1,1.66,2,10.41,10.41,0,0,1,6.44-2.6,5.18,5.18,0,0,1,4.5,2.19,4,4,0,0,1,.32.57,10.44,10.44,0,0,1,6.63-2.76,5.17,5.17,0,0,1,4.49,2.19,5.9,5.9,0,0,1,.23,5.6l-7.83,18.72h0a3,3,0,0,0,0,2.82,2.35,2.35,0,0,0,2,.86,6.45,6.45,0,0,0,6.36-4,1.3,1.3,0,0,1,.29-.43l.62-1.5,7.45-17.93c.06-.15.14-.31.21-.46.4-1.26.2-2.29-.57-2.82a1.48,1.48,0,1,1,1.66-2.45,4.53,4.53,0,0,1,1.57,1.83,10.48,10.48,0,0,1,6.62-2.75,5.18,5.18,0,0,1,4.5,2.18A6,6,0,0,1,128.8,111.59Zm-2.7-4a2.37,2.37,0,0,0-2-.86c-2.4,0-5.26,1.92-6.51,4.31-.06.17-.12.34-.19.51a1.92,1.92,0,0,1-.18.31l-7.32,17.61h0a3.06,3.06,0,0,0,0,2.82,2.34,2.34,0,0,0,2,.86,6.44,6.44,0,0,0,6.37-4l7.84-18.71A3.09,3.09,0,0,0,126.1,107.63Zm89.49,23.24c-2.53,3.4-9.82,5.65-13.52,5.65a7.89,7.89,0,0,1-6.43-3.46c-1.09-1.67-2-4.6-.06-9l3.63-8.72a5.27,5.27,0,0,1,.19-.51,1.4,1.4,0,0,1,.09-.17l1.59-3.82c1.55-3.73,5.72-6.66,9.5-6.66a5.18,5.18,0,0,1,4.49,2.19,5.9,5.9,0,0,1,.23,5.6l-2,4.69h0a9.61,9.61,0,0,1-9.21,6,5.33,5.33,0,0,1-4.05-1.63l-1.76,4.22c-1.12,2.57-1.18,4.73-.19,6.24a5,5,0,0,0,3.95,2.13c3.41,0,9.43-2.17,11.15-4.46a1.48,1.48,0,1,1,2.37,1.77Zm-13.49-12.1a2.34,2.34,0,0,0,2,.86,6.64,6.64,0,0,0,6.47-4.14h0l2-4.69a3.06,3.06,0,0,0,0-2.82,2.34,2.34,0,0,0-2-.86c-2.58,0-5.67,2.21-6.76,4.82L202,116.37A2.79,2.79,0,0,0,202.1,118.77ZM194.75,108a3.19,3.19,0,0,1-.32,2.37l-8.29,19.94a3,3,0,0,0,0,2.82,2.34,2.34,0,0,0,2,.86,7.23,7.23,0,0,0,4-1.07,1.48,1.48,0,0,1,1.61,2.49,10.28,10.28,0,0,1-5.58,1.55,5.18,5.18,0,0,1-4.49-2.18,5.89,5.89,0,0,1-.23-5.61l8.4-20.21,0-.06a.38.38,0,0,0,0-.1.92.92,0,0,0-.24-.16l-.06,0-6.47-3.42-10.76,25.9a9.39,9.39,0,0,1-9.12,5.86,5.18,5.18,0,0,1-4.49-2.18c-.08-.13-.16-.26-.23-.4a9.81,9.81,0,0,1-6.6,2.32,5.18,5.18,0,0,1-4.47-2.16,9.7,9.7,0,0,1-7.1,2.79,5.2,5.2,0,0,1-4.5-2.18,4.38,4.38,0,0,1-.34-.64,9.93,9.93,0,0,1-6.25,2,5.2,5.2,0,0,1-4.5-2.18,6,6,0,0,1-.23-5.61L134,110.81c1.55-3.73,5.72-6.66,9.5-6.66a5.31,5.31,0,0,1,4,1.63l.68-1.63a1.48,1.48,0,0,1,2.74,1.14l-2.54,6.1c-.06.18-.12.37-.2.55l-7.84,18.72h0a3.12,3.12,0,0,0,0,2.82,2.37,2.37,0,0,0,2,.86,6.45,6.45,0,0,0,6.37-4l.06-.12a8.19,8.19,0,0,1,.42-1.3L156.64,111c1.55-3.73,5.72-6.65,9.49-6.65a5.33,5.33,0,0,1,4.1,1.68l7.56-18.19a1.48,1.48,0,0,1,2.74,1.14l-9.68,23.29a2.14,2.14,0,0,1-.17.3l-7.41,17.69a.64.64,0,0,0,0,.07,3.06,3.06,0,0,0,0,2.82,2.35,2.35,0,0,0,2,.86,6.45,6.45,0,0,0,6.37-4l12.92-31.06a1.48,1.48,0,1,1,2.73,1.14l-1,2.41,6.68,3.53A3.16,3.16,0,0,1,194.75,108Zm-49.44,3.16a.83.83,0,0,1,.06-.21l.25-.59a2.8,2.8,0,0,0-.13-2.36,2.34,2.34,0,0,0-2-.86c-2.58,0-5.67,2.21-6.76,4.82l-7.45,17.93a3,3,0,0,0,0,2.82,2.36,2.36,0,0,0,2,.87,6.45,6.45,0,0,0,6.36-4Zm22.81-.18a3.09,3.09,0,0,0,0-2.82,2.37,2.37,0,0,0-2-.86c-2.57,0-5.67,2.21-6.75,4.82L151.93,130a3.09,3.09,0,0,0-.05,2.83,2.37,2.37,0,0,0,2,.86,6.45,6.45,0,0,0,6.37-4Zm-125.8,27.6c-2.47,2.48-8.78,6-16.23,6a22.79,22.79,0,0,1-10.93-2.77c-4.85-2.61-8.3-7.21-10-13.29-2.54-9.25-.54-20.6,5.33-30.37a38.1,38.1,0,0,1,17-15.55A32.37,32.37,0,0,1,49.43,81h0A14.49,14.49,0,0,1,59,99.13a11.91,11.91,0,0,1-11.35,8.34,11.69,11.69,0,0,1-3.53-.54,9.8,9.8,0,0,1-6.44-12.29,8.06,8.06,0,0,1,2.68-3.93,1.52,1.52,0,0,1,1.9,2.37,5.07,5.07,0,0,0-1.69,2.47A6.78,6.78,0,0,0,45,104a8.87,8.87,0,0,0,11.09-5.81A11.46,11.46,0,0,0,48.6,83.9c-13.78-3.74-27.38,2.31-35.48,15.78-5.46,9.07-7.33,19.54-5,28,1.44,5.26,4.37,9.21,8.48,11.42,10.36,5.58,20.91,0,23.58-2.69,4.85-4.85,5.47-11.55,1.51-16.31a9.26,9.26,0,0,0-6.37-3.28,8.63,8.63,0,0,0-5.39,1.38,9.68,9.68,0,0,1-1.83,7.7c-.91,1.13-4.54,4.83-13,4.83h-.34l-1.17,0,.28-1.13c1.27-5.2,4.55-13.9,12.22-13.9a9.28,9.28,0,0,1,1.92.2,11.5,11.5,0,0,1,7.57-2.06A12.27,12.27,0,0,1,44,118.17C49,124.08,48.23,132.66,42.32,138.56ZM28.15,119.68a40.79,40.79,0,0,0-4.5,4.5,1.52,1.52,0,0,1-2.37-1.89A45.8,45.8,0,0,1,26,117.57c-4.43.06-7.94,4-10,11.25,2.41-.12,7.93-.75,10.62-4.1A7.42,7.42,0,0,0,28.15,119.68ZM151.88,81A1.73,1.73,0,0,0,155,79.52a49.32,49.32,0,0,0-89.37,0A1.72,1.72,0,0,0,67.2,82a1.72,1.72,0,0,0,1.57-1,45.87,45.87,0,0,1,83.11,0Z"/></svg>