<svg id="Capa_1" data-name="Capa 1" xmlns="http://www.w3.org/2000/svg" viewBox="0 0 173 226"><defs><style>.cls-1{fill:#fff;}</style></defs><path class="cls-1" d="M118.87,34.3c2.08-5.86,4.23-11.67,3.13-18A12.39,12.39,0,0,0,119.68,11c-1-1.29-.72-1.7.93-1.83a7.16,7.16,0,0,1,7,4.52,13.38,13.38,0,0,1,1,3.52c.06.54-.06,1.32.62,1.48s1-.54,1.33-1a34.56,34.56,0,0,1,7.3-6.24c.48-.34,1-.91,1.94-.45-2.24,3.07-3.56,6.69-6.61,9.13-1.1.88-2.81,1.94-2.48,3.15s2.27.39,3.49.47a6.06,6.06,0,0,1,4.58,2.11,2.6,2.6,0,0,1,.42,2.73c-.42,1-1.32.45-2.06.43a14.65,14.65,0,0,0-13.41,7.23,19,19,0,0,0-2.83,12.76c.5,4.18,2.37,7.56,6.55,9.28a5.9,5.9,0,0,0,5,0c1.25-.58,2.54-.78,3.6.24a3.6,3.6,0,0,1,.73,3.61,10.7,10.7,0,0,1-3.63,5.57c-1.13,1-.89,1.52.28,2.28,7.64,5,19.56,1.34,22.34-7.92.69-2.3,1.48-4.52,1.32-7-.05-.69.29-1.65-.31-2s-1.22.5-1.74.9a9.39,9.39,0,0,1-4,1.79,6.65,6.65,0,0,1-8.16-5.44c-.74-3.46.36-6.44,2.93-8,3.38-2,7.52-1.74,10.1.52,3.35,2.95,4.3,6.9,4.69,11.08a28.11,28.11,0,0,1-1.9,12.3c-.84,2.3-.13,3.32,2.35,3.45a7.54,7.54,0,0,0,1.16,0c2.19-.22,2.8.6,2,2.71a4.65,4.65,0,0,1-4.84,3.09c-1.14,0-1.49.34-1.48,1.41,0,7.46-.07,14.93.08,22.39.09,4.61,2.47,7.73,7,9.12.91.28,1.9.48,2.4,1.47a2.71,2.71,0,0,1-1.59,3.87c-2.58,1-5.22,1.86-6.59,4.64a12.16,12.16,0,0,0-1.23,5.4c0,11.78,0,23.56,0,35.34,0,1.11.78,1.78,1.18,2.63,1.19,2.59,2.9,1.93,4.94,1.56a6.59,6.59,0,0,1,7.1,3.21c.39.6.79,1.22-.42,1.25-2.64.08-4.43,1.65-5.93,3.54A26,26,0,0,1,153,180c-4,1.43-7.31,4.07-10.38,6.92-5.43,5-10.22,10.67-15.2,16.14-8.83,9.7-19.14,17-32.57,18.77-7,.92-13.59-.12-19.54-4.16a4.93,4.93,0,0,0-2.84-1c-8,0-13.51-4.14-17.47-10.77a47.84,47.84,0,0,1-3.69-8.47c-.15-.41-.12-.92-.78-1.15-.59.89-.39,2-.52,2.93a32.08,32.08,0,0,0,.15,11.31,14,14,0,0,0,3.14,5.89c.35.42,1.09.7.78,1.4s-1,.7-1.66.77c-2.8.29-4.82-1-6.43-3.16a10.33,10.33,0,0,1-1.58-3.08c-.14-.4,0-1-.58-1.11s-.81.54-1.07,1a31.31,31.31,0,0,1-5.38,6.54c-.52.49-1,1.23-2.21,1,1.61-3.08,2.49-6.39,4.6-9.11.16-.2.35-.38.5-.58.65-.88,1.73-1.91,1.23-2.85s-1.73,0-2.65.12a5.9,5.9,0,0,1-4.87-1.3,2.24,2.24,0,0,1-.78-2.09c.17-1,1.05-.78,1.71-.89C44,201.5,48,193.62,47.2,185.56a13.58,13.58,0,0,0-2.7-7.31c-2.73-3.44-6.18-4.29-10.13-2.27-2.16,1.11-3.89.15-4-2.25a9,9,0,0,1,2.16-6.43c1-1.25.62-1.65-.65-2.14a14.16,14.16,0,0,0-19.15,12.68,18.81,18.81,0,0,0,.6,6.51c.28.94.68,1.24,1.35.25a23,23,0,0,1,1.64-2.15,5.88,5.88,0,0,1,6.08-2c2.44.59,3.54,2.44,4.07,4.68a7.38,7.38,0,0,1-3.76,8.33,7.13,7.13,0,0,1-8.38-1.23c-3.31-3.05-4.57-7.1-5.12-11.36a25.82,25.82,0,0,1,.46-8.26c.48-2.43-.72-3.46-3.15-2.77a1.06,1.06,0,0,1-.19.06c-.79.06-1.57,1.25-2.24.49s-.45-2.09-.1-3.14c.85-2.58,2.87-3.62,5.66-2.78,1.29.39,1.71.21,1.71-1.21,0-12.23,0-24.46,0-36.69a49.37,49.37,0,0,0-.33-5,8,8,0,0,0-5.08-7c-.89-.38-1.79-.72-2.69-1.07A2.48,2.48,0,0,1,1.5,111a2.41,2.41,0,0,1,1.9-2.37,12.87,12.87,0,0,0,5.21-2.82c2.52-2.38,2.65-5.53,2.7-8.59.13-7.72,0-15.45,0-23.17a2.78,2.78,0,0,0-.61-2c-5-5.55-5.46-12.15-4.21-19A29.13,29.13,0,0,1,15.1,37c2.94-2.86,6.07-5.55,8.41-9a13.32,13.32,0,0,0,2.64-8.47c0-.61-.3-1.4.38-1.77s1.38.12,1.94.53c2.77,2,2.61,4.83,2.17,7.69-.37,2.35-.46,2.38,1.81,1.73,5.76-1.67,10.77-4.85,15.8-8s9.89-6.49,15.13-9.27a59.17,59.17,0,0,1,20.94-6.3A33.39,33.39,0,0,1,101.2,6C110.42,9.8,115.73,16.73,117,26.7,117.27,29.28,117.2,32,118.87,34.3Zm-10.13,178c-6.71-.24-11.35-3.17-14.53-8.43-4-6.68-.56-16.17,6.64-18.23,3.9-1.11,7.91,0,10,2.83a4.11,4.11,0,0,1-.47,5.58,3.93,3.93,0,0,1-5.25-.38,4,4,0,0,1,.59-5.69c.29-.26.89-.28.82-1a8.18,8.18,0,0,0-8.34,3.66c-2,2.88-2.58,6.09-1,9.12,3.46,6.54,8.91,9.34,16.24,6.78A25.47,25.47,0,0,0,124,199.68c5.74-6.25,11-12.94,17.73-18.23.8-.63.79-1.13-.27-1.44a18,18,0,0,1-4.34-1.57,4.2,4.2,0,0,1-1.34-5.76,4,4,0,0,1,5.19-1.6,4.13,4.13,0,0,1,2.23,5.3c-.22.58-.79,1-.67,1.72.39.33.77.14,1.13,0,7.1-1.89,9.31-10.2,4.22-15.89-1.22-1.36-1.11-1.66.61-2.18,1.95-.59,3.43.37,5.07,1.73v-3.07c0-11.39,0-22.78,0-34.17,0-4.76.91-9.26,5-12.39.79-.6.94-1.17.07-1.82-4.25-3.21-5.13-7.78-5.13-12.72,0-7.14,0-14.29,0-21.43,0-2-.25-2.18-1.92-1.28C147,77.46,142,77.55,137,76.51c-10.63-2.19-16-9.79-18.8-19.43a36,36,0,0,1-.89-16.63c.15-.83.08-1.38-.93-1.48-3.12-.32-5.32-2.1-7-4.57-.46-.67-.74-.78-1.48-.22-2,1.52-4.15.85-5.06-1.51a28.89,28.89,0,0,1-.79-2.88c-.58.36-1,.69-1.54,1a4.81,4.81,0,0,1-5.85-.84c-1.39-1.44-1.19-2.16.69-2.66,5-1.32,8.15-4.43,9-9.51.54-3.43-.23-5.21-3-6.54C95.62,8.45,89.73,8.43,83.74,9.06c-1.54.17-3.2,0-4.62.81.06.19.06.28.1.3a11.14,11.14,0,0,0,1.16.66A16.09,16.09,0,0,1,87.09,17c4.56,7.19,2.23,15.46-5.39,19.22-4.53,2.24-10.94,0-12.42-4.38-.75-2.19-.1-4,1.77-4.91a3.76,3.76,0,0,1,4.89,1.39,4.06,4.06,0,0,1-1.28,5.28c-.34.24-1,.31-.85.88s.71.47,1.15.54c4.82.78,9.92-3.33,10.25-8.27.54-8.1-7.84-14.54-16.13-12.65-6,1.37-10.91,4.79-15.89,8.07C46.56,26.59,39.81,30.67,32,32.72c-.33.08-.82.08-.8.7a11.48,11.48,0,0,1,1.31,1c1,1.1,2,2.24,1.71,3.91-.23,1.29-.78,1.91-2.1,1a11.64,11.64,0,0,0-3.48-1.62c-9.2-2.45-16.28,5.74-17.46,11.93-.87,4.6,1.43,8.15,5.29,8.92,1.15.23,2.39.3,2.75,1.71a3.51,3.51,0,0,1-1.44,3.56A12.76,12.76,0,0,1,13.94,66c-.62.26-1.12.5-1,1.37.34,3.58,5,8.22,8.75,8.53A9.71,9.71,0,0,1,21,72.52a5.07,5.07,0,0,1,4.79-4.92,5.29,5.29,0,0,1,5.46,4.47,5.07,5.07,0,0,1-3.68,5.79,15.83,15.83,0,0,1-9.85-.61c-1.94-.77-2-.74-2,1.38,0,6.62.06,13.26,0,19.88-.07,4.61-1.28,8.79-5.24,11.7-.68.49-1,1.05-.18,1.69,4.6,3.48,5.5,8.39,5.47,13.75-.07,11.52,0,23,0,34.57,0,2.27,0,2.24,2.09,1.4,6.36-2.58,12.67-2.59,18.84.58,6,3.07,9.45,8.29,12,14.31,2.15,5.07,3.33,10.41,4.78,15.68,1.53,5.56,3.47,10.92,7.26,15.41a15,15,0,0,0,9.06,5.16,31.73,31.73,0,0,1-4.86-10.37c-.86-3-2-5.86-5.14-7.33-.64-.3-.67-.76-.08-1.16,3.64-2.46,8.07-2.59,10.85,1.19,1.33,1.82,2,1.75,3.67.73a10.43,10.43,0,0,1,12.53.85c1.93,1.74,1.88,2.08-.46,3.22a11.07,11.07,0,0,0-6.39,12,5,5,0,0,0,4,4.64,27.21,27.21,0,0,0,11.67.38A41.5,41.5,0,0,0,108.74,212.25Z"/><path class="cls-1" d="M114.35,125.36c2.27.49,4,.8,5.74,1.25,6,1.58,11.43,4.29,15.39,9.32,7,8.93,5.87,26.74-11.73,30.9a53.59,53.59,0,0,1-12.23,1.57q-26.35,0-52.7,0c-.87,0-2.34.45-2.36-.88s1.49-1,2.43-1.09c.64-.07,1.29,0,1.93-.09,5.31-.56,7.65-2.9,7.7-8.25.1-12.17,0-24.33.06-36.49,0-1.8-1-1.93-2.34-1.93-10.43,0-20.86,0-31.28,0-1.21,0-3.36.77-3.46-.9-.11-2,2.12-1.12,3.37-1.37.88-.18,1.79-.17,2.68-.33,3.66-.63,5.51-2.61,5.89-6.33a29.69,29.69,0,0,0,.08-3.27q0-24.43,0-48.85c0-1.22,0-2.45-.06-3.67-.23-3.5-1.94-5.34-5.42-6a34,34,0,0,0-4-.34c-1-.07-2.63.47-2.63-1.1,0-1.75,1.71-1.16,2.73-1.17,9.65,0,19.31,0,29,0,.39,0,.77,0,1.16,0,.73,0,1.53.13,1.57,1.06S65,48.57,64.2,48.59a17.15,17.15,0,0,0-6.27.89A6,6,0,0,0,54.08,54a18.62,18.62,0,0,0-.48,4.21q0,24.53,0,49a36.26,36.26,0,0,0,.43,5c.43,3,2.49,4.82,5.89,5.06,2.24.16,4.5.08,6.75.13,1.29,0,1.88-.56,1.88-1.86,0-5.09.09-10.17-.07-15.25-.15-4.57-2.17-6.59-6.72-7.13-1.21-.15-2.44-.07-3.66-.14-.76,0-1.73,0-1.7-1.08s1-.83,1.64-.89A94.59,94.59,0,0,1,67.88,91c5.65.07,11.31.1,17-.15,5.2-.22,10.42.13,15.63.19,2.59,0,2.77-.27,2.25-2.81a20,20,0,0,0-2-5.81,9.38,9.38,0,0,0-3-3.5c-.68-.44-1.44-1.09-2.3-.66S95,79.61,95,80.34c0,3.43-1.77,5.46-5,5.73a5.2,5.2,0,0,1-5.63-4.19,5.59,5.59,0,0,1,4.07-6.72c4.67-1.41,10.63.76,13.49,4.89a21.27,21.27,0,0,1,3.26,8.8c.28,1.67,1.11,2.22,2.73,2.25,5.75.11,11.45.65,16.84,2.84,9,3.65,12.82,13.83,8.14,21.82-2.49,4.24-6.61,6.36-11.14,7.74C119.52,124.18,117.2,124.65,114.35,125.36Zm-35.68,15.1h0c0,6.11-.06,12.23,0,18.34.08,5.18,2.29,7.52,7.44,7.54,8.88,0,17.79.72,26.62-.41s13.37-5,14.76-12.8a29.91,29.91,0,0,0-.07-10.55c-1.18-6.57-5.07-10.93-11.07-13.6-5-2.23-10.28-2.33-15.54-1.76a21.34,21.34,0,0,0-9.66,3.67c-.57.39-1.27.9-1,1.7s1.09.49,1.69.54c2.54.24,4,1.35,4.69,3.62a5.92,5.92,0,0,1-3.65,7.35,6,6,0,0,1-7.53-3.64,8.61,8.61,0,0,1,.55-6.73c1.78-4,5.33-5.79,9.12-7.21,4.62-1.74,9.51-2.19,14.32-3,3.83-.69,7.61-1.73,10.55-4.41,4.18-3.8,4.73-8.82,4.11-14a11.28,11.28,0,0,0-6.08-8.87c-3.41-1.9-7.13-2.51-10.92-2.93-.86-.09-1.1.3-1.08,1.13.1,3.54.12,7.08.22,10.62.15,5.39,1.51,10.09,7.24,12.2.69.26,1.29.73,1.08,1.6s-.88.86-1.54.89-1.29,0-1.93,0H81.25c-2.49,0-2.58.1-2.58,2.64Q78.66,131.39,78.67,140.46Zm0-32.75h0v7.72c0,.95.08,1.88,1.34,1.92,5.41.15,10.74-.24,15.36-3.41,6.94-4.77,7.77-12.11,7.91-19.67a1.1,1.1,0,0,0-1.22-1.2c-5.72,0-11.46-.49-17.14.28-4.24.57-6.08,2.91-6.22,7.23C78.63,103,78.69,105.33,78.69,107.71Z"/></svg>