<svg id="Capa_1" data-name="Capa 1" xmlns="http://www.w3.org/2000/svg" viewBox="0 0 250 69"><defs><style>.cls-1{fill:#fff;}</style></defs><path class="cls-1" d="M33.55,1.36a33.14,33.14,0,1,0,33,33.18A33.19,33.19,0,0,0,33.55,1.36Zm9.8,10.43c0,.48-.07.79-.31,1l-.94.15c-2.9.39-3.14.79-3.14,6.83V40.34c0,3.85-.15,8.08-1.33,10.9-2.12,5-6.35,8.16-11.22,8.16-2.27,0-2.74-.78-2.74-1.49,0-1.18.94-2.9,2.35-2.9a6.77,6.77,0,0,1,2.12.31,9.06,9.06,0,0,0,2.27.4,2.1,2.1,0,0,0,2-1.26c1-2.12,1.42-8.78,1.42-13.8v-21c0-6.28-.63-6.51-3.53-6.83l-1.49-.07-.08-.08a1,1,0,0,1-.32-.87v-.31h15Z"/><path class="cls-1" d="M82.49,25.83a1,1,0,0,0-.31.71V39.48a3.3,3.3,0,0,1-.32,1.26,2.14,2.14,0,0,1-.7.94,2.78,2.78,0,0,1-1,.62,3.22,3.22,0,0,1-2.43-.07,2.38,2.38,0,0,1-1-.71,4.37,4.37,0,0,1-.63-1,3.07,3.07,0,0,1-.24-1.18.82.82,0,0,0-.31-.7,1,1,0,0,0-.7-.32.85.85,0,0,0-.71.32,1.23,1.23,0,0,0-.24.7,4.72,4.72,0,0,0,.47,2.12,6.42,6.42,0,0,0,1.18,1.65,5.54,5.54,0,0,0,3.61,1.41A5.5,5.5,0,0,0,81,44.11a4.54,4.54,0,0,0,1.65-1,6.15,6.15,0,0,0,1.17-1.65,5.51,5.51,0,0,0,.48-2.27V26.54a1.41,1.41,0,0,0-.32-.71A1.1,1.1,0,0,0,82.49,25.83Z"/><path class="cls-1" d="M103.82,28.26a9.11,9.11,0,0,0-3-2,9.28,9.28,0,0,0-7.38,0,9.71,9.71,0,0,0-5,5,8.36,8.36,0,0,0-.78,3.68,9.77,9.77,0,0,0,.71,3.69,9.25,9.25,0,0,0,2,3.06,9.09,9.09,0,0,0,3,2A8.84,8.84,0,0,0,97,44.5a8.94,8.94,0,0,0,3.77-.78,9.28,9.28,0,0,0,3-2,9.12,9.12,0,0,0,2-3.06,8.21,8.21,0,0,0,.79-3.69,9.59,9.59,0,0,0-2.83-6.67Zm.55,6.75a7.66,7.66,0,0,1-2.11,5.33A6.36,6.36,0,0,1,99.9,42a7.48,7.48,0,0,1-5.8,0,6.25,6.25,0,0,1-2.35-1.65,8.47,8.47,0,0,1-1.57-2.43,7,7,0,0,1,0-5.8,7.57,7.57,0,0,1,1.57-2.35,6.25,6.25,0,0,1,2.35-1.65,7.45,7.45,0,0,1,2.9-.63,7.15,7.15,0,0,1,2.9.63,7.87,7.87,0,0,1,2.36,1.65,8.23,8.23,0,0,1,1.56,2.35A7.2,7.2,0,0,1,104.37,35Z"/><path class="cls-1" d="M113.71,29.76a6.25,6.25,0,0,1,2.35-1.65,6.87,6.87,0,0,1,5.57-.08A7.68,7.68,0,0,1,124,29.6a1.08,1.08,0,0,0,1.41-.08.76.76,0,0,0,.32-.71,1,1,0,0,0-.32-.78,16.41,16.41,0,0,0-3-1.8,9.34,9.34,0,0,0-7.14.07,9.13,9.13,0,0,0-3,2,8.08,8.08,0,0,0-2,3,8.66,8.66,0,0,0-.79,3.69,9.76,9.76,0,0,0,.79,3.69,9.65,9.65,0,0,0,2,3,9.28,9.28,0,0,0,3,2,8.58,8.58,0,0,0,3.69.78,18.58,18.58,0,0,0,3.53-.47,9.42,9.42,0,0,0,2.9-1.8,1.42,1.42,0,0,0,.32-.79,1.25,1.25,0,0,0-.32-.78,1,1,0,0,0-1.41,0,9.75,9.75,0,0,1-2.35,1.49,7.64,7.64,0,0,1-5.57-.08,7.83,7.83,0,0,1-2.35-1.65A8.47,8.47,0,0,1,112.14,38a8.88,8.88,0,0,1-.55-2.9,7.37,7.37,0,0,1,.55-2.9A7.07,7.07,0,0,1,113.71,29.76Z"/><path class="cls-1" d="M129,25.83a.84.84,0,0,0-.31.71V43.48a.84.84,0,0,0,.31.71,1,1,0,0,0,.71.31,1.23,1.23,0,0,0,.7-.24,1.05,1.05,0,0,0,.32-.7v-17a.8.8,0,0,0-.32-.71A1.08,1.08,0,0,0,129,25.83Z"/><path class="cls-1" d="M133.63,34.77l7.21-7.37a1,1,0,0,0,.24-.63,1.08,1.08,0,0,0-.24-.7,1,1,0,0,0-1.41,0l-7.84,8a.76.76,0,0,0-.32.7.82.82,0,0,0,.32.71l8.55,8.71a.76.76,0,0,0,.7.31.6.6,0,0,0,.55-.31.76.76,0,0,0,.32-.71,1,1,0,0,0-.24-.71Z"/><path class="cls-1" d="M154.33,42.3H147.2V35.87H153a1.42,1.42,0,0,0,.71-.31.78.78,0,0,0,.31-.71.85.85,0,0,0-.31-.7.86.86,0,0,0-.71-.32h-5.8v-6h6.9a1,1,0,0,0,.7-.31.76.76,0,0,0,.32-.71,1,1,0,0,0-.32-.7.75.75,0,0,0-.7-.32h-7.92a1.09,1.09,0,0,0-.71.24.75.75,0,0,0-.31.7V43.24a1.15,1.15,0,0,0,.31.71.76.76,0,0,0,.71.31h8.15A1.48,1.48,0,0,0,155,44a.78.78,0,0,0,.31-.71,1,1,0,0,0-.31-.7A.76.76,0,0,0,154.33,42.3Z"/><path class="cls-1" d="M170.8,25.76a.89.89,0,0,0-.78-.16,1,1,0,0,0-.63.47l-4.7,9.49L159.9,26a1.09,1.09,0,0,0-.7-.39,1.14,1.14,0,0,0-.71.16,1,1,0,0,0-.47.54,1,1,0,0,0,.08.79L163.51,38v5.57a1.08,1.08,0,0,0,.31.7,1.26,1.26,0,0,0,.71.24,2.35,2.35,0,0,0,.86-.24,1,1,0,0,0,.31-.7V38l5.49-10.9a1.1,1.1,0,0,0,.08-.71A1.18,1.18,0,0,0,170.8,25.76Zm-5.93,18.07h0l0,0Z"/><path class="cls-1" d="M179.27,25.52h-3.21V43.79h1.17V35.17h2A6.26,6.26,0,0,0,183.35,34a4.73,4.73,0,0,0,1.49-3.61,4.92,4.92,0,0,0-1.65-3.76A5.37,5.37,0,0,0,179.27,25.52Zm3.3,7.53a4.43,4.43,0,0,1-3.22,1V34h-2.12V26.62h1.89a5,5,0,0,1,3.21.7,3.77,3.77,0,0,1,1.41,3A3.58,3.58,0,0,1,182.57,33.05Z"/><polygon class="cls-1" points="191.59 25.52 190.41 25.52 190.41 43.79 196.21 43.79 196.21 42.7 191.59 42.7 191.59 25.52"/><path class="cls-1" d="M199.35,43.72h1.18l2.43-6h8l2.43,6h1.18L207,24.89Zm11.22-7.06h-7.14L207,27.87Z"/><polygon class="cls-1" points="218.96 25.52 218.96 26.7 229 26.7 217.86 43.79 230.72 43.79 230.72 42.7 230.72 42.62 219.9 42.62 231.04 25.52 218.96 25.52"/><path class="cls-1" d="M242,24.89l-7.61,18.83h1.18l2.43-6h8l2.43,6h1.17Zm-3.61,11.77L242,27.87l3.53,8.79Z"/></svg>