<svg id="Capa_1" data-name="Capa 1" xmlns="http://www.w3.org/2000/svg" viewBox="0 0 250 52"><defs><style>.cls-1{fill:#fff;}</style></defs><path class="cls-1" d="M141.71,4c-2.22-.06-3.84.73-5.74,3.31L113.54,37.74,104.91,8c-.9-3-2.86-4-4.66-4C97.51,4,96.13,5.14,94.7,7.7L74.93,47.38H86L99.36,20l8.36,27.35H117l20.2-27.2-.1,27.2h9.48l-.07-38.12C146.46,5.57,144.08,4.08,141.71,4Z"/><polygon class="cls-1" points="61.63 11.06 52.71 47.38 62.81 47.38 71.6 11.06 61.63 11.06"/><path class="cls-1" d="M44.4,21.41c.55-4.82-2.26-10.35-12.33-10.35H12.56L3.76,47.38h10l3.3-13.64H22.2l8.87,13.64H42L32,32.92C40.85,30.73,43.85,26.23,44.4,21.41ZM25.69,27.57H18.55l2.66-10.95h7.55c4,0,6.08,1.87,5.69,5.31S30.55,27.57,25.69,27.57Z"/><path class="cls-1" d="M188.11,47.38h9.59l-9.13-33.46c-1.2-3.81-3.57-4.82-6-4.62-1.54.13-3.15.78-4.81,3l-24,35.09h9.82L168.42,40h17.84ZM172.55,33.87l8.82-13.26,3.35,13.26Z"/><path class="cls-1" d="M228.16,40.66c-8.11-.12-12.74-4.69-12.08-10.5.9-7.86,8.07-12.65,18.12-12.57a43.56,43.56,0,0,1,10.26,1.12l1.78-7.28a55.81,55.81,0,0,0-10.85-1.2c-17.23,0-28.16,8-29.5,19.76-1.19,10.48,6.22,18,22.18,18a58.94,58.94,0,0,0,9.94-.9l1.93-8A38.13,38.13,0,0,1,228.16,40.66Z"/></svg>