<svg id="Capa_1" data-name="Capa 1" xmlns="http://www.w3.org/2000/svg" xmlns:xlink="http://www.w3.org/1999/xlink" viewBox="0 0 250 89"><defs><style>.cls-1{fill:#fff;}.cls-2{clip-path:url(#clip-path);}.cls-3{clip-path:url(#clip-path-2);}.cls-4{clip-path:url(#clip-path-3);}.cls-5{clip-path:url(#clip-path-4);}.cls-6{clip-path:url(#clip-path-5);}.cls-7{clip-path:url(#clip-path-6);}.cls-8{clip-path:url(#clip-path-7);}</style><clipPath id="clip-path"><path class="cls-1" d="M165.94-284.81c-.05,2.11-.12,2.61-.43,3.29a7.86,7.86,0,0,1-5.31,3.92c-2.41.5-5.3-.15-6.26-1.42a4.28,4.28,0,0,1,.85-5.77c1.13-.76,2.28-1.15,6-2.08,1.79-.46,3.69-1,4.19-1.23l.91-.41S166-286.18,165.94-284.81Zm-7.84-20.73c-6.58.61-11,4.16-11.7,9.51a1,1,0,0,0,.85,1.1h5.87a1,1,0,0,0,1-.82l0-.14c.58-2.3,1.94-3.19,4.86-3.5,2.62-.25,5.07.38,6,1.56a3.39,3.39,0,0,1,.37,3.59c-.49,1-2.24,1.52-7.19,2.31-4,.63-6.07,1.18-8.06,2.14a8.84,8.84,0,0,0-5.32,9.27,9,9,0,0,0,3.09,6.53,13.21,13.21,0,0,0,4.94,2.26,21.92,21.92,0,0,0,6.86,0,9.59,9.59,0,0,0,5.62-3.39,2.25,2.25,0,0,1,.51-.62c.07,0,.15.4.22.88a11.91,11.91,0,0,0,.46,1.8l.1.25a1,1,0,0,0,1,.67h5.9a1,1,0,0,0,1-1v-.08c0-.46-.09-.5-.11-.95s-.19-4.38-.19-9.85c0-5-.09-9.95-.17-11-.41-4.7-2.43-7.75-6.13-9.33A23.68,23.68,0,0,0,158.1-305.54Z"/></clipPath><clipPath id="clip-path-2"><path class="cls-1" d="M195.16-305.44a9.54,9.54,0,0,0-5,2.71c-.65.66-1.41,1.49-1.66,1.81l-.47.6v-3.52a1,1,0,0,0-1-1h-6.51a1,1,0,0,0-1,1v30.67a1,1,0,0,0,1,1h6.67a1,1,0,0,0,1-1v-8.79c0-10.69,0-11.1,1-12.85a7,7,0,0,1,2.91-2.81,4.61,4.61,0,0,1,2.69-.48,5.09,5.09,0,0,1,2.6.41,5.25,5.25,0,0,1,3,4.15c.11.67.17,5.09.17,11.24v9.13a1,1,0,0,0,1,1h6.52a1,1,0,0,0,1-1h0l0-11.1,0-10.38v-.9a9.85,9.85,0,0,0-3.43-7,8.54,8.54,0,0,0-2.66-2A12.77,12.77,0,0,0,195.16-305.44Z"/></clipPath><clipPath id="clip-path-3"><path class="cls-1" d="M231.76-298.95c3,.62,5.06,2.38,6.1,6a16.84,16.84,0,0,1,.44,4.45,12.77,12.77,0,0,1-1.4,6.37,7.21,7.21,0,0,1-5.7,4.18,7.76,7.76,0,0,1-6.4-1.75c-2.25-2.07-3.41-6.08-3-10.35A11.36,11.36,0,0,1,223-294.7,7.41,7.41,0,0,1,231.76-298.95Zm-5.06-6.49a17,17,0,0,0-8.92,4.63c-5.91,5.89-6.53,16.38-1.36,23.15,3.51,4.61,9,6.89,15.34,6.35a16.32,16.32,0,0,0,10.17-4.57,16.47,16.47,0,0,0,4.54-8,20.11,20.11,0,0,0,0-9.22,16.59,16.59,0,0,0-8.68-10.88A18.92,18.92,0,0,0,226.7-305.44Z"/></clipPath><clipPath id="clip-path-4"><path class="cls-1" d="M117.35-296.38v23.22a1,1,0,0,0,1,1h6.67a1,1,0,0,0,1-1V-316.7a1,1,0,0,0-1-1h-6.67a1,1,0,0,0-1,1Z"/></clipPath><clipPath id="clip-path-5"><path class="cls-1" d="M131.9-296.38v23.22a1,1,0,0,0,1,1h6.68a1,1,0,0,0,1-1V-327a1,1,0,0,0-1-1h-6.68a1,1,0,0,0-1,1Z"/></clipPath><clipPath id="clip-path-6"><path class="cls-1" d="M98.9-298.84a6.6,6.6,0,0,1,5,5,6,6,0,0,1,.24,1.32v.48H97c-5.84,0-7.19,0-7.19-.22a10.82,10.82,0,0,1,2.11-4.66C93.35-298.57,96.3-299.39,98.9-298.84Zm-4.61-6.62A15.93,15.93,0,0,0,81.56-292.9,21.4,21.4,0,0,0,82-282.31c2.48,7.63,9,11.71,17.73,11,5.17-.41,9.68-3.15,11.75-7.14a16,16,0,0,0,.83-2.12h0a1,1,0,0,0-.66-1.3,1.13,1.13,0,0,0-.32,0H104.9a1,1,0,0,0-1,.65l0,.1a5.29,5.29,0,0,1-3.58,3,10.7,10.7,0,0,1-2.52.25A6.94,6.94,0,0,1,92-280.3a10.14,10.14,0,0,1-2.09-4.13c-.17-.71-.32-1.36-.32-1.44s5.32-.14,11.85-.14h10.74a1,1,0,0,0,1-1v0l0-.94c-.39-7.59-3.52-13.37-8.69-16.06A17.39,17.39,0,0,0,94.29-305.46Z"/></clipPath><clipPath id="clip-path-7"><path class="cls-1" d="M75.6-304.93a14.88,14.88,0,0,0-1.53.53,11.7,11.7,0,0,0-3.5,3.53l-.9,1.37,0-2.69,0-1.66a1,1,0,0,0-1-1H62.23a1,1,0,0,0-1,1v30.67a1,1,0,0,0,1,1h6.66a1,1,0,0,0,1-1l0-8.28,0-9.29.48-1.37A7.52,7.52,0,0,1,77-297.34a10,10,0,0,1,2.06-.08.71.71,0,0,0,.81-.61.34.34,0,0,0,0-.1v-6.44a.51.51,0,0,0-.42-.51l-.11,0A11.22,11.22,0,0,0,75.6-304.93Z"/></clipPath></defs><path class="cls-1" d="M165.94-284.81c-.05,2.11-.12,2.61-.43,3.29a7.86,7.86,0,0,1-5.31,3.92c-2.41.5-5.3-.15-6.26-1.42a4.28,4.28,0,0,1,.85-5.77c1.13-.76,2.28-1.15,6-2.08,1.79-.46,3.69-1,4.19-1.23l.91-.41S166-286.18,165.94-284.81Zm-7.84-20.73c-6.58.61-11,4.16-11.7,9.51a1,1,0,0,0,.85,1.1h5.87a1,1,0,0,0,1-.82l0-.14c.58-2.3,1.94-3.19,4.86-3.5,2.62-.25,5.07.38,6,1.56a3.39,3.39,0,0,1,.37,3.59c-.49,1-2.24,1.52-7.19,2.31-4,.63-6.07,1.18-8.06,2.14a8.84,8.84,0,0,0-5.32,9.27,9,9,0,0,0,3.09,6.53,13.21,13.21,0,0,0,4.94,2.26,21.92,21.92,0,0,0,6.86,0,9.59,9.59,0,0,0,5.62-3.39,2.25,2.25,0,0,1,.51-.62c.07,0,.15.4.22.88a11.91,11.91,0,0,0,.46,1.8l.1.25a1,1,0,0,0,1,.67h5.9a1,1,0,0,0,1-1v-.08c0-.46-.09-.5-.11-.95s-.19-4.38-.19-9.85c0-5-.09-9.95-.17-11-.41-4.7-2.43-7.75-6.13-9.33A23.68,23.68,0,0,0,158.1-305.54Z"/><g class="cls-2"><rect class="cls-1" x="-103.28" y="-425.69" width="451.1" height="507.74"/></g><path class="cls-1" d="M195.16-305.44a9.54,9.54,0,0,0-5,2.71c-.65.66-1.41,1.49-1.66,1.81l-.47.6v-3.52a1,1,0,0,0-1-1h-6.51a1,1,0,0,0-1,1v30.67a1,1,0,0,0,1,1h6.67a1,1,0,0,0,1-1v-8.79c0-10.69,0-11.1,1-12.85a7,7,0,0,1,2.91-2.81,4.61,4.61,0,0,1,2.69-.48,5.09,5.09,0,0,1,2.6.41,5.25,5.25,0,0,1,3,4.15c.11.67.17,5.09.17,11.24v9.13a1,1,0,0,0,1,1h6.52a1,1,0,0,0,1-1h0l0-11.1,0-10.38v-.9a9.85,9.85,0,0,0-3.43-7,8.54,8.54,0,0,0-2.66-2A12.77,12.77,0,0,0,195.16-305.44Z"/><g class="cls-3"><rect class="cls-1" x="-103.28" y="-425.69" width="451.1" height="507.74"/></g><path class="cls-1" d="M231.76-298.95c3,.62,5.06,2.38,6.1,6a16.84,16.84,0,0,1,.44,4.45,12.77,12.77,0,0,1-1.4,6.37,7.21,7.21,0,0,1-5.7,4.18,7.76,7.76,0,0,1-6.4-1.75c-2.25-2.07-3.41-6.08-3-10.35A11.36,11.36,0,0,1,223-294.7,7.41,7.41,0,0,1,231.76-298.95Zm-5.06-6.49a17,17,0,0,0-8.92,4.63c-5.91,5.89-6.53,16.38-1.36,23.15,3.51,4.61,9,6.89,15.34,6.35a16.32,16.32,0,0,0,10.17-4.57,16.47,16.47,0,0,0,4.54-8,20.11,20.11,0,0,0,0-9.22,16.59,16.59,0,0,0-8.68-10.88A18.92,18.92,0,0,0,226.7-305.44Z"/><g class="cls-4"><rect class="cls-1" x="-103.28" y="-425.69" width="451.1" height="507.74"/></g><path class="cls-1" d="M117.35-296.38v23.22a1,1,0,0,0,1,1h6.67a1,1,0,0,0,1-1V-316.7a1,1,0,0,0-1-1h-6.67a1,1,0,0,0-1,1Z"/><g class="cls-5"><rect class="cls-1" x="-103.28" y="-425.69" width="451.1" height="507.74"/></g><path class="cls-1" d="M131.9-296.38v23.22a1,1,0,0,0,1,1h6.68a1,1,0,0,0,1-1V-327a1,1,0,0,0-1-1h-6.68a1,1,0,0,0-1,1Z"/><g class="cls-6"><rect class="cls-1" x="-103.28" y="-425.69" width="451.1" height="507.74"/></g><path class="cls-1" d="M98.9-298.84a6.6,6.6,0,0,1,5,5,6,6,0,0,1,.24,1.32v.48H97c-5.84,0-7.19,0-7.19-.22a10.82,10.82,0,0,1,2.11-4.66C93.35-298.57,96.3-299.39,98.9-298.84Zm-4.61-6.62A15.93,15.93,0,0,0,81.56-292.9,21.4,21.4,0,0,0,82-282.31c2.48,7.63,9,11.71,17.73,11,5.17-.41,9.68-3.15,11.75-7.14a16,16,0,0,0,.83-2.12h0a1,1,0,0,0-.66-1.3,1.13,1.13,0,0,0-.32,0H104.9a1,1,0,0,0-1,.65l0,.1a5.29,5.29,0,0,1-3.58,3,10.7,10.7,0,0,1-2.52.25A6.94,6.94,0,0,1,92-280.3a10.14,10.14,0,0,1-2.09-4.13c-.17-.71-.32-1.36-.32-1.44s5.32-.14,11.85-.14h10.74a1,1,0,0,0,1-1v0l0-.94c-.39-7.59-3.52-13.37-8.69-16.06A17.39,17.39,0,0,0,94.29-305.46Z"/><g class="cls-7"><rect class="cls-1" x="-103.28" y="-425.69" width="451.1" height="507.74"/></g><path class="cls-1" d="M75.6-304.93a14.88,14.88,0,0,0-1.53.53,11.7,11.7,0,0,0-3.5,3.53l-.9,1.37,0-2.69,0-1.66a1,1,0,0,0-1-1H62.23a1,1,0,0,0-1,1v30.67a1,1,0,0,0,1,1h6.66a1,1,0,0,0,1-1l0-8.28,0-9.29.48-1.37A7.52,7.52,0,0,1,77-297.34a10,10,0,0,1,2.06-.08.71.71,0,0,0,.81-.61.34.34,0,0,0,0-.1v-6.44a.51.51,0,0,0-.42-.51l-.11,0A11.22,11.22,0,0,0,75.6-304.93Z"/><g class="cls-8"><rect class="cls-1" x="-103.28" y="-425.69" width="451.1" height="507.74"/></g><path class="cls-1" d="M7.19,69.36a7.8,7.8,0,0,0-.63.87c0,.22.12.32.3.32l.48-.09a3.15,3.15,0,0,0,.51.07,1,1,0,0,0,.51-.13,14.76,14.76,0,0,0,4.46.42c4,0,6.42-.3,7.33-.92.78.11,1.74-.63,2.88-2.25a7.31,7.31,0,0,0,1.58-3.56,6.1,6.1,0,0,0-.07-.69,4.69,4.69,0,0,1-.08-.66l-.27-.39a1.77,1.77,0,0,0-.16-1,4.17,4.17,0,0,0-.49-1l-.6-.06c.07-.38-.33-.88-1.23-1.5l-1.92-1.08-.87,0-.14-.21,0-.15c1.72-.52,2.73-1.17,3-1.94a2.08,2.08,0,0,0,1-1.53l.18-.12a4.2,4.2,0,0,0,.24-1.32,8.22,8.22,0,0,0-1.1-2.93l-3.26-1.95a7.77,7.77,0,0,0-3.6-1.07s-.24,0-.66.06a1.79,1.79,0,0,1-.72-.15l-.62.17-.3-.14-1.74-.06a5.36,5.36,0,0,0-1.62.12,8.68,8.68,0,0,0-1.22-.21,2.82,2.82,0,0,0-1.14.29l-.06.25.09.29c.81.19,1.23.8,1.23,1.86a3.92,3.92,0,0,1-.27,1.44c.19.17.27,1,.2,2.39a26.23,26.23,0,0,0,0,2.9c.29.15.3.34.06.57l.28.36-.21.21a44.75,44.75,0,0,0-.27,6A13.72,13.72,0,0,0,8.53,66c-.27,1.13-.45,2-.53,2.63A3.17,3.17,0,0,0,7.19,69.36ZM21,68a5.92,5.92,0,0,1-2.27.27.79.79,0,0,0-.51-.15l-.54.06,0-.18.44-.36q2.55,0,2.76,0l.15.15Zm.89-1.08a6.59,6.59,0,0,1-2.45-.15l.09-.54a6.49,6.49,0,0,1,2.61,0l.09.21Zm.81-1.53-2.3.18c-.08,0-.17,0-.28-.18a.48.48,0,0,1-.17-.32q0-.54,1.92-.54a3.06,3.06,0,0,1,.83.06l.21.24Zm.31-2.3a.65.65,0,0,1,.12.45L23,63.7l-2.28.12q-.45,0-.57-.69a2.08,2.08,0,0,1,1.29-.33A4.41,4.41,0,0,1,23,63.07Zm-.27-.9a6.49,6.49,0,0,1-2.76-.24l-.09-.63a5.41,5.41,0,0,1,2.67.1Zm-.9-1.91-.12.3-1.23.15a1.71,1.71,0,0,1-.61-.14,1.66,1.66,0,0,0-.58-.13l-.31,0a1.45,1.45,0,0,0,0,.3,3.37,3.37,0,0,0,.3,1.07A2.08,2.08,0,0,1,19.37,63l.33.81a6.12,6.12,0,0,0-.39,1.41,2.72,2.72,0,0,0-.44.56,1.53,1.53,0,0,1-.52.55l-.57.89a14.77,14.77,0,0,1-4.06.45.44.44,0,0,1-.49-.51c0-.12,0-.57-.08-1.35a5.64,5.64,0,0,1,0-1.34A10.65,10.65,0,0,1,13,61.87c0-1.73.12-2.63.39-2.69l.35.15a14.45,14.45,0,0,1,4.14.39l.81.75.2-.07.24-.68a6.74,6.74,0,0,0,2.37.09A1.24,1.24,0,0,0,21.8,60.26ZM9.89,61.1a5.28,5.28,0,0,1,1.07.14,7.06,7.06,0,0,0,.84.16l0,.56a10.28,10.28,0,0,1-2.66-.15l-.07-.08C9.1,61.3,9.36,61.1,9.89,61.1Zm-.7-1.23q0-.24.54-.24a1.85,1.85,0,0,1,.35,0,1.31,1.31,0,0,0,.34,0l.51-.06a4.21,4.21,0,0,1,.57-.06q.45,0,.45.3a1.14,1.14,0,0,1-.12.42l-1.05.08C9.72,60.51,9.19,60.32,9.19,59.87Zm1.29,2.81,1.32.09a.74.74,0,0,1,.18.41,2.17,2.17,0,0,0-.24.4h-1a4.24,4.24,0,0,0-1-.18q-.63-.09-.63-.54A4.51,4.51,0,0,1,10.48,62.68Zm1.32-3.83-1.38.09q-1.32,0-1.32-.51a.75.75,0,0,1,.09-.33q.51-.18.78-.3a4.16,4.16,0,0,0,1,.09,2,2,0,0,1,1,.16l0,.08Zm-.51-1.8a1.79,1.79,0,0,0-.45.21h-1a2.07,2.07,0,0,0-.65-.3l-.07-.33a1.53,1.53,0,0,1,.9-.19,1.89,1.89,0,0,0,.87-.11,6,6,0,0,0,2.34.42,1.21,1.21,0,0,0,.48-.06l.62.1a5.5,5.5,0,0,0,1.14-.19,5.19,5.19,0,0,1,1.14-.17l.42,0a1.13,1.13,0,0,0,.45,0l.18.15a14.34,14.34,0,0,1-4.13.63.44.44,0,0,0-.28-.12,1,1,0,0,0-.33.09.81.81,0,0,1-.29.09A5.65,5.65,0,0,1,11.29,57.05Zm-2-1.82a5.06,5.06,0,0,1,2.7.12l0,.15-.21.2a3.13,3.13,0,0,1-.53-.05,3.58,3.58,0,0,0-.52-.07l-.46.08a3.71,3.71,0,0,1-.62.07c-.34,0-.51-.1-.51-.32Zm-.09-1a.78.78,0,0,1,.09-.48l.6.09.51-.24a3.42,3.42,0,0,1,.83.17,3.59,3.59,0,0,0,.81.16l-.05.36a4.56,4.56,0,0,1-1,.15,7.18,7.18,0,0,0-1,0A3.15,3.15,0,0,0,9.22,54.18Zm11,4.73,0,.18a13,13,0,0,1-2.36-.18,2.22,2.22,0,0,0-1-.69.55.55,0,0,1-.54.09l-.06-.09,0-.12.27-.08.33.08,0,.12.09,0a4,4,0,0,1,1.62-.2Zm-.93-3c-1-.07-1.55-.2-1.61-.43.1-.25.42-.38,1-.38a11.6,11.6,0,0,0,1.37.15l0,.06C20,55.48,19.78,55.69,19.28,55.89Zm1.56-1.5q-1.41.09-1.71.09l-.44-.21-.06-.12.2-.33q1.86-.27,2-.27a1.05,1.05,0,0,1,.51.09l0,.12Zm.81-1.8-1.14.33a4.62,4.62,0,0,1-.72-.18c-.42,0-.67-.07-.75-.33l.27-.44a2.7,2.7,0,0,1,.33-.13,2,2,0,0,0,1,.09,1.48,1.48,0,0,1,.93.24Zm-.51-1.88.15.54a3.27,3.27,0,0,1-1,.17,1.46,1.46,0,0,1-1-.17c-.47,0-.71-.2-.71-.6l.2-.28,1.8,0Zm-.72-1.14-1.35.17-1.16-.26-.27-.33v-.21C19.39,49,20.32,49.21,20.42,49.57Zm-5.54-1.8a9.4,9.4,0,0,0,1.59,0,2.77,2.77,0,0,1,1.46.18,1.43,1.43,0,0,0-.45.12,1.29,1.29,0,0,1-.47.12q-.39,0-2.22-.24Zm-2.43,2,.43-.09a2.27,2.27,0,0,1,1.44-.41c-.06,0,.53,0,1.75,0a8.75,8.75,0,0,0,1,.27l.45.45c.2.32.38.61.51.87a5,5,0,0,1,.52,1.83,3.33,3.33,0,0,0-.33,1.1q-.63.78-1.08,1.26-.84.45-1.23.69a3.34,3.34,0,0,0-.66.27c-.19,0-.43.05-.69.1a4,4,0,0,1-.5.08q-.39,0-.81-.9a.55.55,0,0,0,.12-.3,6.6,6.6,0,0,0-.11-1,6.52,6.52,0,0,1-.1-1c0-1.61,0-2.66-.06-3.14l-.27-.19L12.4,50l0-.09ZM9.37,48l.67-.27.32.09.48-.15L12,48l0,.12q-.21.48-1.11.48c-.1,0-.63-.06-1.58-.18l-.06-.21Zm1.07,1.15a3.21,3.21,0,0,0,1.12-.1.77.77,0,0,1,.5.48,1.37,1.37,0,0,1-1,.3,7.26,7.26,0,0,1-1.74-.27l-.06-.21A2.5,2.5,0,0,1,10.44,49.19ZM9.7,50.44a5.46,5.46,0,0,0,2,0L12,51a.64.64,0,0,1-.21.47,11.28,11.28,0,0,1-1.92-.08l-.3.12-.44-.12,0-.6Zm-.53,1.94a1,1,0,0,0,.4-.13,1,1,0,0,1,.4-.14h1.24a1.51,1.51,0,0,1,.83.27l0,.21L11,53l-.66-.24a1.47,1.47,0,0,1-.69.12q-.6,0-.6-.27A.36.36,0,0,1,9.17,52.38ZM9.31,64.3a1.63,1.63,0,0,0,.58-.12l.56,0q.42-.06.51.12l1,.12L12,65a2.68,2.68,0,0,1-1,.15,3,3,0,0,0-1,.12,2.27,2.27,0,0,0-.8-.34l-.1-.21A.57.57,0,0,1,9.31,64.3Zm-.38,1.85a2.41,2.41,0,0,1,1-.21,2.72,2.72,0,0,0,.94-.14c.76.16,1.17.3,1.22.41l-.35.51a4.51,4.51,0,0,1-.84,0,2.08,2.08,0,0,0-1.11.13L9,66.39l0-.06Zm3,1.65,0,.18L10,68.34,9,68q0-.57,1.41-.57Q11.59,67.38,11.89,67.8ZM9,69H10.3l.33,0h.12l1.74,0c.78,0,1.36,0,1.76,0a6.84,6.84,0,0,0,1-.11,6.3,6.3,0,0,1,1-.1,5.25,5.25,0,0,1,1.08.16,5.36,5.36,0,0,0,1.07.17c-.16.2-1,.3-2.51.3a4.69,4.69,0,0,1-.66-.08,4.32,4.32,0,0,0-.66-.07c-.46,0-1.16,0-2.09,0s-1.64,0-2.1,0c-.14,0-.34.19-.6.59l-.15-.08-.15-.45-.66-.12Z"/><path class="cls-1" d="M33.39,69.78l.29.83a16,16,0,0,0,2.67-.11c.88-.1,1.75-.21,2.63-.33l.09-.24-.11-.6-.46-.27A8,8,0,0,1,39,66.39c.09-.18.44-1,1.08-2.51.9,0,2.24,0,4-.11s3.14-.1,4-.1c.36,0,.87.66,1.54,2a7.74,7.74,0,0,1,1,2.65,1.23,1.23,0,0,1-.69,1l-.21.63c.5.42,2.15.62,5,.62a17,17,0,0,0,3.47-.23L58.5,70a1.11,1.11,0,0,0-.36-.55l-.54-.43a9.32,9.32,0,0,1-2.42-3.41,30.9,30.9,0,0,0-2-3.75c-.54-1.31-1-2.5-1.55-3.56q-1.44-3.18-3.42-7.3c-1.1-2.34-1.8-3.8-2.12-4.4A2.56,2.56,0,0,1,45,46.55l-.57.2a3.89,3.89,0,0,0-2-.14,3.65,3.65,0,0,1-1.15-.18,3.9,3.9,0,0,1-1.23.24l-.06.08.27.55a3.73,3.73,0,0,1,2,2.93l-.19.54.16.36c-1.72,4.76-2.95,8-3.69,9.72A36.72,36.72,0,0,1,33.39,69.78Zm3-.6a5.07,5.07,0,0,1-.54-.05l-.45,0-.06,0,0-.09,0-.18.81-.45a7.5,7.5,0,0,0,1,.15Q37.25,69.18,36.38,69.18Zm.27-1.73L36.43,67l.28-.27a1,1,0,0,1,.53,0c.12.06.19.22.19.48A.89.89,0,0,1,36.65,67.45Zm.65-1.69-.15-.14v-.18a1,1,0,0,1,.72-.45.43.43,0,0,1,.22.06C38.09,65.48,37.82,65.73,37.3,65.76Zm1.23-1.55a.34.34,0,0,1-.27-.15.48.48,0,0,1-.21.06.11.11,0,0,1-.12-.12q0-.27.51-.51a1.27,1.27,0,0,0,.39.18ZM54.92,69a.72.72,0,0,1-.52.09l-3-.19a1.23,1.23,0,0,1,1.14-.59l1.38-.06,1.17.27A.64.64,0,0,1,54.92,69Zm-.52-1.65-.06.15a8.07,8.07,0,0,1-1.62.12c-1,0-1.49-.15-1.49-.45a.63.63,0,0,1,.05-.21,5.76,5.76,0,0,1,1.35-.12Q54.4,66.87,54.4,67.38ZM53.05,65a.75.75,0,0,1,.39.63c0,.23-.32.35-1,.35.14,0-.44,0-1.76-.14a.83.83,0,0,1-.27-.54.26.26,0,0,1,.08-.19l.7,0a2.41,2.41,0,0,0,.54,0,3.5,3.5,0,0,0,.68-.27l.33.15Zm-.39-1c-.06.14-.32.22-.77.24a4,4,0,0,0-.9.12l-1.38-.36a4.64,4.64,0,0,1,.12-.45,2.85,2.85,0,0,1,1.05-.15,4.38,4.38,0,0,1,1.79.3Zm-1.8-3.15,0,.25-2.52.12c-.16,0-.24-.11-.24-.3s.08-.34.24-.34h2.21C50.64,60.64,50.75,60.74,50.86,60.91Zm-.59-1.37a.32.32,0,0,1-.34.27l-.5-.06-.36.15q-.75-.34-1,0l-.47-.3-.13-.27q.15-.39.39-.36l2.13.21ZM49.52,58l-.06.27-.12.09H47.18c-.16,0-.27-.11-.36-.33a.34.34,0,0,1,.12-.18l2.28-.15A2.83,2.83,0,0,1,49.52,58Zm-6.11-3,.57-.68c1.94,3.79,2.91,5.93,2.94,6.4a1.31,1.31,0,0,0-1.23.19,3,3,0,0,0-1.26-.24l-.81,0c-.36,0-.63,0-.8,0a3.06,3.06,0,0,1-1.21-.2,11.12,11.12,0,0,0,1.11-2.85,4.08,4.08,0,0,0,.53-1.3A3.26,3.26,0,0,0,43.41,54.92Zm4.91,1c.3,0,.45.19.45.62a1.89,1.89,0,0,1-1.32.39c-.73,0-1.19-.21-1.34-.62l.12-.27ZM48.11,55l-.15.2H46c-.44-.39-.66-.64-.66-.74a2.55,2.55,0,0,0,.81-.09l1.82.27Zm-.78-1.56c-1,.08-1.62.14-1.82.18l-.33-.29c-.4,0-.6-.09-.6-.31a2.48,2.48,0,0,1,0-.33l.33.18h.38a.94.94,0,0,1,.61-.18l1.1.18C47.29,53.06,47.4,53.25,47.33,53.43Zm-.93-2.12c.08.26.13.41.13.44a1.78,1.78,0,0,1-.48.12,6.53,6.53,0,0,1-1.77.06,1.5,1.5,0,0,1-.33-.18l-.24.09c-.62-.12-1-.23-1.05-.35l.13-.45c1.19-.12,1.85-.18,2-.18A2.49,2.49,0,0,1,46.4,51.31Zm-1.13-1.77q0,.51-.3.51h-.24l-.06,0-.3-.09-.09,0a1.12,1.12,0,0,0-.6-.21c-.34-.07-.55-.15-.63-.27s.25-.21.57-.27l.66-.06.54.12Q45.27,49.45,45.27,49.54Zm-2.61-1.47h1.89q.42,0,.42.3l-.15.12-2.22-.12-.09-.12Zm-.51,4.65a1.31,1.31,0,0,1,.84.08.67.67,0,0,1-.48.72L42,53A.58.58,0,0,1,42.15,52.72Zm-.62,1.91a.7.7,0,0,1,.5-.24q.24,0,.24.18a.45.45,0,0,1-.24.35h-.5l0-.14ZM41.29,56c.24,0,.33.11.3.36s-.26.36-.66.36a.64.64,0,0,1-.18-.45A.78.78,0,0,1,41.29,56Zm-.45,1.67.09.15-.45.66-.12,0a1.91,1.91,0,0,1-.12-.51C40.24,57.67,40.43,57.59,40.84,57.62Zm-.79,1.77a.22.22,0,0,1,.22.15l0,.18-.51.18-.18-.18A.56.56,0,0,1,40.05,59.39Zm-.32,1,.18.8-.18,0-.57-.12L39.1,61Zm-1.17,1.88q1.47-.18,1.65-.57a.67.67,0,0,0,.72.45H44.7A2.89,2.89,0,0,0,45.81,62l0-.63H46l.15.12,0,.42c.25.25,1.09.36,2.51.36.46,0,1.06,0,1.8,0l1.28,0,.09.15-.09.33a4,4,0,0,1-.53.3,1.35,1.35,0,0,0-.93-.15L50,62.65a3.87,3.87,0,0,1-.48,0,7.51,7.51,0,0,1-1.39-.17,9.56,9.56,0,0,0-1.37-.16c-.23,0-.6,0-1.11.08s-.87.07-1.13.07l-4.79-.12a1,1,0,0,1-1,.21l-.15-.21Z"/><path class="cls-1" d="M88.34,49a5.89,5.89,0,0,0-.09-1.08l-.15-.12a1.62,1.62,0,0,0-1.1.48,3.5,3.5,0,0,1-1,.66,9.67,9.67,0,0,1-2.64-1.37,4.74,4.74,0,0,0-3-.87l-.54-.36-.21.12-.51-.15-.54.15a1.71,1.71,0,0,0-.65-.12c-.13,0-.45,0-1,.09a3.26,3.26,0,0,1-1,0c-.13.05-.93.35-2.39.87a9.81,9.81,0,0,0-2.27,1.1,7.29,7.29,0,0,0-.78.75,2.43,2.43,0,0,1-.84.66,17.42,17.42,0,0,0-1.66,2.78,20.33,20.33,0,0,1-1.6,2.76,3.07,3.07,0,0,1-.39,1.89l.27,1.1-.15.48c.26,1.16.51,2.32.75,3.47a10.28,10.28,0,0,0,1,2.64,12.55,12.55,0,0,0,2.36,2.72,5.36,5.36,0,0,0,1.89,1.23l.17.3.39.18.22.33c1.67.6,2.6.91,2.81,1a7.16,7.16,0,0,0,2.16.37,17.63,17.63,0,0,0,3-.37,6.81,6.81,0,0,0,2.75-.89c1.2-.14,2.52-1,4-2.63A15.54,15.54,0,0,0,90.35,63a1.13,1.13,0,0,0-.6-.9l-1.8.21a2.79,2.79,0,0,1-.93-.15,7.3,7.3,0,0,0-1,1.47,5.27,5.27,0,0,1-1,1.35A13.56,13.56,0,0,1,82.89,66c-.73.29-1.48.6-2.21.92a3.58,3.58,0,0,0-.6-.06,9.73,9.73,0,0,0-1.26.15,4.53,4.53,0,0,1-1.28.06l-.33-.27a4.51,4.51,0,0,1-2-.74,20.43,20.43,0,0,0-1.83-1v-.24A9.27,9.27,0,0,1,71.89,62a8.84,8.84,0,0,1-.67-3.11l0-1.38.21-.26a5.2,5.2,0,0,1-.09-1,5.71,5.71,0,0,1,2.39-4.53,7.57,7.57,0,0,1,4.91-1.85,8.32,8.32,0,0,1,5.15,1.74,47.58,47.58,0,0,1,4,3.89h.15a2.33,2.33,0,0,0,.27-1.26,6,6,0,0,1,.18-1.4,5.78,5.78,0,0,1-.15-1.38c0-.29,0-.7.06-1.24S88.34,49.25,88.34,49Zm-19.22,3.2a13.27,13.27,0,0,1,1.8.1c0,.59-.18.86-.48.8a1.67,1.67,0,0,0-1.11,0l-.39-.15-.09-.42A1.48,1.48,0,0,1,69.12,52.17Zm-1.47,2.07.42-.27A10.08,10.08,0,0,1,70,53.79q.15,0,.27.27L70,55H68.64c-.69,0-1-.17-1-.45A.74.74,0,0,1,67.65,54.24ZM67.5,55.8l.19-.07a2.66,2.66,0,0,0,1.12.11A2.47,2.47,0,0,1,69.9,56l-.18.72a8.68,8.68,0,0,1-1.28.14,1.43,1.43,0,0,1-1.11-.35ZM67.24,58l.12-.16a2,2,0,0,0,.47-.15,1.31,1.31,0,0,0,.7.06l.71-.09a.79.79,0,0,1,.45.12.57.57,0,0,1-.21.58.89.89,0,0,1-.63.23.49.49,0,0,1-.15-.48l-.12-.08-.32.38-.76.06-.2-.15Zm.09,1.58a5.85,5.85,0,0,1,1.43-.21,1.62,1.62,0,0,1,.93.21,1.29,1.29,0,0,1,.06.36c0,.49-.45.68-1.38.53l-.26.12a2.31,2.31,0,0,1-.66-.34A1.53,1.53,0,0,1,67.33,59.6Zm.6,2.24-.1-.33a4.33,4.33,0,0,1,2.22,0,.93.93,0,0,0,.06.21c0,.14-.18.24-.68.3a3.43,3.43,0,0,1-1,0C68.21,62,68,61.88,67.93,61.84Zm.53,1.32.07-.15,1.37-.15.93.32.06.25-1.47.24-.89-.24Zm9.05,6.23-.12-.06.32-.15,1.74.15Zm2.84,0-.09-.06.12,0,.06.09ZM87.69,63l.56.14,0,.28a1.12,1.12,0,0,1-1,.21l-.08-.24A5.85,5.85,0,0,1,87.69,63Zm-.55,1.53.33.17,0,.07a2.93,2.93,0,0,1-.69.6l-.54-.12a1.17,1.17,0,0,1-.27.15.9.9,0,0,1-.24-.12A1.31,1.31,0,0,1,87.14,64.57Zm-2.72,1.79L86,66.21l.18.18-.63.45-.33-.12a.77.77,0,0,1-.27.12l-.78-.21Zm-10.18,1.5,1.35-.09a8,8,0,0,1,1.17-.06l1.46.39a16,16,0,0,1,4.58-.45,3,3,0,0,1,1,.33c-.14.26-.65.42-1.52.48a5.83,5.83,0,0,1-1.77-.06,5.62,5.62,0,0,1-1.17.09,28.26,28.26,0,0,0-3.11,0A6,6,0,0,1,73.37,68v-.24l.27.12.43-.09Zm-.53-1.5,0,.33-.57.09a2.15,2.15,0,0,1-1.25.21l0,0h0c-.52-.3-.79-.48-.81-.57l.09-.09a1,1,0,0,1,.57.09l1-.11C73.29,66.24,73.6,66.26,73.71,66.36Zm-2.34-1.94.47.29c.26.42.4.65.4.66L72,65.5s-.54-.09-1.5-.21c-.66-.09-1.07-.27-1.23-.58v-.27ZM70,51.37l-.12-.19v-.11L70,50.8q.54-.24.63-.48l.69,0a2.83,2.83,0,0,1,.69,0,2,2,0,0,1,.66.15A3.11,3.11,0,0,1,70,51.37Zm6.7-2.76-.17.21a5.37,5.37,0,0,0-1.46.3,11,11,0,0,1-3.42.39l-.06,0a2.42,2.42,0,0,1,2.06-.81h1.71a3.88,3.88,0,0,0,1.62-.36l0,.21Zm4.5.21L81,48.7c.16-.06.27,0,.33.07Zm.06-.93L81,47.68l-.66.24q-.9-.24-1.23,0l-.42-.09-1.82.27a5.21,5.21,0,0,1-.48-.24l-.84.06a.9.9,0,0,1-.75-.27,1.47,1.47,0,0,1,.6-.14c.18,0,.43,0,.75,0l.63,0a1.49,1.49,0,0,0,.39-.08.93.93,0,0,1,.38-.1,5.66,5.66,0,0,1,.89.11,5.29,5.29,0,0,0,.88.1,3.71,3.71,0,0,0,.55-.06,3.61,3.61,0,0,1,.56-.05c.08,0,.55,0,1.41.11a1.06,1.06,0,0,1,.18.27L82,48a.77.77,0,0,1-.57-.21A.9.9,0,0,0,81.22,47.89Zm2.09,1.56A1.7,1.7,0,0,1,82,49a1.54,1.54,0,0,0-.3-.24h.53a3.14,3.14,0,0,0,.54,0,3.67,3.67,0,0,1,.51.11,2.29,2.29,0,0,0,.69.07,1,1,0,0,0,.54.42A6.45,6.45,0,0,1,83.31,49.45Zm3.2,3.62-.23,0L86.21,53l.3,0Zm-.14-.9a.17.17,0,0,1-.16-.17l0-.07h.18l.2.27A.68.68,0,0,1,86.37,52.17ZM86.58,51a4.8,4.8,0,0,0-.84.15,8.88,8.88,0,0,1-1.32-.75q0-.18.24-.18a1.54,1.54,0,0,1,.69.18,1.46,1.46,0,0,1,.7.06,2.21,2.21,0,0,0,.58.11l.06.1A.59.59,0,0,1,86.58,51Z"/><path class="cls-1" d="M102.83,70.26a2.53,2.53,0,0,1,1.73.35,32.39,32.39,0,0,1,3.77-.06l.18-.29c-.26-.65-.54-1-.84-1.08-.25-2.78-.38-5.16-.38-7.16a10.1,10.1,0,0,1,.17-1.55c.12-.74.2-1.25.21-1.53l.46-.12.38.12a8,8,0,0,1,1.89-.18c4,0,6.55.06,7.54.18a12.64,12.64,0,0,1,.09,2.63,29.75,29.75,0,0,0,.33,6.44c-.28.4-.54.79-.81,1.2a1.91,1.91,0,0,0-.35,1.34,6.5,6.5,0,0,0,1.91.19c.62,0,1.41,0,2.4-.07l1.91-.12.09-.45a13.9,13.9,0,0,0-1-1.73,44.2,44.2,0,0,0,.19-5.09c0-.64,0-1.67,0-3.11V56.9c0-5.54.3-8.83.87-9.84l-.24-.42-.51-.15-.47.2a6.19,6.19,0,0,0-2.37-.2,12.44,12.44,0,0,1-2.46,0c-.18.08-.21.33-.08.73a2.19,2.19,0,0,1,.8,1.61,12.47,12.47,0,0,1,.09,1.77,24.38,24.38,0,0,1-.42,5,35.06,35.06,0,0,1-4.81.29,14.35,14.35,0,0,1-2.64-.17,2.69,2.69,0,0,1-1.05.17c-.26,0-.6,0-1,0s-.82-.12-.92-.12q0-.75-.12-2.25c-.08-1-.12-1.75-.12-2.24a7.37,7.37,0,0,1,1.16-4.28l-.26-.45-.61-.12a7.21,7.21,0,0,1-2.6.38,11.84,11.84,0,0,1-2.75-.29l-.39.29,0,.1a8.53,8.53,0,0,1,1.07,4.61c0,.41,0,.85-.05,1.28a5.77,5.77,0,0,0,.05,1.92l-.26,1a2.91,2.91,0,0,1,.26.77,1.78,1.78,0,0,1-.32.63l.32.54-.09.88-.23.29a16.86,16.86,0,0,1,.06,2.45l-.06,2.49c0,.42,0,.91,0,1.5s0,1,0,1.17a11.09,11.09,0,0,1-1,4.27A1.15,1.15,0,0,0,102.83,70.26Zm18.65-1a15.4,15.4,0,0,1-2.7.09l-.12-.18a1,1,0,0,1,.51-.42,5.21,5.21,0,0,0,1.17.12,2.69,2.69,0,0,1,1.14.24ZM118.9,64l2.55.09-.07.54a7,7,0,0,1-2.6.14l-.12-.14Zm-.17-1,.32-.33,2.16.18V63l-.42.2-2-.11Zm.92,4.22a1.37,1.37,0,0,1,.75.21l.56-.15c.29.16.42.31.42.45s-.15.3-.46.39a2.12,2.12,0,0,1-.82.12L118.87,68l-.14-.56A1.38,1.38,0,0,1,119.65,67.14ZM119,65.55l2.28.28a.76.76,0,0,1,0,.47q-1.44.24-1.56.24-.33,0-.36-.12l-.33-.06Q118.53,65.8,119,65.55Zm2.25-3.74a4.44,4.44,0,0,1-2.25-.08l-.15-.12-.11-.4.32-.26,2.43.26A1.24,1.24,0,0,1,121.24,61.81Zm-2.34-6.76a3.77,3.77,0,0,1-.12-.42q0-.27.87-.27a4.93,4.93,0,0,1,1.83.24l.11.45A4.54,4.54,0,0,1,118.9,55.05Zm1.77-5.63q-.36,0-1.62-.15l-.06-.12.06-.33.27,0a3.94,3.94,0,0,0,1.14.14,1.68,1.68,0,0,1,1,.24Q121.48,49.42,120.67,49.42Zm.81.87v.27l-.16.06c-.33-.06-.56,0-.65.06l-.12,0a7.45,7.45,0,0,0-1.44-.36l0,0c0-.15.36-.21,1-.21l1.22.06Zm-1.89.92a2.57,2.57,0,0,1,.57.11,2.51,2.51,0,0,0,.63.1,3.26,3.26,0,0,1,.69.07l0,.54a11,11,0,0,1-2.22,0l-.12,0a.37.37,0,0,1-.3-.26C119.05,51.4,119.29,51.21,119.59,51.21Zm0,1.59c1,0,1.61.1,1.76.3v.36a5.1,5.1,0,0,0-1.67.21.6.6,0,0,0-.27-.06l-.18.12a.37.37,0,0,1-.42-.41C118.84,53,119.1,52.8,119.62,52.8Zm-.84-5.21,2.73.06.12.18q0,.18-.18.18L119,48.1l-.15-.06-.18-.33Zm.09,8.33,2.45.18c.13.22.13.35,0,.38-1.71.06-2.59.09-2.66.06l-.06-.23Q118.75,55.92,118.87,55.92Zm2.58,2.46a.94.94,0,0,1-.75.32l-.42,0-.42,0a.85.85,0,0,0-.48.12l-.54-.27q0-.33.15-.33A8,8,0,0,1,121.45,58.38Zm-2.67.95a5.48,5.48,0,0,1,2.6.15.85.85,0,0,1,0,.24q0,.51-.72.51l-.52,0-.47,0-.45-.21a.65.65,0,0,1-.48.09l-.18-.36C118.66,59.55,118.73,59.43,118.78,59.33Zm-15.09,9.6-.09.22.18.15h.3v.18h-1a1.49,1.49,0,0,1,.38-1.32,7.14,7.14,0,0,1,2.64.15l.09.24Zm-.26-1.7a1.41,1.41,0,0,1,.08-.39l.18-.12,2.43.24a1.72,1.72,0,0,0,0,.21.65.65,0,0,1,0,.25c0,.13-.37.2-1.11.2a6.08,6.08,0,0,1-.93-.12C103.67,67.4,103.43,67.31,103.43,67.23Zm2.72-1.31-.87.23-1.89-.23c-.07-.22-.07-.38,0-.48a4.35,4.35,0,0,1,2.72,0l.09.26Zm-2.76-1.68a1.41,1.41,0,0,1,0-.35c0-.1.09-.16.16-.16l2.55.12c.12.32.09.52-.09.59l-2.1.16A1.4,1.4,0,0,1,103.39,64.24Zm1.89-1.2A3.84,3.84,0,0,1,104,62.8a.92.92,0,0,1-.36.12c-.11,0-.25-.16-.39-.48a.64.64,0,0,1,.3-.42l2.55.09a.77.77,0,0,1,.18.6A1.18,1.18,0,0,1,105.28,63Zm-1.77-2.43a4.68,4.68,0,0,1,2.37,0,1.17,1.17,0,0,1,.27.51l-.12.09a12.24,12.24,0,0,1-1.44.21c-.28,0-.45,0-.51-.14-.44,0-.69-.11-.74-.33A1.05,1.05,0,0,1,103.51,60.61Zm-.17-1.4a.56.56,0,0,1,.17-.21h2.37l.18.42c-.11.25-.22.39-.36.39-1.38,0-2.09,0-2.12,0Zm2.6-1.23a9.29,9.29,0,0,1-2.66-.09c0-.26.21-.44.62-.54a9,9,0,0,1,.93-.14l1.47.29Zm-2.25-7.63,2.25.12.12.27-.12.21-2,.21-.5-.21-.13-.21Q103.45,50.35,103.69,50.35Zm0-1.8a.76.76,0,0,0,.45.15h1.38q.54,0,.54.57a.48.48,0,0,1-.18.39l-1.14.15-1.23-.3C103.29,49.07,103.35,48.76,103.69,48.55Zm-.23,5.18a2,2,0,0,0-.1-.33,3.51,3.51,0,0,1,1-.36l1.59.24a.49.49,0,0,1,.09.3ZM105.94,55l-.06.17a12.06,12.06,0,0,1-1.26.19,4.68,4.68,0,0,1-1.28-.19,1,1,0,0,1,.17-.56l2.25,0Zm-2.43-3.09,2.25,0a.44.44,0,0,1,.09.27l-2.07.24-.35-.14A.43.43,0,0,1,103.51,51.9Zm4.34,5.6a.38.38,0,0,1-.27,0,.32.32,0,0,1,.27-.12Zm1.59.06c-.6,0-.94,0-1-.18l0,0,2.13.15Zm1.8-.06-.06-.12a2.32,2.32,0,0,1,.57-.06q.42,0,.42.18Zm2,0a2.3,2.3,0,0,0-.42-.12l0,0,1.13.09Zm2.85-1.28h.27l.39.24h1.11a3.55,3.55,0,0,1-1.83,0Zm.74,1,.4.14-1.65.15,0,0Zm-9.34-1.11a16.08,16.08,0,0,0,3.48.21,34.37,34.37,0,0,1,3.5.08l-.15.18-10.21.12-.62-.3V56a2.37,2.37,0,0,1,.65-.09,5.45,5.45,0,0,1,1.11.17,4.59,4.59,0,0,0,1.15.19A3.09,3.09,0,0,0,107.46,56.1Zm-4.33-8.86,3.17.11,0,.12-.09.39h-2.73c-.07,0-.26-.13-.56-.42Z"/><path class="cls-1" d="M144.42,46.91l-.42-.39a15.29,15.29,0,0,0-2.9.15,1.51,1.51,0,0,0-1.35,0,1.08,1.08,0,0,0-.54,0,2.38,2.38,0,0,0-1.85-.17.61.61,0,0,0,0,.23,2.17,2.17,0,0,0,.46,1,2.12,2.12,0,0,1,.46,1.12l-.18.24a10.84,10.84,0,0,1,.25,2.19l.17,14.69a14.77,14.77,0,0,1-.12,3c-.47.39-.72.71-.72,1a1.36,1.36,0,0,0,.1.45,17.33,17.33,0,0,0,2.21.18,7.9,7.9,0,0,1,1.29,0l.63-.3.06-.13.15.28,1.47.2,0,0,.82-.11.2-.21-.06-.3a3.86,3.86,0,0,1-1.47-2.64L143,64.18c-.07-1.64-.12-2.64-.12-3,0-.2,0-.49.07-.87a8.15,8.15,0,0,0,0-.84,2.71,2.71,0,0,0-.26-1.23c.25-.18.38-.86.38-2a12.87,12.87,0,0,0-.33-3.48,17,17,0,0,0,.13-2.9l-.18-.24a5.86,5.86,0,0,1,.71-1.5C143.75,47.71,144.08,47.31,144.42,46.91ZM143,69.9l.11.06L143,70l-.09-.08Zm-1-20.3a.15.15,0,0,1-.18,0A.28.28,0,0,1,142,49.6ZM139.3,64a8.77,8.77,0,0,1,2.25.21q.09.72-1.05.72l-.39-.27-.57.12-.33-.18-.12-.36A.9.9,0,0,1,139.3,64Zm0-1.44a4.3,4.3,0,0,1,2.22.21.62.62,0,0,1-.24.41l-.15,0a1.33,1.33,0,0,1-.39-.12,1,1,0,0,1-.7.12,2.64,2.64,0,0,0-.71,0Zm0,4.55a1.23,1.23,0,0,0,.84-.29l.21.17.15-.15.21.18.24-.18a.57.57,0,0,1,.63.63.57.57,0,0,1,0,.18,2.4,2.4,0,0,1-1.83.06,1.86,1.86,0,0,1-.42.18l-.18-.24A.88.88,0,0,1,139.3,67.11Zm1.89-.69a2.53,2.53,0,0,1-.42-.06,4,4,0,0,0-.45-.06l-.24.15c-.56-.24-.84-.44-.84-.59s.34-.33,1-.51a.67.67,0,0,0,.6.3,5,5,0,0,1,.69-.1l.08.21C141.63,66.2,141.49,66.42,141.19,66.42ZM141,61.81a7.63,7.63,0,0,1-.93,0l-.06-.09-.21-.08a1,1,0,0,1-.51-.06c-.16-.29-.16-.5,0-.66l2.16,0,.14.21A.7.7,0,0,1,141,61.81Zm-1.14-3.23-.66-.09q-.24-.69.24-.69,1.2,0,1.41,0,.93.15.93.78l-.33-.12-.24.15a.68.68,0,0,0-.45-.18q-.36,0-.36.45l0-.12,0-.21A.62.62,0,0,0,139.9,58.58Zm-.81-2,.36-.18a3.86,3.86,0,0,0,1.05.13c.58,0,.91.13,1,.32l0,.16-.78.21-.24-.16-.24.09-.06.24-.06.06q-.09,0-.09-.3l-.66-.14A2.06,2.06,0,0,0,139.09,56.57Zm-.3-9.27a2.19,2.19,0,0,0,.57-.19,3.5,3.5,0,0,0,1.71.13c.4.06.64.17.72.35l-.18.21H141l-.18-.15-.45.33-1.38-.09-.24-.33Zm2.61,2.15a.64.64,0,0,0-.42.09q-.9,0-1.41,0a.68.68,0,0,1-.48-.63.28.28,0,0,1,.15-.24c.94.07,1.67.12,2.19.18A1.66,1.66,0,0,1,141.4,49.45Zm0,1v.36a.87.87,0,0,1-.27.27L141,51l-.33.12-1.47-.21-.15-.51a3.3,3.3,0,0,1,1.23-.09A3.2,3.2,0,0,1,141.43,50.44Zm-1.89,1.17a2.12,2.12,0,0,0,1,.14c.54,0,.86.18,1,.48l-.09.15a4.77,4.77,0,0,1-1.38.24,1.58,1.58,0,0,1-1.08-.35Q138.85,51.76,139.54,51.61Zm1.89,1.91-.21.66-.57.06-.24.18-.09-.12a1.1,1.1,0,0,0-.51,0l-.24-.09a1,1,0,0,1-.5-.09,1,1,0,0,1,.14-.69l1-.21.24.06.21-.09a.68.68,0,0,0,.6.15ZM139.54,55l1.83.2.09.19c-.06.25-.4.41-1,.44h-1.26l-.18-.44A.53.53,0,0,1,139.54,55Zm-.5,4.55a1.25,1.25,0,0,1,1-.45l.21.18a1.65,1.65,0,0,1,1.2.17l.15.34c0,.12-.2.24-.46.37s-.4.27-.38.44l-.06,0-.15-.15,0-.14-.09,0a.4.4,0,0,0-.15.27,2.34,2.34,0,0,0-.66-.47,1.39,1.39,0,0,1-.59-.46Zm3.05,9.79-.39-.21h-.12l-.18.15-.81,0,0,0a.94.94,0,0,0-.73-.14,1,1,0,0,1-.74-.13v-.27l.69-.3.36.18a1.91,1.91,0,0,1,1,0,1,1,0,0,1,.66,0,.71.71,0,0,1,.56.36A1.17,1.17,0,0,1,142.09,69.33Z"/><path class="cls-1" d="M179.12,49a5.89,5.89,0,0,0-.09-1.08l-.15-.12a1.67,1.67,0,0,0-1.11.48,3.36,3.36,0,0,1-1,.66,9.66,9.66,0,0,1-2.63-1.37,4.77,4.77,0,0,0-3-.87l-.53-.36-.21.12-.52-.15-.53.15a1.76,1.76,0,0,0-.66-.12q-.18,0-1,.09a3.25,3.25,0,0,1-1,0l-2.39.87a9.71,9.71,0,0,0-2.28,1.1,7.55,7.55,0,0,0-.77.75,2.52,2.52,0,0,1-.84.66,16.7,16.7,0,0,0-1.66,2.78,20.15,20.15,0,0,1-1.61,2.76,3.16,3.16,0,0,1-.38,1.89l.26,1.1-.15.48c.26,1.16.51,2.32.75,3.47a10.28,10.28,0,0,0,1,2.64,12.63,12.63,0,0,0,2.37,2.72A5.34,5.34,0,0,0,163,68.85l.18.3.39.18.21.33c1.67.6,2.61.91,2.82,1a7.09,7.09,0,0,0,2.15.37,17.51,17.51,0,0,0,3-.37,6.88,6.88,0,0,0,2.76-.89c1.19-.14,2.51-1,4-2.63A15.79,15.79,0,0,0,181.13,63a1.14,1.14,0,0,0-.61-.9l-1.79.21a2.75,2.75,0,0,1-.93-.15,6.92,6.92,0,0,0-1,1.47,5.47,5.47,0,0,1-1,1.35A12.91,12.91,0,0,1,173.67,66c-.74.29-1.48.6-2.22.92a3.46,3.46,0,0,0-.59-.06,9.54,9.54,0,0,0-1.26.15,4.59,4.59,0,0,1-1.29.06l-.33-.27a4.48,4.48,0,0,1-2-.74,20.43,20.43,0,0,0-1.83-1v-.24A9.26,9.26,0,0,1,162.66,62a9.07,9.07,0,0,1-.67-3.11l0-1.38.2-.26a5.2,5.2,0,0,1-.09-1,5.73,5.73,0,0,1,2.4-4.53,7.55,7.55,0,0,1,4.91-1.85,8.36,8.36,0,0,1,5.15,1.74,49.32,49.32,0,0,1,4,3.89h.15a2.33,2.33,0,0,0,.27-1.26,6,6,0,0,1,.18-1.4,5.78,5.78,0,0,1-.15-1.38c0-.29,0-.7.06-1.24S179.12,49.25,179.12,49Zm-19.22,3.2a13.08,13.08,0,0,1,1.79.1c0,.59-.18.86-.48.8a1.65,1.65,0,0,0-1.1,0l-.39-.15-.09-.42A1.24,1.24,0,0,1,159.9,52.17Zm-1.47,2.07.42-.27a10.08,10.08,0,0,1,1.92-.18c.09,0,.18.09.26.27l-.26.9h-1.35q-1,0-1-.45A.74.74,0,0,1,158.43,54.24Zm-.15,1.56.18-.07a2.66,2.66,0,0,0,1.12.11,2.52,2.52,0,0,1,1.1.11l-.18.72a8.93,8.93,0,0,1-1.29.14,1.43,1.43,0,0,1-1.11-.35ZM158,58l.13-.16a2.16,2.16,0,0,0,.47-.15,1.26,1.26,0,0,0,.69.06l.72-.09a.76.76,0,0,1,.44.12.57.57,0,0,1-.2.58.93.93,0,0,1-.63.23.47.47,0,0,1-.15-.48l-.12-.08-.33.38-.75.06-.21-.15Zm.09,1.58a5.85,5.85,0,0,1,1.44-.21,1.59,1.59,0,0,1,.92.21,1.29,1.29,0,0,1,.06.36c0,.49-.45.68-1.37.53l-.27.12a2.48,2.48,0,0,1-.66-.34A1.53,1.53,0,0,1,158.1,59.6Zm.6,2.24-.09-.33a4.29,4.29,0,0,1,2.21,0,.56.56,0,0,0,.07.21c0,.14-.19.24-.68.3a3.5,3.5,0,0,1-1,0Zm.54,1.32.06-.15,1.38-.15.92.32.07.25-1.47.24-.9-.24Zm9,6.23-.12-.06.33-.15,1.74.15Zm2.85,0L171,69.3l.11,0,.06.09ZM178.46,63l.57.14,0,.28a1.12,1.12,0,0,1-1,.21l-.09-.24Zm-.54,1.53.33.17,0,.07a2.59,2.59,0,0,1-.69.6l-.54-.12a1,1,0,0,1-.27.15.9.9,0,0,1-.24-.12A1.31,1.31,0,0,1,177.92,64.57Zm-2.73,1.79,1.59-.15.18.18-.63.45-.33-.12a.7.7,0,0,1-.27.12l-.77-.21ZM165,67.86l1.34-.09a8,8,0,0,1,1.17-.06l1.47.39a16,16,0,0,1,4.58-.45,3,3,0,0,1,1,.33q-.21.39-1.53.48a5.85,5.85,0,0,1-1.77-.06,5.57,5.57,0,0,1-1.16.09,28.44,28.44,0,0,0-3.12,0,6,6,0,0,1-2.87-.57v-.24l.27.12.42-.09Zm-.54-1.5,0,.33-.57.09a2.19,2.19,0,0,1-1.26.21l0,0h0c-.52-.3-.79-.48-.81-.57l.09-.09a1,1,0,0,1,.57.09l1-.11C164.07,66.24,164.38,66.26,164.48,66.36Zm-2.34-1.94.48.29c.26.42.39.65.39.66l-.21.13s-.54-.09-1.49-.21c-.66-.09-1.07-.27-1.24-.58v-.27Zm-1.4-13.05-.12-.19v-.11l.15-.27q.54-.24.63-.48l.68,0a2.85,2.85,0,0,1,.69,0,2,2,0,0,1,.66.15C163,51.05,162.1,51.37,160.74,51.37Zm6.7-2.76-.18.21a5.37,5.37,0,0,0-1.46.3,10.9,10.9,0,0,1-3.42.39l-.06,0a2.43,2.43,0,0,1,2.07-.81h1.71a3.87,3.87,0,0,0,1.61-.36l.06.21Zm4.49.21-.12-.12c.17-.06.27,0,.33.07Zm.06-.93-.18-.21-.66.24c-.6-.16-1-.15-1.22,0l-.42-.09-1.83.27-.48-.24-.84.06a.91.91,0,0,1-.75-.27,1.51,1.51,0,0,1,.6-.14c.18,0,.43,0,.75,0l.63,0a1.41,1.41,0,0,0,.39-.08,1,1,0,0,1,.39-.1,5.56,5.56,0,0,1,.88.11,5.5,5.5,0,0,0,.89.1,3.85,3.85,0,0,0,.55-.06,3.61,3.61,0,0,1,.55-.05c.08,0,.55,0,1.41.11a1.06,1.06,0,0,1,.18.27l0,.09a.77.77,0,0,1-.57-.21A.9.9,0,0,0,172,47.89Zm2.1,1.56a1.72,1.72,0,0,1-1.32-.48,1.29,1.29,0,0,0-.3-.24H173a3.22,3.22,0,0,0,.54,0,3.37,3.37,0,0,1,.5.11,2.38,2.38,0,0,0,.7.07,1,1,0,0,0,.53.42A6.27,6.27,0,0,1,174.09,49.45Zm3.2,3.62-.24,0L177,53l.3,0Zm-.15-.9A.16.16,0,0,1,177,52l0-.07h.18l.21.27A.75.75,0,0,1,177.14,52.17Zm.21-1.16a5,5,0,0,0-.84.15,9.54,9.54,0,0,1-1.32-.75c0-.12.09-.18.24-.18a1.62,1.62,0,0,1,.7.18,1.47,1.47,0,0,1,.7.06,2.14,2.14,0,0,0,.58.11l.06.1A.61.61,0,0,1,177.35,51Z"/><path class="cls-1" d="M194.09,70.26a2.53,2.53,0,0,1,1.73.35,32.43,32.43,0,0,1,3.77-.06l.18-.29c-.26-.65-.53-1-.84-1.08-.25-2.78-.38-5.16-.38-7.16a9.17,9.17,0,0,1,.18-1.55,15.22,15.22,0,0,0,.2-1.53l.46-.12.38.12a8,8,0,0,1,1.89-.18c4,0,6.55.06,7.54.18a11.94,11.94,0,0,1,.09,2.63,30.42,30.42,0,0,0,.33,6.44c-.28.4-.54.79-.8,1.2a1.78,1.78,0,0,0-.36,1.34,6.5,6.5,0,0,0,1.91.19c.62,0,1.42,0,2.4-.07l1.91-.12.09-.45a13.9,13.9,0,0,0-1-1.73,47.48,47.48,0,0,0,.18-5.09c0-.64,0-1.67,0-3.11V56.9c0-5.54.3-8.83.87-9.84l-.24-.42-.51-.15-.47.2a6.19,6.19,0,0,0-2.37-.2,12.3,12.3,0,0,1-2.45,0c-.18.08-.22.33-.1.73a2.12,2.12,0,0,1,.81,1.61,14.16,14.16,0,0,1,.09,1.77,24.38,24.38,0,0,1-.42,5,35.06,35.06,0,0,1-4.81.29,14.35,14.35,0,0,1-2.64-.17,2.69,2.69,0,0,1-1,.17c-.26,0-.6,0-1,0s-.82-.12-.92-.12q0-.75-.12-2.25c-.08-1-.12-1.75-.12-2.24a7.37,7.37,0,0,1,1.16-4.28l-.27-.45-.59-.12a7.27,7.27,0,0,1-2.61.38,11.84,11.84,0,0,1-2.75-.29l-.39.29,0,.1A8.52,8.52,0,0,1,194,51.4c0,.41,0,.85-.06,1.28A5.44,5.44,0,0,0,194,54.6l-.27,1a3.35,3.35,0,0,1,.27.77,2.49,2.49,0,0,1-.33.63l.33.54-.09.88-.24.29a15.54,15.54,0,0,1,.06,2.45l-.06,2.49c0,.42,0,.91,0,1.5s0,1,0,1.17a10.91,10.91,0,0,1-1,4.27A1.15,1.15,0,0,0,194.09,70.26Zm18.65-1a15.4,15.4,0,0,1-2.7.09l-.11-.18a1,1,0,0,1,.5-.42,5.21,5.21,0,0,0,1.17.12,2.69,2.69,0,0,1,1.14.24ZM210.16,64l2.55.09-.07.54a7,7,0,0,1-2.6.14l-.11-.14Zm-.18-1,.33-.33,2.15.18V63l-.41.2-2-.11Zm.93,4.22a1.37,1.37,0,0,1,.75.21l.57-.15c.28.16.41.31.41.45s-.15.3-.46.39a2.12,2.12,0,0,1-.82.12L210.13,68l-.15-.56A1.43,1.43,0,0,1,210.91,67.14Zm-.66-1.59,2.28.28a.69.69,0,0,1,0,.47q-1.44.24-1.56.24c-.22,0-.35,0-.36-.12l-.33-.06Q209.77,65.8,210.25,65.55Zm2.25-3.74a4.44,4.44,0,0,1-2.25-.08l-.15-.12-.12-.4.33-.26,2.43.26A1.24,1.24,0,0,1,212.5,61.81Zm-2.34-6.76a3.77,3.77,0,0,1-.12-.42c0-.18.27-.27.87-.27a4.93,4.93,0,0,1,1.83.24l.12.45A4.57,4.57,0,0,1,210.16,55.05Zm1.77-5.63q-.36,0-1.62-.15l-.06-.12.06-.33.27,0a4,4,0,0,0,1.14.14,1.68,1.68,0,0,1,1,.24C212.74,49.33,212.46,49.42,211.93,49.42Zm.81.87v.27l-.15.06q-.51-.09-.66.06l-.12,0a7.45,7.45,0,0,0-1.44-.36l0,0c0-.15.36-.21,1-.21l1.23.06Zm-1.89.92a2.57,2.57,0,0,1,.57.11,2.51,2.51,0,0,0,.63.1,3.19,3.19,0,0,1,.69.07l0,.54a11,11,0,0,1-2.22,0l-.12,0a.37.37,0,0,1-.3-.26C210.31,51.4,210.55,51.21,210.85,51.21Zm0,1.59c1,0,1.61.1,1.76.3v.36a5.14,5.14,0,0,0-1.67.21.6.6,0,0,0-.27-.06l-.18.12a.37.37,0,0,1-.42-.41C210.1,53,210.36,52.8,210.88,52.8ZM210,47.59l2.73.06.12.18c0,.12-.08.18-.18.18l-2.46.09L210.1,48l-.17-.33Zm.09,8.33,2.46.18c.12.22.12.35,0,.38-1.72.06-2.61.09-2.66.06l-.07-.23Q210,55.92,210.13,55.92Zm2.58,2.46a.94.94,0,0,1-.75.32l-.42,0-.42,0a.85.85,0,0,0-.48.12l-.54-.27q0-.33.15-.33A8,8,0,0,1,212.71,58.38Zm-2.67.95a5.48,5.48,0,0,1,2.6.15,1.48,1.48,0,0,1,0,.24c0,.34-.25.51-.72.51l-.53,0-.46,0-.45-.21a.65.65,0,0,1-.48.09l-.18-.36C209.93,59.55,210,59.43,210,59.33ZM195,68.93l-.09.22.19.15h.29v.18h-1a1.56,1.56,0,0,1,.39-1.32,7.14,7.14,0,0,1,2.64.15l.09.24Zm-.26-1.7a1.41,1.41,0,0,1,.08-.39l.18-.12,2.43.24a.59.59,0,0,0,.05.21,1.41,1.41,0,0,1,0,.25c0,.13-.37.2-1.11.2a6.08,6.08,0,0,1-.93-.12C194.93,67.4,194.69,67.31,194.69,67.23Zm2.72-1.31-.87.23-1.89-.23c-.07-.22-.07-.38,0-.48a4.35,4.35,0,0,1,2.72,0l.09.26Zm-2.76-1.68a1.41,1.41,0,0,1,0-.35c0-.1.08-.16.16-.16l2.55.12c.12.32.09.52-.09.59l-2.1.16A1.4,1.4,0,0,1,194.65,64.24Zm1.89-1.2a3.84,3.84,0,0,1-1.32-.24.87.87,0,0,1-.36.12c-.11,0-.25-.16-.39-.48a.64.64,0,0,1,.3-.42l2.55.09a.77.77,0,0,1,.18.6A1.18,1.18,0,0,1,196.54,63Zm-1.77-2.43a4.68,4.68,0,0,1,2.37,0,1.17,1.17,0,0,1,.27.51l-.12.09a12.24,12.24,0,0,1-1.44.21c-.28,0-.45,0-.51-.14-.44,0-.69-.11-.74-.33A1.05,1.05,0,0,1,194.77,60.61Zm-.17-1.4a.68.68,0,0,1,.17-.21h2.37l.18.42c-.11.25-.22.39-.36.39q-2.07,0-2.13,0ZM197.2,58a9.36,9.36,0,0,1-2.67-.09c0-.26.22-.44.64-.54a8.45,8.45,0,0,1,.92-.14l1.47.29ZM195,50.35l2.25.12.12.27-.12.21-2,.21-.5-.21-.13-.21Q194.71,50.35,195,50.35Zm0-1.8a.76.76,0,0,0,.45.15h1.38q.54,0,.54.57a.48.48,0,0,1-.18.39l-1.14.15-1.23-.3C194.55,49.07,194.61,48.76,195,48.55Zm-.23,5.18a2,2,0,0,0-.1-.33,3.51,3.51,0,0,1,1-.36l1.59.24a.49.49,0,0,1,.09.3ZM197.2,55l-.06.17a12.06,12.06,0,0,1-1.26.19,4.72,4.72,0,0,1-1.28-.19,1,1,0,0,1,.17-.56l2.25,0Zm-2.43-3.09,2.25,0a.44.44,0,0,1,.09.27l-2.06.24-.36-.14A.43.43,0,0,1,194.77,51.9Zm4.35,5.6a.38.38,0,0,1-.27,0,.32.32,0,0,1,.27-.12Zm1.58.06c-.6,0-.93,0-1-.18l0,0,2.13.15Zm1.8-.06-.06-.12a2.37,2.37,0,0,1,.57-.06c.27,0,.42.06.42.18Zm2,0a2.38,2.38,0,0,0-.43-.12l0,0,1.13.09Zm2.84-1.28h.27l.39.24h1.11a3.56,3.56,0,0,1-1.83,0Zm.75,1,.39.14-1.65.15,0,0Zm-9.34-1.11a15.93,15.93,0,0,0,3.47.21,34.48,34.48,0,0,1,3.5.08l-.15.18-10.21.12-.62-.3V56a2.43,2.43,0,0,1,.65-.09,5.45,5.45,0,0,1,1.11.17,4.59,4.59,0,0,0,1.14.19A3.2,3.2,0,0,0,198.73,56.1Zm-4.35-8.86,3.18.11,0,.12-.09.39h-2.73c-.07,0-.27-.13-.56-.42Z"/><path class="cls-1" d="M228.63,66.84h0v0Z"/><path class="cls-1" d="M228.11,69l-.89,1.06.42.47a7.87,7.87,0,0,1,1.14-.09c.38,0,.95,0,1.72.12s1.34.12,1.72.12,1,0,2-.09,1.83-.08,2.37-.08a7,7,0,0,1,2,.21l.27-.16a5.42,5.42,0,0,0,1.41.27,5.8,5.8,0,0,0,.89-.11,5.43,5.43,0,0,1,.9-.13,1.66,1.66,0,0,1,.33,0l.57-.3.57-3.21-.39-.3a4,4,0,0,0-1.62,1l-2.72-.24-.21.18q-.33,0-.69,0c-.32,0-.79,0-1.4-.09s-1.09-.09-1.42-.09a4.92,4.92,0,0,0-1.25.15l-.42-.27a23,23,0,0,1-.27-4.07,24.17,24.17,0,0,1,.27-4.16,47.42,47.42,0,0,1,5.54-.24,5,5,0,0,1,.63.12.82.82,0,0,0,.59,0l1.53.9.39-.12.12-.15-.08-4.25a.59.59,0,0,0-.46-.18,6.91,6.91,0,0,0-1.28.92s-.08,0-.24.06a5,5,0,0,1-.6,0c-.53,0-1.15,0-1.82,0l-4.44-.3a18.21,18.21,0,0,1-.24-3.6,11.87,11.87,0,0,1,.24-3,5,5,0,0,0,1.71-.65,6.18,6.18,0,0,0,2.75.56c.28,0,.71,0,1.3,0s1,0,1.34,0L242,50.37l.39-.29-.09-3.29a5.51,5.51,0,0,0-2.45-.39c-.66,0-1.64.05-2.95.16s-2.17.16-2.59.16a2,2,0,0,1-1.14-.2,15,15,0,0,1-2.63.09l-2.67-.12-.11.08-.07.34c.7,1.91,1.08,3,1.14,3.26a4.14,4.14,0,0,0-.21,2.45l-.18.27a36.74,36.74,0,0,1,.33,5.49c0,1.85,0,2.84,0,3a9,9,0,0,1-.36,2.69,6.34,6.34,0,0,1,.18,1.38,5.9,5.9,0,0,1,0,1.42,5.49,5.49,0,0,0,.12,1.09A3.52,3.52,0,0,1,228.11,69ZM241,69.3l.36.09a1.2,1.2,0,0,1-.28,0l-.11-.06Zm-2.64-1,.27-.12a.16.16,0,0,1,.15.21.19.19,0,0,1-.24.18l-1.44-.12,0-.06A5.19,5.19,0,0,1,238.39,68.31Zm-2.33.15,0,0-.12,0-.24-.12A.81.81,0,0,1,236.06,68.46ZM234.22,57a5.39,5.39,0,0,0,.65-.07,4.43,4.43,0,0,1,.65-.08,7,7,0,0,0,1.61-.12,5.12,5.12,0,0,0,1.44.21c.22,0,.58,0,1.06-.07s.9-.08,1.22-.08l.05.13a.64.64,0,0,1-.17.44l-2.46.12c-1.33.06-2.42.09-3.26.09a8.57,8.57,0,0,1-2.64-.24,3.12,3.12,0,0,1-1.16.15c-1,0-1.61-.15-1.77-.48l.15-.39c.14,0,.36,0,.66,0s.52-.05.66-.05a9.29,9.29,0,0,1,1.66.24A7.75,7.75,0,0,0,234.22,57Zm-4.69-3.56,2.07,0,.14.09a2,2,0,0,1,.07.42c0,.12-.06.18-.16.18h-.32a1.75,1.75,0,0,0-.57.09,8.49,8.49,0,0,0-1.23-.39l-.09-.21Zm-.09-1.17a.69.69,0,0,1,.09-.36l1.58-.38.79.26a2.45,2.45,0,0,1,0,.36c0,.22-.23.39-.72.51Zm.09,2.73,2.07-.09a5.25,5.25,0,0,1,.54.66,2.7,2.7,0,0,1-1,.17l-1.74-.24C229.38,55.13,229.41,55,229.53,55Zm2.78,3.14-.17,1a1.81,1.81,0,0,1-.93.18,12.56,12.56,0,0,1-1.77-.18l.36-1,1.23.09a1.76,1.76,0,0,0,1.14-.24Zm9.08-10.27.14.15,0,.21a.36.36,0,0,0-.16.12,1.12,1.12,0,0,1-.45-.51Zm-11.17-.65a1.83,1.83,0,0,0,.89,0,2.25,2.25,0,0,0,1,.09c.64-.07,1-.09,1-.09h2.85a.9.9,0,0,1,.38.09,1.21,1.21,0,0,0,.4.08,4.53,4.53,0,0,0,.74-.08,3.83,3.83,0,0,1,.75-.09l.27.15h.39l.18-.15,1.52.15a1.26,1.26,0,0,0-.77.14h-7.16l-.27.18-.47-.3-.36.3-2.1-.32Q229.65,47.08,230.22,47.18Zm1.47,1c.35,0,.53.08.53.3a6.89,6.89,0,0,1-.32.93c0,.1-.18.15-.39.15a5.21,5.21,0,0,1-2.07-.54l-.09-.72Zm.17,1.74a.78.78,0,0,1,.12.44c0,.39-.31.58-.92.58l-1.26-.15q-.51-.33-.51-.63Zm-2.33,10,2.64.11,0,.52-.45.24q-2.4,0-2.4-.48C229.29,60.08,229.37,60,229.53,60Zm1.8,6a1.78,1.78,0,0,0,.57,0l.14.35-.06.18-.38.25-1.89-.16q-.15-.3-.24-.45c0-.2.48-.29,1.44-.29l.12-.19a.86.86,0,0,0-.63-.47l-.84-.07-.09-.38.12-.12,2.19-.09a.59.59,0,0,1,.39.39l0,.24-1,.3C231.11,65.79,231.16,65.94,231.33,66Zm-.3-2.12a6.74,6.74,0,0,1-1.32-.12,5.09,5.09,0,0,1-.36-.39v-.09l2.63-.1.19.37Q232.07,63.88,231,63.88ZM232,62.5l-1.61-.24-.39.12-.45-.15-.21-.36a.57.57,0,0,1,.57-.39,3.15,3.15,0,0,1,.75.15,1.4,1.4,0,0,0,.59.12l.63-.18.31.3C232.12,62.23,232.07,62.44,232,62.5Zm-2.39,5c1.23-.12,2,0,2.31.24.09.38.49.57,1.19.57.2,0,.48,0,.85,0s.63,0,.77,0a.88.88,0,0,1,.66.18q-.9.18-1,.21L232,68.34l-.26.12a4.84,4.84,0,0,1-.86-.12,4.76,4.76,0,0,0-.85-.12,1.51,1.51,0,0,0-.63.12l-.15-.15Zm1.77,1.65c1.19.08,1.91.12,2.12.12s.6,0,1.08-.08.83-.07,1.08-.07a6.67,6.67,0,0,1,.88.1,5.56,5.56,0,0,0,.88.11,2.5,2.5,0,0,0,.47-.08,2.12,2.12,0,0,1,.46-.07q.18,0,1,.09a2.49,2.49,0,0,0,1,0l0,.09-.08.09c-.9,0-2.13,0-3.68.06q-2.7.09-3.69.09a27.78,27.78,0,0,1-3.5-.21l-.09-.21A10.4,10.4,0,0,1,231.36,69.12Z"/><rect class="cls-1" x="1.37" y="31.65" width="247.23" height="1.11"/><rect class="cls-1" x="1.4" y="33.6" width="247.23" height="0.27"/><rect class="cls-1" x="1.37" y="82.78" width="247.23" height="1.11"/><rect class="cls-1" x="1.4" y="81.67" width="247.23" height="0.27"/><path class="cls-1" d="M98.94,19.14l.09.09,1.26.18a5.53,5.53,0,0,1,2.16-.08,6.62,6.62,0,0,0,2.18-.06l.23.14a1.4,1.4,0,0,1,1,.08,1.92,1.92,0,0,1,1.1,0l.25-.26.36.19.16-.05.31.13.4-.23.6-1.94-.14-.42c-.27.14-.54.28-.81.44a1.67,1.67,0,0,1-.8.22l-.33,0-.21.12-.38-.11a27.78,27.78,0,0,1-3.7,0l-.23-.22c0-.15,0-.92,0-2.31s-.06-2.44-.06-3.19a10.8,10.8,0,0,1,.1-2,6.75,6.75,0,0,1-.14-1.36A8.2,8.2,0,0,1,103,5.39a8.36,8.36,0,0,0-1.74-.16,7.71,7.71,0,0,0-1.74,0l-.06.11a3.37,3.37,0,0,1,.42,1.93V10.6c0,4,0,6,.06,6.15a.66.66,0,0,0-.06.45l0,.08a.4.4,0,0,0,.15.24,2.2,2.2,0,0,1-.5.88A3.06,3.06,0,0,0,98.94,19.14ZM106.77,18a6,6,0,0,1-1.34,0Zm-3,0a26.51,26.51,0,0,1-3.52-.11l-.06-.12.06-.07.92-.11c.06.16.11.23.18.23Zm-2.76-9.49-.82-.23a.19.19,0,0,1,.16-.12l1.31.07a.27.27,0,0,1-.09.21Zm-.76.47h.85a1.63,1.63,0,0,1,.61.1.35.35,0,0,1-.14.37h-1l0,0-.35-.21V9ZM101.7,10c0,.09-.15.16-.44.21a1.65,1.65,0,0,1-.54,0,2.41,2.41,0,0,1-.43-.12l-.06-.15,1.43,0Zm-1.24.61,1.24.15.07.08c-.06.15-.15.22-.26.22s-.63,0-1.28-.12l0-.1A1.58,1.58,0,0,1,100.46,10.6Zm-.07.82h.28a2.82,2.82,0,0,0,.94.12l.09.16,0,.1-.94.11-.54-.16v-.16Zm-.16,1a4.55,4.55,0,0,1,1.38,0l0,.09,0,.1-.94.13-.49-.2A.3.3,0,0,1,100.23,12.45Zm.44.68,1,.15c0,.18,0,.28,0,.3l-1.06,0a.59.59,0,0,0-.32-.18l0-.08Zm1.07,1.9c0,.15,0,.23-.13.23l-1,.06c-.18,0-.31-.08-.39-.29l0-.09h1.43Zm0,1c0,.11-.14.17-.42.17a2.67,2.67,0,0,1-1-.14v-.1l.08-.14,1.27.08A.24.24,0,0,1,101.7,16Zm-.16.62.07.07c.06.19.06.3,0,.34l-1.06.1c-.24-.1-.37-.23-.37-.44Zm-.54-11a2.71,2.71,0,0,1,.77.09c.07,0,.1,0,.1.09s-.12.12-.38.12a2,2,0,0,1-.38,0l-.79-.1V5.72C100.35,5.64,100.58,5.6,101,5.61Zm-.61.66.77.07c.4.07.61.17.61.28a1.58,1.58,0,0,1-.42.23,1.49,1.49,0,0,0-.58-.08c-.31,0-.51-.06-.59-.18Zm-.1,1,1.34.14c.06.16-.06.24-.35.24a3.61,3.61,0,0,1-.65-.07,3.58,3.58,0,0,0-.45-.09l0-.08A.29.29,0,0,1,100.29,7.29Zm.17,6.76.32,0a2,2,0,0,1,.85.14.35.35,0,0,1,0,.13c0,.09-.09.13-.27.13a1.23,1.23,0,0,1-.55-.1.64.64,0,0,1-.24,0c-.33,0-.49-.06-.49-.18S100.23,14.07,100.46,14.05Zm-.36,4.35,7.49.06,0,.07-.09.07-2.46.06h-2.47a18,18,0,0,1-2.48-.1l0-.11Z"/><path class="cls-1" d="M116.78,13.16l-.07.21a15.56,15.56,0,0,0,2.57,4.48,5.93,5.93,0,0,0,4.41,1.65c.36,0,.74,0,1.14,0l.11-.15a6.39,6.39,0,0,0,3.68-2A8.06,8.06,0,0,0,130.43,15a5.88,5.88,0,0,0,.35-2.23v-.92c0-.44,0-.81,0-1.11,0-1.31-.76-2.59-2.3-3.85a6.77,6.77,0,0,0-4.24-1.79,9,9,0,0,0-4.09.8A6.43,6.43,0,0,0,117.34,9a3.73,3.73,0,0,0-.51,2,3.6,3.6,0,0,0-.19,1.15A4.13,4.13,0,0,0,116.78,13.16Zm.4-.16,0-.06,1.36-.08c.15.17.17.3.07.41l-.38,0-.07,0-1-.19C117.21,13.11,117.19,13.05,117.18,13Zm.23.82h1.27l.17.24c0,.12-.17.17-.39.17a3.38,3.38,0,0,1-1.07-.22Zm.26,1,.17-.15h0a3.5,3.5,0,0,1,.54-.05.85.85,0,0,1,.83.41c-.07.11-.3.15-.66.14a2.19,2.19,0,0,1-.71-.08Zm.51.91a.23.23,0,0,1,.08-.12l.4.07a.92.92,0,0,0,.3,0,1.52,1.52,0,0,1,.32,0,.37.37,0,0,1,.29.12l0,.12-.07.09a2.36,2.36,0,0,1-1.14,0Zm3.47,1.17-.13-.14a1.41,1.41,0,0,1-1-.77,3.92,3.92,0,0,0-.54-.87c-.14-.7-.26-1.21-.35-1.55a7.66,7.66,0,0,1-.23-1.8,6.69,6.69,0,0,1,.86-3.24.83.83,0,0,0,.45-.47,4.49,4.49,0,0,1,2.93-.88,2.91,2.91,0,0,1,.54.08,3.58,3.58,0,0,0,.52.07,22.79,22.79,0,0,1,2.17,1.37,3,3,0,0,1,.92,2.31,4.18,4.18,0,0,1,.24,1.86,4.4,4.4,0,0,1-1.27,3.05,3.9,3.9,0,0,1-2.93,1.38A14.22,14.22,0,0,1,121.65,16.86Zm1.51.87,0,.05-.1-.1h.12Zm-4-.92-.44-.28c0-.09,0-.13.09-.13,1,0,1.45.09,1.45.27A6.62,6.62,0,0,1,119.19,16.81Zm.54.39c.36,0,.58.06.66.08l.3-.13a1.26,1.26,0,0,0,.56,0,2.23,2.23,0,0,0,.69.3l.75.19-.7.05a6.9,6.9,0,0,1-.73,0,2.44,2.44,0,0,1-1.57-.45Zm5.67,1.07a12.36,12.36,0,0,1-2.38.37l-1.84-.52,4.22.06Zm1.62-.59c-1.14,0-2,.07-2.66.1l-.1-.08a.5.5,0,0,1,.23-.21l.28.1,1-.26a.27.27,0,0,0,.19.08.73.73,0,0,0,.22,0,.69.69,0,0,1,.21-.06l.74.09Zm.9-.82-.83.05a1.53,1.53,0,0,0-.46-.1.92.92,0,0,1,.84-.35,2.12,2.12,0,0,1,.57.08l.07.14Zm.89-1L127.5,16l-.06-.26.67-.23.74.12Zm.42-.75a2.29,2.29,0,0,1-1.29,0l0-.15c0-.2.25-.3.57-.3.1,0,.4.05.93.14C129.43,14.92,129.38,15,129.23,15.15Zm.35-1-.7.13-.69-.15a.32.32,0,0,1,.2-.38l1.24.11A.25.25,0,0,1,129.58,14.19Zm.35-1a2,2,0,0,1-.54.28,3.65,3.65,0,0,1-.59.05c-.28-.1-.43-.22-.44-.36a.83.83,0,0,0,.07-.21,1,1,0,0,1,.52-.12l.51,0,.5.05A1,1,0,0,1,129.93,13.16Zm0-.9a1.93,1.93,0,0,1-1.06.2,1,1,0,0,1-.4-.05l-.09-.38a1.52,1.52,0,0,1,.77-.09,2.49,2.49,0,0,1,.8.11Zm0-.84,0,.05a1,1,0,0,1-.5.1,4.62,4.62,0,0,1-1-.15l-.07-.18.07-.1a5.88,5.88,0,0,1,.87,0C129.74,11.13,130,11.23,130,11.42Zm-.14-.94c0,.1-.23.16-.7.17a5.29,5.29,0,0,1-.84-.05q-.17-.15-.09-.3a1.26,1.26,0,0,1,.59-.12,9.61,9.61,0,0,1,1,.12A.53.53,0,0,1,129.82,10.48Zm-.24-.81c0,.09-.27.12-.78.12a6.83,6.83,0,0,1-.77-.14.42.42,0,0,1-.09-.24c0-.14.13-.21.38-.21a3.08,3.08,0,0,1,1.17.25Zm-.47-1.06v.12q-.12.21-.66.21c-.53,0-.85-.11-.94-.33a.28.28,0,0,1,.26-.19A2.78,2.78,0,0,1,129.11,8.61ZM128,8a2.56,2.56,0,0,1-.71-.11c-.25-.08-.37-.16-.37-.24s.23-.12.68-.12a.93.93,0,0,1,.82.33C128.41,8,128.27,8,128,8Zm-.4-1.08q0,.12,0,.15a5.13,5.13,0,0,1-2.41-.43l0,0,.07-.09,2,.14ZM122.1,5.59l.4.18.39-.16a9.35,9.35,0,0,1,3,.35l-4.66.09-.08-.12Zm-2.6,1.28a1.38,1.38,0,0,1,1-.38c.12,0,.49,0,1.1,0v.09a4.36,4.36,0,0,1-.82.26,4.63,4.63,0,0,1-1,.17.35.35,0,0,1-.23,0Zm0,.4a.84.84,0,0,0,.42.12q.1.45-.63.45h-.32l-.26,0a.3.3,0,0,1,0-.16A2.17,2.17,0,0,1,119.45,7.27Zm-1,1a1.44,1.44,0,0,1,.6.05l.07.11c-.07.16-.16.24-.26.24h-.09l-.09,0a.22.22,0,0,0-.15.06.7.7,0,0,1-.55-.16C118.08,8.4,118.24,8.31,118.5,8.28Zm-.24.75c.35,0,.53.1.53.3a.42.42,0,0,1-.09.23l-.16.06h-.68l-.27-.13C117.59,9.18,117.81,9,118.26,9ZM118,10a1.38,1.38,0,0,1,.68.14l-.07.3a4.45,4.45,0,0,1-1.22-.06l0-.08Q117.37,10,118,10Zm-.79,1.06c0-.12.21-.19.63-.19s.85.1.85.3a.22.22,0,0,1-.08.16l-.74.15-.66-.21Zm-.1.93,1.5,0c.06.16,0,.26,0,.32l-1.1.07a.66.66,0,0,0-.38-.14Z"/><path class="cls-1" d="M139.61,17.22a6.71,6.71,0,0,1,.13,1.75l.37.07V19l.23-.2a7.13,7.13,0,0,1,1.92.39,7.15,7.15,0,0,0,1.93.38,8.61,8.61,0,0,0,1.08-.1c.56-.09.92-.15,1.07-.16a13.05,13.05,0,0,1,1.53-1.15l.66-1.24-.1-.3a1.31,1.31,0,0,0,.71-1,2.31,2.31,0,0,1,0-.39,3.61,3.61,0,0,0,0-.39,5.64,5.64,0,0,0-.54-2.53,3.13,3.13,0,0,0-1.88-1.68c-.69-.21-1.07-.35-1.13-.38a3.5,3.5,0,0,0-1.08-.47,5,5,0,0,0-1-.52,10.58,10.58,0,0,0-1-.46.77.77,0,0,0-.42-.55c.28-.32.47-.56.61-.72a1.25,1.25,0,0,1,.76-.35l.87-.08.28.24a2.85,2.85,0,0,1,1.48.91,5.84,5.84,0,0,1,1.12,1.39l.22.14h.21a.7.7,0,0,0,.14-.42,1.8,1.8,0,0,0,0-.27c0-.12,0-.21,0-.27,0-.29,0-.72.08-1.29s.09-1,.09-1.27l-.16-.09-.08.09-.57-.11c-.13,0-.3.07-.5.12l-1.29-.64-.07-.21a3.77,3.77,0,0,0-.74-.14.88.88,0,0,0-.41.09,2.8,2.8,0,0,0-.9-.12,2.1,2.1,0,0,0-1,.17,1.22,1.22,0,0,0-.68.3,2.92,2.92,0,0,1-.73.41A15,15,0,0,0,140,7.44l0,.12a1.86,1.86,0,0,0-.27,1.25l-.1.1.24.43-.08.26a5.47,5.47,0,0,1,.54.93c.16.05.29.21.39.5.79.4,1.37.7,1.75.91l.23-.12a5.43,5.43,0,0,0,1.22.66,2.71,2.71,0,0,1,1.08.75,1.09,1.09,0,0,1,.82.58c0,.11.09.26.38.43a1.41,1.41,0,0,0,.1,1.19,9.54,9.54,0,0,1-.83,1.13c0,.27-.22.47-.66.61s-.67.2-1,.3a3.08,3.08,0,0,1-2.67-1.12,1.44,1.44,0,0,1-.81-.57,6,6,0,0,0-.45-.82l-.14,0a1.86,1.86,0,0,0-.07,1.26l-.12.15A1,1,0,0,1,139.61,17.22Zm8.5-1.1v.08l-.05.07-1.43.1-.15-.08.17-.51a8.8,8.8,0,0,1,1.54.14l.05.07Zm.18-.78a.56.56,0,0,1-.39,0c-.54.08-.87.12-1,.15a.94.94,0,0,1-.18-.26.77.77,0,0,1,.49-.21,1.34,1.34,0,0,0,.52.05,1,1,0,0,1,.51.1l0,.08Zm.08-.87-.4.12-.08-.07a3,3,0,0,1-1.12,0l-.09-.24.11-.08a.94.94,0,0,0,.59,0c.35-.07.55-.11.61-.11a.6.6,0,0,1,.38.13Zm-1.48-7.29.07.16-.05.09a1.4,1.4,0,0,1-.68,0l0-.18Zm-1.08-.62a.78.78,0,0,0,.33-.09.22.22,0,0,1,.13.09,1.38,1.38,0,0,1-.63.13c-.26,0-.43-.05-.51-.16a.46.46,0,0,1-.07-.1.62.62,0,0,1-.23-.07,1.68,1.68,0,0,1,.49.1A2.31,2.31,0,0,0,145.81,6.56Zm-2.32-.95a4.54,4.54,0,0,1,1.49.26L145,6l0,0-.77,0-.19.12-.68-.12a.75.75,0,0,1-.38.16,1.81,1.81,0,0,1-.48-.17l-.21.12V5.93A2.27,2.27,0,0,1,143.49,5.61Zm-1.65.75.39,0a3.42,3.42,0,0,0,.41,0l.07-.08.12,0,0,0a.16.16,0,0,1-.09.15.66.66,0,0,1-.21,0,1.3,1.3,0,0,1-.25.21,1.6,1.6,0,0,1-.87.21c-.25,0-.41-.06-.46-.19A1.06,1.06,0,0,1,141.84,6.36Zm-1.38,1a2,2,0,0,1,.45,0l.19-.14h.39a.43.43,0,0,1,.33.17,5.26,5.26,0,0,1-.8.33,1,1,0,0,0-.63,0l0,0,0-.14A.72.72,0,0,0,140.46,7.34Zm1.31,1.08v0a.65.65,0,0,1-.51.22.38.38,0,0,1-.29-.1l-.54.07c-.11-.14-.12-.23,0-.27a.63.63,0,0,1,.1-.17,3.13,3.13,0,0,1,1.2.14Zm-1.59.89a1,1,0,0,1,.07-.19l.8.1A1.46,1.46,0,0,1,141.5,9l.53.12.08.3-.52,0a.59.59,0,0,1-.61,0l-.42.13Zm.54,1.19-.12-.13,0-.07-.12-.16c0-.15.1-.24.28-.26a2.09,2.09,0,0,0,.46-.06,1.56,1.56,0,0,0,.61.06,1.14,1.14,0,0,1,.62.07,1.6,1.6,0,0,1,1,.05.83.83,0,0,0,.61.29v0l-1.19.1a1.82,1.82,0,0,0-.3-.13l-.12,0-.07.19h-.11l-.08-.1A12.64,12.64,0,0,0,140.72,10.5Zm2.09.64a2.12,2.12,0,0,1-.57.07c-.35,0-.58-.09-.68-.26a1,1,0,0,1,.59-.18,2.72,2.72,0,0,1,.43,0l.42,0a1,1,0,0,0,.55-.15,1.91,1.91,0,0,0,.88.05,1.7,1.7,0,0,1,.89.07l.6-.06c.1.07.14.19.1.39l-.16.09-.2-.07a.81.81,0,0,1-.27.05,1.64,1.64,0,0,1-.41-.07,1.78,1.78,0,0,0-.42-.07.93.93,0,0,1-.48.1h-.27l-.26,0c-.26,0-.41.09-.46.28A.46.46,0,0,0,142.81,11.14Zm1.38.91-1.05-.3,0-.09.1-.1.35.08a6.64,6.64,0,0,0,1.23,0c.59-.06,1-.09,1.21-.09l.51,0,.5,0,.09.11a.22.22,0,0,1,.18.16,2.26,2.26,0,0,1-.91.17,7.35,7.35,0,0,1-1,0,.34.34,0,0,1-.14-.05.33.33,0,0,0-.14,0A2.44,2.44,0,0,0,144.19,12.05Zm1.59.85c-.58-.23-.88-.39-.89-.49a1,1,0,0,0,.42,0l.43-.06a3,3,0,0,1,.5.06,4,4,0,0,0,.5,0,2.75,2.75,0,0,0,.34,0,1.24,1.24,0,0,1,.32-.05.69.69,0,0,1,.47.21l.09.26a3.7,3.7,0,0,1-1.22,0,1,1,0,0,1-.48,0A1.16,1.16,0,0,0,145.78,12.9Zm.4.56.07-.12,1.85,0a.48.48,0,0,1,.2.17q0,.16-.3.3a.28.28,0,0,1-.11,0h-.32a.53.53,0,0,1-.2-.06.39.39,0,0,0-.2-.06.69.69,0,0,0-.26.06,1,1,0,0,1-.26.06l-.07,0-.13,0-.06-.09A.23.23,0,0,1,146.18,13.46Zm-.28,3.4a.7.7,0,0,1,.22-.07c.06,0,.31,0,.74,0a3.38,3.38,0,0,1,.75,0v.09l-.28.27a11.05,11.05,0,0,1-1.62.07l0-.1A.46.46,0,0,0,145.9,16.86Zm-4,.63a7.05,7.05,0,0,0,1.66.43.69.69,0,0,0,.48-.14,14.92,14.92,0,0,0,2.76-.16l0,.06-.06.1a2.31,2.31,0,0,1-.3.16,1.6,1.6,0,0,1-.4.09.87.87,0,0,0-.41.12c-.59,0-1-.08-1.13-.08-.6,0-.94.1-1,.29l0,.05,1.88.12-.12.11-.16,0a.72.72,0,0,1-.32.07,1.12,1.12,0,0,1-.64.12,12.15,12.15,0,0,1-1.76-.19l0-.05.09-.14.75.05.12-.12a.43.43,0,0,0-.21-.29h-.28a.56.56,0,0,1-.6,0,.58.58,0,0,1-.41,0,1.49,1.49,0,0,1-.68-.1c-.28-.11-.44-.25-.48-.44l0-.08A1.88,1.88,0,0,0,141.94,17.49Zm-1.83-.77.77.16.1.08,0,.14-.53.1-.38-.2-.05-.19A.13.13,0,0,1,140.11,16.72Z"/></svg>