<svg id="Capa_1" data-name="Capa 1" xmlns="http://www.w3.org/2000/svg" xmlns:xlink="http://www.w3.org/1999/xlink" viewBox="0 0 220 226"><defs><style>.cls-1{fill:#fff;}.cls-2{clip-path:url(#clip-path);}.cls-3{clip-path:url(#clip-path-2);}.cls-4{clip-path:url(#clip-path-3);}.cls-5{clip-path:url(#clip-path-4);}.cls-6{clip-path:url(#clip-path-5);}.cls-7{clip-path:url(#clip-path-6);}.cls-8{clip-path:url(#clip-path-7);}</style><clipPath id="clip-path"><path class="cls-1" d="M476.94,250.19c-.05,2.11-.12,2.61-.43,3.29a7.86,7.86,0,0,1-5.31,3.92c-2.41.5-5.3-.15-6.26-1.42a4.28,4.28,0,0,1,.85-5.77c1.13-.76,2.28-1.15,6-2.08,1.79-.46,3.69-1,4.19-1.23l.91-.41S477,248.82,476.94,250.19Zm-7.84-20.73c-6.58.61-11,4.16-11.7,9.51a1,1,0,0,0,.85,1.1h5.87a1,1,0,0,0,1-.82l0-.14c.58-2.3,1.94-3.19,4.86-3.5,2.62-.25,5.07.38,6,1.56a3.39,3.39,0,0,1,.37,3.59c-.49,1-2.24,1.52-7.19,2.31-4,.63-6.07,1.18-8.06,2.14a8.84,8.84,0,0,0-5.32,9.27,9,9,0,0,0,3.09,6.53,13.21,13.21,0,0,0,4.94,2.26,21.92,21.92,0,0,0,6.86,0,9.59,9.59,0,0,0,5.62-3.39,2.25,2.25,0,0,1,.51-.62c.07,0,.15.4.22.88a11.91,11.91,0,0,0,.46,1.8l.1.25a1,1,0,0,0,1,.67h5.9a1,1,0,0,0,1-1v-.08c0-.46-.09-.5-.11-.95s-.19-4.38-.19-9.85c0-5-.09-10-.17-11-.41-4.7-2.43-7.75-6.13-9.33A23.68,23.68,0,0,0,469.1,229.46Z"/></clipPath><clipPath id="clip-path-2"><path class="cls-1" d="M506.16,229.56a9.54,9.54,0,0,0-5,2.71c-.65.66-1.41,1.49-1.66,1.81l-.47.6v-3.52a1,1,0,0,0-1-1h-6.51a1,1,0,0,0-1,1v30.67a1,1,0,0,0,1,1h6.67a1,1,0,0,0,1-1v-8.79c0-10.69,0-11.1,1-12.85a7,7,0,0,1,2.91-2.81,4.61,4.61,0,0,1,2.69-.48,5.09,5.09,0,0,1,2.6.41,5.25,5.25,0,0,1,3,4.15c.11.67.17,5.09.17,11.24v9.13a1,1,0,0,0,1,1h6.52a1,1,0,0,0,1-1h0l0-11.1,0-10.38v-.9a9.85,9.85,0,0,0-3.43-7,8.54,8.54,0,0,0-2.66-2A12.77,12.77,0,0,0,506.16,229.56Z"/></clipPath><clipPath id="clip-path-3"><path class="cls-1" d="M542.76,236.05c3,.62,5.06,2.38,6.1,6a16.84,16.84,0,0,1,.44,4.45,12.77,12.77,0,0,1-1.4,6.37,7.21,7.21,0,0,1-5.7,4.18,7.76,7.76,0,0,1-6.4-1.75c-2.25-2.07-3.41-6.08-3-10.35A11.36,11.36,0,0,1,534,240.3,7.41,7.41,0,0,1,542.76,236.05Zm-5.06-6.49a17,17,0,0,0-8.92,4.63c-5.91,5.89-6.53,16.38-1.36,23.15,3.51,4.61,9,6.89,15.34,6.35a16.39,16.39,0,0,0,14.71-12.54,20.11,20.11,0,0,0,0-9.22,16.59,16.59,0,0,0-8.68-10.88A18.92,18.92,0,0,0,537.7,229.56Z"/></clipPath><clipPath id="clip-path-4"><path class="cls-1" d="M428.35,238.62v23.22a1,1,0,0,0,1,1h6.67a1,1,0,0,0,1-1V218.3a1,1,0,0,0-1-1h-6.67a1,1,0,0,0-1,1Z"/></clipPath><clipPath id="clip-path-5"><path class="cls-1" d="M442.9,238.62v23.22a1,1,0,0,0,1,1h6.68a1,1,0,0,0,1-1V208a1,1,0,0,0-1-1h-6.68a1,1,0,0,0-1,1Z"/></clipPath><clipPath id="clip-path-6"><path class="cls-1" d="M409.9,236.16a6.6,6.6,0,0,1,5,5,6,6,0,0,1,.24,1.32V243H408c-5.84,0-7.19,0-7.19-.22a10.82,10.82,0,0,1,2.11-4.66C404.35,236.43,407.3,235.61,409.9,236.16Zm-4.61-6.62a15.93,15.93,0,0,0-12.73,12.56,21.4,21.4,0,0,0,.46,10.59c2.48,7.63,9,11.71,17.73,11,5.17-.41,9.68-3.15,11.75-7.14a16,16,0,0,0,.83-2.12h0a1,1,0,0,0-.66-1.3,1.13,1.13,0,0,0-.32-.05H415.9a1,1,0,0,0-1,.65l0,.1a5.29,5.29,0,0,1-3.58,3,10.7,10.7,0,0,1-2.52.25A6.94,6.94,0,0,1,403,254.7a10.14,10.14,0,0,1-2.09-4.13c-.17-.71-.32-1.36-.32-1.44s5.32-.14,11.85-.14h10.74a1,1,0,0,0,1-1v-.05l-.05-.94c-.39-7.59-3.52-13.37-8.69-16.06A17.39,17.39,0,0,0,405.29,229.54Z"/></clipPath><clipPath id="clip-path-7"><path class="cls-1" d="M386.6,230.07a14.88,14.88,0,0,0-1.53.53,11.7,11.7,0,0,0-3.5,3.53l-.9,1.37-.05-2.69,0-1.66a1,1,0,0,0-1-1h-6.33a1,1,0,0,0-1,1v30.67a1,1,0,0,0,1,1h6.66a1,1,0,0,0,1-1l.05-8.28,0-9.29.48-1.37a7.52,7.52,0,0,1,6.48-5.25,10,10,0,0,1,2.06-.08.71.71,0,0,0,.81-.61.34.34,0,0,0,0-.1v-6.44a.51.51,0,0,0-.42-.51l-.11,0A11.22,11.22,0,0,0,386.6,230.07Z"/></clipPath></defs><path class="cls-1" d="M138.34,154.62,134,149.24v5.38h-14.3v-9.18a14.29,14.29,0,0,1-6,1.29h-5v7.89H87l-4-5.17-3.93,5.17H43.33V120.5h36l3.93,5.13,3.93-5.13H218.32V3.26H1.07V94.88L9.26,75.77H23.32l4.56,10.66V75.77h17.6l2.72,7.72,2.7-7.72h78.59v3.94a16.73,16.73,0,0,1,11.27-3.94h25l4.56,10.66V75.77h14.82l3.92,6.07V75.77h14.79v34.11H189.16l-3.95-6.16v6.16H163.72l-2.12-5.23h-5.89l-2.1,5.23H140.27a16.08,16.08,0,0,1-10.78-3.69v3.69H107.43l-4.37-5.38v5.38H21.26l-2.13-5.23H13.25l-2.1,5.23H1.07V220.5H218.32V152.1a13.87,13.87,0,0,1-8.26,2.52Z"/><path class="cls-1" d="M215.91,130.5l2.56-5.74H205c-5.57,0-8.87,3.4-8.87,8,0,4.82,3.12,7.6,8,7.6h6.07a2.11,2.11,0,0,1,2.31,2.12,2.09,2.09,0,0,1-2.31,2.09H196.86v5.74h13.2c5.57,0,8.87-3.36,8.87-8.3,0-4.65-2.91-7.35-8-7.35h-6.06a2.11,2.11,0,0,1-2.31-2.12,2.09,2.09,0,0,1,2.31-2.09Zm-36.78,2.09a2.08,2.08,0,0,1,2.3-2.09h11l2.56-5.74H181.5c-5.57,0-8.87,3.4-8.87,8,0,4.82,3.12,7.6,8,7.6h6.07a2.11,2.11,0,0,1,2.31,2.12,2.09,2.09,0,0,1-2.31,2.09H173.41v5.74h13.2c5.57,0,8.87-3.36,8.87-8.3,0-4.65-2.91-7.35-8-7.35h-6.07a2.1,2.1,0,0,1-2.3-2.12Zm-29.48,17.77h20.86v-5.74H156.14v-4.35h14v-5.6h-14V130.5h14.37v-5.74H149.65v25.6Zm-1,0-8.3-9.33a8,8,0,0,0,6.7-8c0-4.9-3.4-8.27-8.87-8.27H123.93v25.6h6.49v-9.07h2.52l7.66,9.07Zm-11.14-14.63h-7.06V130.5h7.06c2,0,3,1.21,3,2.64s-1,2.59-3,2.59Zm-16.35-2.34c0-5.12-3.41-8.63-8.87-8.63H97.86v25.6h6.49V142h7.7c5.6,0,9.08-3.69,9.08-8.63Zm-6.53,0a2.76,2.76,0,0,1-3,2.85h-7.23V130.5h7.23a2.79,2.79,0,0,1,3,2.93ZM97.29,150.36,87,137.45l10.22-12.69h-8l-6,7.86-6-7.86H69.05L79.3,137.6,69.09,150.36H77l6-7.94,6.07,7.94Zm-49.59,0H68.56v-5.74H54.19v-4.35h14v-5.6h-14V130.5H68.56v-5.74H47.7v25.6Z"/><path class="cls-1" d="M199.51,105.62V80h-6.46V95.89L182.83,80H174.6v25.6h6.5V89.17l10.53,16.45Zm-32.92,0h7.34L163,80h-8.44l-11,25.6h7.16l2.09-5.23h11.64l2.13,5.23Zm-4.4-10.79h-7.1l3.55-8.77,3.55,8.77ZM141.25,86h6.89V80h-7.38c-8.06,0-12.38,5.34-12.38,12.62V93c0,7.86,4.54,12.61,11.88,12.61h.53l2.66-5.74h-2.09c-4.08,0-6.49-2.49-6.49-6.87v-.37c0-3.84,2.13-6.69,6.38-6.69Zm-22.52,19.67h6.5V80h-6.5v25.6Zm-1,0-8.3-9.32a8,8,0,0,0,6.7-8c0-4.9-3.41-8.27-8.87-8.27H93v25.6h6.49V96.55H102l7.66,9.07ZM106.57,91H99.51V85.77h7.06c2,0,3,1.2,3,2.63s-1,2.59-3,2.59Zm-38.1,14.63H89.33V99.88H75V95.53H89v-5.6H75V85.77H89.33V80H68.47v25.6Zm-10.75,0h6.42V80H53.93L48.21,96.37,42.47,80H32.14v25.6h6.42V86.68l6.74,18.94H51l6.74-18.94v18.94Zm-33.59,0h7.34L20.51,80H12.07l-11,25.6H8.27l2.09-5.23H22l2.13,5.23Zm-4.4-10.79h-7.1l3.55-8.77,3.55,8.77Z"/><path class="cls-1" d="M476.94,250.19c-.05,2.11-.12,2.61-.43,3.29a7.86,7.86,0,0,1-5.31,3.92c-2.41.5-5.3-.15-6.26-1.42a4.28,4.28,0,0,1,.85-5.77c1.13-.76,2.28-1.15,6-2.08,1.79-.46,3.69-1,4.19-1.23l.91-.41S477,248.82,476.94,250.19Zm-7.84-20.73c-6.58.61-11,4.16-11.7,9.51a1,1,0,0,0,.85,1.1h5.87a1,1,0,0,0,1-.82l0-.14c.58-2.3,1.94-3.19,4.86-3.5,2.62-.25,5.07.38,6,1.56a3.39,3.39,0,0,1,.37,3.59c-.49,1-2.24,1.52-7.19,2.31-4,.63-6.07,1.18-8.06,2.14a8.84,8.84,0,0,0-5.32,9.27,9,9,0,0,0,3.09,6.53,13.21,13.21,0,0,0,4.94,2.26,21.92,21.92,0,0,0,6.86,0,9.59,9.59,0,0,0,5.62-3.39,2.25,2.25,0,0,1,.51-.62c.07,0,.15.4.22.88a11.91,11.91,0,0,0,.46,1.8l.1.25a1,1,0,0,0,1,.67h5.9a1,1,0,0,0,1-1v-.08c0-.46-.09-.5-.11-.95s-.19-4.38-.19-9.85c0-5-.09-10-.17-11-.41-4.7-2.43-7.75-6.13-9.33A23.68,23.68,0,0,0,469.1,229.46Z"/><g class="cls-2"><rect class="cls-1" x="207.72" y="109.31" width="451.1" height="507.74"/></g><path class="cls-1" d="M506.16,229.56a9.54,9.54,0,0,0-5,2.71c-.65.66-1.41,1.49-1.66,1.81l-.47.6v-3.52a1,1,0,0,0-1-1h-6.51a1,1,0,0,0-1,1v30.67a1,1,0,0,0,1,1h6.67a1,1,0,0,0,1-1v-8.79c0-10.69,0-11.1,1-12.85a7,7,0,0,1,2.91-2.81,4.61,4.61,0,0,1,2.69-.48,5.09,5.09,0,0,1,2.6.41,5.25,5.25,0,0,1,3,4.15c.11.67.17,5.09.17,11.24v9.13a1,1,0,0,0,1,1h6.52a1,1,0,0,0,1-1h0l0-11.1,0-10.38v-.9a9.85,9.85,0,0,0-3.43-7,8.54,8.54,0,0,0-2.66-2A12.77,12.77,0,0,0,506.16,229.56Z"/><g class="cls-3"><rect class="cls-1" x="207.72" y="109.31" width="451.1" height="507.74"/></g><path class="cls-1" d="M542.76,236.05c3,.62,5.06,2.38,6.1,6a16.84,16.84,0,0,1,.44,4.45,12.77,12.77,0,0,1-1.4,6.37,7.21,7.21,0,0,1-5.7,4.18,7.76,7.76,0,0,1-6.4-1.75c-2.25-2.07-3.41-6.08-3-10.35A11.36,11.36,0,0,1,534,240.3,7.41,7.41,0,0,1,542.76,236.05Zm-5.06-6.49a17,17,0,0,0-8.92,4.63c-5.91,5.89-6.53,16.38-1.36,23.15,3.51,4.61,9,6.89,15.34,6.35a16.39,16.39,0,0,0,14.71-12.54,20.11,20.11,0,0,0,0-9.22,16.59,16.59,0,0,0-8.68-10.88A18.92,18.92,0,0,0,537.7,229.56Z"/><g class="cls-4"><rect class="cls-1" x="207.72" y="109.31" width="451.1" height="507.74"/></g><path class="cls-1" d="M428.35,238.62v23.22a1,1,0,0,0,1,1h6.67a1,1,0,0,0,1-1V218.3a1,1,0,0,0-1-1h-6.67a1,1,0,0,0-1,1Z"/><g class="cls-5"><rect class="cls-1" x="207.72" y="109.31" width="451.1" height="507.74"/></g><path class="cls-1" d="M442.9,238.62v23.22a1,1,0,0,0,1,1h6.68a1,1,0,0,0,1-1V208a1,1,0,0,0-1-1h-6.68a1,1,0,0,0-1,1Z"/><g class="cls-6"><rect class="cls-1" x="207.72" y="109.31" width="451.1" height="507.74"/></g><path class="cls-1" d="M409.9,236.16a6.6,6.6,0,0,1,5,5,6,6,0,0,1,.24,1.32V243H408c-5.84,0-7.19,0-7.19-.22a10.82,10.82,0,0,1,2.11-4.66C404.35,236.43,407.3,235.61,409.9,236.16Zm-4.61-6.62a15.93,15.93,0,0,0-12.73,12.56,21.4,21.4,0,0,0,.46,10.59c2.48,7.63,9,11.71,17.73,11,5.17-.41,9.68-3.15,11.75-7.14a16,16,0,0,0,.83-2.12h0a1,1,0,0,0-.66-1.3,1.13,1.13,0,0,0-.32-.05H415.9a1,1,0,0,0-1,.65l0,.1a5.29,5.29,0,0,1-3.58,3,10.7,10.7,0,0,1-2.52.25A6.94,6.94,0,0,1,403,254.7a10.14,10.14,0,0,1-2.09-4.13c-.17-.71-.32-1.36-.32-1.44s5.32-.14,11.85-.14h10.74a1,1,0,0,0,1-1v-.05l-.05-.94c-.39-7.59-3.52-13.37-8.69-16.06A17.39,17.39,0,0,0,405.29,229.54Z"/><g class="cls-7"><rect class="cls-1" x="207.72" y="109.31" width="451.1" height="507.74"/></g><path class="cls-1" d="M386.6,230.07a14.88,14.88,0,0,0-1.53.53,11.7,11.7,0,0,0-3.5,3.53l-.9,1.37-.05-2.69,0-1.66a1,1,0,0,0-1-1h-6.33a1,1,0,0,0-1,1v30.67a1,1,0,0,0,1,1h6.66a1,1,0,0,0,1-1l.05-8.28,0-9.29.48-1.37a7.52,7.52,0,0,1,6.48-5.25,10,10,0,0,1,2.06-.08.71.71,0,0,0,.81-.61.34.34,0,0,0,0-.1v-6.44a.51.51,0,0,0-.42-.51l-.11,0A11.22,11.22,0,0,0,386.6,230.07Z"/><g class="cls-8"><rect class="cls-1" x="207.72" y="109.31" width="451.1" height="507.74"/></g></svg>