<svg id="Capa_1" data-name="Capa 1" xmlns="http://www.w3.org/2000/svg" viewBox="0 0 250 42"><defs><style>.cls-1{fill:#fff;}</style></defs><path class="cls-1" d="M76,17.81c4.32,1,11.54,2.71,11.54,9.74,0,5.79-4.88,9.58-12.15,9.58a22.3,22.3,0,0,1-10.07-2.38l-2.9-1.41,2.86-5.77L68.17,29a15.93,15.93,0,0,0,7.22,1.7c1,0,5.73-.13,5.73-3,0-.92,0-2-6.57-3.58-5.36-1.23-12-2.78-12-9.9,0-5.43,4.88-9.31,11.57-9.31a21,21,0,0,1,9,2L86,8.2,83.27,14l-2.9-1.33A14.7,14.7,0,0,0,74.1,11.3c-2.56,0-5.15,1-5.15,2.81,0,1.24,0,2.09,7,3.7M45.93,25,29.09,6.57a3.16,3.16,0,0,0-3.53-.83,3.22,3.22,0,0,0-2.07,3V36.49h6.45V17L46.78,35.45a3.19,3.19,0,0,0,2.37,1,3.23,3.23,0,0,0,3.22-3.21V5.52H45.93ZM6.14,36.49h6.42v-31H6.14Zm91.9,0h6.43v-31H98Zm26.4-31H113.78v6.42h10.66V36.49h6.42V11.94H141.5V5.52H124.44ZM223,5.68a3.21,3.21,0,0,0-3.59,1.13L207.08,23.24,194.78,6.81A3.22,3.22,0,0,0,189,8.74V36.5h6.44V18.4l9.07,12.15a3.35,3.35,0,0,0,5.15,0l9.09-12.15V36.5h6.44V8.74A3.23,3.23,0,0,0,223,5.68m8.43,1.07h2V11h1.11V6.75h2V5.63h-5Zm12.09-1.08a.57.57,0,0,0-.62.18l-2.13,2.87-2.12-2.87a.58.58,0,0,0-.62-.18.55.55,0,0,0-.39.51V11h1.12V7.87l1.56,2.1a.58.58,0,0,0,.89,0l1.58-2.1V11h1.11V6.18a.56.56,0,0,0-.38-.51m-71.42,17.6c0,1.24-.47,7.42-7.41,7.42s-7.39-6.18-7.39-7.4V5.52h-6.44V23.29c0,5.56,3.69,13.84,13.83,13.84s13.84-8.28,13.84-13.84V5.52h-6.43Z"/></svg>