<svg id="Capa_1" data-name="Capa 1" xmlns="http://www.w3.org/2000/svg" viewBox="0 0 250 80"><defs><style>.cls-1{fill:#fff;}</style></defs><path class="cls-1" d="M33,44.47V51c0,4.55-1.21,8.06-3.63,10.56s-5.8,3.75-10.14,3.75H19q-6.59,0-10.29-3.79T5,51V23.5q0-6.59,3.71-10.41T19,9.27h.46q6.34,0,10.06,3.82T33.23,23.5V29H23.69V23.5a6.39,6.39,0,0,0-1.13-4.12,3.76,3.76,0,0,0-3.1-1.4H19a3.87,3.87,0,0,0-3.14,1.4,6.27,6.27,0,0,0-1.17,4.12V51.28a6.4,6.4,0,0,0,1.25,4.27A3.84,3.84,0,0,0,19,57h.23a3.73,3.73,0,0,0,3.1-1.44,6.85,6.85,0,0,0,1.14-4.31V44.77H33ZM57.22,10H67L53.44,77.77H43.75l3.71-18.24L35.73,10H46l6,33.22ZM85,18.28H70.7V10H95v8.25L80.76,56.5H95.22v8.25H70.7V56.5Zm30.2-9q-6.81,0-10.52,3.79T101,23.5V51q0,6.66,3.71,10.49t10.52,3.82q6.89,0,10.71-3.82T129.73,51V23.5q0-6.66-3.82-10.44T115.2,9.27Zm4.77,42q0,5.44-4.77,5.45-4.47,0-4.47-5.45v-28q0-5.52,4.47-5.52,4.77,0,4.77,5.52Zm35.27,13.47-9-38.52V64.75h-8.78V10h12.79L159,48V10h8.77V64.75Zm48.21-25V23.5q0-6.66-3.63-10.44T189.45,9.27A15.54,15.54,0,0,0,181.88,11a11.47,11.47,0,0,0-4.81,4.92,16.48,16.48,0,0,0-1.63,7.57V51c0,4.55,1.23,8.06,3.68,10.56s5.9,3.75,10.36,3.75,7.91-1.25,10.34-3.75,3.63-6,3.63-10.56v-6.5H194V51a11.89,11.89,0,0,1-.08,1.4,7.54,7.54,0,0,1-.23,1.22,4.66,4.66,0,0,1-.37,1,5.19,5.19,0,0,1-.53.79,4,4,0,0,1-.65.65,2.87,2.87,0,0,1-.75.41,4.18,4.18,0,0,1-.91.23,6.8,6.8,0,0,1-1,.08,3.89,3.89,0,0,1-3-1.37A6.49,6.49,0,0,1,185.21,51V39.47h18.24Zm-18.24-16.5a6.11,6.11,0,0,1,1.21-4.16,4.23,4.23,0,0,1,3.33-1.36A4.1,4.1,0,0,1,193,19.11a6.28,6.28,0,0,1,1.17,4.16V32h-8.7V23.27Zm28,16.2h13V32h-5V10h5V2.23h-13ZM245,2.23H231.76V10h5V32h-5v7.49H245Z"/></svg>