<svg id="Capa_1" data-name="Capa 1" xmlns="http://www.w3.org/2000/svg" xmlns:xlink="http://www.w3.org/1999/xlink" viewBox="0 0 250 151"><defs><style>.cls-1{fill:#fff;}.cls-2{clip-path:url(#clip-path);}.cls-3{clip-path:url(#clip-path-2);}.cls-4{clip-path:url(#clip-path-3);}.cls-5{clip-path:url(#clip-path-4);}.cls-6{clip-path:url(#clip-path-5);}.cls-7{clip-path:url(#clip-path-6);}.cls-8{clip-path:url(#clip-path-7);}</style><clipPath id="clip-path"><path class="cls-1" d="M165.94-123.81c-.05,2.11-.12,2.61-.43,3.29a7.86,7.86,0,0,1-5.31,3.92c-2.41.5-5.3-.15-6.26-1.42a4.28,4.28,0,0,1,.85-5.77c1.13-.76,2.28-1.15,6-2.08,1.79-.46,3.69-1,4.19-1.23l.91-.41S166-125.18,165.94-123.81Zm-7.84-20.73c-6.58.61-11,4.16-11.7,9.51a1,1,0,0,0,.85,1.1h5.87a1,1,0,0,0,1-.82l0-.14c.58-2.3,1.94-3.19,4.86-3.5,2.62-.25,5.07.38,6,1.56a3.39,3.39,0,0,1,.37,3.59c-.49,1-2.24,1.52-7.19,2.31-4,.63-6.07,1.18-8.06,2.14a8.84,8.84,0,0,0-5.32,9.27,9,9,0,0,0,3.09,6.53,13.21,13.21,0,0,0,4.94,2.26,21.92,21.92,0,0,0,6.86,0,9.59,9.59,0,0,0,5.62-3.39,2.25,2.25,0,0,1,.51-.62c.07,0,.15.4.22.88a11.91,11.91,0,0,0,.46,1.8l.1.25a1,1,0,0,0,1,.67h5.9a1,1,0,0,0,1-1v-.08c0-.46-.09-.5-.11-1s-.19-4.38-.19-9.85c0-5-.09-10-.17-11-.41-4.7-2.43-7.75-6.13-9.33A23.68,23.68,0,0,0,158.1-144.54Z"/></clipPath><clipPath id="clip-path-2"><path class="cls-1" d="M195.16-144.44a9.54,9.54,0,0,0-5,2.71c-.65.66-1.41,1.49-1.66,1.81l-.47.6v-3.52a1,1,0,0,0-1-1h-6.51a1,1,0,0,0-1,1v30.67a1,1,0,0,0,1,1h6.67a1,1,0,0,0,1-1v-8.79c0-10.69,0-11.1,1-12.85a7,7,0,0,1,2.91-2.81,4.61,4.61,0,0,1,2.69-.48,5.09,5.09,0,0,1,2.6.41,5.25,5.25,0,0,1,3,4.15c.11.67.17,5.09.17,11.24v9.13a1,1,0,0,0,1,1h6.52a1,1,0,0,0,1-1h0l0-11.1,0-10.38v-.9a9.85,9.85,0,0,0-3.43-7,8.54,8.54,0,0,0-2.66-2A12.77,12.77,0,0,0,195.16-144.44Z"/></clipPath><clipPath id="clip-path-3"><path class="cls-1" d="M231.76-137.95c3,.62,5.06,2.38,6.1,6a16.84,16.84,0,0,1,.44,4.45,12.77,12.77,0,0,1-1.4,6.37,7.21,7.21,0,0,1-5.7,4.18,7.76,7.76,0,0,1-6.4-1.75c-2.25-2.07-3.41-6.08-3-10.35A11.36,11.36,0,0,1,223-133.7,7.41,7.41,0,0,1,231.76-137.95Zm-5.06-6.49a17,17,0,0,0-8.92,4.63c-5.91,5.89-6.53,16.38-1.36,23.15,3.51,4.61,9,6.89,15.34,6.35a16.32,16.32,0,0,0,10.17-4.57,16.47,16.47,0,0,0,4.54-8,20.11,20.11,0,0,0,0-9.22,16.59,16.59,0,0,0-8.68-10.88A18.92,18.92,0,0,0,226.7-144.44Z"/></clipPath><clipPath id="clip-path-4"><path class="cls-1" d="M117.35-135.38v23.22a1,1,0,0,0,1,1h6.67a1,1,0,0,0,1-1V-155.7a1,1,0,0,0-1-1h-6.67a1,1,0,0,0-1,1Z"/></clipPath><clipPath id="clip-path-5"><path class="cls-1" d="M131.9-135.38v23.22a1,1,0,0,0,1,1h6.68a1,1,0,0,0,1-1V-166a1,1,0,0,0-1-1h-6.68a1,1,0,0,0-1,1Z"/></clipPath><clipPath id="clip-path-6"><path class="cls-1" d="M98.9-137.84a6.6,6.6,0,0,1,5,5,6,6,0,0,1,.24,1.32v.48H97c-5.84,0-7.19,0-7.19-.22a10.82,10.82,0,0,1,2.11-4.66C93.35-137.57,96.3-138.39,98.9-137.84Zm-4.61-6.62A15.93,15.93,0,0,0,81.56-131.9,21.4,21.4,0,0,0,82-121.31c2.48,7.63,9,11.71,17.73,11,5.17-.41,9.68-3.15,11.75-7.14a16,16,0,0,0,.83-2.12h0a1,1,0,0,0-.66-1.3,1.13,1.13,0,0,0-.32-.05H104.9a1,1,0,0,0-1,.65l0,.1a5.29,5.29,0,0,1-3.58,3,10.7,10.7,0,0,1-2.52.25A6.94,6.94,0,0,1,92-119.3a10.14,10.14,0,0,1-2.09-4.13c-.17-.71-.32-1.36-.32-1.44s5.32-.14,11.85-.14h10.74a1,1,0,0,0,1-1v0l0-.94c-.39-7.59-3.52-13.37-8.69-16.06A17.39,17.39,0,0,0,94.29-144.46Z"/></clipPath><clipPath id="clip-path-7"><path class="cls-1" d="M75.6-143.93a14.88,14.88,0,0,0-1.53.53,11.7,11.7,0,0,0-3.5,3.53l-.9,1.37,0-2.69,0-1.66a1,1,0,0,0-1-1H62.23a1,1,0,0,0-1,1v30.67a1,1,0,0,0,1,1h6.66a1,1,0,0,0,1-1l0-8.28,0-9.29.48-1.37A7.52,7.52,0,0,1,77-136.34a10,10,0,0,1,2.06-.08.71.71,0,0,0,.81-.61.34.34,0,0,0,0-.1v-6.44a.51.51,0,0,0-.42-.51l-.11,0A11.22,11.22,0,0,0,75.6-143.93Z"/></clipPath></defs><path class="cls-1" d="M165.94-123.81c-.05,2.11-.12,2.61-.43,3.29a7.86,7.86,0,0,1-5.31,3.92c-2.41.5-5.3-.15-6.26-1.42a4.28,4.28,0,0,1,.85-5.77c1.13-.76,2.28-1.15,6-2.08,1.79-.46,3.69-1,4.19-1.23l.91-.41S166-125.18,165.94-123.81Zm-7.84-20.73c-6.58.61-11,4.16-11.7,9.51a1,1,0,0,0,.85,1.1h5.87a1,1,0,0,0,1-.82l0-.14c.58-2.3,1.94-3.19,4.86-3.5,2.62-.25,5.07.38,6,1.56a3.39,3.39,0,0,1,.37,3.59c-.49,1-2.24,1.52-7.19,2.31-4,.63-6.07,1.18-8.06,2.14a8.84,8.84,0,0,0-5.32,9.27,9,9,0,0,0,3.09,6.53,13.21,13.21,0,0,0,4.94,2.26,21.92,21.92,0,0,0,6.86,0,9.59,9.59,0,0,0,5.62-3.39,2.25,2.25,0,0,1,.51-.62c.07,0,.15.4.22.88a11.91,11.91,0,0,0,.46,1.8l.1.25a1,1,0,0,0,1,.67h5.9a1,1,0,0,0,1-1v-.08c0-.46-.09-.5-.11-1s-.19-4.38-.19-9.85c0-5-.09-10-.17-11-.41-4.7-2.43-7.75-6.13-9.33A23.68,23.68,0,0,0,158.1-144.54Z"/><g class="cls-2"><rect class="cls-1" x="-103.28" y="-264.69" width="451.1" height="507.74"/></g><path class="cls-1" d="M195.16-144.44a9.54,9.54,0,0,0-5,2.71c-.65.66-1.41,1.49-1.66,1.81l-.47.6v-3.52a1,1,0,0,0-1-1h-6.51a1,1,0,0,0-1,1v30.67a1,1,0,0,0,1,1h6.67a1,1,0,0,0,1-1v-8.79c0-10.69,0-11.1,1-12.85a7,7,0,0,1,2.91-2.81,4.61,4.61,0,0,1,2.69-.48,5.09,5.09,0,0,1,2.6.41,5.25,5.25,0,0,1,3,4.15c.11.67.17,5.09.17,11.24v9.13a1,1,0,0,0,1,1h6.52a1,1,0,0,0,1-1h0l0-11.1,0-10.38v-.9a9.85,9.85,0,0,0-3.43-7,8.54,8.54,0,0,0-2.66-2A12.77,12.77,0,0,0,195.16-144.44Z"/><g class="cls-3"><rect class="cls-1" x="-103.28" y="-264.69" width="451.1" height="507.74"/></g><path class="cls-1" d="M231.76-137.95c3,.62,5.06,2.38,6.1,6a16.84,16.84,0,0,1,.44,4.45,12.77,12.77,0,0,1-1.4,6.37,7.21,7.21,0,0,1-5.7,4.18,7.76,7.76,0,0,1-6.4-1.75c-2.25-2.07-3.41-6.08-3-10.35A11.36,11.36,0,0,1,223-133.7,7.41,7.41,0,0,1,231.76-137.95Zm-5.06-6.49a17,17,0,0,0-8.92,4.63c-5.91,5.89-6.53,16.38-1.36,23.15,3.51,4.61,9,6.89,15.34,6.35a16.32,16.32,0,0,0,10.17-4.57,16.47,16.47,0,0,0,4.54-8,20.11,20.11,0,0,0,0-9.22,16.59,16.59,0,0,0-8.68-10.88A18.92,18.92,0,0,0,226.7-144.44Z"/><g class="cls-4"><rect class="cls-1" x="-103.28" y="-264.69" width="451.1" height="507.74"/></g><path class="cls-1" d="M117.35-135.38v23.22a1,1,0,0,0,1,1h6.67a1,1,0,0,0,1-1V-155.7a1,1,0,0,0-1-1h-6.67a1,1,0,0,0-1,1Z"/><g class="cls-5"><rect class="cls-1" x="-103.28" y="-264.69" width="451.1" height="507.74"/></g><path class="cls-1" d="M131.9-135.38v23.22a1,1,0,0,0,1,1h6.68a1,1,0,0,0,1-1V-166a1,1,0,0,0-1-1h-6.68a1,1,0,0,0-1,1Z"/><g class="cls-6"><rect class="cls-1" x="-103.28" y="-264.69" width="451.1" height="507.74"/></g><path class="cls-1" d="M98.9-137.84a6.6,6.6,0,0,1,5,5,6,6,0,0,1,.24,1.32v.48H97c-5.84,0-7.19,0-7.19-.22a10.82,10.82,0,0,1,2.11-4.66C93.35-137.57,96.3-138.39,98.9-137.84Zm-4.61-6.62A15.93,15.93,0,0,0,81.56-131.9,21.4,21.4,0,0,0,82-121.31c2.48,7.63,9,11.71,17.73,11,5.17-.41,9.68-3.15,11.75-7.14a16,16,0,0,0,.83-2.12h0a1,1,0,0,0-.66-1.3,1.13,1.13,0,0,0-.32-.05H104.9a1,1,0,0,0-1,.65l0,.1a5.29,5.29,0,0,1-3.58,3,10.7,10.7,0,0,1-2.52.25A6.94,6.94,0,0,1,92-119.3a10.14,10.14,0,0,1-2.09-4.13c-.17-.71-.32-1.36-.32-1.44s5.32-.14,11.85-.14h10.74a1,1,0,0,0,1-1v0l0-.94c-.39-7.59-3.52-13.37-8.69-16.06A17.39,17.39,0,0,0,94.29-144.46Z"/><g class="cls-7"><rect class="cls-1" x="-103.28" y="-264.69" width="451.1" height="507.74"/></g><path class="cls-1" d="M75.6-143.93a14.88,14.88,0,0,0-1.53.53,11.7,11.7,0,0,0-3.5,3.53l-.9,1.37,0-2.69,0-1.66a1,1,0,0,0-1-1H62.23a1,1,0,0,0-1,1v30.67a1,1,0,0,0,1,1h6.66a1,1,0,0,0,1-1l0-8.28,0-9.29.48-1.37A7.52,7.52,0,0,1,77-136.34a10,10,0,0,1,2.06-.08.71.71,0,0,0,.81-.61.34.34,0,0,0,0-.1v-6.44a.51.51,0,0,0-.42-.51l-.11,0A11.22,11.22,0,0,0,75.6-143.93Z"/><g class="cls-8"><rect class="cls-1" x="-103.28" y="-264.69" width="451.1" height="507.74"/></g><path class="cls-1" d="M9.49,120.65c-.89-1-1.57-1.71-2.22-2.46-4.76-5.52-3.1-11.44.41-15.43a16.78,16.78,0,0,1,4.78-3.65c.86-.46,1.7-1,2.84-1.58-1-.63-1.73-1.09-2.46-1.57C8,92.82,6,88.29,6.27,82.62c.3-7,3.83-11.57,10-14.46a41.81,41.81,0,0,1,15.92-3.72A87.79,87.79,0,0,1,44,65c2.88.26,2.86.16,3.89-2.57,3.27-8.64,9.61-13.29,18.72-14.3.28,0,.55,0,.83,0,3.16,0,3.56.37,3.23,3.46-.37,3.47-.24,7-.32,10.44-.06,2.26-.29,2.51-2.5,2.73-.91.09-1.82.17-2.74.21a8.73,8.73,0,0,0-4.79,1.87c-2.44,1.79-2.61,2.84-.66,5.14a19.93,19.93,0,0,1,4.42,7.81c1.77,6.73-.25,12.29-5.38,16.77-3.79,3.31-8.48,4.55-13.3,5.41-4.65.84-9.33.46-14,.52a27.69,27.69,0,0,0-3.29.09,2.63,2.63,0,0,0-2.37,2.87c.07,1.24.73,1.91,2.46,2,6.5.42,13,.74,19.49,1.12A41.87,41.87,0,0,1,58,110c7.07,2.23,11,7,12.5,14.23,1.74,8.41-2.42,15-8.88,18.64a31.27,31.27,0,0,1-10.88,3.58,113.33,113.33,0,0,1-27.42.59c-5.12-.49-10.15-1.42-14.8-3.78A13,13,0,0,1,2.18,137,12,12,0,0,1,6.3,122.4,12.5,12.5,0,0,1,9.49,120.65Zm20.09,5.12c-1.66.12-3.79-.32-5.85.25a3.51,3.51,0,0,0-1.81,5.85,4.53,4.53,0,0,0,2.28,1.42,44.65,44.65,0,0,0,18,1.39,19.28,19.28,0,0,0,4.87-.79c2.1-.81,2.82-2,2.54-4.26a3.19,3.19,0,0,0-3.37-2.95C40.8,126.39,35.44,125.64,29.58,125.77Zm14.35-42a8.42,8.42,0,0,0-8.27-8.25c-4.44-.22-7.92,3.44-8,8.28a8,8,0,0,0,8,8C40.84,91.61,43.38,88.79,43.93,83.8Z"/><path class="cls-1" d="M215.24,127.71c-6.75-.2-13.35-1.16-19.19-4.83-8.41-5.29-13.1-13-14.54-22.84-2.12-14.53,7.12-28.69,20.29-33.49a38.59,38.59,0,0,1,15.69-2c6.13.36,12,1.82,17.07,5.36,7.42,5.16,12.23,12,13.21,21.2.14,1.36.92,2.46,1,3.91.32,4.51-1,8.63-2.62,12.64-3.84,9.36-10.55,15.71-20.35,18.56A36,36,0,0,1,215.24,127.71Zm-.38-14.25a17.42,17.42,0,0,0,.37-34.83,17.47,17.47,0,0,0-17.65,17.26A17.23,17.23,0,0,0,214.86,113.46Z"/><path class="cls-1" d="M150.21,103.17c0-6.69,0-13.39,0-20.08,0-3.29-.38-3.7-3.55-3.74-4.79-.07-5-.29-5-5.22,0-2.11-.19-4.21-.21-6.32,0-3.16,1.09-4.14,4.2-3.78.64.08,1.27.25,1.91.27,1.86.06,2.34-.31,2.78-2.22a47.25,47.25,0,0,1,2.19-7.64c3-7.13,8.59-10.39,16.06-10.93,5.33-.39,10.61.39,15.91.8,1.55.12,3.1.29,4.64.49a2.13,2.13,0,0,1,2.08,2.4c0,3.4,0,6.79-.1,10.18-.07,2.41-.58,2.89-3.08,2.51-3.1-.48-6.22-.36-9.33-.56a4.74,4.74,0,0,0-3.62,1,3.14,3.14,0,0,0-1.25,2.06c-.16,1.43.28,2,1.78,2s2.75,0,4.12.11c2.5.22,3.25.91,3.42,3.4.19,2.74.2,5.49.35,8.24s-1.25,3.82-4,3.68c-.91,0-1.8-.31-2.71-.4-2.4-.25-2.91.22-2.91,2.65q0,16.38,0,32.74c0,2.85,0,5.69,0,8.53s-.58,3.28-3.2,3.29q-8.94,0-17.88,0c-2.32,0-2.62-.33-2.63-2.77C150.2,116.93,150.21,110.05,150.21,103.17Z"/><path class="cls-1" d="M93.24,76.32c.51-1.15,1-2.31,1.53-3.45C97.5,67,102.46,64.58,108.6,64a9.06,9.06,0,0,1,1.63.19c1.46.14,2,.91,2,2.39-.08,3.57,0,7.15,0,10.73,0,2.11,0,4.22,0,6.33s-.19,2.3-2.43,2.19a25.06,25.06,0,0,0-5.2-.14c-4.5.71-7.12,3.36-7.75,7.93a75.81,75.81,0,0,0-.49,10.43c0,6.24,0,12.48,0,18.71,0,.46,0,.92,0,1.38-.11,2-.47,2.41-2.42,2.49-.83,0-1.66,0-2.48,0-5.32,0-10.64,0-16,0-2.62,0-2.88-.22-2.88-2.78q0-28.22,0-56.42c0-2.73.29-3,3-3q7.29,0,14.59,0c2.32,0,2.68.38,2.7,2.73,0,3,0,6,0,9.06Z"/><path class="cls-1" d="M115.11,95.55V68.3c0-.55,0-1.1,0-1.65.18-1.8.6-2.25,2.41-2.26q9.5-.06,19,0c1.89,0,2.19.35,2.27,2.29.06,1.37,0,2.75,0,4.13q0,26,0,52c0,.55,0,1.11,0,1.65-.15,1.71-.48,2.13-2.18,2.15q-9.65.06-19.27,0c-1.67,0-2.17-.56-2.21-2.44-.07-2.94,0-5.87,0-8.81V95.55Z"/><path class="cls-1" d="M118.19,46.38c-1.32,5.4-4.19,9.55-9,11.92a28.35,28.35,0,0,1-24,.85,20.94,20.94,0,0,1-11.89-24.3A32.19,32.19,0,0,1,75,29.65,19.06,19.06,0,0,1,87.15,18.54a26.71,26.71,0,0,1,18,.19c9.29,3.56,13.76,12.44,13.26,21.9a1.92,1.92,0,0,1-2.07,2c-.55,0-1.1,0-1.65,0l-21.46-.12a9.74,9.74,0,0,0-1.62.13c-1.12.2-1.48.91-1.33,2a6,6,0,0,0,4.81,5.35c3.56.59,6.32-.56,7.2-3.08a2.46,2.46,0,0,1,2.93-1.81c3.28.28,6.58.39,9.87.63A26.12,26.12,0,0,1,118.19,46.38ZM96.31,34.52c.7,0,1.34,0,2,0a14.57,14.57,0,0,0,1.6-.31c1.76-.36,2.24-.93,1.84-2.58-.73-3.05-2.31-5-6.53-4.64a5.42,5.42,0,0,0-5,5.71c.07,1.31.88,2,1.88,1.81C93.54,34.22,94.94,34.75,96.31,34.52Z"/><path class="cls-1" d="M138.85,32q0,12.5,0,25c0,.55-.06,1.1-.08,1.64a1.73,1.73,0,0,1-1.89,1.89c-4.21,0-8.42,0-12.64,0-1.23,0-1.8-.79-1.93-1.91a17.75,17.75,0,0,1,0-2.19q0-24.6,0-49.19a15.14,15.14,0,0,1,0-1.65c.18-1.5.76-2.18,2.3-2.15,4,.08,8.05.14,12.08,0,1.8-.07,2.11.44,2.12,2.72,0,6.41,0,12.82,0,19.23V32Z"/><path class="cls-1" d="M193.46,137.75v.83c0,3,0,3-3.12,3a2.64,2.64,0,0,1-2.84-2.39,2.55,2.55,0,0,1,2.38-3.08c1.27-.06,2.1-.1,2-1.65,0-.38.48-.52.86-.46a.72.72,0,0,1,.65.75c0,1,0,2,0,3Zm-3.13-.43a1.37,1.37,0,0,0-1.12,1.5c0,.85.42,1.45,1.29,1.42a1.28,1.28,0,0,0,1.27-1.46C191.76,138,191.31,137.44,190.33,137.32Z"/><path class="cls-1" d="M215.13,141.23c-.68-.48-1.4,0-2.11-.11a2.55,2.55,0,0,1-2.18-2.42,2.66,2.66,0,0,1,2.27-2.66c1-.17,1.92.44,2.94.07.5-.18.8.3.8.82,0,1.47,0,2.93,0,4.39-.06,1.16-.84,1.73-1.89,2.06a3.61,3.61,0,0,1-3.37-.48.47.47,0,0,1,.26-.82,11.15,11.15,0,0,1,1.62.09C214.16,142.18,214.93,142.22,215.13,141.23Zm-1.25-3.91c-.73.2-1.47.41-1.39,1.38s.7,1.22,1.53,1.17a1.13,1.13,0,0,0,1.22-1.18C215.27,137.75,214.65,137.45,213.88,137.32Z"/><path class="cls-1" d="M224.81,138.91c0,.46,0,.92,0,1.38.06.94-.28,1.4-1.28,1.13-.09,0-.17-.11-.25-.1-1.16.14-2.4.66-3.34-.43s-.64-2.6-.67-4a.78.78,0,0,1,.81-.88c.56,0,.81.28.83.83,0,.73,0,1.46.09,2.19a1,1,0,0,0,1.05,1.05,1.18,1.18,0,0,0,1.17-1,12.16,12.16,0,0,0,.09-2.18c0-.53.16-.9.76-.88s.73.41.73.92v1.92Z"/><path class="cls-1" d="M176,138.56v-1.64c0-.38.14-.9.52-.79,1.18.36,2.33-.33,3.47,0a1.88,1.88,0,0,1,1.47,1.49,21,21,0,0,1,.1,3.27c0,.59-.5.65-1,.64s-.57-.37-.58-.74c0-.73,0-1.46,0-2.19a1.06,1.06,0,0,0-1-1.07,1.08,1.08,0,0,0-1.29,1.09c-.08.72-.05,1.46-.1,2.19,0,.57-.41.76-.92.71a.65.65,0,0,1-.62-.73C176,140,176,139.29,176,138.56Z"/><path class="cls-1" d="M197.62,139.63c.53,1,1.33.58,2.11.43a.63.63,0,0,1,.75.58c0,.18-.24.48-.45.6A3.16,3.16,0,0,1,195.8,140a2.73,2.73,0,0,1,1.23-3.71,2.89,2.89,0,0,1,4.06,1.53c.39.9.17,1.4-.86,1.42-.45,0-.91,0-1.36,0S198,139.18,197.62,139.63Zm2-1.6c-.67-.91-1.28-1.05-2-.51-.13.1-.32.36-.28.41.44.62,1.1.26,1.67.3A1.88,1.88,0,0,0,199.61,138Z"/><path class="cls-1" d="M122.8,138.06a1.74,1.74,0,0,0-2.17-.59.62.62,0,0,1-.88-.4c-.19-.62.37-.8.75-.9,2.15-.56,4,.21,3.93,2.67s.07,2.55-2.58,2.66a6.73,6.73,0,0,1-1.1,0,1.51,1.51,0,0,1-1.49-1.35,1.38,1.38,0,0,1,1.12-1.64C121.06,138.33,121.77,138.25,122.8,138.06Zm-.13,1.6c-.23-.51-.68-.4-1.09-.36s-.69.26-.58.67.59.54,1,.42A.78.78,0,0,0,122.67,139.66Z"/><path class="cls-1" d="M170.87,141.57a2.8,2.8,0,1,1,3-2.81A2.81,2.81,0,0,1,170.87,141.57Zm0-4.2c-.72.18-1.37.42-1.38,1.35a1.41,1.41,0,0,0,1.47,1.52,1.36,1.36,0,0,0,1.25-1.48C172.26,137.85,171.7,137.51,170.92,137.37Z"/><path class="cls-1" d="M241.46,141.56a2.72,2.72,0,0,1-2.85-2.94,3,3,0,1,1,2.85,2.94Zm1.42-2.57c0-1-.41-1.64-1.26-1.64a1.43,1.43,0,0,0-1.48,1.3,1.49,1.49,0,0,0,1.47,1.59A1.27,1.27,0,0,0,242.88,139Z"/><path class="cls-1" d="M131.84,139.27a2.24,2.24,0,0,0,2.69.78.61.61,0,0,1,.79.53.84.84,0,0,1-.38.63,3.52,3.52,0,0,1-3.81-.48,2.82,2.82,0,0,1-.44-3.28,2.7,2.7,0,0,1,3-1.4,2.55,2.55,0,0,1,2.18,1.82c.28.84.12,1.44-1,1.4C134,139.24,133.13,139.27,131.84,139.27Zm2.41-1.27c-.45-1.09-1.14-1-1.9-.41-.11.08-.1.31-.16.49A2.24,2.24,0,0,0,134.25,138Z"/><path class="cls-1" d="M229.37,139.58c-.43-.13-.88-.24-1.29-.41-.72-.3-1.32-.74-1.16-1.63a1.75,1.75,0,0,1,1.5-1.42,8.11,8.11,0,0,1,1.91-.05c.47,0,.94.23.84.81s-.62.5-1.07.43a.94.94,0,0,0-1,.36c0,.59.51.48.86.61a5.41,5.41,0,0,1,1,.4,1.33,1.33,0,0,1,0,2.41,3.91,3.91,0,0,1-3.17.32c-.4-.07-.95-.27-.73-.88s.63-.56,1.12-.37a3.22,3.22,0,0,0,.54.1C229.37,140.46,229.81,140.45,229.37,139.58Z"/><path class="cls-1" d="M140.16,139.58c-.43-.14-.87-.24-1.28-.41-.71-.3-1.32-.74-1.17-1.63a1.77,1.77,0,0,1,1.5-1.42,7.1,7.1,0,0,1,1.9-.05c.47,0,.95.25.86.82s-.63.48-1.08.42a1,1,0,0,0-1.11.49c.46.66,1.4.43,2,.86a1.38,1.38,0,0,1,0,2.45,4,4,0,0,1-3.18.3c-.4-.07-1-.28-.73-.89s.64-.55,1.13-.37a2.38,2.38,0,0,0,.53.11C140.19,140.47,140.62,140.45,140.16,139.58Z"/><path class="cls-1" d="M152.91,137.9a1.26,1.26,0,0,0-1.66-.49c-.48.14-1,.19-1.12-.37-.15-.73.53-.84,1-.95,2.28-.52,3.47.43,3.56,2.79.09,2.59.09,2.59-2.59,2.64a4.42,4.42,0,0,1-1.36-.09,1.43,1.43,0,0,1-1.11-1.4,1.52,1.52,0,0,1,.95-1.5C151.34,138.14,152.28,138.61,152.91,137.9Zm.29,1.38c-.11.27-.38.05-.58,0-.49-.05-1.07-.19-1.31.48a.49.49,0,0,0,.34.61C152.17,140.51,152.71,140.52,153.2,139.28Z"/><path class="cls-1" d="M162.21,140.19c-1.5,1.46-2.61,1.73-3.88,1a2.72,2.72,0,0,1,.55-5,2.74,2.74,0,0,1,3,.67c.12.13.29.41.24.46a1.82,1.82,0,0,1-.62.47c-.59.28-1-.37-1.53-.34-.81,0-1.44.32-1.48,1.24a1.31,1.31,0,0,0,1.47,1.54C160.67,140.16,161.32,139.54,162.21,140.19Z"/><path class="cls-1" d="M204.88,137.74v3a.65.65,0,0,1-.62.74c-.5,0-.93-.13-.93-.71q0-3,0-6a.73.73,0,0,1,.92-.75c.57.07.65.49.63,1C204.86,135.91,204.88,136.83,204.88,137.74Z"/><path class="cls-1" d="M236.23,141.54c-1.07.06-1.71-.21-2.08-.94-.58-1.18.31-2.79-1.08-3.74.55-.62.61-1.64,1.53-2,.34-.12,2.17,1.63,2.1,2a1.32,1.32,0,0,1-.27.45c-1.24,1.78-1.26,1.8.16,3,.31.28.57.59.37.87S236.32,141.5,236.23,141.54Z"/><path class="cls-1" d="M147.78,141.29c-2.52.31-2.83.1-3.07-2-.07-.6.17-1.25-.39-1.78-1.19-1.14.36-1.78.73-2.37s1,0,1.49.75,1.78.77.22,1.81c-.9.6-.56,1.83.4,2.63C147.44,140.51,147.81,140.62,147.78,141.29Z"/><path class="cls-1" d="M115.57,137.92c0-1.09,0-2.19,0-3.28a.65.65,0,0,1,.71-.65.66.66,0,0,1,.75.62c0,2.09,0,4.19,0,6.28,0,.41-.36.59-.76.61s-.73-.16-.75-.58c0-1,0-2,0-3Z"/><path class="cls-1" d="M165.83,138.79c0,.73,0,1.45,0,2.17,0,.43-.38.55-.78.55s-.78-.17-.79-.57c0-1.44,0-2.89,0-4.34,0-.39.4-.54.8-.55s.73.16.76.57c.05.72,0,1.45,0,2.17Z"/><path class="cls-1" d="M165.07,133.56c.48.07.91.29.94.77a1,1,0,0,1-1,1,.84.84,0,0,1-.91-.77C164,133.91,164.52,133.66,165.07,133.56Z"/><path class="cls-1" d="M170.41,135.36c.44-1.13,1-1.63,2.23-1.36C172,134.68,171.6,135.37,170.41,135.36Z"/></svg>