<svg id="Capa_1" data-name="Capa 1" xmlns="http://www.w3.org/2000/svg" viewBox="0 0 250 82"><defs><style>.cls-1{fill:#fff;}</style></defs><path class="cls-1" d="M34.94,26a18.47,18.47,0,0,1,4.44,2.86c5.44,5.08,4.9,14.67-1.09,19.51a19,19,0,0,1-12.18,4.16c-7,0-14,0-21,0C4.25,52.53,4,52.31,4,51.4Q4,28.16,4,4.94c0-.72,0-1.13,1-1.12,7.13.06,14.26,0,21.38.09A20.11,20.11,0,0,1,35.2,6C42.43,9.65,43,19.84,37.14,24.31,36.45,24.84,35.75,25.35,34.94,26ZM21.37,43.09v0c1.78,0,3.57.1,5.34,0,2.3-.16,4.31-1,5.18-3.37,1.5-4.09-.85-7.78-5.19-8.14-3.51-.29-7-.05-10.55-.13-.66,0-.86.22-.85.87,0,3.34,0,6.67,0,10,0,.69.23.85.87.84C17.9,43.07,19.64,43.09,21.37,43.09Zm-.63-20.88v-.05c1.64,0,3.29,0,4.93,0a5.63,5.63,0,0,0,1.07-.21,4.64,4.64,0,0,0,3.87-4.77c-.1-2.33-1.58-3.94-4.17-4.3-3.46-.48-6.94-.09-10.4-.21-.65,0-.74.3-.74.84,0,2.65,0,5.3,0,8,0,.6.19.78.78.77C17.63,22.19,19.19,22.21,20.74,22.21Z"/><path class="cls-1" d="M92.92,52.51c-4,0-7.81,0-11.59,0-.74,0-.88-.52-1.14-1q-4.8-8.51-9.6-17a1.75,1.75,0,0,0-1.88-1.15,18.31,18.31,0,0,1-3.55,0c-1.11-.11-1.25.34-1.24,1.31,0,5.48,0,11,0,16.43,0,1.17-.34,1.44-1.45,1.41-2.88-.08-5.76-.06-8.63,0-1,0-1.32-.18-1.32-1.26q.06-23.14,0-46.3c0-.87.19-1.15,1.11-1.15,7.26.06,14.53,0,21.79.1A19.55,19.55,0,0,1,86.51,7c4.73,3.23,6,7.94,5.4,13.32S88,29.28,83.21,31.59c-1.69.82-1.68.83-.72,2.51ZM70.38,13.13h0c-1.87,0-3.74,0-5.61,0-.52,0-.85,0-.84.71,0,3.19,0,6.39,0,9.58,0,.5.1.74.67.73,3.79,0,7.58.1,11.36-.09,3.39-.18,5.2-2.37,5.11-5.7C81,15.23,79,13.26,75.59,13.14,73.85,13.08,72.12,13.13,70.38,13.13Z"/><path class="cls-1" d="M101.87,28.08c0-7.63,0-15.25,0-22.88,0-1,.1-1.39,1.27-1.39q16.51.09,33,0c.94,0,1.24.2,1.21,1.18-.08,2.56-.07,5.12,0,7.67,0,.93-.29,1.11-1.15,1.11-7.26,0-14.53,0-21.79,0-1,0-1.34.19-1.29,1.25.09,2.14.07,4.29,0,6.44,0,.89.23,1.13,1.13,1.12,6.62,0,13.24,0,19.87,0,1,0,1.35.16,1.31,1.24-.09,2.37-.08,4.75,0,7.12,0,1-.21,1.29-1.26,1.29-6.58-.06-13.15,0-19.73-.06-1.13,0-1.35.34-1.32,1.37.07,2.55.08,5.11,0,7.67,0,1.09.18,1.45,1.37,1.43,7.26-.06,14.53,0,21.79,0,1,0,1.33.18,1.3,1.25-.09,2.6-.05,5.2,0,7.81,0,.68-.14.94-.89.94q-16.94,0-33.85,0c-1.16,0-1-.63-1-1.3Z"/><path class="cls-1" d="M170.52,3c6.87.06,13,2,18,7a21.37,21.37,0,0,1,3.39,4.78c.42.77.26,1.18-.44,1.65-2.57,1.74-5.13,3.49-7.64,5.32-.77.56-1,.38-1.43-.38-1.87-3.49-4.41-6.23-8.37-7.39A13.74,13.74,0,0,0,156.5,25.59c-.57,5.18.32,9.93,4.3,13.67A13.55,13.55,0,0,0,181,37.71a29.34,29.34,0,0,0,2.14-3.17c.36-.62.59-.75,1.21-.29,2.54,1.87,5.11,3.68,7.67,5.52.4.29.83.46.38,1.14-3.79,5.71-8.4,10.44-15.43,11.82-9.84,1.92-18.86.4-25.93-7.4-5-5.52-6.32-12.25-5.89-19.47C145.94,12.29,157.06,2.71,170.52,3Z"/><path class="cls-1" d="M197.07,51.71l16.74-41c.8-2,1.66-3.94,2.4-5.94a1.21,1.21,0,0,1,1.39-.91c2.88,0,5.76,0,8.63,0a1.24,1.24,0,0,1,1.36,1q4.56,11.24,9.18,22.46c-3.56.69-7,1.73-10.52,2.68l-4.38-11.8c-2.13,5.82-4.15,11.31-6.16,16.79-.41.29-.81.59-1.23.85a61.11,61.11,0,0,0-16.3,14.78C197.86,51,197.62,51.5,197.07,51.71Z"/><path class="cls-1" d="M197.07,51.71c.55-.21.79-.73,1.11-1.16a61.11,61.11,0,0,1,16.3-14.78c.42-.26.82-.56,1.23-.85,3.4-1.89,7-3.42,10.54-5,3.49-.95,7-2,10.52-2.68,2.36-.22,4.69-.62,7.07-.71,1,0,1.18.36,1.33,1.21s-.21,1.15-1,1.35C230,32.79,218.34,40.2,209.51,51.94a1.36,1.36,0,0,1-1.2.7q-5.34,0-10.67,0C196.85,52.64,196.59,52.44,197.07,51.71Z"/><path class="cls-1" d="M247,52.51c-4,0-7.83,0-11.65,0-.6,0-.78-.31-.95-.76-1.46-3.91-2.9-7.83-4.39-11.74-.25-.66-.07-1,.51-1.28a68.16,68.16,0,0,1,8.42-3.87c.59-.23.88-.1,1.12.49C242.33,41,244.62,46.65,247,52.51Z"/><path class="cls-1" d="M115.13,71.41c-.65,1.54-1.32,3.06-1.92,4.62a1,1,0,0,1-1.1.75c-.56,0-.77-.24-1-.73A27,27,0,0,0,109,71.6c0,1.42,0,2.84,0,4.25,0,.56,0,.94-.76.94s-.71-.48-.71-1V68.55c0-.43-.15-1,.59-1,.57,0,1,0,1.28.7.72,2,1.55,3.89,2.33,5.83.12.28.14.62.57.82.84-2.11,1.71-4.21,2.5-6.33.28-.75.63-1.16,1.46-1s.47.87.48,1.31c.05,2.23,0,4.47,0,6.71,0,.5.33,1.21-.74,1.19s-.65-.68-.66-1.13c0-1.41,0-2.82,0-4.24Z"/><path class="cls-1" d="M11.11,73.2c-.84,0-1.57,0-2.3,0-.49,0-.77-.06-.74-.65s.23-.65.68-.6a.57.57,0,0,0,.13,0c1.22.09,2.9-.54,3.54.25.77,1,.17,2.62.24,4,0,.27,0,.52-.39.58-.86.12-.68-.66-.94-1-2.1,1.7-4.49,1.65-6.09-.1a5.19,5.19,0,0,1,.19-7,4.72,4.72,0,0,1,6.34-.1c.33.33,1.14.67.45,1.39-.47.48-.81.43-1.26-.14A2.8,2.8,0,0,0,7.51,69a3.16,3.16,0,0,0-2,3.15,3.29,3.29,0,0,0,1.81,3.26C9.06,76.12,10.61,75.26,11.11,73.2Z"/><path class="cls-1" d="M147.74,76.66a1.7,1.7,0,0,1-2.38-1.11c-.27-.71-.78-1.33-1.09-2s-1.06-.6-1.64-.56c-.77,0-.35.7-.39,1.07a15.22,15.22,0,0,0,0,1.91c0,.48.05.88-.67.86s-.86-.19-.85-.86c0-2.51,0-5,0-7.53,0-.55.12-.86.75-.83,1.28.05,2.56,0,3.83.09a2.4,2.4,0,0,1,2.34,2,2.35,2.35,0,0,1-1.23,2.78c-.76.39-.73.72-.33,1.34C146.64,74.65,147.14,75.62,147.74,76.66Zm-4.08-5.06h1c.85,0,1.42-.4,1.47-1.29s-.53-1.33-1.34-1.42-1.36,0-2.05,0c-.23,0-.51,0-.52.29a6.31,6.31,0,0,0,0,2.17C142.48,71.93,143.25,71.46,143.66,71.6Z"/><path class="cls-1" d="M207.24,76.67c-1.19.3-1.94,0-2.36-1.09-.27-.72-.79-1.34-1.09-2s-1-.61-1.63-.59c-.8,0-.38.69-.42,1a17.54,17.54,0,0,0,0,1.92c0,.45.11.9-.64.87s-.89-.12-.88-.82c0-2.51,0-5,0-7.53,0-.53.06-.89.72-.86,1.32.06,2.65,0,4,.12a2.52,2.52,0,0,1,1,4.7c-.86.43-.67.83-.3,1.44C206.18,74.75,206.69,75.7,207.24,76.67Zm-3.92-5.11a7.21,7.21,0,0,0,1.23,0,1.3,1.3,0,0,0,1-1.84c-.29-.72-3.2-1.28-3.73-.72a.7.7,0,0,0-.1.23C201.21,70.68,201.82,71.6,203.32,71.56Z"/><path class="cls-1" d="M28.14,76.65a1.69,1.69,0,0,1-2.37-1.09c-.28-.71-.79-1.33-1.09-2s-1-.6-1.63-.57c-.77,0-.37.69-.41,1.06a15.21,15.21,0,0,0,0,1.91c0,.49,0,.86-.69.87s-.8-.32-.79-.91c0-2.46,0-4.92,0-7.38,0-.72.21-1,.93-.93,1.23.06,2.47,0,3.69.1a2.38,2.38,0,0,1,2.28,2,2.32,2.32,0,0,1-1.29,2.75c-.88.4-.59.77-.27,1.3C27,74.68,27.56,75.63,28.14,76.65ZM24.2,71.6h.27c.81,0,1.74.14,2-.92A1.19,1.19,0,0,0,26,69.13a5.54,5.54,0,0,0-3.2-.15c-.05,0-.09.14-.12.22A1.57,1.57,0,0,0,24.2,71.6Z"/><path class="cls-1" d="M75.18,72.24A4.53,4.53,0,0,1,70.61,77a4.8,4.8,0,0,1,0-9.59A4.49,4.49,0,0,1,75.18,72.24Zm-1.51-.1a3.09,3.09,0,0,0-3.15-3.37,3.45,3.45,0,0,0,.1,6.85A3.14,3.14,0,0,0,73.67,72.14Z"/><path class="cls-1" d="M155.88,71.84c.12-1.21-.64-3.21.29-4s2.78-.19,4.23-.21c.28,0,.55,0,.83,0,.53,0,.71.2.7.73s-.3.57-.7.56c-1,0-2.1.06-3.15,0s-.81.65-.75,1.16-.5,1.4.72,1.33c.91,0,1.82,0,2.73,0,.62,0,.79.23.79.8s-.41.59-.83.59-1.09,0-1.64,0c-1.89,0-1.86,0-1.82,1.9,0,.65.17.89.84.85,1,0,2,0,3,0,.51,0,.85,0,.86.7s-.46.63-.89.63c-1.46,0-2.93,0-4.38,0-.65,0-.88-.16-.85-.83C155.92,74.67,155.88,73.39,155.88,71.84Z"/><path class="cls-1" d="M96.31,67.58c.73,0,1.46,0,2.19,0,.51,0,.72.13.73.68s-.33.62-.78.61c-1,0-2,0-3,0s-.74.79-.78,1.33-.22,1.24.79,1.16,1.83,0,2.74,0c.51,0,.73.12.72.68s-.13.74-.68.71-1.38.07-2,0c-1.28-.18-1.62.33-1.57,1.57,0,.92.22,1.3,1.2,1.2s1.82,0,2.73,0c.5,0,.77.1.78.66s-.22.69-.73.68c-1.55,0-3.1,0-4.65,0-.6,0-.78-.19-.77-.78,0-2.51,0-5,0-7.52,0-.75.27-.94,1-.9S95.58,67.58,96.31,67.58Z"/><path class="cls-1" d="M173,67.4a3.39,3.39,0,0,1,3.23,1.66c.24.41.32.7-.22,1s-.66.35-1-.19a2.19,2.19,0,0,0-2.69-1,1.14,1.14,0,0,0-1,1,1.09,1.09,0,0,0,.78,1.16c.72.27,1.48.43,2.22.64,1.61.45,2.31,1.25,2.29,2.63a2.75,2.75,0,0,1-2.43,2.7A3.87,3.87,0,0,1,169.79,75c-.24-.54-.36-1,.34-1.33.85-.47.75.22,1,.62a2.35,2.35,0,0,0,3.22,1.15,1.33,1.33,0,0,0,.86-1.27,1.19,1.19,0,0,0-.84-1.13c-.64-.24-1.3-.39-2-.58-1.8-.52-2.64-1.54-2.43-2.94S171.33,67.41,173,67.4Z"/><path class="cls-1" d="M54.46,67.63a17.34,17.34,0,0,1,2,0,2.72,2.72,0,0,1,2.68,2.86,2.77,2.77,0,0,1-2.77,3,12.21,12.21,0,0,1-2.18,0c-.72-.06-1,.18-.91.91.06.54,0,1.09,0,1.63s-.19.79-.77.78-.81-.13-.81-.75q0-3.84,0-7.66c0-.58.18-.83.77-.8s1.28,0,1.92,0Zm.33,4.49c.53,0,.9,0,1.26,0a1.52,1.52,0,0,0,1.65-1.48,1.55,1.55,0,0,0-1.56-1.72c-.72-.08-1.46,0-2.19-.06-.22,0-.54,0-.55.25A10,10,0,0,0,53.45,72C53.57,72.43,54.44,72,54.79,72.12Z"/><path class="cls-1" d="M233.24,76.67c-1.07.24-1.77.12-2-1s-.9-1.47-2.1-1.5c-1.55,0-2.62.18-2.92,1.93-.17,1-1.05.49-1.85.75,1.23-3.07,2.38-5.92,3.5-8.78.19-.5.55-.49,1-.52a.89.89,0,0,1,1,.69C231,71.05,232.12,73.84,233.24,76.67Zm-5.7-3.79h2.65l-1.31-3.45C228.36,70.75,228,71.78,227.54,72.88Z"/><path class="cls-1" d="M192.56,76.63c-1.1.38-1.77.11-2-1s-.85-1.4-2-1.44c-1.58,0-2.7.18-3,2-.2,1.11-1.07.42-1.79.62,1.18-3,2.31-5.79,3.42-8.61a.83.83,0,0,1,.93-.6c.47,0,.83,0,1.05.61C190.27,71,191.42,73.82,192.56,76.63Zm-3.1-3.77a17.06,17.06,0,0,0-1.32-3.31l-1.26,3.31Z"/><path class="cls-1" d="M125.45,72.24c0-1.28,0-2.56,0-3.83,0-.54.07-.87.73-.84,1.37.06,2.75,0,4.1.11a2.72,2.72,0,0,1,2.57,2.85,2.79,2.79,0,0,1-2.57,2.88,12.63,12.63,0,0,1-2.46,0c-.73,0-1,.21-.91.93.06.49,0,1,0,1.5s-.06.91-.79.9-.7-.35-.69-.85C125.46,74.7,125.45,73.47,125.45,72.24Zm2.91-.13c.59,0,1,0,1.41,0a1.47,1.47,0,0,0,1.52-1.45,1.45,1.45,0,0,0-1.4-1.69,22.38,22.38,0,0,0-2.46-.09c-.15,0-.44.13-.45.21a9.91,9.91,0,0,0,0,2.72C127.15,72.53,128,72,128.36,72.11Z"/><path class="cls-1" d="M43.26,71.17c0,.91.05,1.83,0,2.74A3.25,3.25,0,0,1,39.62,77a3.23,3.23,0,0,1-3.51-3.22c0-1.73,0-3.47,0-5.2,0-.47-.17-1,.68-1s.75.43.74,1c0,1.51,0,3,0,4.52,0,1.68.8,2.58,2.17,2.58s2.1-.91,2.11-2.61c0-1.46,0-2.92,0-4.38,0-.55-.13-1.1.78-1.08s.68.53.69,1v2.6Z"/><path class="cls-1" d="M240.93,72.11c0-1.18,0-2.37,0-3.55,0-.48-.16-1,.68-1s.74.43.74,1c0,2,0,3.91,0,5.87,0,.85.22,1.13,1.07,1.06s1.91,0,2.86,0c.53,0,.71.15.73.69s-.26.66-.74.65c-1.5,0-3,0-4.5,0-.68,0-.85-.21-.83-.85C241,74.66,240.93,73.38,240.93,72.11Z"/><path class="cls-1" d="M216.85,72.34c0,1.18,0,2.37,0,3.55,0,.6-.06.91-.79.9s-.69-.36-.69-.86c0-2.5,0-5,0-7.52,0-.52.05-.86.72-.85s.77.24.76.81C216.83,69.69,216.85,71,216.85,72.34Z"/></svg>