<svg id="Capa_1" data-name="Capa 1" xmlns="http://www.w3.org/2000/svg" xmlns:xlink="http://www.w3.org/1999/xlink" viewBox="0 0 250 56"><defs><style>.cls-1{fill:#fff;}.cls-2{clip-path:url(#clip-path);}.cls-3{clip-path:url(#clip-path-2);}.cls-4{clip-path:url(#clip-path-3);}.cls-5{clip-path:url(#clip-path-4);}.cls-6{clip-path:url(#clip-path-5);}.cls-7{clip-path:url(#clip-path-6);}.cls-8{clip-path:url(#clip-path-7);}</style><clipPath id="clip-path"><path class="cls-1" d="M165.94-55.81c-.05,2.11-.12,2.61-.43,3.29a7.86,7.86,0,0,1-5.31,3.92c-2.41.5-5.3-.15-6.26-1.42a4.28,4.28,0,0,1,.85-5.77c1.13-.76,2.28-1.15,6-2.08,1.79-.46,3.69-1,4.19-1.23l.91-.41S166-57.18,165.94-55.81ZM158.1-76.54c-6.58.61-11,4.16-11.7,9.51a1,1,0,0,0,.85,1.1h5.87a1,1,0,0,0,1-.82l0-.14c.58-2.3,1.94-3.19,4.86-3.5,2.62-.25,5.07.38,6,1.56a3.39,3.39,0,0,1,.37,3.59c-.49,1-2.24,1.52-7.19,2.31-4,.63-6.07,1.18-8.06,2.14a8.84,8.84,0,0,0-5.32,9.27A9,9,0,0,0,147.89-45a13.21,13.21,0,0,0,4.94,2.26,21.92,21.92,0,0,0,6.86,0,9.59,9.59,0,0,0,5.62-3.39,2.25,2.25,0,0,1,.51-.62c.07,0,.15.4.22.88a11.91,11.91,0,0,0,.46,1.8l.1.25a1,1,0,0,0,1,.67h5.9a1,1,0,0,0,1-1v-.08c0-.46-.09-.5-.11-.95s-.19-4.38-.19-9.85c0-5-.09-9.95-.17-11-.41-4.7-2.43-7.75-6.13-9.33A23.68,23.68,0,0,0,158.1-76.54Z"/></clipPath><clipPath id="clip-path-2"><path class="cls-1" d="M195.16-76.44a9.54,9.54,0,0,0-5,2.71c-.65.66-1.41,1.49-1.66,1.81l-.47.6v-3.52a1,1,0,0,0-1-1h-6.51a1,1,0,0,0-1,1v30.67a1,1,0,0,0,1,1h6.67a1,1,0,0,0,1-1v-8.79c0-10.69,0-11.1,1-12.85a7,7,0,0,1,2.91-2.81,4.61,4.61,0,0,1,2.69-.48,5.09,5.09,0,0,1,2.6.41,5.25,5.25,0,0,1,3,4.15c.11.67.17,5.09.17,11.24v9.13a1,1,0,0,0,1,1h6.52a1,1,0,0,0,1-1h0l0-11.1,0-10.38v-.9a9.85,9.85,0,0,0-3.43-7,8.54,8.54,0,0,0-2.66-2A12.77,12.77,0,0,0,195.16-76.44Z"/></clipPath><clipPath id="clip-path-3"><path class="cls-1" d="M231.76-69.95c3,.62,5.06,2.38,6.1,6a16.84,16.84,0,0,1,.44,4.45,12.77,12.77,0,0,1-1.4,6.37,7.21,7.21,0,0,1-5.7,4.18,7.76,7.76,0,0,1-6.4-1.75c-2.25-2.07-3.41-6.08-3-10.35A11.36,11.36,0,0,1,223-65.7,7.41,7.41,0,0,1,231.76-69.95Zm-5.06-6.49a17,17,0,0,0-8.92,4.63c-5.91,5.89-6.53,16.38-1.36,23.15,3.51,4.61,9,6.89,15.34,6.35a16.32,16.32,0,0,0,10.17-4.57,16.47,16.47,0,0,0,4.54-8,20.11,20.11,0,0,0,0-9.22,16.59,16.59,0,0,0-8.68-10.88A18.92,18.92,0,0,0,226.7-76.44Z"/></clipPath><clipPath id="clip-path-4"><path class="cls-1" d="M117.35-67.38v23.22a1,1,0,0,0,1,1h6.67a1,1,0,0,0,1-1V-87.7a1,1,0,0,0-1-1h-6.67a1,1,0,0,0-1,1Z"/></clipPath><clipPath id="clip-path-5"><path class="cls-1" d="M131.9-67.38v23.22a1,1,0,0,0,1,1h6.68a1,1,0,0,0,1-1V-98a1,1,0,0,0-1-1h-6.68a1,1,0,0,0-1,1Z"/></clipPath><clipPath id="clip-path-6"><path class="cls-1" d="M98.9-69.84a6.6,6.6,0,0,1,5,5,6,6,0,0,1,.24,1.32V-63H97c-5.84,0-7.19,0-7.19-.22a10.82,10.82,0,0,1,2.11-4.66C93.35-69.57,96.3-70.39,98.9-69.84Zm-4.61-6.62A15.93,15.93,0,0,0,81.56-63.9,21.4,21.4,0,0,0,82-53.31c2.48,7.63,9,11.71,17.73,11,5.17-.41,9.68-3.15,11.75-7.14a16,16,0,0,0,.83-2.12h0a1,1,0,0,0-.66-1.3,1.13,1.13,0,0,0-.32,0H104.9a1,1,0,0,0-1,.65l0,.1a5.29,5.29,0,0,1-3.58,3,10.7,10.7,0,0,1-2.52.25A6.94,6.94,0,0,1,92-51.3a10.14,10.14,0,0,1-2.09-4.13c-.17-.71-.32-1.36-.32-1.44S94.94-57,101.47-57h10.74a1,1,0,0,0,1-1v-.05l0-.94c-.39-7.59-3.52-13.37-8.69-16.06A17.39,17.39,0,0,0,94.29-76.46Z"/></clipPath><clipPath id="clip-path-7"><path class="cls-1" d="M75.6-75.93a14.88,14.88,0,0,0-1.53.53,11.7,11.7,0,0,0-3.5,3.53l-.9,1.37,0-2.69,0-1.66a1,1,0,0,0-1-1H62.23a1,1,0,0,0-1,1v30.67a1,1,0,0,0,1,1h6.66a1,1,0,0,0,1-1l0-8.28,0-9.29.48-1.37A7.52,7.52,0,0,1,77-68.34,10,10,0,0,1,79-68.42a.71.71,0,0,0,.81-.61.34.34,0,0,0,0-.1v-6.44a.51.51,0,0,0-.42-.51l-.11,0A11.22,11.22,0,0,0,75.6-75.93Z"/></clipPath></defs><path class="cls-1" d="M165.94-55.81c-.05,2.11-.12,2.61-.43,3.29a7.86,7.86,0,0,1-5.31,3.92c-2.41.5-5.3-.15-6.26-1.42a4.28,4.28,0,0,1,.85-5.77c1.13-.76,2.28-1.15,6-2.08,1.79-.46,3.69-1,4.19-1.23l.91-.41S166-57.18,165.94-55.81ZM158.1-76.54c-6.58.61-11,4.16-11.7,9.51a1,1,0,0,0,.85,1.1h5.87a1,1,0,0,0,1-.82l0-.14c.58-2.3,1.94-3.19,4.86-3.5,2.62-.25,5.07.38,6,1.56a3.39,3.39,0,0,1,.37,3.59c-.49,1-2.24,1.52-7.19,2.31-4,.63-6.07,1.18-8.06,2.14a8.84,8.84,0,0,0-5.32,9.27A9,9,0,0,0,147.89-45a13.21,13.21,0,0,0,4.94,2.26,21.92,21.92,0,0,0,6.86,0,9.59,9.59,0,0,0,5.62-3.39,2.25,2.25,0,0,1,.51-.62c.07,0,.15.4.22.88a11.91,11.91,0,0,0,.46,1.8l.1.25a1,1,0,0,0,1,.67h5.9a1,1,0,0,0,1-1v-.08c0-.46-.09-.5-.11-.95s-.19-4.38-.19-9.85c0-5-.09-9.95-.17-11-.41-4.7-2.43-7.75-6.13-9.33A23.68,23.68,0,0,0,158.1-76.54Z"/><g class="cls-2"><rect class="cls-1" x="-103.28" y="-196.69" width="451.1" height="507.74"/></g><path class="cls-1" d="M195.16-76.44a9.54,9.54,0,0,0-5,2.71c-.65.66-1.41,1.49-1.66,1.81l-.47.6v-3.52a1,1,0,0,0-1-1h-6.51a1,1,0,0,0-1,1v30.67a1,1,0,0,0,1,1h6.67a1,1,0,0,0,1-1v-8.79c0-10.69,0-11.1,1-12.85a7,7,0,0,1,2.91-2.81,4.61,4.61,0,0,1,2.69-.48,5.09,5.09,0,0,1,2.6.41,5.25,5.25,0,0,1,3,4.15c.11.67.17,5.09.17,11.24v9.13a1,1,0,0,0,1,1h6.52a1,1,0,0,0,1-1h0l0-11.1,0-10.38v-.9a9.85,9.85,0,0,0-3.43-7,8.54,8.54,0,0,0-2.66-2A12.77,12.77,0,0,0,195.16-76.44Z"/><g class="cls-3"><rect class="cls-1" x="-103.28" y="-196.69" width="451.1" height="507.74"/></g><path class="cls-1" d="M231.76-69.95c3,.62,5.06,2.38,6.1,6a16.84,16.84,0,0,1,.44,4.45,12.77,12.77,0,0,1-1.4,6.37,7.21,7.21,0,0,1-5.7,4.18,7.76,7.76,0,0,1-6.4-1.75c-2.25-2.07-3.41-6.08-3-10.35A11.36,11.36,0,0,1,223-65.7,7.41,7.41,0,0,1,231.76-69.95Zm-5.06-6.49a17,17,0,0,0-8.92,4.63c-5.91,5.89-6.53,16.38-1.36,23.15,3.51,4.61,9,6.89,15.34,6.35a16.32,16.32,0,0,0,10.17-4.57,16.47,16.47,0,0,0,4.54-8,20.11,20.11,0,0,0,0-9.22,16.59,16.59,0,0,0-8.68-10.88A18.92,18.92,0,0,0,226.7-76.44Z"/><g class="cls-4"><rect class="cls-1" x="-103.28" y="-196.69" width="451.1" height="507.74"/></g><path class="cls-1" d="M117.35-67.38v23.22a1,1,0,0,0,1,1h6.67a1,1,0,0,0,1-1V-87.7a1,1,0,0,0-1-1h-6.67a1,1,0,0,0-1,1Z"/><g class="cls-5"><rect class="cls-1" x="-103.28" y="-196.69" width="451.1" height="507.74"/></g><path class="cls-1" d="M131.9-67.38v23.22a1,1,0,0,0,1,1h6.68a1,1,0,0,0,1-1V-98a1,1,0,0,0-1-1h-6.68a1,1,0,0,0-1,1Z"/><g class="cls-6"><rect class="cls-1" x="-103.28" y="-196.69" width="451.1" height="507.74"/></g><path class="cls-1" d="M98.9-69.84a6.6,6.6,0,0,1,5,5,6,6,0,0,1,.24,1.32V-63H97c-5.84,0-7.19,0-7.19-.22a10.82,10.82,0,0,1,2.11-4.66C93.35-69.57,96.3-70.39,98.9-69.84Zm-4.61-6.62A15.93,15.93,0,0,0,81.56-63.9,21.4,21.4,0,0,0,82-53.31c2.48,7.63,9,11.71,17.73,11,5.17-.41,9.68-3.15,11.75-7.14a16,16,0,0,0,.83-2.12h0a1,1,0,0,0-.66-1.3,1.13,1.13,0,0,0-.32,0H104.9a1,1,0,0,0-1,.65l0,.1a5.29,5.29,0,0,1-3.58,3,10.7,10.7,0,0,1-2.52.25A6.94,6.94,0,0,1,92-51.3a10.14,10.14,0,0,1-2.09-4.13c-.17-.71-.32-1.36-.32-1.44S94.94-57,101.47-57h10.74a1,1,0,0,0,1-1v-.05l0-.94c-.39-7.59-3.52-13.37-8.69-16.06A17.39,17.39,0,0,0,94.29-76.46Z"/><g class="cls-7"><rect class="cls-1" x="-103.28" y="-196.69" width="451.1" height="507.74"/></g><path class="cls-1" d="M75.6-75.93a14.88,14.88,0,0,0-1.53.53,11.7,11.7,0,0,0-3.5,3.53l-.9,1.37,0-2.69,0-1.66a1,1,0,0,0-1-1H62.23a1,1,0,0,0-1,1v30.67a1,1,0,0,0,1,1h6.66a1,1,0,0,0,1-1l0-8.28,0-9.29.48-1.37A7.52,7.52,0,0,1,77-68.34,10,10,0,0,1,79-68.42a.71.71,0,0,0,.81-.61.34.34,0,0,0,0-.1v-6.44a.51.51,0,0,0-.42-.51l-.11,0A11.22,11.22,0,0,0,75.6-75.93Z"/><g class="cls-8"><rect class="cls-1" x="-103.28" y="-196.69" width="451.1" height="507.74"/></g><path class="cls-1" d="M80.36,28.55C78.79,26.93,76.28,26,72.93,26h-6.4a2.23,2.23,0,1,0,0,4.45h5.72c3.61,0,5.56,1.7,5.56,4.88v.56a18.48,18.48,0,0,0-6-.94c-5.48,0-9.26,2.38-9.26,7.22v.08c0,4.51,3.74,6.93,7.94,6.93A9.14,9.14,0,0,0,77.77,46v.85A2.32,2.32,0,0,0,80.27,49a2.45,2.45,0,0,0,2.51-2.46v-11C82.78,32.54,82,30.16,80.36,28.55ZM77.89,40.69c0,2.85-2.59,4.8-6,4.8-2.47,0-4.38-1.23-4.38-3.4V42c0-2.34,2-3.74,5.27-3.74a14.17,14.17,0,0,1,5.09.89Z"/><path class="cls-1" d="M95,49.18h-.26a3.2,3.2,0,0,1-2.93-2.25L84.35,29.82a3.94,3.94,0,0,1-.3-1.27,2.57,2.57,0,0,1,2.55-2.47A2.6,2.6,0,0,1,89.15,28l5.77,14.86,5.86-14.94a2.56,2.56,0,0,1,2.42-1.79,2.46,2.46,0,0,1,2.51,2.47,3.08,3.08,0,0,1-.3,1.23L97.94,46.93A3.25,3.25,0,0,1,95,49.18Z"/><path class="cls-1" d="M117.34,49.27a11.19,11.19,0,0,1-11.5-11.64v-.08c0-6.41,4.54-11.68,11-11.68,7.14,0,10.66,5.86,10.66,11A2.39,2.39,0,0,1,125,39.37H111a6.26,6.26,0,0,0,6.46,5.69,8.08,8.08,0,0,0,5.31-2,1.89,1.89,0,0,1,1.31-.47,2,2,0,0,1,2,2.08,2.28,2.28,0,0,1-.68,1.58A11.53,11.53,0,0,1,117.34,49.27ZM122.44,36c-.34-3.31-2.29-5.9-5.69-5.9-3.14,0-5.35,2.42-5.82,5.9Z"/><path class="cls-1" d="M130.17,28.67a2.54,2.54,0,0,1,2.55-2.59,2.58,2.58,0,0,1,2.59,2.59v1.11a8.12,8.12,0,0,1,7-3.91c5.05,0,8,3.4,8,8.58v12A2.5,2.5,0,0,1,147.75,49a2.53,2.53,0,0,1-2.59-2.55V36c0-3.48-1.74-5.48-4.8-5.48s-5.05,2.08-5.05,5.57V46.42a2.57,2.57,0,0,1-5.14,0Z"/><path class="cls-1" d="M176,46.42a2.57,2.57,0,0,1-5.13,0V45a9,9,0,0,1-7.65,4.21c-5.26,0-10.4-4.21-10.4-11.64v-.08c0-7.43,5-11.64,10.4-11.64a9.19,9.19,0,0,1,7.65,3.95V20.1a2.57,2.57,0,0,1,5.13,0Zm-18-8.91v.08c0,4.33,3,7.18,6.45,7.18s6.5-2.89,6.5-7.18v-.08c0-4.33-3.06-7.18-6.5-7.18S158,33.05,158,37.51Z"/><path class="cls-1" d="M202.27,28.67a2.54,2.54,0,0,1,2.55-2.59,2.58,2.58,0,0,1,2.59,2.59v1.11a8.12,8.12,0,0,1,7-3.91c5.06,0,8,3.4,8,8.58v12A2.5,2.5,0,0,1,219.85,49a2.54,2.54,0,0,1-2.59-2.55V36c0-3.48-1.74-5.48-4.8-5.48s-5.05,2.08-5.05,5.57V46.42a2.57,2.57,0,0,1-5.14,0Z"/><path class="cls-1" d="M224.82,37.68v-.09a12,12,0,0,1,23.9-.08v.08a11.72,11.72,0,0,1-12,11.68A11.59,11.59,0,0,1,224.82,37.68Zm18.77,0v-.09a6.93,6.93,0,0,0-6.88-7.22c-4.12,0-6.75,3.23-6.75,7.14v.08a6.91,6.91,0,0,0,6.83,7.18C241,44.77,243.59,41.54,243.59,37.68Z"/><path class="cls-1" d="M26.46,13.92a14,14,0,1,0,14,14A14,14,0,0,0,26.46,13.92Zm0,22.47A8.43,8.43,0,1,1,34.89,28,8.44,8.44,0,0,1,26.46,36.39Z"/><path class="cls-1" d="M216.62,17.64h-9.54a2.39,2.39,0,0,0,0,4.77h9.54a2.39,2.39,0,1,0,0-4.77Z"/><path class="cls-1" d="M63.83,13.84v-.05a6.18,6.18,0,0,1,6.23-6.25A6,6,0,0,1,74.24,9a1.28,1.28,0,0,1,.44,1,1.25,1.25,0,0,1-1.27,1.24,1.38,1.38,0,0,1-.82-.27,3.78,3.78,0,0,0-2.56-1,3.61,3.61,0,0,0-3.46,3.81v0a3.62,3.62,0,0,0,3.58,3.83,4,4,0,0,0,2.67-1.06,1.15,1.15,0,0,1,1.92.9,1.06,1.06,0,0,1-.38.86A5.87,5.87,0,0,1,70,20,6.11,6.11,0,0,1,63.83,13.84Z"/><path class="cls-1" d="M76.22,4.46A1.35,1.35,0,0,1,77.58,3.1,1.37,1.37,0,0,1,79,4.46v14a1.37,1.37,0,0,1-2.74,0Z"/><path class="cls-1" d="M81.33,9a1.35,1.35,0,0,1,1.36-1.38A1.37,1.37,0,0,1,84.07,9V18.5a1.37,1.37,0,0,1-2.74,0ZM82,5.91a1,1,0,0,1,.18-.5l1.29-2a1.23,1.23,0,0,1,1.09-.65c.72,0,1.63.45,1.63.88a1,1,0,0,1-.39.68L84.23,5.78a2,2,0,0,1-1.6.61C82.24,6.39,82,6.21,82,5.91Z"/><path class="cls-1" d="M86.29,9a1.35,1.35,0,0,1,1.36-1.38A1.37,1.37,0,0,1,89,9v.59a4.34,4.34,0,0,1,3.74-2.09c2.7,0,4.26,1.81,4.26,4.58V18.5a1.34,1.34,0,0,1-1.36,1.36,1.35,1.35,0,0,1-1.38-1.36V13c0-1.85-.93-2.92-2.56-2.92A2.66,2.66,0,0,0,89,13v5.5a1.37,1.37,0,0,1-2.74,0Z"/><path class="cls-1" d="M98.93,4.58a1.58,1.58,0,0,1,3.13,0v.13a1.58,1.58,0,0,1-3.13,0ZM99.14,9a1.35,1.35,0,0,1,1.35-1.38A1.38,1.38,0,0,1,101.88,9V18.5a1.36,1.36,0,0,1-1.39,1.36,1.35,1.35,0,0,1-1.35-1.36Z"/><path class="cls-1" d="M103.44,13.84v-.05a6.18,6.18,0,0,1,6.23-6.25A6,6,0,0,1,113.85,9a1.27,1.27,0,0,1,.43,1A1.24,1.24,0,0,1,113,11.23a1.38,1.38,0,0,1-.82-.27,3.78,3.78,0,0,0-2.56-1,3.61,3.61,0,0,0-3.46,3.81v0a3.62,3.62,0,0,0,3.58,3.83,4,4,0,0,0,2.67-1.06,1.15,1.15,0,0,1,1.92.9,1.06,1.06,0,0,1-.38.86,5.87,5.87,0,0,1-4.35,1.7A6.11,6.11,0,0,1,103.44,13.84Z"/><path class="cls-1" d="M114.88,16.31v0c0-2.58,2-3.85,4.93-3.85a10.12,10.12,0,0,1,3.22.5v-.29c0-1.7-1-2.61-3-2.61a7,7,0,0,0-2.65.48,1.71,1.71,0,0,1-.43.06,1.13,1.13,0,0,1-1.15-1.13,1.18,1.18,0,0,1,.74-1.08,10.29,10.29,0,0,1,3.85-.71,5.38,5.38,0,0,1,4,1.34,5,5,0,0,1,1.29,3.69v5.89a1.31,1.31,0,0,1-1.34,1.31A1.24,1.24,0,0,1,123,18.71v-.46A4.83,4.83,0,0,1,119.11,20C116.87,20,114.88,18.71,114.88,16.31Zm8.19-.86v-.82a7.64,7.64,0,0,0-2.72-.47c-1.76,0-2.8.74-2.8,2v0c0,1.16,1,1.81,2.33,1.81C121.69,18,123.07,17,123.07,15.45Z"/><path class="cls-1" d="M196.24,28.55c-1.57-1.62-4.08-2.51-7.43-2.51h-6.4a2.23,2.23,0,1,0,0,4.45h5.72c3.61,0,5.56,1.7,5.56,4.88v.56a18.48,18.48,0,0,0-6-.94c-5.48,0-9.25,2.38-9.25,7.22v.08c0,4.51,3.73,6.93,7.94,6.93a9.12,9.12,0,0,0,7.3-3.27v.85a2.32,2.32,0,0,0,2.5,2.16,2.44,2.44,0,0,0,2.51-2.46v-11C198.66,32.54,197.9,30.16,196.24,28.55Zm-2.46,12.14c0,2.85-2.59,4.8-6,4.8-2.46,0-4.37-1.23-4.37-3.4V42c0-2.34,2-3.74,5.26-3.74a14.27,14.27,0,0,1,5.1.89Z"/><circle class="cls-1" cx="6.94" cy="16.77" r="2.81"/><circle class="cls-1" cx="15.22" cy="8.53" r="2.81"/><circle class="cls-1" cx="26.51" cy="5.53" r="2.81"/><circle class="cls-1" cx="37.78" cy="8.58" r="2.81"/><circle class="cls-1" cx="46.02" cy="16.86" r="2.81"/><circle class="cls-1" cx="49.02" cy="28.14" r="2.81"/><circle class="cls-1" cx="45.86" cy="39.24" r="2.81"/><circle class="cls-1" cx="37.69" cy="47.45" r="2.81"/><circle class="cls-1" cx="26.51" cy="50.47" r="2.81"/><circle class="cls-1" cx="15.31" cy="47.5" r="2.81"/><circle class="cls-1" cx="7.1" cy="39.33" r="2.81"/><circle class="cls-1" cx="4.08" cy="28.14" r="2.81"/></svg>