<svg id="Capa_1" data-name="Capa 1" xmlns="http://www.w3.org/2000/svg" viewBox="0 0 250 44"><defs><style>.cls-1{fill:#fff;}</style></defs><path class="cls-1" d="M63.39,15.32A11.88,11.88,0,1,0,75.24,27.19,11.87,11.87,0,0,0,63.39,15.32Zm0,17.1a5.24,5.24,0,1,1,3.73-1.52A5.24,5.24,0,0,1,63.39,32.42Z"/><polygon class="cls-1" points="90.36 15.88 87.13 15.88 87.13 8.88 80.03 8.88 80.03 15.88 76.79 15.88 76.79 22.31 80.03 22.31 80.03 38.49 87.13 38.49 87.13 22.31 90.36 22.31 90.36 15.88"/><rect class="cls-1" x="93.61" y="15.88" width="7.09" height="22.6"/><path class="cls-1" d="M97.16,4.93a4,4,0,1,0,3.94,4A4,4,0,0,0,97.16,4.93Z"/><path class="cls-1" d="M198.8,22A4.22,4.22,0,0,1,203,26.2V38.51h7.09V25.32c0-6-3.46-9.91-8.94-9.91-2.25,0-4.63,1-6.58,4.15V16h-7.1V38.51h7V26.2A4.23,4.23,0,0,1,198.8,22Z"/><polygon class="cls-1" points="235.93 38.49 227.23 27.19 235.32 15.88 227.03 15.88 220.53 25.03 220.53 5.49 213.44 5.49 213.44 38.49 220.53 38.49 220.53 29.17 227.67 38.49 235.93 38.49"/><path class="cls-1" d="M27.15,32.4a10.43,10.43,0,0,0,.77-4.17,8.61,8.61,0,0,0-2-5.74c-1.51-1.67-4.1-3-7.69-4.1a12.18,12.18,0,0,1-2-.73,5.09,5.09,0,0,1-1.5-1.11A2.62,2.62,0,0,1,14,14.71a2.71,2.71,0,0,1,1.44-2.34,7,7,0,0,1,5.61,0,14.47,14.47,0,0,1,2.29,1.07l3-6a17,17,0,0,0-4.32-1.91,18.84,18.84,0,0,0-4.79-.61,12.65,12.65,0,0,0-4.52.74A10,10,0,0,0,9.31,7.92,10.52,10.52,0,0,0,7,11.36a11.36,11.36,0,0,0-.76,4.16,8.81,8.81,0,0,0,2.67,6,14.52,14.52,0,0,0,5.34,3c.94.36,2,.68,2.64.94a9.55,9.55,0,0,1,1.94,1,3.35,3.35,0,0,1,1,1.2,2.69,2.69,0,0,1,.22,1.45,2.89,2.89,0,0,1-1,1.95,4.78,4.78,0,0,1-3.25.89,9.88,9.88,0,0,1-4-.94,31.34,31.34,0,0,1-3.16-1.75L5.14,35.39a16.11,16.11,0,0,0,10,3.66,17,17,0,0,0,5.35-.85,12.51,12.51,0,0,0,4-2.26A10.57,10.57,0,0,0,27.15,32.4Z"/><path class="cls-1" d="M240.93,30.58a4,4,0,1,0,3.93,4A4,4,0,0,0,240.93,30.58Zm0,7.12a3.18,3.18,0,0,1-2.26-5.41,3.17,3.17,0,0,1,5.41,2.24,3.16,3.16,0,0,1-3.15,3.17Z"/><path class="cls-1" d="M240.92,35.19h-.64v1.5h-.77V32.37h1.65a1.42,1.42,0,0,1,.61,2.7l.91,1.62h-.94Zm-.64-.72h.91a.66.66,0,0,0,0-1.32h-.91Z"/><path class="cls-1" d="M46.55,30.47a5.23,5.23,0,1,1-.81-7.36,5.64,5.64,0,0,1,.81.81l4.69-4.71a11.79,11.79,0,0,0-8.76-3.87C36,15.32,30.31,20,30.31,27.18S36,39.05,42.54,39.05a11.86,11.86,0,0,0,8.77-3.88Z"/><path class="cls-1" d="M128.42,38.51V15.88h-6.91v2.4l-.65-.57a8.62,8.62,0,0,0-6-2.39c-6.1,0-11.25,5.43-11.25,11.86s5.16,11.87,11.25,11.87a8.58,8.58,0,0,0,6-2.4l.65-.56v2.4Zm-12.4-6a5.36,5.36,0,1,1,5.39-5.34A5.36,5.36,0,0,1,116,32.52Z"/><path class="cls-1" d="M184.09,38.51V15.88h-6.9v2.4l-.65-.57a8.62,8.62,0,0,0-6-2.39c-6.1,0-11.26,5.43-11.26,11.86s5.17,11.87,11.26,11.87a8.58,8.58,0,0,0,6-2.4l.65-.56v2.4Zm-12.34-6a5.36,5.36,0,1,1,5.33-5.35A5.35,5.35,0,0,1,171.75,32.52Z"/><path class="cls-1" d="M139,38.51v-2.4l.63.57a8.64,8.64,0,0,0,6,2.39c6.1,0,11.25-5.43,11.25-11.87s-5.15-11.86-11.25-11.86a8.61,8.61,0,0,0-6,2.4l-.63.56V5.49h-6.92v33Zm.14-11.31a5.35,5.35,0,1,1,5.35,5.32,5.36,5.36,0,0,1-5.35-5.32Z"/></svg>