<svg id="Capa_1" data-name="Capa 1" xmlns="http://www.w3.org/2000/svg" viewBox="0 0 250 48"><defs><style>.cls-1{fill:#fff;}</style></defs><path class="cls-1" d="M83,27.25V15.32a3.19,3.19,0,0,1,.37-.05h6c.57,0,.6,0,.61.59V45.29a52.22,52.22,0,0,1-6.43,0V41.8l-.12,0c-.1.17-.21.34-.3.52a5.51,5.51,0,0,1-2.24,2.32c-.54.32-1.11.56-1.67.84a5.15,5.15,0,0,1-1.69.35,9.57,9.57,0,0,1-3.16-.15,5.75,5.75,0,0,1-2.28-1,12.16,12.16,0,0,1-1.8-1.39,8.42,8.42,0,0,1-1.61-2.47c-.24-.6-.51-1.19-.71-1.8a11.74,11.74,0,0,1-.4-1.68,24.59,24.59,0,0,1-.13-4.46,6,6,0,0,1,.22-1,11.61,11.61,0,0,1,1.67-4.14A5.56,5.56,0,0,1,71,25.85c.65-.41,1.29-.82,1.94-1.21a2.24,2.24,0,0,1,.52-.16,8.87,8.87,0,0,1,4.19-.28A8.7,8.7,0,0,1,81.76,26a4.32,4.32,0,0,1,.65.7ZM83,35a7.64,7.64,0,0,0,0-1.18c-.09-.45-.24-.89-.36-1.33A4.13,4.13,0,0,0,81,30.23a3.85,3.85,0,0,0-2.57-.68,3.51,3.51,0,0,0-2.56,1.21,5.31,5.31,0,0,0-1.13,2.29,9,9,0,0,0,0,3.72,5.37,5.37,0,0,0,1.07,2.32,3.67,3.67,0,0,0,2.29,1.3,10.7,10.7,0,0,0,1.71-.06,4.51,4.51,0,0,0,2.73-2.62A5.15,5.15,0,0,0,83,35Z"/><path class="cls-1" d="M125.41,17.93c-.09,1.06-.17,2-.25,2.9s-.13,1.85-.19,2.8a1,1,0,0,1-.79-.19,15.29,15.29,0,0,0-3.13-.87,3.89,3.89,0,0,0-.84,0c-.79,0-1.59,0-2.38,0a5.2,5.2,0,0,0-2.43.5,2.11,2.11,0,0,0-1.32,1.83,2.06,2.06,0,0,0,1.12,2,9.46,9.46,0,0,0,2.62,1.1,26.6,26.6,0,0,1,4.54,1.52,7.33,7.33,0,0,1,3.82,3.58,7.74,7.74,0,0,1,.63,2.6,14,14,0,0,1,0,2.24,7.61,7.61,0,0,1-1.51,4.19,8,8,0,0,1-3.51,2.62,16,16,0,0,1-2.78.87c-.4.08-.82.12-1.23.18a24,24,0,0,1-4.32.15c-.85,0-1.7-.16-2.56-.26a4,4,0,0,1-.67-.13,23.32,23.32,0,0,1-3-.71l-.35-.17.58-6.08c.72.29,1.38.55,2,.83a13.17,13.17,0,0,0,3.15.82,16.89,16.89,0,0,0,3.69.08,3.48,3.48,0,0,0,2.4-1,2.14,2.14,0,0,0,.48-.75,2.43,2.43,0,0,0-1-3.11,9.13,9.13,0,0,0-2.57-1.19,29.8,29.8,0,0,1-5.2-1.94,7.15,7.15,0,0,1-3.69-4.95,10.13,10.13,0,0,1-.09-3.2,7,7,0,0,1,1.61-3.72,12.69,12.69,0,0,1,2-1.79,5,5,0,0,1,1.07-.49,14.5,14.5,0,0,1,3.78-1.11,23.41,23.41,0,0,1,5-.15,13.75,13.75,0,0,1,3.76.61A11.68,11.68,0,0,0,125.41,17.93Z"/><path class="cls-1" d="M172,35.05a11.78,11.78,0,0,1-1.21,5.32,5.79,5.79,0,0,1-.88,1.33,10,10,0,0,1-2.31,2.19,12.55,12.55,0,0,1-4.21,1.75,14.28,14.28,0,0,1-4,.3,13.73,13.73,0,0,1-5.08-1.27,9.44,9.44,0,0,1-3.78-3.11,9.77,9.77,0,0,1-1.48-2.89,12.09,12.09,0,0,1-.51-2.86c0-.37,0-.74,0-1.12a9.89,9.89,0,0,1,1-4.7,9.15,9.15,0,0,1,4-4.31,14.4,14.4,0,0,1,2.08-.94,12.57,12.57,0,0,1,1.87-.49,18.63,18.63,0,0,1,3-.27,14.24,14.24,0,0,1,4.55.84,12.44,12.44,0,0,1,2.83,1.46,9.7,9.7,0,0,1,2.24,2.28A9.59,9.59,0,0,1,171.84,33C171.94,33.66,172,34.36,172,35.05Zm-16.18-.11a7.2,7.2,0,0,0,.72,3.71,3.69,3.69,0,0,0,1.84,1.81,5.42,5.42,0,0,0,2.81.26A3.44,3.44,0,0,0,163.84,39a8.11,8.11,0,0,0,.95-3.6,10.55,10.55,0,0,0-.13-1.94,6.84,6.84,0,0,0-.72-2.24,3.58,3.58,0,0,0-1.73-1.66,4.23,4.23,0,0,0-2.45-.36,4.4,4.4,0,0,0-1.77.55,4.8,4.8,0,0,0-1.85,2.62A6.43,6.43,0,0,0,155.85,34.94Z"/><path class="cls-1" d="M24.92,18.4a4.29,4.29,0,0,1-.11,1.48,1.32,1.32,0,0,0,0,.35c-.05.94-.09,1.9-.15,2.84,0,.37-.12.73-.19,1.13-.08,0-.18,0-.25,0-.8-.37-1.57-.79-2.39-1.1a16.06,16.06,0,0,0-2.06-.56,9.29,9.29,0,0,0-2.29-.14,7.4,7.4,0,0,0-3.92,1.2,7.72,7.72,0,0,0-3.07,3.85,8.6,8.6,0,0,0-.69,3.65c0,.34,0,.7,0,1A8.32,8.32,0,0,0,12,38a6.76,6.76,0,0,0,2.74,1.83,10.36,10.36,0,0,0,1.11.38,10.32,10.32,0,0,0,1.09.18l.89.11a2,2,0,0,0,.49,0,16.43,16.43,0,0,0,3.75-.56c.85-.29,1.71-.54,2.61-.83a3,3,0,0,1,.06.4c0,.25,0,.51,0,.77.05,1.18.1,2.36.14,3.55,0,.07,0,.14,0,.2.13.72.14.75-.51.92-.89.23-1.79.42-2.7.6a27.24,27.24,0,0,1-6.25.26,12.27,12.27,0,0,1-2.78-.52A22.87,22.87,0,0,1,9.49,44a5.64,5.64,0,0,1-1.78-1.18c-.36-.36-.77-.68-1.15-1a11,11,0,0,1-2.91-4.52A17.55,17.55,0,0,1,3,34.91a9,9,0,0,1-.17-1.72c0-1.17,0-2.34,0-3.51a12.79,12.79,0,0,1,.4-2.59,16.59,16.59,0,0,1,1-2.92,8.69,8.69,0,0,1,1.71-2.6,16.56,16.56,0,0,1,2.32-2.11,14.4,14.4,0,0,1,4.56-1.95,11.08,11.08,0,0,1,3.08-.44c.44,0,.87-.12,1.31-.12a19.3,19.3,0,0,1,4.66.57c.74.19,1.48.36,2.21.56C24.36,18.16,24.63,18.29,24.92,18.4Z"/><path class="cls-1" d="M206.62,30.34a33.14,33.14,0,0,1-.18-4.77,12,12,0,0,1,3.09-1.06c.74-.17,1.5-.27,2.25-.4h.14c.92-.05,1.86-.16,2.78-.13a12.4,12.4,0,0,1,5.68,1.41,6.81,6.81,0,0,1,2.45,2.32,8.21,8.21,0,0,1,1.08,2.62,7.67,7.67,0,0,1,.19,1.79c0,3.18,0,6.35,0,9.53a23.19,23.19,0,0,0,.24,2.34c0,.42.09.83.13,1.25,0,.15-.06.25-.25.23s-.54,0-.81,0c-1.61,0-3.22,0-4.84,0a3.26,3.26,0,0,0-.41,0,6.8,6.8,0,0,1-.12-1.61c0-.5-.11-1-.17-1.52-.46.55-.88,1.11-1.37,1.59a6.1,6.1,0,0,1-2.69,1.69,7,7,0,0,1-3.5.22,5.43,5.43,0,0,0-.89-.12,7.06,7.06,0,0,1-3.63-1.64,4.7,4.7,0,0,1-1.55-2.5,8,8,0,0,1-.36-2.25,7.17,7.17,0,0,1,1.15-3.88,4.12,4.12,0,0,1,.79-.88A7.2,7.2,0,0,1,209,32.91l1.94-.49a.8.8,0,0,1,.21-.05,28.26,28.26,0,0,1,4.6-.13,18,18,0,0,0,1.85.11c-.08-.41-.14-.78-.22-1.16a2.51,2.51,0,0,0-1.64-1.82,7.37,7.37,0,0,0-3.34-.48,12.3,12.3,0,0,0-3,.44,7.63,7.63,0,0,0-1.39.41C207.58,30,207.12,30.13,206.62,30.34Zm11,5.9a1,1,0,0,0-.29-.08c-1.24,0-2.48,0-3.71,0a3.9,3.9,0,0,0-2.15.7,2.38,2.38,0,0,0-1,2.11,2,2,0,0,0,1.23,1.73,3.72,3.72,0,0,0,3.6-.15,4.75,4.75,0,0,0,2.25-3.35A8.65,8.65,0,0,0,217.58,36.24Z"/><path class="cls-1" d="M64.61,37H50.78s-.07,0-.13.1a5,5,0,0,0,.69,2,3.49,3.49,0,0,0,1.79,1.39,8,8,0,0,0,2.22.5c.37,0,.74.14,1.1.12.85-.06,1.7-.15,2.54-.29s1.43-.35,2.14-.54a3.22,3.22,0,0,0,.51-.21c.32-.14.62-.3,1-.47v4.87a2.33,2.33,0,0,1-.49.26c-.91.26-1.82.53-2.74.73a14.67,14.67,0,0,1-3.17.29c-.77,0-1.54,0-2.31,0a6.55,6.55,0,0,1-1.66-.18,25.91,25.91,0,0,1-2.79-1A9.66,9.66,0,0,1,44,37.76,12.11,12.11,0,0,1,43.6,35a17.38,17.38,0,0,1,.26-2.26A16.25,16.25,0,0,1,44.23,31a9.31,9.31,0,0,1,3.57-5,8.79,8.79,0,0,1,2.87-1.39,13.81,13.81,0,0,1,6-.37,9.65,9.65,0,0,1,3,1.06,9.91,9.91,0,0,1,1.66,1.13,8.77,8.77,0,0,1,1.63,2.16,11.31,11.31,0,0,1,1.18,2.95c.18.87.29,1.72.41,2.59S64.54,36,64.61,37Zm-14-4,.34,0H58c.35,0,.44-.16.38-.5s-.07-.41-.09-.61A3.41,3.41,0,0,0,56,28.86c-.24-.08-.5-.12-.74-.19a3.78,3.78,0,0,0-3.89,1.5A9.31,9.31,0,0,0,50.69,32,2.24,2.24,0,0,0,50.61,33Z"/><path class="cls-1" d="M177.58,29.56h-3.83a34.43,34.43,0,0,1-.05-5c1.3,0,2.62,0,4,0V19.8c2.26-.8,4.54-1.44,6.89-2.19,0,2.32,0,4.57,0,6.87h4.79a29.62,29.62,0,0,1,.09,5,7,7,0,0,1-1.58.05c-.54,0-1.07,0-1.61,0h-1.65c0,.19,0,.35,0,.5,0,2.57,0,5.14,0,7.71a9,9,0,0,0,.25,1.71,2.17,2.17,0,0,0,2,1.57,6.93,6.93,0,0,0,2.58-.28,3.08,3.08,0,0,1,.07.35c.08,1.18.17,2.36.25,3.54,0,.26,0,.51,0,.84-.3.06-.61.14-.92.18-.76.09-1.52.22-2.28.24a24.69,24.69,0,0,1-2.58-.06c-.46,0-.91-.12-1.37-.17a5.93,5.93,0,0,1-2.73-1.15,5.51,5.51,0,0,1-2.15-4.33c-.31-3.26-.07-6.52-.14-9.79Z"/><path class="cls-1" d="M146.42,39.68a48.45,48.45,0,0,1,.16,5.39c-1,.17-1.86.52-2.83.64a18.41,18.41,0,0,1-3.47.23,12.65,12.65,0,0,1-4.91-1.11,14,14,0,0,1-1.84-1,9.82,9.82,0,0,1-3-3.19,11,11,0,0,1-1.23-3.57,15.05,15.05,0,0,1-.1-3.48,5.75,5.75,0,0,1,.35-1.91c.2-.51.27-1.08.5-1.58a10,10,0,0,1,1-1.66,10.14,10.14,0,0,1,2.26-2.27,10.78,10.78,0,0,1,2.53-1.29,10.58,10.58,0,0,1,2-.59c.52-.1,1-.18,1.57-.24A10.43,10.43,0,0,1,141.1,24,13.92,13.92,0,0,1,146,25c.41.17.47.3.41.76s-.08.83-.13,1.24c-.07.69-.15,1.38-.23,2.07,0,.18,0,.37,0,.55s-.09.5-.14.81c-.19-.08-.31-.11-.43-.17a5.61,5.61,0,0,0-3-.83c-.4,0-.8,0-1.19,0a4.57,4.57,0,0,0-4.39,3,6,6,0,0,0-.55,3.25,5.42,5.42,0,0,0,1.5,3.3,6,6,0,0,0,3,1.54,10,10,0,0,0,3,0A9.79,9.79,0,0,0,146.42,39.68Z"/><path class="cls-1" d="M28.18,24.52H34c.38,0,.45.08.46.45,0,.8,0,1.59,0,2.39a3.5,3.5,0,0,0,.1,1c.18-.34.37-.68.53-1a5.58,5.58,0,0,1,1.58-1.91,5.81,5.81,0,0,1,2.58-1.25,3.18,3.18,0,0,1,.62-.07,10,10,0,0,1,2.78.2,5.69,5.69,0,0,1,0,1.89,2,2,0,0,0-.07.48c-.06,1.09-.11,2.18-.16,3.27a.4.4,0,0,1-.07.16,4.29,4.29,0,0,1-.8,0,5.89,5.89,0,0,0-3.85.5A4.07,4.07,0,0,0,36,32.25a6.57,6.57,0,0,0-.88,2.54c-.06.6-.1,1.2-.1,1.8q0,4,0,8.06v.71H28.25l-.05,0s0,0,0-.06q0-10.16,0-20.32C28.15,24.82,28.17,24.71,28.18,24.52Z"/><path class="cls-1" d="M193.42,24.53h6.91l0,.06a.11.11,0,0,1,0,.06c0,.11,0,.23,0,.35V45.35a3.69,3.69,0,0,1-.55.06h-6.37s-.08-.09-.08-.15C193.42,38.38,193.42,31.49,193.42,24.53Z"/><path class="cls-1" d="M95.06,24.54h6.79V45.29a55,55,0,0,1-6.74.07C95,44.86,95,25.71,95.06,24.54Z"/><path class="cls-1" d="M228.92,19.59l-1.09-.27-1.28-.27a2,2,0,0,1-1.63-1.34,2.6,2.6,0,0,1-.06-1.51A2,2,0,0,1,227,14.57a13,13,0,0,1,1.65.16c.82.12,1.64.26,2.46.39l1.63.29,2.17.41a7.91,7.91,0,0,1,.82.16,2.16,2.16,0,0,1,1.56,2c0,1.11-.12,2.22-.26,3.32-.07.57-.1,1.15-.16,1.73l-.27,2.54a5.72,5.72,0,0,1-.16,1.1,2.38,2.38,0,0,1-4.59-1.19q.1-1,.18-1.92s-.08-.1-.18-.19l-1.31,1c-1,.72-1.92,1.45-2.89,2.16a2.4,2.4,0,0,1-3.65-2,2.45,2.45,0,0,1,1.1-2c1.2-.85,2.38-1.76,3.56-2.65A1.81,1.81,0,0,0,228.92,19.59Z"/><path class="cls-1" d="M243.73,22a4,4,0,0,0-1.37.88A17.72,17.72,0,0,1,240.85,24a1.44,1.44,0,0,1-2.17-1.19,1.59,1.59,0,0,1,.77-1.46l2.11-1.58a2.39,2.39,0,0,0,.22-.26c-.42-.11-.8-.19-1.17-.3a3.8,3.8,0,0,1-.84-.3,1.34,1.34,0,0,1-.65-1.5,1.6,1.6,0,0,1,1.33-1.15,9.09,9.09,0,0,1,2.26.34c.06,0,.13.07.19.07a16.48,16.48,0,0,1,2.87.45,1.56,1.56,0,0,1,1.42,2,4,4,0,0,0-.09.68,18.62,18.62,0,0,1-.27,2.48,6.45,6.45,0,0,0-.14,1.44,1.43,1.43,0,0,1-2,1.25,1.34,1.34,0,0,1-1-1.43C243.77,23.05,243.73,22.54,243.73,22Z"/><path class="cls-1" d="M242.21,12.4c-.51.36-1,.69-1.48,1-.29.22-.57.48-.87.7a1.56,1.56,0,0,1-2,.08,1.54,1.54,0,0,1-.21-2.16c.35-.31.72-.59,1.08-.87l1.34-1a1.86,1.86,0,0,0,.24-.27c-.44-.1-.82-.19-1.2-.25a1.54,1.54,0,0,1-1.33-1.23,1.5,1.5,0,0,1,.72-1.55,2,2,0,0,1,1.43-.14c1,.14,2,.46,3,.53a11.32,11.32,0,0,1,1.71.29c.84.2,1.1.68,1.07,1.75,0,.35-.09.69-.1,1a18,18,0,0,1-.27,2.83,2.66,2.66,0,0,0,0,.63,1.44,1.44,0,0,1-.94,1.48,1.73,1.73,0,0,1-1.82-.35,1,1,0,0,1-.34-.81C242.19,13.59,242.2,13,242.21,12.4Z"/><path class="cls-1" d="M200.39,15.75v5.38h-.58c-1.89,0-3.78,0-5.67,0-.14,0-.28,0-.42,0a.31.31,0,0,1-.3-.33V16c0-.06,0-.13.05-.25a2.15,2.15,0,0,1,.44-.09h6.3A.85.85,0,0,1,200.39,15.75Z"/><path class="cls-1" d="M101.86,15.87V21H95.12a31.49,31.49,0,0,1-.07-5.06A65.8,65.8,0,0,1,101.86,15.87Z"/><path class="cls-1" d="M26.18,2.23h1.18c.12.52.17,6.21.06,7.65a5.63,5.63,0,0,1-1.42,0L24.4,7.2,22.72,4.42a3.47,3.47,0,0,0-.14.79c0,.67.07,1.34.09,2s0,1.31,0,2a5.85,5.85,0,0,1-.12.73H21.38c-.1-.53-.13-6.73,0-7.68.4,0,.82,0,1.23,0a.57.57,0,0,1,.37.26c.78,1.31,1.55,2.63,2.33,4a9.54,9.54,0,0,0,.82,1.21,11.77,11.77,0,0,0,.08-1.77V2.23Z"/><path class="cls-1" d="M45.53,9.91H44.31V2.21h1.13c.26,0,.37.19.47.36.58.93,1.14,1.86,1.7,2.79.41.7.8,1.42,1.19,2.12a.33.33,0,0,0,.17.16A12,12,0,0,0,49,5.85c0-.58,0-1.16,0-1.75V2.25h1.23V9.93H49.17a.55.55,0,0,1-.52-.41,11.66,11.66,0,0,0-1.33-2.26c-.45-.71-.83-1.44-1.25-2.16-.14-.24-.29-.47-.48-.78a11.33,11.33,0,0,0-.06,1.82c0,.63,0,1.26,0,1.89Z"/><path class="cls-1" d="M90.74,6.21l.38.31a1.45,1.45,0,0,1,.54,1.29,4.86,4.86,0,0,0,.26,1.85.68.68,0,0,1,0,.24H90.55c0-.52-.1-1-.15-1.52,0-.14,0-.28,0-.42a1.3,1.3,0,0,0-1.2-1.23c-.51,0-1,0-1.54,0h-.59V9.86a3.53,3.53,0,0,1-1.2.06c-.12-.54-.16-6.33,0-7.66a1.54,1.54,0,0,1,.31,0h3.78a2,2,0,0,1,1.67,1,2.35,2.35,0,0,1-.29,2.53C91.12,5.9,91,6,90.74,6.21Zm-3.69-.49h.7c.49,0,1,0,1.47,0a1.31,1.31,0,0,0,1.26-1.16,1.14,1.14,0,0,0-.85-1.19,17.12,17.12,0,0,0-2.58,0Z"/><path class="cls-1" d="M76.26,6.56V8.64c.2,0,.38,0,.56,0H79.9c.47,0,.52.06.53.52,0,.21,0,.42,0,.62a33.92,33.92,0,0,1-5.37.09A74.93,74.93,0,0,1,75,2.31a33.89,33.89,0,0,1,5.26-.07c0,.17,0,.35,0,.52s0,.33,0,.56c-.69.06-1.36,0-2,0h-2a11.3,11.3,0,0,0,0,1.93h3.66A2.39,2.39,0,0,1,80,6.47a3.59,3.59,0,0,1-.53.08h-3.2Z"/><path class="cls-1" d="M62.41,4.59H61.18c-.06-.14-.13-.29-.2-.43a2,2,0,0,0-3.53,0,4.09,4.09,0,0,0,.24,4.09A1.93,1.93,0,0,0,60.86,8c.14-.32.27-.64.41-1C62,7,62,7,62.45,7.14a9.69,9.69,0,0,1-.38,1.3,2.47,2.47,0,0,1-.64.89,3.38,3.38,0,0,1-2.08.85,3.2,3.2,0,0,1-2.14-.71A4.49,4.49,0,0,1,56,4.17a3.2,3.2,0,0,1,2.23-2,3.84,3.84,0,0,1,3.12.48A2.83,2.83,0,0,1,62.41,4.59Z"/><path class="cls-1" d="M101.42,7.86H98.51l-.72,2h-1.4c1-2.57,1.91-5.09,2.89-7.65h1.44Q102.13,6,103.58,9.9h-1.39ZM99,6.84h1.84a1.05,1.05,0,0,0,.19,0,9.79,9.79,0,0,0-1.13-3c-.38.89-.45,1.86-.89,2.7C98.92,6.53,99,6.67,99,6.84Z"/><path class="cls-1" d="M35.14,2.22h1.39c1.12,2.47,1.88,5.09,2.88,7.68H38.05l-.74-2a6.41,6.41,0,0,0-1.45-.06H34.4c-.33.64-.44,1.38-.74,2.07h-1.4ZM37,6.77c-.49-1-.62-2.07-1.19-3.09a28.78,28.78,0,0,0-1,3A4.61,4.61,0,0,0,37,6.77Z"/><path class="cls-1" d="M5.21,3.35v2H7.53a2.88,2.88,0,0,1,1.06.08V6.46a1.93,1.93,0,0,1-.43.09H5.78l-.58,0V9.84A3.06,3.06,0,0,1,4,9.93a71.8,71.8,0,0,1-.08-7.61A31.76,31.76,0,0,1,9,2.24a3,3,0,0,1,.05,1,12.75,12.75,0,0,1-1.95.06Z"/><path class="cls-1" d="M15.62,9.9H14.31V2.29a3.19,3.19,0,0,1,1.27-.06C15.69,2.75,15.73,8.8,15.62,9.9Z"/><path class="cls-1" d="M69.07,9.91H67.92a69.81,69.81,0,0,1-.07-7.66l1.22-.08Z"/></svg>