<svg id="Capa_1" data-name="Capa 1" xmlns="http://www.w3.org/2000/svg" viewBox="0 0 250 88"><defs><style>.cls-1{fill:#fff;}</style></defs><rect class="cls-1" x="216.45" y="1.06" width="9.12" height="9.12"/><rect class="cls-1" x="227.4" y="1.06" width="9.12" height="9.12"/><rect class="cls-1" x="238.34" y="1.06" width="9.12" height="9.12"/><rect class="cls-1" x="227.4" y="12.01" width="9.12" height="9.12"/><rect class="cls-1" x="238.34" y="12.01" width="9.12" height="9.12"/><rect class="cls-1" x="238.34" y="22.96" width="9.12" height="9.12"/><path class="cls-1" d="M86.76,51.35a19.41,19.41,0,0,1,1.58-7.94,18.38,18.38,0,0,1,4.35-6.08,19.16,19.16,0,0,1,6.5-3.89,24,24,0,0,1,15.94,0,19.25,19.25,0,0,1,6.5,3.89A18.21,18.21,0,0,1,126,43.41a19.25,19.25,0,0,1,1.59,7.94A19.17,19.17,0,0,1,126,59.28a18.15,18.15,0,0,1-4.34,6.09,19.41,19.41,0,0,1-6.5,3.89,24,24,0,0,1-15.94,0,19.32,19.32,0,0,1-6.5-3.89,18.32,18.32,0,0,1-4.35-6.09,19.33,19.33,0,0,1-1.58-7.93m11.33,0a9.52,9.52,0,0,0,2.38,6.72,10,10,0,0,0,13.38,0,9.52,9.52,0,0,0,2.38-6.72,9.56,9.56,0,0,0-2.38-6.73,10,10,0,0,0-13.38,0,9.56,9.56,0,0,0-2.38,6.73"/><path class="cls-1" d="M37.82,51.05a39.22,39.22,0,0,0-.75-8.13A14.14,14.14,0,0,0,34.38,37a11.87,11.87,0,0,0-5.13-3.66,23,23,0,0,0-8.2-1.25,26.51,26.51,0,0,0-8.77,1.47A20.77,20.77,0,0,0,4.88,38l3.47,3.56c1.21,1.24,3.13,2,4.71.66h0A13,13,0,0,1,15,41a11.12,11.12,0,0,1,5.1-1.17,7.78,7.78,0,0,1,5.1,1.77,5.9,5.9,0,0,1,2.15,4.8c-1.56,0-3.26,0-5.1.08a51.14,51.14,0,0,0-5.51.45,33,33,0,0,0-5.33,1.17,15.68,15.68,0,0,0-4.57,2.23,10.45,10.45,0,0,0-3.17,3.63,11.15,11.15,0,0,0-1.18,5.36,10.89,10.89,0,0,0,1.06,4.91,10.37,10.37,0,0,0,2.87,3.55,12.49,12.49,0,0,0,4.2,2.16,17.49,17.49,0,0,0,11.56-.57,10.7,10.7,0,0,0,5-4.23h.15v1.39c0,1.57.31,3.22,3.3,3.22h7.13ZM27.39,56a6.22,6.22,0,0,1-.71,3,6.3,6.3,0,0,1-1.93,2.11A10,10,0,0,1,22,62.46a11.42,11.42,0,0,1-3.21.45,7.33,7.33,0,0,1-3.63-1,3.24,3.24,0,0,1-1.73-3A3.64,3.64,0,0,1,14.66,56a8.14,8.14,0,0,1,3-1.59,16.18,16.18,0,0,1,3.71-.64q1.92-.12,3.21-.12h2.79Z"/><path class="cls-1" d="M82.05,43.41a17.6,17.6,0,0,0-3.67-6,16.53,16.53,0,0,0-5.7-3.93,18.82,18.82,0,0,0-7.41-1.4,12.73,12.73,0,0,0-3.7.53A16,16,0,0,0,58.36,34a13.32,13.32,0,0,0-2.57,1.85,13.14,13.14,0,0,0-1.78,2h-.15V33h-7a3.35,3.35,0,0,0-3.4,3.38V86.94h5.3c5.73,0,6-2.92,6-6.85V65.78h.15a10.57,10.57,0,0,0,5,3.74,19.47,19.47,0,0,0,6.61,1.1,14.78,14.78,0,0,0,7-1.63,16.26,16.26,0,0,0,5.26-4.34,20.39,20.39,0,0,0,3.32-6.24,23.15,23.15,0,0,0,1.17-7.36A22.07,22.07,0,0,0,82.05,43.41ZM69.62,58.07a8.65,8.65,0,0,1-6.69,2.57,8.65,8.65,0,0,1-6.69-2.57,9.52,9.52,0,0,1-2.38-6.72,9.56,9.56,0,0,1,2.38-6.73,8.69,8.69,0,0,1,6.69-2.57,8.69,8.69,0,0,1,6.69,2.57A9.56,9.56,0,0,1,72,51.35,9.52,9.52,0,0,1,69.62,58.07Z"/><path class="cls-1" d="M154.87,32.16c-.66,0-1.31-.08-2-.08a10.93,10.93,0,0,0-6.28,1.7,14,14,0,0,0-4.3,5.1h-.15V33h-6.26c-3.72,0-5.08,2.65-5.08,6V69.71h4.91c6,0,6.43-1.88,6.43-5.94v-9.4a38.24,38.24,0,0,1,.3-5,9.63,9.63,0,0,1,1.32-3.89A6.81,6.81,0,0,1,146.71,43a12.11,12.11,0,0,1,5.14-.91,16.11,16.11,0,0,1,2.45.19,17.47,17.47,0,0,1,2.38.57V32.46A9.77,9.77,0,0,0,154.87,32.16Z"/><path class="cls-1" d="M188.4,38.77V33h-10V22.11H170.7c-3.63,0-3.61,2.92-3.61,4.33V33h-4.55c-1.89,0-2.7,1.4-2.7,3.19v5.87h7.25V59.51a11.77,11.77,0,0,0,1,5.14A9,9,0,0,0,171,68.08,11.88,11.88,0,0,0,175.18,70a21.4,21.4,0,0,0,5.29.61,36.45,36.45,0,0,0,4-.23,16.77,16.77,0,0,0,3.93-.91V60a4.06,4.06,0,0,1-2.23.87,20.79,20.79,0,0,1-2.38.19,7.18,7.18,0,0,1-2.91-.5,3.38,3.38,0,0,1-1.62-1.39,5.66,5.66,0,0,1-.68-2.16,23.2,23.2,0,0,1-.15-2.76V42.05h7.67C188.13,42.05,188.4,40.61,188.4,38.77Z"/><path class="cls-1" d="M227.39,51.05a39.22,39.22,0,0,0-.75-8.13A14.14,14.14,0,0,0,224,37a11.87,11.87,0,0,0-5.13-3.66,23,23,0,0,0-8.2-1.25,26.5,26.5,0,0,0-8.76,1.47A20.81,20.81,0,0,0,194.45,38l3.47,3.56c1.21,1.24,3.14,2,4.71.66h0a13.55,13.55,0,0,1,2-1.24,11.12,11.12,0,0,1,5.1-1.17,7.76,7.76,0,0,1,5.1,1.77,5.91,5.91,0,0,1,2.16,4.8c-1.57,0-3.27,0-5.1.08a51.33,51.33,0,0,0-5.52.45A33,33,0,0,0,201,48.06a15.8,15.8,0,0,0-4.57,2.23,10.56,10.56,0,0,0-3.17,3.63,11.26,11.26,0,0,0-1.17,5.36,10.89,10.89,0,0,0,1,4.91A10.4,10.4,0,0,0,196,67.74a12.44,12.44,0,0,0,4.19,2.16,17.38,17.38,0,0,0,5,.72,17.19,17.19,0,0,0,6.61-1.29,10.72,10.72,0,0,0,5-4.23H217v1.39c0,1.57.31,3.22,3.29,3.22h7.13ZM217,56a6.12,6.12,0,0,1-.72,3,6.2,6.2,0,0,1-1.93,2.11,9.75,9.75,0,0,1-2.76,1.29,11.42,11.42,0,0,1-3.21.45,7.27,7.27,0,0,1-3.62-1,3.25,3.25,0,0,1-1.74-3A3.64,3.64,0,0,1,204.23,56a8.19,8.19,0,0,1,3-1.59,16,16,0,0,1,3.7-.64q1.92-.12,3.21-.12H217Z"/></svg>