<?xml version="1.0" encoding="utf-8"?>
<!-- Generator: Adobe Illustrator 24.1.1, SVG Export Plug-In . SVG Version: 6.00 Build 0)  -->
<svg version="1.1" id="Capa_1" xmlns="http://www.w3.org/2000/svg" xmlns:xlink="http://www.w3.org/1999/xlink" x="0px" y="0px"
	 viewBox="0 0 547 496" style="enable-background:new 0 0 547 496;" xml:space="preserve">
<style type="text/css">
	.st0{fill:#674BB5;}
	.st1{fill:#FFFFFF;}
	.st2{fill:#01D7D9;}
</style>
<g>
	<g>
		<path class="st1" d="M30,298.4c-6.2-2.3-14-9.1-15.7-16.6c6.7-1.8,56-33.4,53.7-40.6c-1.1-3.7-50.9-8.1-62.5-22.5
			c-13.9-17.2-0.2-46.1,21.5-72.7c18.5-23.1,43.2-44.3,61.1-55.4c1.2-0.2,11.6,2.7,17.3,5.1c9.6,31.4-25.6,82.6-46.2,103.8
			c-7.7,4.8-16.7-5-20-11.6c32.3-25.1,55.8-79.2,53.1-82.6C61.9,129.7,7.1,185.3,23,205.7c4.4,5.6,46.3,14.5,54.7,17.5
			c4.6,2.8,9.6,11.1,10.3,19.5C79.3,260.7,52.9,283.1,30,298.4z"/>
		<path class="st1" d="M147.3,89.5c-2.9,6.5-5.9,15.1-8.8,23.8c1.9-0.3,3.5-0.6,5-0.5c1.9,1.4,3.4,3.7,4.1,6.5
			c-3.7,0.7-7.9,1.4-11.5,2.5c-8.7,29.1-15.6,64.2-17.4,89.9l34.4-61.4c5.1,1,5.9,5.6,2.1,13.3l-35.8,74.4c-12.6-1-20.5-6-23.3-16.2
			c1.4-21.2,11-62.1,19.6-96.1c-1.6,0.7-3,1-4.9,1.3c-2.9-1.8-5.7-4.8-6.9-8.8c4.6-0.8,9.4-1.4,13.9-2.2c3.5-12.6,6.3-23.7,8.3-31.6
			C133.8,82.1,140.6,83,147.3,89.5z"/>
		<path class="st1" d="M232.3,150.3l-35.9,73.8c-12.3-0.8-19.9-6.1-22.6-15.9c0.7-6.7,1.7-13.5,2.7-19.9c0,0-6.6,17-18.3,42.5
			c-12.5-0.8-20.1-6.1-22.6-15.9c2.9-32.1,12.1-59.6,20.7-89.7c7.1-3.6,14-1.8,20.7,4.9l10.4,13.1c2.4-8.1,4.8-16.2,7.2-24.7
			c7.1-3.6,14-1.8,20.9,4.8c-13,28.1-19.8,53.4-20.5,76l35-62.7C234.9,137.6,235.7,142.2,232.3,150.3z M184.7,152.9l-11.3-14.4
			c-11.1,25.6-16.7,49.1-17.1,70C156.5,208.3,165.9,188.2,184.7,152.9z"/>
		<path class="st1" d="M263.5,68.6c-12.8,30-26.1,85.7-28.6,122.4l34.4-61.4c5.1,0.8,5.9,5.6,2.4,13.5l-36,74.2
			c-12.5-0.8-20.3-6.2-23.3-16c1.8-31.9,22.4-107.7,29.9-137.8C250,61.1,256.8,62.1,263.5,68.6z"/>
		<path class="st1" d="M304.3,182.6l37.1-65.9c4.9,1.3,5.7,5.8,2.2,13.7l-33.4,68.6l-2.5,5.3c-5.2,0.5-13.6-2.3-15.6-8.8
			c-4-9.5-5.9-16.3-11.4-34.3c6.1-7.7,27.5-46,22.7-51.4c-8.7,15.8-19.9,31-26.2,49.9c-3.2,20.8-4.2,39.4-1.8,50.1
			c-12.7-0.7-20.5-6-23.5-15.9c1.9-31.7,22.2-107.4,29.8-137.4c7.9-2.5,14.5-1.5,21.3,4.8c-7.2,17.1-14.9,42.3-20.2,68
			c5.6-9.5,11.8-19.2,15.8-25.6c1.6-2.8,5.6-8,9.2-5.9l11.3,7c4.7,14.5-13.9,44.5-22.3,56.2C298.5,166.4,301.5,175,304.3,182.6z"/>
		<path class="st1" d="M406.9,167.3c6.6-22.9,33.9-109.3,32-128.6c-21,0.9-67.7,92-49.1,122.2c-8.8,4.5-18.1,4-22.4,1.4
			C351,136.2,394.3,37.8,431.6,30.2c4.8-0.8,15.4,1.3,22.8,7.1c0.7,16.1-9.7,60.2-18.9,97.5l37.1-69.1c5.6-19.3,10.7-36.3,13.8-45.3
			c4.8,1.9,13.2,8.1,14.2,14.1c-12.9,34.7-37.6,124.7-24.1,156c-12.4,2.4-23.2-4.2-25.3-21.4c-1-9.2,2.4-28.8,7.6-51.1l-35.3,66.2
			C414.7,183.7,407.9,175.7,406.9,167.3z"/>
		<path class="st1" d="M527.7,73.2c-2.3-1.9-5.2-0.4-9,3.7c-22.8,23-0.5,53,17.7,66.5c1.2,21.1-21.1,27-40.3,25.9
			c-6.5-2.9-5.8-8.8-2.8-18.5c8,5.4,16.1,5.3,25.1,2.2c-16.3-17.6-30.1-28.9-27.4-56.2c1.5-16.9,12.8-35.1,30.8-37.4
			c3.3-0.4,6.2,0.2,8.7,1.9c0.8-1.4,1.7-2.4,2.6-2.2l14,3.3c-5.3,6.5-8.5,24.3-11.2,33.4l-8.5,1.3C526.5,92.8,526.5,82.2,527.7,73.2
			z"/>
		<path class="st1" d="M134.4,396.4c-8.3-36.1,13.9-109,41.7-129.2c6.5,1.8,9.7,2.8,16.4,4.6c-32.8,38.9-41.6,101.7-38.5,131.4
			c26.7-15.6,54.1-114.6,37.9-140.7c-13.2-21.6-32.5,4.2-40.3,16.1c-14.2,22.1-37.8,74.8-23.7,97.9c-8.6,4.7-17.9,4-22.1,1.6
			c-13.1-21.2,10.9-74.7,24.1-95.6c7.1-11.5,15.4-21.5,23.6-28.3c14-11.2,41.3-17.5,52.5-0.3c22.3,34.7-5.7,159-48.9,162.3
			l-11.3-2.1C139.1,410.7,136.2,403.7,134.4,396.4z"/>
		<path class="st1" d="M254.9,285.3c-7.4,16-12.8,31.3-16.3,45.8c11.8-27.7,25.3-49.9,33.8-57.6c7.1-3.6,14-1.8,20.7,5.1
			c-12.8,27.9-19.7,53-20.6,75.6l35.1-62.5c5.1,1,5.9,5.6,2.4,13.5l-35.7,73.7c-12.5-0.6-20.1-6.1-22.6-15.9
			c2.2-22.8,7.5-43.4,13.4-64.3c-13.3,17.9-31.4,68.7-29.6,85.3c0.1,0.6,0.2,1.2,0.3,1.7c-0.4,0.1-1.1,0-1.7-0.1
			c-11.3-1-18.2-6.4-20.7-15.8c2.9-31.9,12.2-59.3,20.5-89.4C241,276.6,247.9,278.4,254.9,285.3z"/>
		<path class="st1" d="M342.1,223.3c-12.9,30-26.1,85.7-28.6,122.4l34.4-61.4c5.1,0.8,5.9,5.6,2.4,13.5l-36,74.2
			c-12.5-0.8-20.3-6.2-23.3-16c1.8-31.9,22.4-107.7,29.9-137.8C328.7,215.9,335.5,216.8,342.1,223.3z"/>
		<path class="st1" d="M351.3,259.3c6.8-3.6,13.7-2,20.7,4.9c-12.8,27.9-19.6,53.2-20.6,75.8l35-62.7c5.1,1.2,5.7,5.6,2.2,13.7
			L353,364.6c-12.3-0.8-19.9-6.1-22.5-16.1C333.6,316.6,342.7,289.2,351.3,259.3z M358.3,243.3c4.8,0.4,8.6,1.5,15.4,2.4l14.3-35.2
			c-6-2.6-15.3-2-21.1,0.1L358.3,243.3z"/>
		<path class="st1" d="M408.9,258.1c-7.4,16-12.8,31.3-16.3,45.8c11.8-27.7,25.3-49.9,33.8-57.6c7.1-3.6,14-1.8,20.7,5.1
			c-12.8,27.9-19.7,53-20.6,75.6l35.1-62.5c5.1,1,5.9,5.6,2.4,13.5l-35.7,73.7c-12.5-0.6-20.1-6.1-22.6-15.9
			c2.2-22.8,7.5-43.4,13.4-64.3c-13.3,17.9-31.4,68.7-29.6,85.3c0.1,0.6,0.2,1.2,0.3,1.7c-0.4,0.1-1.1,0-1.7-0.1
			c-11.3-1-18.2-6.4-20.7-15.8c2.9-31.9,12.2-59.3,20.5-89.4C395,249.4,401.9,251.2,408.9,258.1z"/>
		<path class="st1" d="M466.1,304.4c-0.6,4.8-1.1,9.6-1.5,14.6c0.4,4.6,3,12.1,11.1,3.8c11.5-12.1,32-43.8,40.6-58
			c8.4,9.2,0.7,19.5-4.5,27.7c-10.7,16.8-32.6,51.2-46.7,52.4c0,0-15.6-9.6-17.2-10.6c-2.5-3.4-3.5-6.6-3.2-9.7
			c0.2-32.9,7.7-60.5,19.9-82.1c2.9-4.3,7.1-5.9,13-4.9c11,3.2,15.2,5.2,15.2,5.2c13.8,4.6,1.1,51.2-12.1,63.4
			C476.4,308.1,469.7,307.8,466.1,304.4z M475.7,290.5c4.7-8.7,14.2-51.2,4.2-33c-5.3,11-9.2,22.8-11.7,35.2
			C471.3,293.8,473.7,293,475.7,290.5z"/>
	</g>
	<path class="st1" d="M92.9,470.5c1.1,5.2,12.7,6.3,22.3,4.2c3.9-0.8,7.7-1.9,11.7-3.6c24.8-6.6,50.5-12.8,76-18.3
		c85.2-18.6,161.7-30.9,236.6-36c27.9-1.9,56.4-2.5,82.2,1c3,0.6,18.7,4.3,23.3,3.3c0.8-0.2,1.1-0.5,1-1
		c-6.7-30.7-70-28.2-103.6-26.5c-84.1,7.1-170.4,24.7-253.9,41.7C178.2,437.6,90.7,460.4,92.9,470.5z M275.9,422.4
		c93.6-19,162.9-27.5,207.4-25.4C435.7,397.3,366.4,405.8,275.9,422.4z"/>
</g>
</svg>
