<?xml version="1.0" encoding="utf-8"?>
<!-- Generator: Adobe Illustrator 24.1.1, SVG Export Plug-In . SVG Version: 6.00 Build 0)  -->
<svg version="1.1" id="Capa_1" xmlns="http://www.w3.org/2000/svg" xmlns:xlink="http://www.w3.org/1999/xlink" x="0px" y="0px"
	 viewBox="0 0 775 336" style="enable-background:new 0 0 775 336;" xml:space="preserve">
<style type="text/css">
	.st0{fill:#FFFFFF;}
	.st1{fill:#01D7D9;}
</style>
<g>
	<g>
		<path class="st0" d="M124.4,198.9c-9.2,25.4-30.3,43.7-51.3,56.9c-4,12.3-7.6,23.4-9.9,31.9c-1.3,5.6-2.1,10.1-2.9,13.7
			c-8.1,0-15.5-8.4-16.7-16.3c5.4-21.8,34.2-121,31.5-139.8c-20.4,1.1-62.2,88.6-43.1,117.4c-8.1,4.5-17.3,3.9-21.6,1.5
			c-17.1-25.3,21.4-119.6,57.3-127c4.6-0.8,14.9,1.1,22.6,6.5c0.6,8.4-2.3,26.8-6.4,48.2c8.9-26.6,18.2-51.5,22-61.5
			c2.2,0.6,5,1.2,7.2,2.4C133.7,144,133.4,174.2,124.4,198.9z M112,150.7c-6.2,20.1-22.9,59.6-31,83.1
			C98.4,219,124.5,179.7,112,150.7z"/>
		<path class="st0" d="M200.4,167.5c-12.5,27.2-19.2,51.7-20,73.7l34.1-60.9c4.9,1,5.7,5.4,2.3,13.2l-34.9,71.6
			c-11.9-0.8-19.2-5.9-21.9-15.3c2.3-22.3,7.2-42.4,13.1-62.6c-13,17.8-31.1,68.5-28.6,83.7c0,0.2,0.1,0.6,0.1,0.8
			c-0.4,0.1-1,0-1.5-0.2c-11.3-0.9-18.2-6.1-21-15.1c1.7-31.1,21.7-104.2,28.9-133.3c7.4-2.3,13.8-1.4,20.5,4.9
			c-9.5,22.1-19.3,58.9-24.4,91c11.5-27,24.8-48.8,33-56.2C187,159.4,193.6,160.9,200.4,167.5z"/>
		<path class="st0" d="M226.1,147.3l14-2.5c21.9,23.4,8.7,117.4-26.1,113c-7.6-0.7-13.9-3.7-16.5-10.7c-9.1-22.1,4.6-76.8,25.2-91.2
			l6.4,1.3C228.3,153.9,227.6,150.8,226.1,147.3z M232.4,167.5c-12,17.4-23.8,56.9-19.5,78C223.2,244.1,239.1,189.4,232.4,167.5z"/>
		<path class="st0" d="M302.2,105.4c-2.8,6.3-5.7,14.6-8.5,23c1.8-0.3,3.4-0.6,4.9-0.4c1.9,1.3,3.3,3.5,4,6.3
			c-3.6,0.6-7.6,1.3-11.1,2.4c-8.5,28.1-15.1,62.1-16.9,87l33.3-59.3c4.9,1,5.7,5.4,2.1,12.9l-34.6,72c-12.1-1-19.8-5.8-22.6-15.6
			c1.3-20.5,10.7-60.1,18.9-92.9c-1.5,0.7-2.9,0.9-4.7,1.3c-2.8-1.8-5.6-4.6-6.7-8.5c4.4-0.8,9-1.4,13.4-2.2c3.4-12.2,6.1-23,8-30.5
			C289.1,98.2,295.7,99.1,302.2,105.4z"/>
		<path class="st0" d="M321,130.6l14-2.5c21.9,23.4,8.7,117.4-26.1,113c-7.6-0.7-13.9-3.7-16.5-10.7c-9.1-22.1,4.6-76.8,25.2-91.2
			l6.4,1.3C323.2,137.2,322.5,134,321,130.6z M327.3,150.7c-12,17.4-23.8,56.9-19.5,78C318.1,227.3,334,172.7,327.3,150.7z"/>
		<path class="st0" d="M387.7,135.1l9.8,12.3c2.5-9.5,4.6-18.2,6.2-24.4c7.4-2.3,13.8-1.4,20.4,4.7
			c-15.9,37.5-32.9,116.5-26.9,143.7c-12.1-0.8-19.6-5.8-22.5-15.2c1-14.4,5.5-37.9,11-61.8c-2.3,6-7.9,19.6-16.4,38.2
			c-12.1-1-19.4-6.1-21.9-15.5c2.8-31,11.7-57.6,20-86.9C374.3,126.8,381.1,128.2,387.7,135.1z M384.1,143
			c-10.7,24.8-16.2,47.5-16.5,67.7c0-0.2,9.3-19.6,27.5-53.8L384.1,143z"/>
		<path class="st0" d="M439.3,196c2.3-24.4,12.3-46.3,19.9-68.7c-2.9-3.4-7.2-4.5-11.1-2.2c-12.6,34-23.3,82.2-19.8,105.5
			c-6,1.1-18.9-4.3-18.1-12.7c4.7-29.5,19-94.6,33.5-116.6l16.6-2.9c-2.5,4.4-5.3,9.8-7.9,16.1c14.7-1.1,23.2,2.9,27.1,11.9
			c0.2-0.2-16.5,30.8-19.9,61.5l31.3-57.6c4.5,1.1,5.3,5.3,2,12.6l-32.9,67.7C448.6,210.1,441.7,205.1,439.3,196z"/>
		<path class="st0" d="M570.2,131.5l-34.7,71.4c-11.9-0.8-19.2-5.9-21.9-15.3c0.7-6.5,1.6-13.1,2.6-19.2c0,0-6.4,16.4-17.7,41.1
			c-12.1-0.8-19.4-5.9-21.9-15.3c2.8-31,11.7-57.6,20-86.7c6.8-3.5,13.5-1.8,20,4.7l10.1,12.7c2.3-7.8,4.7-15.7,6.9-23.9
			c6.8-3.5,13.5-1.8,20.2,4.7c-12.5,27.2-19.2,51.7-19.9,73.5l33.9-60.7C572.8,119.2,573.6,123.6,570.2,131.5z M524.2,134l-10.9-14
			c-10.7,24.8-16.2,47.5-16.5,67.7C496.9,187.5,506,168.2,524.2,134z"/>
		<path class="st0" d="M618.5,104.4c-3,30.9-11.8,57.4-20,86.5c-6.9,3.3-13.5,1.8-20.1-4.9l-9.2-11.4c-4.5,27.2-7.1,53.5-4.4,66.6
			c-12.1-0.8-19.6-5.8-22.5-15.2c1.8-30.9,20.6-103.6,27.8-132.5c5.9-1.9,10.9-1.5,16,1.5c-2,7.4-5.6,21.8-9.2,39
			c0.6-1.3,1.2-2.7,2-4.1c0,0,6.2-16.2,17.7-41.1C608.6,89.6,615.7,94.7,618.5,104.4z M598.3,110.4c-0.2,0.2-9.3,19.6-27.5,53.8
			l10.9,14C592.4,153.3,597.9,130.7,598.3,110.4z"/>
		<path class="st0" d="M696.6,80.1c-12.5,27.2-19.2,51.7-20,73.7l34.1-60.9c4.9,1,5.7,5.4,2.3,13.2l-34.9,71.6
			c-11.9-0.8-19.2-5.9-21.9-15.3c2.3-22.3,7.2-42.4,13.1-62.6c-13,17.8-31.1,68.5-28.6,83.7c0,0.2,0.1,0.6,0.1,0.8
			c-0.4,0.1-1,0-1.5-0.2c-11.3-0.9-18.2-6.1-21-15.1C620,137.9,640,64.8,647.2,35.7c7.4-2.3,13.8-1.4,20.5,4.9
			c-9.5,22.1-19.3,58.9-24.4,91c11.5-27,24.8-48.8,33-56.2C683.1,71.9,689.8,73.4,696.6,80.1z"/>
		<path class="st0" d="M732.3,74.2c-13,28.1-19.7,53.2-20.1,75.6c0,0,9.2-19.4,27.5-53.8c3.4-13.4,6.6-25.5,8.7-33.9
			c7.4-2.3,13.8-1.2,20.5,4.9C752.8,104.2,736,183,742,210.4c-12.1-0.8-19.6-5.8-22.5-15.4c0.8-14.4,5.5-37.7,11-61.8
			c-2.3,5.8-7.9,19.6-16.6,38.2c-12.1-0.6-19.4-5.7-21.9-15.3c3-31.1,11.7-57.6,20-86.7C718.8,65.8,725.5,67.5,732.3,74.2z"/>
	</g>
	<g>
		<path class="st0" d="M307.1,81c-1.7-0.8-2.9-2-3.8-3.6c-0.9-1.6-1.3-3.5-1.3-5.7c0-2.2,0.4-4.2,1.3-5.9c0.9-1.8,2.2-3.2,3.8-4.2
			c1.7-1.1,3.6-1.7,5.9-1.9c1.4-0.1,2.8,0,4.1,0.3c1.3,0.3,2.4,0.8,3.2,1.5l-1.7,4.2c-1.8-1.1-3.6-1.6-5.4-1.4c-1.7,0.2-3.1,0.8-4,2
			c-0.9,1.2-1.4,2.9-1.4,5c0,2.2,0.5,3.8,1.4,4.8c0.9,1,2.3,1.5,4,1.3c1.9-0.2,3.7-1,5.4-2.4l1.7,3.9c-0.8,0.8-1.9,1.5-3.2,2
			c-1.3,0.5-2.7,0.9-4.1,1C310.7,82,308.7,81.7,307.1,81z"/>
		<path class="st0" d="M328.5,78.1c-1.6-1.5-2.4-3.7-2.4-6.8V58.7l5.5-0.5V71c0,1.6,0.3,2.7,1,3.5c0.7,0.8,1.7,1.1,3,1
			c1.3-0.1,2.3-0.6,2.9-1.5c0.7-0.9,1-2.1,1-3.7V57.5l5.6-0.5v12.6c0,3-0.8,5.5-2.5,7.2c-1.6,1.8-4,2.8-7.1,3
			C332.5,80.1,330.1,79.5,328.5,78.1z"/>
		<path class="st0" d="M355,77.5c-1.6-0.3-2.9-0.8-3.8-1.4l1.8-4.2c1,0.6,2.2,1,3.3,1.2s2.4,0.3,3.6,0.2c1.2-0.1,2.1-0.4,2.8-0.7
			c0.6-0.4,1-0.9,1-1.5c0-0.5-0.3-1-0.9-1.3c-0.6-0.3-1.7-0.6-3.3-0.8c-2-0.2-3.6-0.6-4.8-1.1c-1.1-0.5-1.9-1.1-2.4-1.9
			c-0.5-0.8-0.7-1.7-0.7-2.9c0-1.3,0.4-2.5,1.1-3.7c0.7-1.1,1.8-2.1,3.1-2.8c1.4-0.7,2.9-1.2,4.6-1.3c1.6-0.1,3.1-0.1,4.5,0.3
			c1.5,0.3,2.6,0.8,3.4,1.4l-1.8,4.2c-0.9-0.6-1.9-1-3-1.3c-1-0.3-2.1-0.3-3.1-0.3c-1,0.1-1.9,0.4-2.5,0.8c-0.6,0.5-0.9,1-0.9,1.7
			c0,0.4,0.1,0.7,0.3,0.9c0.2,0.2,0.6,0.4,1.2,0.6c0.6,0.2,1.5,0.3,2.7,0.5c2,0.3,3.5,0.6,4.6,1.1c1.1,0.5,1.9,1.1,2.4,1.9
			c0.5,0.8,0.7,1.7,0.7,2.8c0,2.1-0.8,3.9-2.5,5.2c-1.6,1.4-3.9,2.2-6.9,2.4C358.2,77.9,356.6,77.8,355,77.5z"/>
		<path class="st0" d="M379.7,75.7V58.6l-6.4,0.6v-4.6l18.6-1.6v4.6l-6.4,0.6v17.1L379.7,75.7z"/>
		<path class="st0" d="M400.6,72.8c-1.6-0.8-2.9-1.9-3.8-3.6s-1.3-3.5-1.3-5.8c0-2.3,0.4-4.3,1.3-6s2.1-3.1,3.8-4.2
			c1.6-1,3.5-1.7,5.7-1.9c2.2-0.2,4.1,0.1,5.7,0.9c1.6,0.8,2.9,1.9,3.7,3.5c0.9,1.6,1.3,3.5,1.3,5.8c0,2.3-0.4,4.3-1.3,6
			c-0.9,1.8-2.1,3.2-3.7,4.2c-1.6,1-3.5,1.7-5.7,1.9C404.1,73.9,402.2,73.6,400.6,72.8z M410.1,67.2c0.9-1.2,1.4-3,1.4-5.2
			c0-2.2-0.5-3.8-1.4-4.9c-0.9-1.1-2.2-1.5-3.8-1.4c-1.6,0.1-2.9,0.8-3.8,2c-0.9,1.2-1.4,2.9-1.4,5.1c0,2.2,0.5,3.9,1.4,5
			c0.9,1.1,2.2,1.5,3.8,1.4C407.9,69.2,409.2,68.5,410.1,67.2z"/>
		<path class="st0" d="M440.8,48.7l4.4-0.4V70l-5,0.4l0-9.9l-4.1,10.3l-3.6,0.3l-4.1-9.5v9.8l-4.9,0.4V50.2l4.4-0.4l6.4,14.3
			L440.8,48.7z"/>
		<path class="st0" d="M481.5,45.1l4.4-0.4v21.7l-5,0.4l0-9.9l-4.1,10.3l-3.6,0.3l-4.1-9.5v9.8l-4.9,0.4V46.6l4.5-0.4l6.4,14.3
			L481.5,45.1z"/>
		<path class="st0" d="M509.3,64.4l-1.9-4.3l-9.6,0.8l-1.9,4.7l-5.7,0.5l10.1-22.6l4.5-0.4l10.1,20.8L509.3,64.4z M499.7,56.4
			l5.9-0.5l-2.9-6.6L499.7,56.4z"/>
		<path class="st0" d="M519.2,41.8L528,41c2.4-0.2,4.4,0,6.2,0.8c1.7,0.7,3,1.8,4,3.4c0.9,1.5,1.4,3.4,1.4,5.7c0,2.3-0.5,4.2-1.4,6
			c-0.9,1.7-2.2,3.1-3.9,4.1c-1.7,1-3.8,1.6-6.2,1.8l-8.8,0.8V41.8z M527.6,58.2c2.1-0.2,3.7-0.8,4.7-2c1-1.1,1.6-2.8,1.6-4.9
			c0-4.2-2.1-6.1-6.3-5.7l-2.7,0.2v12.6L527.6,58.2z"/>
		<path class="st0" d="M545.8,61.2V39.5l15.4-1.3v4.4l-9.8,0.9v4.1l9.2-0.8V51l-9.2,0.8v4.5l9.8-0.9v4.4L545.8,61.2z"/>
	</g>
	<path class="st0" d="M284.1,296.1c1.1,5,12.3,6.1,21.6,4.1c3.7-0.8,7.4-1.9,11.4-3.4c24-6.4,48.9-12.3,73.5-17.7
		c82.4-18,156.4-29.9,228.8-34.8c27-1.8,54.6-2.4,79.5,0.9c2.9,0.6,18.1,4.1,22.6,3.2c0.7-0.2,1.1-0.5,1-0.9
		c-6.5-29.7-67.7-27.3-100.2-25.7c-81.4,6.8-164.8,23.9-245.6,40.3C366.7,264.3,282,286.3,284.1,296.1z M461.1,249.6
		c90.6-18.4,157.5-26.6,200.6-24.6C615.7,225.3,548.7,233.5,461.1,249.6z"/>
</g>
</svg>
