<?xml version="1.0" encoding="utf-8"?>
<!-- Generator: Adobe Illustrator 24.1.1, SVG Export Plug-In . SVG Version: 6.00 Build 0)  -->
<svg version="1.1" id="Capa_1" xmlns="http://www.w3.org/2000/svg" xmlns:xlink="http://www.w3.org/1999/xlink" x="0px" y="0px"
	 viewBox="0 0 775 336" style="enable-background:new 0 0 775 336;" xml:space="preserve">
<style type="text/css">
	.st0{fill:#FFFFFF;}
	.st1{fill:#01D7D9;}
</style>
<g>
	<g>
		<path class="st0" d="M204.1,112.7c-17.3,37.5-40.6,132.9-35.5,160.3c-12.1-0.8-19.4-5.9-21.9-15.5c0.9-8.8,3.5-22.1,7.2-37.6
			c-4.7,1.6-9.5,3.3-14.3,5.4c-17.6,39.4-34.8,76.5-43.6,87.4c-7,4.5-16.6,5.4-24,0.7c9.4-7.6,27.9-41,47.2-78.9
			c-12.7,6.4-23.5,13.2-26.9,18.4c-2.9-6.1-3.2-15.5,0-19.8c11-6.5,23.4-12.4,36.2-16.9c21.1-43,41.4-87.2,48.9-104.6
			c2.4-0.4,4.4-0.8,5.8-0.8l0.7-2.8C191.2,105.4,197.6,106.4,204.1,112.7z M170.4,154.9c-7.2,16.3-15.8,35.8-24.5,55.5
			c3.5-1,7.1-1.7,10.7-2.5C160.8,190.7,165.8,171.9,170.4,154.9z"/>
		<path class="st0" d="M221.3,154.4c-7.2,15.5-12.4,30.3-15.7,44.3c11.4-26.8,24.5-48.3,32.7-55.7c6.8-3.5,13.5-1.8,20.1,4.9
			c-12.4,27-19,51.3-19.9,73.1l33.9-60.5c4.9,1,5.7,5.4,2.3,13l-34.5,71.3c-12.1-0.6-19.4-5.9-21.9-15.3c2.1-22,7.3-42,13-62.2
			c-12.8,17.3-30.4,66.5-28.6,82.5c0.1,0.6,0.2,1.2,0.3,1.6c-0.4,0.1-1,0-1.7-0.1c-10.9-1-17.6-6.2-20-15.3
			c2.8-30.8,11.8-57.4,19.8-86.5C207.9,146.1,214.6,147.8,221.3,154.4z"/>
		<path class="st0" d="M276.3,136.1c6.6-3.4,13.3-1.9,20,4.7c-12.4,27-19,51.5-19.9,73.3l33.9-60.7c5,1.2,5.5,5.4,2.1,13.3L278,238
			c-11.9-0.8-19.2-5.9-21.7-15.6C259.2,191.5,268,165,276.3,136.1z M283.1,120.6c4.6,0.4,8.3,1.4,14.9,2.3l13.8-34
			C306,86.4,297,87,291.3,89L283.1,120.6z"/>
		<path class="st0" d="M369.6,127.9c-7.1,15.7-12.5,30.7-15.9,44.7c11.6-26.8,24.9-48.6,32.9-56c6.8-3.5,13.7-2,20.2,4.7
			c-12.3,27.2-19.1,51.9-20,73.7l34.3-61c5,1.2,5.7,5.6,2.1,13.3l-34.6,71.8c-12.1-0.8-19.4-5.9-21.9-15.5
			c2.1-22.3,7.2-42.2,12.9-62.6c-12.8,17.5-30.5,66.9-28.7,83.1c0.1,0.4,0.2,1,0.3,1.6c-0.4,0.1-1,0-1.7-0.1
			c-10.9-1.2-17.8-6.2-20.3-15.4c2.1-22.3,7.2-42.2,13.1-62.6c-12.8,17.5-30.5,66.9-28.7,83.1c0.1,0.4,0.2,1,0.3,1.6
			c-0.6,0.1-1,0-1.7-0.1c-11.1-1.1-17.8-6.2-20.3-15.4c3-31.1,11.7-57.8,20.2-87c6.8-3.5,13.5-2,20.2,4.7
			c-7.3,15.7-12.5,30.7-15.9,44.7c11.4-26.8,24.7-48.5,32.9-56C356.2,119.7,363.1,121.2,369.6,127.9z"/>
		<path class="st0" d="M496.3,134.6L461.6,206c-11.9-0.8-19.2-5.9-21.9-15.3c0.7-6.5,1.6-13.1,2.6-19.2c0,0-6.4,16.4-17.7,41.1
			c-12.1-0.8-19.4-5.9-21.9-15.3c2.8-31,11.7-57.6,20-86.7c6.8-3.5,13.5-1.8,20,4.7l10.1,12.7c2.3-7.8,4.7-15.7,6.9-23.9
			c6.8-3.5,13.5-1.8,20.2,4.7c-12.5,27.2-19.2,51.7-19.9,73.5l33.9-60.7C498.9,122.4,499.7,126.8,496.3,134.6z M450.3,137.2
			l-10.9-14c-10.7,24.8-16.2,47.5-16.5,67.7C423,190.7,432.2,171.3,450.3,137.2z"/>
		<path class="st0" d="M526.8,56c-2.8,6.3-5.7,14.6-8.5,23c1.8-0.3,3.4-0.6,4.9-0.4c1.9,1.3,3.3,3.5,4,6.3
			c-3.6,0.6-7.6,1.3-11.1,2.4c-8.5,28.1-15.1,62.1-16.9,87l33.3-59.3c4.9,1,5.7,5.4,2.1,12.9l-34.6,72c-12.1-1-19.8-5.8-22.6-15.6
			c1.3-20.5,10.7-60.1,18.9-92.9c-1.5,0.7-2.9,0.9-4.7,1.3c-2.8-1.8-5.6-4.6-6.7-8.5c4.4-0.8,9-1.4,13.5-2.2c3.4-12.2,6.1-23,8-30.5
			C513.8,48.8,520.4,49.7,526.8,56z"/>
		<path class="st0" d="M535.4,90.4c6.6-3.4,13.3-1.9,20,4.7c-12.4,27-19,51.5-19.9,73.3l33.9-60.7c5,1.2,5.5,5.4,2.1,13.3
			l-34.5,71.3c-11.9-0.8-19.2-5.9-21.7-15.6C518.3,145.8,527.1,119.3,535.4,90.4z M542.2,74.9c4.6,0.4,8.3,1.4,14.9,2.3l13.8-34
			c-5.8-2.5-14.8-1.9-20.4,0.1L542.2,74.9z"/>
		<path class="st0" d="M581.4,74.8l14-2.5c21.9,23.4,8.7,117.4-26.1,113c-7.6-0.7-13.9-3.7-16.5-10.7c-9.1-22.1,4.6-76.8,25.2-91.2
			l6.4,1.3C583.6,81.5,582.8,78.3,581.4,74.8z M587.6,95c-12,17.4-23.8,56.9-19.5,78C578.4,171.6,594.4,116.9,587.6,95z"/>
		<path class="st0" d="M647.8,79.2c-7.2,15.5-12.4,30.3-15.7,44.3c11.4-26.8,24.5-48.3,32.7-55.7c6.8-3.5,13.5-1.8,20.1,4.9
			c-12.4,27-19,51.3-19.9,73.1l33.9-60.5c4.9,1,5.7,5.4,2.3,13l-34.5,71.3c-12.1-0.6-19.4-5.9-21.9-15.3c2.1-22,7.3-42,13-62.2
			c-12.8,17.3-30.4,66.5-28.6,82.5c0.1,0.6,0.2,1.2,0.3,1.6c-0.4,0.1-1,0-1.7-0.1c-10.9-1-17.6-6.2-20-15.3
			c2.8-30.8,11.8-57.4,19.8-86.5C634.4,70.9,641.1,72.6,647.8,79.2z"/>
	</g>
	<g>
		<path class="st0" d="M270.8,62.4c-1.7-0.8-2.9-2-3.8-3.6c-0.9-1.6-1.3-3.5-1.3-5.7c0-2.2,0.4-4.2,1.3-5.9c0.9-1.8,2.2-3.2,3.8-4.2
			c1.7-1.1,3.6-1.7,5.9-1.9c1.4-0.1,2.8,0,4.1,0.3c1.3,0.3,2.4,0.8,3.2,1.5l-1.7,4.2c-1.8-1.1-3.6-1.6-5.4-1.4c-1.7,0.2-3.1,0.8-4,2
			c-0.9,1.2-1.4,2.9-1.4,5c0,2.2,0.5,3.8,1.4,4.9c0.9,1,2.3,1.5,4,1.3c1.9-0.2,3.7-1,5.4-2.4l1.7,3.9c-0.8,0.8-1.9,1.5-3.2,2
			c-1.3,0.5-2.7,0.9-4.1,1C274.4,63.4,272.5,63.2,270.8,62.4z"/>
		<path class="st0" d="M292.3,59.5c-1.6-1.5-2.4-3.7-2.4-6.8V40.1l5.5-0.5v12.8c0,1.6,0.3,2.7,1,3.5c0.7,0.8,1.7,1.1,3,1
			c1.3-0.1,2.2-0.6,2.9-1.5c0.7-0.9,1-2.1,1-3.7V38.9l5.6-0.5V51c0,3-0.8,5.5-2.5,7.2c-1.6,1.8-4,2.8-7.1,3
			C296.3,61.5,293.9,60.9,292.3,59.5z"/>
		<path class="st0" d="M318.8,58.9c-1.6-0.3-2.9-0.8-3.8-1.4l1.8-4.2c1,0.6,2.2,1,3.3,1.2c1.2,0.3,2.4,0.3,3.6,0.2
			c1.2-0.1,2.1-0.4,2.8-0.7c0.6-0.4,1-0.9,1-1.5c0-0.5-0.3-1-0.9-1.3c-0.6-0.3-1.7-0.6-3.3-0.8c-2-0.2-3.6-0.6-4.8-1.1
			c-1.1-0.5-1.9-1.1-2.4-1.9c-0.5-0.8-0.7-1.7-0.7-2.9c0-1.3,0.4-2.5,1.1-3.7c0.7-1.1,1.8-2.1,3.1-2.8c1.4-0.7,2.9-1.2,4.6-1.3
			c1.6-0.1,3.1,0,4.5,0.3s2.6,0.8,3.4,1.4l-1.8,4.2c-0.9-0.6-1.9-1-3-1.3c-1-0.3-2.1-0.3-3.1-0.3c-1,0.1-1.9,0.4-2.5,0.8
			c-0.6,0.5-0.9,1-0.9,1.7c0,0.4,0.1,0.7,0.3,0.9c0.2,0.2,0.6,0.4,1.2,0.6c0.6,0.2,1.5,0.4,2.7,0.5c2,0.3,3.5,0.6,4.6,1.1
			c1.1,0.5,1.9,1.1,2.4,1.9c0.5,0.8,0.7,1.7,0.7,2.8c0,2.1-0.8,3.8-2.5,5.2c-1.6,1.4-3.9,2.2-6.9,2.4
			C321.9,59.3,320.3,59.2,318.8,58.9z"/>
		<path class="st0" d="M343.5,57.1V40.1l-6.4,0.6V36l18.6-1.6V39l-6.4,0.6v17.1L343.5,57.1z"/>
		<path class="st0" d="M364.3,54.2c-1.6-0.8-2.9-1.9-3.8-3.6c-0.9-1.6-1.3-3.5-1.3-5.8c0-2.3,0.4-4.3,1.3-6c0.9-1.7,2.1-3.1,3.8-4.2
			c1.6-1,3.5-1.7,5.7-1.9c2.2-0.2,4.1,0.1,5.7,0.9c1.6,0.8,2.9,1.9,3.7,3.5c0.9,1.6,1.3,3.5,1.3,5.8s-0.4,4.3-1.3,6
			c-0.9,1.8-2.1,3.2-3.7,4.2c-1.6,1-3.5,1.7-5.7,1.9C367.9,55.3,365.9,55,364.3,54.2z M373.9,48.6c0.9-1.2,1.4-3,1.4-5.2
			c0-2.2-0.5-3.8-1.4-4.9c-0.9-1.1-2.2-1.5-3.8-1.4c-1.6,0.1-2.9,0.8-3.8,2c-0.9,1.2-1.4,2.9-1.4,5.2c0,2.2,0.5,3.9,1.4,5
			c0.9,1.1,2.2,1.5,3.8,1.4C371.7,50.6,372.9,49.9,373.9,48.6z"/>
		<path class="st0" d="M404.6,30.1l4.4-0.4v21.7l-5,0.4l0-9.9l-4.1,10.3l-3.6,0.3l-4.1-9.5v9.8l-4.9,0.4V31.6l4.5-0.4l6.4,14.3
			L404.6,30.1z"/>
		<path class="st0" d="M445.2,26.5l4.4-0.4v21.7l-5,0.4l0-9.9l-4.1,10.3l-3.6,0.3l-4.1-9.5v9.8l-4.9,0.4V28l4.4-0.4l6.4,14.3
			L445.2,26.5z"/>
		<path class="st0" d="M473,45.8l-1.9-4.3l-9.6,0.8l-1.9,4.7l-5.7,0.5l10.1-22.6l4.5-0.4l10.1,20.8L473,45.8z M463.4,37.9l5.9-0.5
			l-2.9-6.6L463.4,37.9z"/>
		<path class="st0" d="M482.9,23.2l8.8-0.8c2.4-0.2,4.4,0,6.2,0.8c1.7,0.7,3,1.8,4,3.4c0.9,1.5,1.4,3.4,1.4,5.7c0,2.3-0.5,4.2-1.4,6
			c-0.9,1.7-2.2,3.1-3.9,4.1c-1.7,1-3.8,1.6-6.2,1.8l-8.8,0.8V23.2z M491.3,39.6c2.1-0.2,3.7-0.8,4.7-2c1-1.1,1.6-2.8,1.6-4.9
			c0-4.2-2.1-6.1-6.3-5.7l-2.7,0.2v12.6L491.3,39.6z"/>
		<path class="st0" d="M509.6,42.6V20.9l15.4-1.3v4.4l-9.8,0.9v4.1l9.2-0.8v4.4l-9.2,0.8v4.5l9.8-0.9v4.4L509.6,42.6z"/>
	</g>
	<path class="st0" d="M291.2,284.4c1,5,11.2,6.6,19.7,5c3.4-0.6,6.8-1.5,10.4-2.9c22-5.4,44.8-10.1,67.4-14.4
		c75.6-14.3,143.3-22.9,209.6-24.6c24.7-0.7,49.9,0,72.7,4.4c2.6,0.7,16.5,4.9,20.6,4.1c0.7-0.1,1-0.4,0.9-0.9
		c-5.7-29.9-61.7-30.2-91.4-30c-74.5,3.2-150.9,16.5-225,29.4C367,256.3,289.3,274.6,291.2,284.4z M453.5,245.8
		c83-14.3,144.3-19.6,183.7-15.7C595.1,228.4,533.7,233.7,453.5,245.8z"/>
</g>
</svg>
