<?xml version="1.0" encoding="utf-8"?>
<!-- Generator: Adobe Illustrator 24.1.1, SVG Export Plug-In . SVG Version: 6.00 Build 0)  -->
<svg version="1.1" id="Capa_1" xmlns="http://www.w3.org/2000/svg" xmlns:xlink="http://www.w3.org/1999/xlink" x="0px" y="0px"
	 viewBox="0 0 775 496" style="enable-background:new 0 0 775 496;" xml:space="preserve">
<style type="text/css">
	.st0{fill:#FFFFFF;}
	.st1{fill:#6387A6;}
</style>
<g>
	<g>
		<path class="st0" d="M283.6,52.2c7-1.7,15.6-0.6,22.3,2.4l-14.8,35.9c-7.5-1-11.6-1.9-16.9-2.7l6.8-25.6
			c-18,4.4-27.3,25-33.1,45.5l-0.2,0C234,153,213.4,235.9,216.3,246.9c-0.5,0.1-0.7,0.1-1.2,0c-5.4,0.2-15.5-3.8-18.6-13.4
			c0.3-1.2-6.1-133-8.4-154.2c-22.6,1.2-51.7,96.9-31.6,129.5c-9.4,5.2-19.6,4.4-24.1,1.7c-17.9-28.5,7.5-131.8,47.8-140.1
			c5.2-0.9,20.3,1.8,28.6,9c0.6,14,2.1,53.4,3.5,90.5c4.5-19.6,9.7-39.7,15-58.5C236.5,83.3,250.4,58.1,283.6,52.2z M268.5,220.8
			c-13.5-0.9-21.8-6.7-24.7-17.5c3.2-35.1,13.2-65,22.6-97.9c7.8-4,15.4-2,22.8,5.4c-14.1,30.7-21.7,58.3-22.5,82.8l38.4-68.5
			c5.4,1.2,6.3,6.2,2.4,14.8L268.5,220.8z"/>
		<path class="st0" d="M334.1,108.1c-2.5-2.1-5.7-0.4-9.8,4.1c-25.1,25.3-0.5,58.3,19.5,73.1c1.3,23.2-23.2,29.7-44.3,28.5
			c-7.1-3.2-6.4-9.7-3.1-20.3c8.8,6,17.7,5.8,27.7,2.4c-18-19.4-33.1-31.7-30.2-61.8c1.6-18.6,14.1-38.6,33.8-41.2
			c3.7-0.4,6.8,0.2,9.5,2.1c0.9-1.6,1.9-2.7,2.9-2.4l15.4,3.6c-5.8,7.1-9.4,26.8-12.3,36.7l-9.4,1.4
			C332.7,129.7,332.8,117.9,334.1,108.1z"/>
		<path class="st0" d="M438.1,84.3c-14,30.9-21.8,58.8-22.6,83.6l38.8-69c5.4,1.2,6.3,6.2,2.4,15.1l-39.4,81.4
			c-13.8-0.9-22.1-6.7-24.9-17.7c0.8-7.4,1.6-14.6,2.9-21.9c0,0-7.3,18.7-20.3,47c-13.8-0.9-22.1-6.7-24.9-17.7
			c3.4-35.3,13.3-65.5,22.7-98.8c7.8-3.7,15.6-2,23,5.6c-14.6,31.9-22.2,60.7-22.8,86.4c0-0.2,10.6-22.3,31.4-61.4
			c3.4-12.6,7.1-25,10.7-38C422.9,75.1,430.7,76.7,438.1,84.3z"/>
		<path class="st0" d="M543.4,98.6L504,179.8c-13.5-0.9-21.8-6.7-24.9-17.4c0.8-7.4,1.8-14.9,2.9-21.9c0,0-7.3,18.7-20.2,46.8
			c-13.8-0.9-22.1-6.7-24.9-17.4c3.2-35.3,13.3-65.5,22.8-98.6c7.8-3.9,15.4-2,22.8,5.4L494,90.9c2.7-8.9,5.3-17.8,7.9-27.2
			c7.8-3.9,15.4-2,23,5.3c-14.3,30.9-21.8,58.8-22.6,83.6l38.5-69C546.4,84.7,547.3,89.7,543.4,98.6z M491.1,101.5l-12.4-15.9
			c-12.2,28.2-18.4,54-18.8,77C460.1,162.4,470.5,140.4,491.1,101.5z"/>
		<path class="st0" d="M577.8,8.8c-14.1,33-28.7,94.3-31.4,134.7l37.9-67.5c5.6,0.9,6.5,6.1,2.6,14.8l-39.6,81.6
			c-13.8-0.9-22.3-6.9-25.6-17.5c2-35.1,24.7-118.4,32.9-151.6C563,0.6,570.5,1.6,577.8,8.8z"/>
		<path class="st0" d="M36.1,497.3c-6.8-2.6-15.4-10-17.3-18.3c7.4-2,61.6-36.7,59-44.7c-1.2-4-56-8.9-68.7-24.7
			c-15.3-18.9-0.2-50.7,23.7-80c20.4-25.4,47.5-48.8,67.2-60.9c1.4-0.2,12.7,2.9,19.1,5.6C129.7,308.7,91,365,68.3,388.3
			c-8.5,5.3-18.3-5.5-22-12.8c35.5-27.6,61.4-87.1,58.4-90.8c-33.5,27-93.9,88.1-76.3,110.6c4.8,6.2,50.9,15.9,60.2,19.2
			c5,3.1,10.6,12.2,11.3,21.5C90.3,455.8,61.3,480.4,36.1,497.3z"/>
		<path class="st0" d="M165.1,267.5c-3.2,7.1-6.5,16.6-9.7,26.1c2-0.4,3.9-0.7,5.5-0.5c2.1,1.5,3.8,4,4.6,7.2
			c-4.1,0.7-8.7,1.5-12.7,2.7c-9.6,32-17.1,70.6-19.2,98.9l37.9-67.5c5.6,1.1,6.5,6.1,2.3,14.6l-39.3,81.8
			c-13.8-1.1-22.5-6.6-25.7-17.8c1.5-23.3,12.1-68.3,21.5-105.7c-1.7,0.8-3.3,1.1-5.4,1.4c-3.2-2-6.3-5.2-7.6-9.7
			c5-0.9,10.3-1.6,15.3-2.5c3.9-13.8,6.9-26.1,9.1-34.7C150.3,259.3,157.7,260.3,165.1,267.5z"/>
		<path class="st0" d="M186.6,296.1l15.9-2.8c24.9,26.6,9.9,133.5-29.7,128.5c-8.6-0.8-15.8-4.3-18.8-12.2
			c-10.3-25.2,5.3-87.3,28.7-103.7l7.3,1.5C189.1,303.6,188.2,300,186.6,296.1z M193.7,319c-13.6,19.8-27.1,64.6-22.2,88.7
			C183.2,406.1,201.4,343.9,193.7,319z"/>
		<path class="st0" d="M246.2,383.7c2.6-27.7,13.9-52.7,22.6-78.2c-3.3-3.9-8.2-5.1-12.6-2.5c-14.3,38.7-26.5,93.4-22.5,119.9
			c-6.8,1.2-21.5-4.9-20.6-14.4C218.3,375,234.6,301,251.1,276l18.9-3.3c-2.9,5-6,11.2-9,18.3c16.7-1.3,26.4,3.3,30.8,13.6
			c0.2-0.3-18.7,35-22.6,70l35.6-65.4c5.1,1.2,6,6,2.3,14.4l-37.4,77C256.7,399.7,248.9,394,246.2,383.7z"/>
		<path class="st0" d="M334.3,288.3c-14.8,32-22.4,60.5-22.9,86c0,0,10.4-22,31.2-61.1c3.9-15.2,7.6-29,9.9-38.6
			c8.5-2.7,15.7-1.4,23.3,5.5c-18.1,42.4-37.3,131.9-30.4,163.1c-13.8-0.9-22.3-6.6-25.6-17.5c0.9-16.4,6.3-42.9,12.5-70.3
			c-2.6,6.6-9,22.2-18.9,43.5c-13.7-0.6-22-6.4-24.9-17.4c3.4-35.3,13.3-65.5,22.8-98.6C319,278.8,326.6,280.8,334.3,288.3z"/>
		<path class="st0" d="M424.4,221.7c-3.2,7.1-6.5,16.6-9.7,26.1c2-0.4,3.9-0.7,5.5-0.5c2.1,1.5,3.8,4,4.6,7.2
			c-4.1,0.7-8.7,1.5-12.7,2.7c-9.6,32-17.1,70.6-19.2,98.9l37.9-67.5c5.6,1.1,6.5,6.1,2.3,14.6l-39.3,81.8
			c-13.8-1.1-22.5-6.6-25.7-17.8c1.5-23.3,12.1-68.3,21.5-105.7c-1.7,0.8-3.3,1.1-5.4,1.4c-3.2-2-6.3-5.2-7.6-9.7
			c5-0.9,10.3-1.6,15.3-2.5c3.9-13.8,6.9-26.1,9.1-34.7C409.6,213.6,417.1,214.6,424.4,221.7z"/>
		<path class="st0" d="M434.6,332.6c-0.7,5.3-1.2,10.5-1.6,16c0.4,5.1,3.3,13.3,12.2,4.2c12.7-13.3,35.2-48.2,44.6-63.7
			c9.3,10.1,0.7,21.5-5,30.5c-11.8,18.5-35.8,56.3-51.3,57.6c0,0-17.1-10.6-19-11.7c-2.8-3.7-3.9-7.3-3.5-10.6
			c0.2-36.2,8.5-66.5,21.9-90.2c3.1-4.8,7.8-6.5,14.3-5.3c12.1,3.5,16.7,5.7,16.7,5.7c15.2,5.1,1.3,56.4-13.3,69.7
			C445.9,336.7,438.5,336.4,434.6,332.6z M445,317.4c5.1-9.6,15.7-56.3,4.6-36.3c-5.9,12.1-10.1,25-12.9,38.7
			C440.3,321.1,442.9,320.1,445,317.4z"/>
		<path class="st0" d="M527.5,203.1c-14.1,33-28.7,94.3-31.4,134.7l37.9-67.5c5.6,0.9,6.5,6.1,2.6,14.8l-39.6,81.6
			c-13.8-0.9-22.3-6.9-25.6-17.5c2-35.1,24.7-118.4,32.9-151.6C512.6,194.9,520.1,195.9,527.5,203.1z"/>
		<path class="st0" d="M571,195.4c-14.1,33-28.7,94.3-31.4,134.7l37.9-67.5c5.6,0.9,6.5,6.1,2.6,14.8L540.4,359
			c-13.8-0.9-22.3-6.9-25.6-17.5c2-35.1,24.7-118.4,32.9-151.6C556.1,187.2,563.6,188.3,571,195.4z"/>
		<path class="st0" d="M586.3,306.6l-0.3-0.4c-0.6,5.7-1.2,11.7-1.6,17.7c0.1,1.6,0.1,3-0.1,4.5c2.8,2.8,7,2.3,11.4-0.4
			c25.5-15.1,46.2-90.8,47.1-121.7L661,203c0.1,5.9-0.7,11.9-1.6,17.7c17.6-1.2,27.9,3.8,32.6,14.4c0-0.2-19,34.8-23.7,70.8
			l37.2-66.2c5.6,1.1,6.5,6.1,2.6,15l-39.6,81.4l0,0.2c-13.8-0.9-22.1-6.7-24.9-17.7c2.8-29.4,14.6-55.6,23.9-82.6
			c-2.7-3.3-6.7-4.7-10.5-3.8c-8.5,38.1-26.2,109.8-72.1,118.6l-19.2-11.9c-2.5-3.5-3.6-7.1-3.3-10.7c0.2-36.4,8.4-66.7,22-90.7
			c3.1-4.8,7.8-6.5,14.4-5.1c12.1,3.5,16.7,5.7,16.7,5.7c15.4,5,1.3,56.6-13.2,70.2C597.1,310.3,591.6,309.9,586.3,306.6z
			 M596.7,290.9c5.1-9.6,15.6-56.7,4.6-36.5c-5.8,12.3-10.1,25-13.1,38.9C591.7,294.6,594.6,293.6,596.7,290.9z"/>
		<path class="st0" d="M735.6,222.7c-2.5-2.1-5.7-0.4-9.8,4.1c-25.1,25.3-0.5,58.3,19.5,73.1c1.3,23.2-23.2,29.7-44.3,28.5
			c-7.1-3.2-6.4-9.7-3.1-20.3c8.8,6,17.7,5.8,27.7,2.4c-18-19.4-33.1-31.7-30.2-61.8c1.7-18.6,14.1-38.6,33.8-41.2
			c3.7-0.4,6.8,0.2,9.5,2.1c0.9-1.6,1.9-2.7,2.9-2.4l15.4,3.6c-5.8,7.1-9.4,26.8-12.3,36.7l-9.4,1.4
			C734.3,244.3,734.3,232.6,735.6,222.7z"/>
	</g>
	<g>
		<path class="st0" d="M372.8,21.1l6.1-0.5L370.1,46l-5.1,0.4l-5.1-14.2l-5.2,15.1l-5.1,0.4l-8.7-23.9l6.6-0.6l5,15.1l5.5-16
			l4.4-0.4l5.3,15.4L372.8,21.1z"/>
		<path class="st0" d="M385,44.7V20.1l17.5-1.5v5l-11.2,1v4.6l10.5-0.9v5l-10.5,0.9v5.1l11.2-1v5L385,44.7z"/>
		<path class="st0" d="M441.3,39.8l-2.2-4.9l-10.9,1l-2.2,5.3l-6.5,0.6L431.1,16l5.1-0.4l11.5,23.7L441.3,39.8z M430.4,30.8l6.7-0.6
			l-3.3-7.5L430.4,30.8z"/>
		<path class="st0" d="M473.8,37l-6.8,0.6l-3.2-7.9c-0.4-0.9-1.2-1.3-2.6-1.2l-2.3,0.2v9.6l-6.4,0.6V14.1l11.4-1
			c3-0.3,5.2,0.2,6.7,1.3c1.5,1.2,2.2,2.9,2.2,5.3c0,1.7-0.4,3.1-1.3,4.4c-0.9,1.3-2.1,2.3-3.7,2.9c0.7,0.1,1.3,0.3,1.9,0.8
			c0.6,0.5,1,1.1,1.3,1.9L473.8,37z M465.9,22.6c0.6-0.5,0.9-1.2,0.9-2.1c0-0.9-0.3-1.6-0.9-2c-0.6-0.4-1.6-0.5-3-0.4l-4.1,0.4v5.3
			l4.1-0.4C464.3,23.3,465.2,23,465.9,22.6z"/>
		<path class="st0" d="M480.5,36.4V11.7l17.5-1.5v5l-11.2,1v4.6l10.5-0.9v5l-10.5,0.9v5.1l11.2-1v5L480.5,36.4z"/>
	</g>
	<path class="st0" d="M774.4,395.2c-0.4,6.4-4.4,12.6-12.9,18.4c-1,0.2-6.8-11.2-9-12.3c-13.2-10.6-45.8-8.4-71-6.7
		c-45.2,4.6-89.8,9.3-134.5,16.7c-114.7,19-216.1,46.1-323.6,69.3c-3.4,0.6-6.8,1.4-10.2,1.9c-26.2,4.3-54,5.8-69.1-4.3
		c-1.1-0.3-1.6-0.7-1.7-1.2c-0.4-2.1,14.2-4.5,17.1-5c130.8-27,249.1-57.4,394.5-81.5c44.7-7.4,90.1-13.7,134.7-15.5
		c28.8-1.1,65.2-1.3,80.8,11.8C772.9,389.4,773.8,391.9,774.4,395.2z M476.8,407.4c3.4-0.3,6.8-0.9,10.2-1.5
		c10.2-1.7,20.3-3.8,30.1-5.5c72.4-12,132.1-19.4,180.5-22.6c-40.2,1.3-91.2,7.1-152.4,17.2c-7.8,1.3-16,2.9-25.2,4.7l-21.4,3.5
		L476.8,407.4z"/>
</g>
</svg>
