<svg id="Capa_1" data-name="Capa 1" xmlns="http://www.w3.org/2000/svg" viewBox="0 0 467 468"><defs><style>.cls-1{fill:#fff;}.cls-2{fill:#ef3340;}</style></defs><circle class="cls-1" cx="233.5" cy="234" r="233.5"/><path class="cls-2" d="M170.9,197c4.91-27.61,11.12-57.44,16.85-74.34,3.2-9.58,9.91-19.17,20.52-11.87-3,3-5.89,8.22-8.64,15.12-6.75,16.32-27.37,108.29-27.94,125.82.13.74.14,1.65.24,2.25-4.94.56-12.38-3.48-13-8.72-.84-5.65-2.28-53.69-1-85.55-9.28,19.36-28.67,64.5-28.55,69.53l-.3.05c-6.19-.44-11-6.16-11.59-12,4.45-16.37,19.42-77.09,18.08-90.76-14.87.64-48.09,65.33-35,86.86-6.15,3.23-12.79,2.87-15.87,1C73,195.72,103.82,125.94,130.37,120.5c3.41-.6,12.35.72,17.66,4.83.36,9-3.28,29.92-7.61,51.32,8-18.68,17.1-37.4,19.67-40.15,1.4-.7,7.64-3.48,14.7,2.76C172.11,144,171.07,170.17,170.9,197Z"/><path class="cls-2" d="M258.4,158.44l-25.68,52.83q-13.22-.89-16.22-11.36c.53-4.83,1.2-9.68,1.92-14.24,0,0-4.73,12.14-13.12,30.43q-13.44-.84-16.22-11.35c2.06-23,8.68-42.64,14.82-64.2,5-2.58,10-1.31,14.83,3.49l7.46,9.39c1.73-5.81,3.45-11.62,5.13-17.72,5.05-2.57,10-1.31,15,3.47q-13.94,30.19-14.71,54.4l25.09-44.92Q262.14,149.76,258.4,158.44Zm-34,1.88L216.26,150c-7.92,18.36-12,35.13-12.25,50.15C204.13,200,210.93,185.61,224.35,160.32Z"/><path class="cls-2" d="M281,100.21c-2.08,4.64-4.2,10.82-6.32,17a13,13,0,0,1,3.61-.33,7.93,7.93,0,0,1,3,4.67,78.13,78.13,0,0,0-8.25,1.76c-6.26,20.82-11.15,46-12.48,64.4l24.65-43.93c3.65.73,4.22,4,1.53,9.51l-25.61,53.27c-9-.71-14.66-4.29-16.71-11.57,1-15.15,7.9-44.49,14-68.8a14,14,0,0,1-3.5.93,11.23,11.23,0,0,1-4.94-6.32c3.26-.57,6.7-1,10-1.6,2.54-9,4.49-17,5.95-22.6C271.34,94.88,276.2,95.55,281,100.21Z"/><path class="cls-2" d="M321.6,158.92c-1,6.59-28,43.91-31.55,42.08,0,0-4.2-2.16-12.51-6.81a10.19,10.19,0,0,1-2.41-6.75c-.43-24.08,4.54-43.6,12.85-59.73a8.58,8.58,0,0,1,9.19-4.22l4.93,1.11c.68-2.25,1.56-3.33,2.52-3l10.09,4.34c-3.78,5.4-6.21,21.11-8.34,29l-6.23.18c-.71-4-.53-14.27.51-22.25-7.13,18.52-11.18,32.84-11.46,50.31l.13-1.86c-1,21.42,29.13-29,30.17-30.84C321.74,152.78,322.09,155.62,321.6,158.92Z"/><path class="cls-2" d="M367.21,117.71C357.93,137.84,353,156,352.38,172.29l25.22-45.1q5.46,1.09,1.72,9.78l-25.81,53q-13.22-.89-16.21-11.36c1.68-16.49,5.32-31.35,9.71-46.34-9.6,13.16-23,50.67-21.17,62,0,.15.08.45.11.6a2.75,2.75,0,0,1-1.09-.12c-8.37-.66-13.48-4.5-15.57-11.16,1.29-23,16-77.1,21.41-98.68,5.51-1.74,10.21-1,15.16,3.59-7.05,16.38-14.32,43.64-18.08,67.38,8.55-20,18.39-36.1,24.45-41.6C357.28,111.67,362.22,112.78,367.21,117.71Z"/><path class="cls-2" d="M249.64,355.3c-4,7.44-11.49,10.28-19.56,4.37-6-4.45-17.17-23.72-29.53-46.14-2.19,1.45-4.38,2.91-6.44,4.19-3.14,9.11-5.66,17.35-7.48,23.48-.83,4-1.59,7.46-2,10.14-.32-.1-.77,0-.94-.14-5.95-.79-10.58-6.24-11.4-11.75,4-16.29,25.27-89,23.17-102.66-14.87.64-45.72,64.91-31.59,86.11-6,3.35-12.79,2.87-15.85,1.12-12.59-18.57,15.56-87.72,42-93.14,3.41-.6,11,.81,16.6,4.87.48,6.18-1.6,19.54-4.64,35.2,6.64-19.51,13.38-37.66,16.2-45a19.53,19.53,0,0,1,13.63,9.67c6.28,10.5,5,26.62-.07,40.35-4.39,12.39-12.68,22.57-22.4,30.7C223.37,330.29,238.47,351.77,249.64,355.3Zm-50-53.69c12.89-11,32-39.72,22.89-60.89a35.9,35.9,0,0,1-1.35,4.52C217.74,252.42,208.11,277.5,199.67,301.61Z"/><path class="cls-2" d="M248.75,300c-.47,3.44-.78,6.86-1.07,10.42.28,3.32,2.13,8.64,8,2.72,8.26-8.64,22.89-31.39,29-41.49,6.05,6.57.48,14-3.22,19.82-7.66,12.05-23.34,36.67-33.43,37.53,0,0-11.15-6.9-12.34-7.6a9.84,9.84,0,0,1-2.29-6.93c.12-23.56,5.5-43.31,14.24-58.76,2.05-3.11,5.06-4.25,9.32-3.48a78.46,78.46,0,0,1,10.9,3.74c9.9,3.3.81,36.69-8.66,45.39C256.09,302.66,251.32,302.43,248.75,300Zm6.81-9.92c3.33-6.24,10.19-36.64,3-23.61a104.94,104.94,0,0,0-8.4,25.17A4.33,4.33,0,0,0,255.56,290.07Z"/><path class="cls-2" d="M290,292.72c-.47,3.44-.78,6.86-1.07,10.43.28,3.31,2.14,8.64,8,2.72,8.26-8.64,22.89-31.4,29.06-41.5,6,6.58.47,14-3.23,19.83-7.66,12-23.34,36.67-33.42,37.53,0,0-11.15-6.9-12.35-7.61a9.88,9.88,0,0,1-2.29-6.93c.12-23.56,5.51-43.3,14.24-58.75,2.05-3.11,5.06-4.26,9.32-3.48a79.72,79.72,0,0,1,10.9,3.73c9.91,3.3.82,36.69-8.65,45.39C297.3,295.4,292.52,295.17,290,292.72Zm6.81-9.91c3.33-6.24,10.2-36.65,3-23.61a105.53,105.53,0,0,0-8.4,25.17A4.33,4.33,0,0,0,296.76,282.81Z"/><path class="cls-2" d="M350.42,208.39c-9.2,21.49-18.67,61.37-20.46,87.67l24.66-43.93c3.62.58,4.22,4,1.7,9.63l-25.78,53.15c-9-.56-14.55-4.47-16.69-11.43,1.32-22.85,16-77.1,21.42-98.68C340.77,203.07,345.63,203.74,350.42,208.39Z"/><path class="cls-2" d="M361.1,361.21c.45,5.31-.2,10.18-2.3,14.26-.28,0-3.11-10.05-3.88-11.17-5-10.15-14.82-11.23-22.38-12.05-13.44-.26-26.7-.35-39.74,1.81-33.45,5.53-62.06,19.18-92.94,28.84-1,.17-2,.53-2.94.7-7.65,1.26-16-.05-21.59-9.9a2.16,2.16,0,0,1-.62-1.14c-.3-1.82,3.95-2.52,4.8-2.66,37.68-10.79,71.18-25.66,113.56-32.67,13-2.16,26.39-3.33,39.91-.8,8.72,1.67,19.87,4.8,25.86,17.27A23.13,23.13,0,0,1,361.1,361.21ZM271,344.41a15.06,15.06,0,0,0,3-.29c3-.49,5.89-1.39,8.72-1.86,21.12-3.49,38.74-4.33,53.3-2.6-12.21-2.54-27.32-2.32-45.18.64-2.27.37-4.64,1-7.3,1.62l-6.24,1Z"/></svg>