<svg id="Capa_1" data-name="Capa 1" xmlns="http://www.w3.org/2000/svg" viewBox="0 0 120 120"><defs><style>.cls-1{fill:#fff;}</style></defs><path class="cls-1" d="M59.44,49.35a10.4,10.4,0,1,0,10.4,10.4A10.4,10.4,0,0,0,59.44,49.35Z"/><path class="cls-1" d="M59.44,35.62c-19.86,0-24.15,4.28-24.15,24.13s4.29,24,24.15,24c20,0,24.06-4,24.06-24S79.23,35.62,59.44,35.62Zm0,40.53a16.4,16.4,0,1,1,16.4-16.4A16.42,16.42,0,0,1,59.44,76.15Zm16.3-30.73a2,2,0,1,1,2-2A2,2,0,0,1,75.74,45.42Z"/><path class="cls-1" d="M60,5a55,55,0,1,0,55,55A55,55,0,0,0,60,5Zm-.56,84.76c-23.38,0-30.15-6.73-30.15-30,0-23.09,7.05-30.13,30.15-30.13,23.32,0,30.06,6.76,30.06,30.13S82.76,89.76,59.44,89.76Z"/></svg>