<svg id="Capa_1" data-name="Capa 1" xmlns="http://www.w3.org/2000/svg" viewBox="0 0 120 120"><defs><style>.cls-1{fill:#fff;}</style></defs><path class="cls-1" d="M52.69,66.86c0-4.09-4.73-12.52-15.63-14-1.6.71-5.87,2.88-7.5,6.44a7.41,7.41,0,0,0,0,5.9c3.69,9.85,13.58,9.35,18.85,7.49,4.37-1.53,4.36-4.87,4.31-5.52A2.44,2.44,0,0,1,52.69,66.86Z"/><path class="cls-1" d="M95.06,55.23a24.05,24.05,0,0,0,1.47-4.92,17.71,17.71,0,0,0-5.38.56A17.94,17.94,0,0,1,95.06,55.23Z"/><path class="cls-1" d="M28.85,50.87a17.68,17.68,0,0,0-5.38-.56,23.87,23.87,0,0,0,1.47,4.92A17.94,17.94,0,0,1,28.85,50.87Z"/><path class="cls-1" d="M60,5a55,55,0,1,0,55,55A55,55,0,0,0,60,5ZM77.91,79.75a25,25,0,0,1-8.29-1.44c-7.13-2.51-8.55-8.58-8.31-11.59a12,12,0,0,1,.19-1.85,12.54,12.54,0,0,1-1.67.11,11.1,11.1,0,0,1-1.32-.09,13,13,0,0,1,.18,1.83c.24,3-1.18,9.08-8.31,11.59a25,25,0,0,1-8.29,1.44c-7.35,0-14.67-3.48-18.07-12.24-9.8-18.32-6.07-20.92-4.66-21.9,3.58-2.49,10.08-1,17,.94l.95.26a25.24,25.24,0,0,1,17.59,9.92,3,3,0,0,1,1.07.68A6.1,6.1,0,0,0,59.83,59a5.41,5.41,0,0,0,3.29-.93,3,3,0,0,1,1.63-.83,25.15,25.15,0,0,1,18-10.41l1-.26c6.91-1.92,13.41-3.43,17-.94,1.41,1,5.14,3.58-4.66,21.9C92.58,76.27,85.26,79.75,77.91,79.75Z"/><path class="cls-1" d="M90.44,59.26c-1.63-3.56-5.9-5.73-7.5-6.44-10.9,1.52-15.63,10-15.63,14a2.44,2.44,0,0,1,0,.27c0,.67,0,4,4.31,5.52,5.27,1.86,15.16,2.36,18.85-7.49A7.41,7.41,0,0,0,90.44,59.26Z"/></svg>