<svg id="Capa_1" data-name="Capa 1" xmlns="http://www.w3.org/2000/svg" viewBox="0 0 120 120"><defs><style>.cls-1{fill:#fff;}</style></defs><path class="cls-1" d="M58.69,50.64A76.08,76.08,0,0,0,49,37.57,25.1,25.1,0,0,0,35.68,54.24C40.7,54.11,50.35,53.45,58.69,50.64Z"/><path class="cls-1" d="M61.52,61c.57-.2,1.14-.38,1.7-.56-.11-.32-.23-.64-.34-1-.43-1.16-.9-2.3-1.4-3.41C51.62,59.55,40.27,60.18,35,60.27a24.9,24.9,0,0,0,5.84,15.78C44.28,71.93,51.49,64.56,61.52,61Z"/><path class="cls-1" d="M64.3,48.35a57.75,57.75,0,0,0,12-7.25,24.89,24.89,0,0,0-21.19-5.62A79.34,79.34,0,0,1,64.3,48.35Z"/><path class="cls-1" d="M65.15,66.1c-.53.16-1.07.33-1.61.52-8.93,3.19-15.42,10-18.3,13.54A24.93,24.93,0,0,0,69.83,83C69.08,79.77,67.52,73.46,65.15,66.1Z"/><path class="cls-1" d="M60,5a55,55,0,1,0,55,55A55,55,0,0,0,60,5ZM74.61,87.33l-.18.1a30.94,30.94,0,0,1-35.31-4.54l-.25-.23a31,31,0,0,1,9.5-51.39l.3-.12A31,31,0,0,1,91,60a31.31,31.31,0,0,1-.27,4c0,.07,0,.13,0,.2A31.07,31.07,0,0,1,74.61,87.33Z"/><path class="cls-1" d="M85,59.75a24.83,24.83,0,0,0-4.61-14.2A62.43,62.43,0,0,1,67,53.7c.54,1.2,1,2.43,1.5,3.69.21.57.41,1.13.61,1.7A43.45,43.45,0,0,1,85,59.75Z"/><path class="cls-1" d="M71.07,64.89c2,6.12,3.34,11.43,4.17,14.9a25,25,0,0,0,9.08-14A38.17,38.17,0,0,0,71.07,64.89Z"/></svg>