<svg id="Capa_1" data-name="Capa 1" xmlns="http://www.w3.org/2000/svg" viewBox="0 0 120 120"><defs><style>.cls-1{fill:#fff;}</style></defs><path class="cls-1" d="M60,5a55,55,0,1,0,55,55A55,55,0,0,0,60,5Zm9,36.53H86.25v4.94H69ZM58.66,73.67a11.05,11.05,0,0,1-2.85,3.12,11.24,11.24,0,0,1-4.53,2,28.19,28.19,0,0,1-5.68.53H27.5V39.69H46.91q7.35.11,10.42,4.22A10.05,10.05,0,0,1,59.17,50a8.76,8.76,0,0,1-1.86,5.84,9.73,9.73,0,0,1-3.07,2.25,9.09,9.09,0,0,1,4.65,3.5,10.38,10.38,0,0,1,1.56,5.8A11.49,11.49,0,0,1,58.66,73.67Zm33.83-6.85H70.85C71,69.75,72,71.82,74,73a8,8,0,0,0,4.29,1.1,6,6,0,0,0,5.91-3.35h7.93A9.61,9.61,0,0,1,89.21,76q-4,4.27-11.18,4.27a16.28,16.28,0,0,1-10.46-3.6Q63,73.11,63,65q0-7.62,4.09-11.68a14.45,14.45,0,0,1,10.63-4.07,17,17,0,0,1,7,1.38,11.91,11.91,0,0,1,5.13,4.33A14,14,0,0,1,92.23,61,36.56,36.56,0,0,1,92.49,66.82Z"/><path class="cls-1" d="M49.52,54.33a3.74,3.74,0,0,0,1.64-3.48A3.54,3.54,0,0,0,49,47.19a15.41,15.41,0,0,0-4.75-.62H35.51v8.74h9.76A8.23,8.23,0,0,0,49.52,54.33Z"/><path class="cls-1" d="M49.42,62.54a10.21,10.21,0,0,0-4-.67H35.51V72.44h9.75a9.64,9.64,0,0,0,4.07-.7C51.1,70.87,52,69.23,52,66.79A4.23,4.23,0,0,0,49.42,62.54Z"/><path class="cls-1" d="M77.75,55.55a6.19,6.19,0,0,0-4.63,1.68,7.85,7.85,0,0,0-2.07,4.53H84.43a6.37,6.37,0,0,0-2.07-4.64A6.87,6.87,0,0,0,77.75,55.55Z"/></svg>