<svg id="Capa_1" data-name="Capa 1" xmlns="http://www.w3.org/2000/svg" viewBox="0 0 250 92"><defs><style>.cls-1{fill:#fff;}</style></defs><path class="cls-1" d="M16.59,39H9.82V52H3V17.52H16.59c7.27,0,11.61,4.89,11.61,10.75S23.86,39,16.59,39m-.35-15.5H9.82V33h6.42c3.11,0,5.09-1.89,5.09-4.7s-2-4.75-5.09-4.75"/><path class="cls-1" d="M46.49,33.64a4.38,4.38,0,0,0-3.41-1.5c-2,0-4.16,1.46-4.16,4.65V52H32.5V26.77h6.27v2.42a8.82,8.82,0,0,1,6.47-2.71,7.87,7.87,0,0,1,6.09,2.37Z"/><path class="cls-1" d="M70.25,49.19a10.76,10.76,0,0,1-8,3.1,10.66,10.66,0,0,1-8-3.1C52,46.82,51.38,44,51.38,39.36S52,32,54.29,29.58a10.7,10.7,0,0,1,8-3.1,10.8,10.8,0,0,1,8,3.1c2.32,2.37,2.92,5.23,2.92,9.78s-.6,7.46-2.92,9.83m-5-15.93a4.09,4.09,0,0,0-3-1.12,4,4,0,0,0-3,1.12c-1.33,1.31-1.48,3.48-1.48,6.1s.15,4.84,1.48,6.15a4,4,0,0,0,3,1.11,4.09,4.09,0,0,0,3-1.11c1.33-1.31,1.49-3.53,1.49-6.15s-.16-4.79-1.49-6.1"/><path class="cls-1" d="M85.52,32.29V52H79.1V32.29H76.42V27.5H79.1V24.35c0-3.58,2.27-7.22,7.51-7.22h3.65v5.33H87.75a2,2,0,0,0-2.23,2.27V27.5h4.74v4.79Z"/><path class="cls-1" d="M109.05,52V49.68a8.94,8.94,0,0,1-6.43,2.61,8.49,8.49,0,0,1-6.08-2.22c-2.07-2-2.62-4.41-2.62-7.17V26.77h6.43V42c0,3.44,2.22,4.6,4.25,4.6s4.3-1.16,4.3-4.6V26.77h6.42V52Z"/><path class="cls-1" d="M129.6,52c-5.24,0-7.46-3.63-7.46-7.22V32.29h-2.71V27.5h2.71V20h6.42V27.5h4.55v4.79h-4.55V44.4a2,2,0,0,0,2.23,2.28h2.32V52Z"/><path class="cls-1" d="M152.78,52V49.68a8.93,8.93,0,0,1-6.43,2.61,8.46,8.46,0,0,1-6.07-2.22c-2.08-2-2.62-4.41-2.62-7.17V26.77h6.42V42c0,3.44,2.23,4.6,4.26,4.6s4.29-1.16,4.29-4.6V26.77h6.43V52Z"/><path class="cls-1" d="M179.26,33.64a4.31,4.31,0,0,0-3.4-1.5c-2,0-4.15,1.46-4.15,4.65V52h-6.43V26.77h6.28v2.42A8.81,8.81,0,0,1,178,26.48a7.86,7.86,0,0,1,6.07,2.37Z"/><path class="cls-1" d="M203,49.19a10.78,10.78,0,0,1-8,3.1,10.63,10.63,0,0,1-8-3.1c-2.33-2.37-2.92-5.23-2.92-9.83s.59-7.41,2.92-9.78a10.67,10.67,0,0,1,8-3.1,10.82,10.82,0,0,1,8,3.1C205.36,32,206,34.81,206,39.36s-.59,7.46-2.91,9.83m-5-15.93a4.11,4.11,0,0,0-3-1.12,4,4,0,0,0-3,1.12c-1.34,1.31-1.48,3.48-1.48,6.1s.14,4.84,1.48,6.15a4,4,0,0,0,3,1.11,4.1,4.1,0,0,0,3-1.11c1.33-1.31,1.48-3.53,1.48-6.15s-.15-4.79-1.48-6.1"/><path class="cls-1" d="M207.59,10.53c-.2,0-.2.13-.21.19s0,.16.17.19c17.12.74,24,9.11,19.1,25.12-5.05,16.38-21.3,36.59-44,51.89-.52.38.1,1.1.38,1,28.36-16.31,51.65-38.51,57.09-56.21S231.77,7,207.59,10.53"/><path class="cls-1" d="M235.05,3.3c-.08-.1-.32-.43-.09-.47,4.64-.62,10.86-1.55,12.44,1.28s-1.53,15.11-5.89,8.74C237,6.2,236.08,4.63,235.05,3.3"/><path class="cls-1" d="M162.22,64.81c0,1.46.87,2.41,1.95,2.41.86,0,1.72-1,1.72-2.36a2.09,2.09,0,0,0-1.72-2.3c-1.3,0-1.95,1-1.95,2.25m6.7-4.45v8.89h-3v-.78a4,4,0,0,1-3,1.06c-2.16,0-3.89-1.85-3.89-4.67,0-2.64,1.51-4.66,4.11-4.66a3.55,3.55,0,0,1,2.8,1v-.84Z"/><path class="cls-1" d="M117.28,67.34a2.26,2.26,0,0,0,1.94-2.48c0-1.34-.65-2.47-1.94-2.47-1.51,0-2.16,1.13-2.16,2.47a2.27,2.27,0,0,0,2.16,2.48m0,2.19c-3.24,0-5.4-1.85-5.4-4.67s2.38-4.66,5.4-4.66c2.8,0,5.19,1.85,5.19,4.66s-2.39,4.67-5.19,4.67"/><path class="cls-1" d="M154.45,64.86c0-1.24-.66-2.3-1.73-2.3a2.1,2.1,0,0,0-1.95,2.3c0,1.36.65,2.25,1.95,2.25,1.07,0,1.73-.89,1.73-2.25m-6.7,4.39V56.76h3V61a5,5,0,0,1,2.8-.84,4.22,4.22,0,0,1,4.12,4.5c0,3.21-1.95,4.83-4.12,4.83a3.83,3.83,0,0,1-2.8-1l-.22.68Z"/><rect class="cls-1" x="130.89" y="60.42" width="3.24" height="8.89"/><path class="cls-1" d="M132.62,55.92a1.62,1.62,0,0,0-1.73,1.68,1.72,1.72,0,0,0,1.73,1.81,1.87,1.87,0,0,0,1.73-1.81,1.75,1.75,0,0,0-1.73-1.68"/><path class="cls-1" d="M171.09,69.25h3v-4.5c0-1.13.65-1.86,1.51-1.86a1.67,1.67,0,0,1,1.73,1.86v4.5h3V63.91a3.52,3.52,0,0,0-3.67-3.71,3.7,3.7,0,0,0-2.81,1.18l-.22-1h-2.58v8.83"/><polygon class="cls-1" points="182.31 69.25 185.34 69.25 185.34 65.21 188.16 69.25 191.61 69.25 188.36 64.64 191.61 60.41 188.16 60.41 185.34 64.13 185.34 56.76 182.31 56.76 182.31 69.25"/><path class="cls-1" d="M111.22,60.59a5.87,5.87,0,0,0-2.37-.39,4.43,4.43,0,0,0-4.75,4.66,4.49,4.49,0,0,0,4.75,4.62,16.68,16.68,0,0,0,2.37-.29L111,66.55a3.48,3.48,0,0,1-1.51.46,2,2,0,0,1-2.16-2.15,2,2,0,0,1,2.16-2.14,3.5,3.5,0,0,1,1.51.45l.21-2.58"/><path class="cls-1" d="M138.88,64.81a2.14,2.14,0,0,0,2,2.41c.86,0,1.73-1,1.73-2.36s-.67-2.3-1.73-2.3c-1.31,0-2,1-2,2.25m6.92-4.45v8.89h-3.23v-.78a4.05,4.05,0,0,1-3,1.06c-2.15,0-4.09-1.85-4.09-4.67,0-2.64,1.71-4.66,4.32-4.66a3.64,3.64,0,0,1,2.81,1v-.84Z"/><path class="cls-1" d="M93.94,69a21.48,21.48,0,0,0,3.67.45c2.6,0,5.41-.91,5.41-3.84,0-3.93-5.62-3.48-5.62-5,0-.79.87-1,1.72-1a9,9,0,0,1,2.82.67l.44-2.75a11.84,11.84,0,0,0-3.26-.4c-2.59,0-5.18,1-5.18,3.66,0,3.89,5.41,3.1,5.41,5.18,0,.73-.66,1-1.74,1a8.19,8.19,0,0,1-3.24-.85L93.94,69"/><path class="cls-1" d="M129.59,66.89a4.68,4.68,0,0,1-1.07.17c-.65,0-1.3-.29-1.3-1.42v-3h1.95v-2.2h-1.95V57.55h-3v2.87h-1.3v2.2h1.3v3.6c0,2,.87,3.26,3.25,3.26a12.48,12.48,0,0,0,1.73-.18l.42-2.41"/><path class="cls-1" d="M60.58,61.61h1.14l3.19,7.56H63.73L63,67.26h-3.7l-.77,1.91H57.35Zm.53,1-1.5,3.75h3Z"/><path class="cls-1" d="M65.94,61.61h4v1H67v2.2h2.81v1H67v3.44H65.94Z"/><path class="cls-1" d="M71.35,61.61h2c1.55,0,2.84.55,2.84,2.27s-1.31,2.27-2.68,2.27H72.43v3H71.35Zm1.08,3.59h1.08A1.36,1.36,0,0,0,75,63.87c0-1-1-1.3-1.66-1.3h-.93Z"/><path class="cls-1" d="M83.11,68.39h0a2.19,2.19,0,0,1-1.88.91c-1.66,0-2.37-1.48-2.37-3s.78-2.79,2.38-2.79a2,2,0,0,1,1.83.89h0V61.05h1v8.12h-1Zm-1.67.09c1.14,0,1.63-1.14,1.63-2.06s-.54-2.08-1.64-2.08-1.54,1-1.52,2C79.89,67.25,80.34,68.48,81.44,68.48Z"/><path class="cls-1" d="M90.05,68.94a4.15,4.15,0,0,1-1.75.36c-2,0-2.86-1.19-2.86-3A2.57,2.57,0,0,1,88,63.52c1.84,0,2.44,1.34,2.44,3.12H86.53a1.81,1.81,0,0,0,1.82,1.84,3.23,3.23,0,0,0,1.7-.56Zm-.66-3.06A1.4,1.4,0,0,0,88,64.34a1.52,1.52,0,0,0-1.48,1.54Z"/></svg>