<?xml version="1.0" encoding="utf-8"?>
<!-- Generator: Adobe Illustrator 24.0.2, SVG Export Plug-In . SVG Version: 6.00 Build 0)  -->
<svg version="1.1" id="Capa_1" xmlns="http://www.w3.org/2000/svg" xmlns:xlink="http://www.w3.org/1999/xlink" x="0px" y="0px"
	 viewBox="0 0 250 194" style="enable-background:new 0 0 250 194;" xml:space="preserve">
<style type="text/css">
	.st0{fill:#01D7D9;}
</style>
<g>
	<path class="st0" d="M246.7,118.4c-3.7-0.2-3,2.3-7.3,2c-3.9-0.2-7.3-3.7-7.1-7.1c0.3-4.8,5-22.7,5.8-37.8
		c0.7-13.2-0.5-13.7-5.8-14c-6.1-0.3-19,1.5-19.3,6.8c-0.2,3.7,3.3,3.7,3.3,3.7c-1.1,19.4-5.3,28.7-7.3,39.1
		c-3.2,3.9-6.8,6.4-10.1,6.3c-6.2-0.2-7.6-6.1-7.1-18.1c0.5-12,6.6-36.9,18-36.5c4.9,0.2,7.3-3.2,7.4-6.9c0.3-7.6-7.5-9.2-11.4-9.3
		c-15.2-0.6-34.5,22.6-35.6,51.8c-0.1,3.8-0.1,7.5,0.3,10.9c-2.2,2.8-4.9,5.4-8,7.7c2-14.8,2.6-30.6,2.1-46.2
		c-0.4-12.1-1.4-13.4-5.7-13.4c-0.4,0-0.9,0-1.4,0c-8.6,0.3-18.8,4.1-18.6,8.5c0.1,3.1,2.4,3.4,3.3,3.4c0.2,0,0.3,0,0.3,0
		c0.3,8.3-0.3,22.4-2,37.7c-3,5.7-7.2,9.9-11.1,10.1c-6.2,0.4-8.1-5.4-8.8-17.4c-0.7-12,3-37.4,14.4-38.1c4.9-0.3,6.9-3.9,6.7-7.5
		c-0.4-7.6-8.3-8.4-12.3-8.2c-15.2,0.9-32.2,25.2-30.4,55c0.4,6.9,1.5,13.2,3.3,18.4c-0.4,0.1-0.8,0.2-1.2,0.2
		c-3.9,0.4-7-2.6-7.3-6.1c-2.8-29.3,3.6-74.8,1-102.5c-1-10.3-2.1-10.3-7.5-9.8c-8.6,0.8-18,5.1-17.6,9.5c0.4,3.8,3.8,3.1,3.8,3.1
		C74.9,32,68.5,97.5,70.9,123c1,11,9.7,14.3,15.1,13.8c9.3-0.9,16.2-5.1,20.4-9.2c3.1,4.1,7.1,6.3,12.1,6.1
		c6.5-0.4,13.7-3.3,19.5-8.7c-0.3,1.9-0.6,3.7-0.9,5.5c-24.5,10.5-51.1,19-50.3,41.6c0.5,14.6,11.5,22.1,24.4,22.1
		c0.4,0,0.8,0,1.2,0c25.7-0.9,41.2-28.9,48.1-65.1c4.5-2.8,8.5-5.8,11.9-9.1c2.5,7.8,7,12.8,14.1,13.1c6.9,0.3,15.4-2.2,22.2-7.4
		c2.4,6.7,9.2,9.6,13.5,9.9c17.2,1,27.7-10.5,27.9-13.4C250,121.3,249.6,118.5,246.7,118.4z M113.8,177.8c-0.1,0-0.2,0-0.3,0
		c-3.6,0-5.4-2.9-5.5-5.5c-0.4-12.9,11.8-21.2,26.4-29.1C129.8,162.3,123.1,177.4,113.8,177.8z"/>
	<path class="st0" d="M38.3,154.2c-1.9,0.3-3.3,2.1-3.1,4.1c0.2,2.1,2,3.6,4.1,3.4l0,0c13.6-1.3,27.1-2.1,40.7-2.6
		c0.6-1.6,1.4-3.3,2.3-4.8c1.5-2.5,3.3-4.8,5.4-7.1C71.2,149,54.7,151.3,38.3,154.2z"/>
	<path class="st0" d="M216.7,145.3L216.7,145.3c-16.8-1.2-33.6-1.9-50.4-2c-1.6,6.3-3.5,12.2-5.7,17.6c18,1.4,35.8,3.5,53.6,6.3
		c0.3,0,0.6,0.1,0.9,0.1c6.1,0.5,11.4-4.1,11.8-10.2C227.4,151,222.8,145.7,216.7,145.3z"/>
	<path class="st0" d="M64.5,87.4c-5.3-29.3-23.9-33.3-32.8-31.7c-9.4,1.7-25.4,8.5-24.3,15.1c0.2,1.2,1.4,3.3,3.9,2.8
		c2.5-0.4,5.1-3.9,12-5.1c9.2-1.7,17.2,0.5,20.9,21.1c1.1,6.1,4,35.6-8.9,37.9c-6.5,1.2-10.1-2.7-12.5-16.1
		c-1.7-9.5-1.1-21.5,6.3-22.8c3.4-0.6,6.2-4.1,5.5-8.2c-0.8-4.7-4.2-7.7-10.4-6.6C9.2,76.4-1.7,94.1,2.2,116
		c3.6,20.2,18.5,30.3,34.4,27.5C57.2,139.7,69.6,116.2,64.5,87.4z"/>
</g>
</svg>
