<svg id="Capa_1" data-name="Capa 1" xmlns="http://www.w3.org/2000/svg" viewBox="0 0 250 76"><defs><style>.cls-1{fill:#fff;}</style></defs><path class="cls-1" d="M81.44,8.44c-.42,0-.75,13.25-.75,29.59s.33,29.61.75,29.61.75-13.26.75-29.61S81.86,8.44,81.44,8.44Z"/><path class="cls-1" d="M120.39,22.2a12.62,12.62,0,0,0-4.6-3A18.28,18.28,0,0,0,109,18.05H89.07V58h12V43H109a18.72,18.72,0,0,0,6.81-1.13,12.47,12.47,0,0,0,4.6-3,11.77,11.77,0,0,0,2.46-3.93,12.91,12.91,0,0,0,.75-4.34,13.34,13.34,0,0,0-.75-4.4A12,12,0,0,0,120.39,22.2Zm-9.76,11.37A3.82,3.82,0,0,1,108.29,35a21.46,21.46,0,0,1-4.6.38H101.1V25.71h2.53q4.35,0,6,1.05c1.12.7,1.69,2,1.69,3.9A5.06,5.06,0,0,1,110.63,33.57Z"/><path class="cls-1" d="M156.69,37a16,16,0,0,1-1.14,6.5,7.84,7.84,0,0,1-3.18,3.75,10.05,10.05,0,0,1-9.49,0,7.88,7.88,0,0,1-3.16-3.76A16.21,16.21,0,0,1,138.58,37V18.05h-12v22q0,6.64,3.22,10.78a17.47,17.47,0,0,0,8,5.87,28.54,28.54,0,0,0,9.85,1.73,29.67,29.67,0,0,0,7.26-.92,21.93,21.93,0,0,0,6.8-3,15.46,15.46,0,0,0,5.06-5.72,18.51,18.51,0,0,0,1.91-8.73v-22h-12Z"/><path class="cls-1" d="M202.05,48.46a20.86,20.86,0,0,1-5.49.71,14,14,0,0,1-6.47-1.48,11.45,11.45,0,0,1-4.47-4,10.44,10.44,0,0,1,.23-11.52,12,12,0,0,1,4.86-3.94,15.34,15.34,0,0,1,6.51-1.39,17.31,17.31,0,0,1,6.8,1.23,40.82,40.82,0,0,1,5.86,3.07V20.53a47.21,47.21,0,0,0-15.4-3,30.22,30.22,0,0,0-8.64,1.22,21.44,21.44,0,0,0-7.32,3.79,17.4,17.4,0,0,0-5,6.42,21.43,21.43,0,0,0-1.78,9,21.86,21.86,0,0,0,1.51,8.25,17.85,17.85,0,0,0,4.55,6.56A20.28,20.28,0,0,0,185,57a28.27,28.27,0,0,0,9.34,1.43,44,44,0,0,0,5.46-.33A33,33,0,0,0,205,57,28.94,28.94,0,0,0,210.05,55V44.85a35.7,35.7,0,0,1-3.64,2A24.31,24.31,0,0,1,202.05,48.46Z"/><path class="cls-1" d="M247.4,26.2a11.51,11.51,0,0,0-2.47-4,12.4,12.4,0,0,0-4.59-3,18.19,18.19,0,0,0-6.8-1.16H213.62V58h12V43h7.89a18.62,18.62,0,0,0,6.8-1.13,12.27,12.27,0,0,0,4.59-3,11.34,11.34,0,0,0,2.47-3.93,12.92,12.92,0,0,0,.76-4.34A13.35,13.35,0,0,0,247.4,26.2Zm-12.22,7.37A3.79,3.79,0,0,1,232.85,35a21.56,21.56,0,0,1-4.61.38h-2.59V25.71h2.53q4.35,0,6,1.05t1.68,3.9A5,5,0,0,1,235.18,33.57Z"/><path class="cls-1" d="M59.21,15.63a1,1,0,0,1-1.4.12,2,2,0,0,1-.45-1.07l-1,.46a2.82,2.82,0,0,0,.83,1.5,2,2,0,0,0,2.91-.27c1.54-1.7-.61-3.05.34-4.1a.93.93,0,0,1,1.37,0,2.11,2.11,0,0,1,.51,1.11l1-.4a3,3,0,0,0-.84-1.57,2,2,0,0,0-2.86.2C58,13.37,60.16,14.56,59.21,15.63Z"/><path class="cls-1" d="M40.53,43a17.15,17.15,0,0,1-1.09-6.74c0-.49,0-1,0-1.55l-.42-.44-.52-.55c-.05.63-.08,1.19-.08,1.71,0,2.75.66,4.51,1.83,7.69Z"/><path class="cls-1" d="M47.91,10.87a1.8,1.8,0,0,0,2.42-1.2,1.55,1.55,0,0,0-.51-2v0c.57.12,1.21-.31,1.54-1.23a1.77,1.77,0,0,0-1.13-2.37l-1.9-.67-2.47,6.74ZM49,4.73l.65.24a.91.91,0,0,1,.65,1.28,1,1,0,0,1-1.39.61l-.6-.22Zm-.47,3.08c.76.27,1,.75.76,1.43A1,1,0,0,1,48,9.82l-.7-.25.73-2Z"/><path class="cls-1" d="M53.36,37.17l-.56.61c.35-.08.67-.17,1-.26l-.14-.13A2.18,2.18,0,0,0,53.36,37.17Z"/><path class="cls-1" d="M51.25,12.34l1.4-2.51L53,10a.42.42,0,0,1,.22.41l.1,3.23,1.2-.15-.19-3.16a1.91,1.91,0,0,0,1.91-1.08,1.86,1.86,0,0,0-.76-2.79l-1.64-.92L50.27,11.8Zm3-5.31.55.3a1,1,0,0,1,.38,1.4,1,1,0,0,1-1.39.49l-.6-.33Z"/><rect class="cls-1" x="53.53" y="11.23" width="7.17" height="1.1" transform="matrix(0.59, -0.8, 0.8, 0.59, 13.74, 50.76)"/><path class="cls-1" d="M64.26,43.56h0v0Z"/><path class="cls-1" d="M69,26.91c-2.09.43-3.36,2-3,3.77a2.93,2.93,0,0,0,1,1.72l.81-.61A2.46,2.46,0,0,1,67,30.42c-.22-1.09.86-2.11,2.21-2.39s2.64.24,2.87,1.38a2.15,2.15,0,0,1-.31,1.53l1,.29a2.72,2.72,0,0,0,.43-2.08C72.88,27.41,71.12,26.47,69,26.91Z"/><polygon class="cls-1" points="66.97 36.7 68.1 36.61 67.91 34.37 69.78 34.2 69.91 35.8 71.04 35.71 70.92 34.11 72.82 33.94 73.01 36.2 74.11 36.1 73.84 32.8 66.7 33.38 66.97 36.7"/><path class="cls-1" d="M64,25.55c.62,1.24,1.61,1.76,3.27,1l4-1.89-.12-1.12L66.73,25.6c-.86.38-1.45.15-1.77-.51s-.12-1.19.69-1.62L70,21.19l-.82-.78-4,2.1C63.67,23.33,63.33,24.3,64,25.55Z"/><polygon class="cls-1" points="62.68 22.9 63.61 22.25 62.27 20.34 67.22 16.9 66.58 16 60.7 20.1 62.68 22.9"/><path class="cls-1" d="M56,42a2.76,2.76,0,0,1,2.58.54.86.86,0,0,1,.16.35,18.07,18.07,0,0,0,4.16-7.47l-1.45-1.1-1.28-1-.1.13-.13.16,0,0h0a1.54,1.54,0,0,1-.12.15,14.49,14.49,0,0,1-1.63,1.69,10.86,10.86,0,0,1-6,2.85h-.14q-.33.07-.69.12A16,16,0,0,1,39.9,35.12c0,.44,0,.82,0,1.18a16.61,16.61,0,0,0,1,6.56A11.8,11.8,0,0,1,43.67,42a2.75,2.75,0,0,1,2.65.6.82.82,0,0,1,.14.47,1.22,1.22,0,0,1-.25.7l0,0h0l-.34.25a.52.52,0,0,0-.1.31v.08h0a.2.2,0,0,0,.06.14h0l.06,0a1.75,1.75,0,0,0,.87.29c.43,0,.82-.08,1.2-.14l-3.09-5.23,3.94,5.08c.3-.06.59-.12.89-.2l-2.89-4.82s3.37,4.29,3.6,4.61a12,12,0,0,0,1.14-.44L49,39.59l3.09,3.94.65-.32L53.1,43,51,39.54l2.57,3.24c.34-.16.66-.28,1-.4l-1.67-2.84,2.17,2.68A9.16,9.16,0,0,1,56,42Z"/><path class="cls-1" d="M39.62,42.62A18.7,18.7,0,0,1,38,35.5c0-.58,0-1.2.08-1.89l-.35.17a4.84,4.84,0,0,1-.6.29c0,.12,0,.33,0,.61s0,.54,0,.86v.14c0,.28.05.53.08.76a15.66,15.66,0,0,0,1.78,5.23h0s0,0,.07.11l.19.32,0,0a4.5,4.5,0,0,0,.25.41h0s0,0,0,.06h0Z"/><path class="cls-1" d="M37,24.07a9.09,9.09,0,0,0-1.77,5.49,15.13,15.13,0,0,0,1.37,5.86l.08-.08h0l0,0c0-.22,0-.43,0-.65s0-.58,0-.69v-.06h0v0s0-.12,0-.12l.13,0h0l.32-.16.31-.15h0a6.71,6.71,0,0,1,.77-.35l.14,0,.08.1h0l.09.09.49.52.82.85h0A16.11,16.11,0,0,0,48,38c-.15-.25-.47-.82-.86-1.58h0l0-.07a13.41,13.41,0,0,1-2.2-6.09c0-.13,0-.26,0-.39a18.5,18.5,0,0,1,1.2-5.8Z"/><path class="cls-1" d="M39.37,43.56l.29-.12a15.79,15.79,0,0,1-2.87-7.33v0s0-.08,0-.14v0a7.21,7.21,0,0,0-1,1.36l.23.49A28.48,28.48,0,0,0,39.37,43.56Z"/><path class="cls-1" d="M54.11,37.25l.11.1a11.21,11.21,0,0,0,2.92-1.56l.21-.15.15-.12h0l0,0a13.5,13.5,0,0,0,2-2,16.43,16.43,0,0,1-3.54.46,28.33,28.33,0,0,1-2.33,2.9l0,0,.21.22h0l.08.07,0,0h0Z"/><polygon class="cls-1" points="3.2 34.84 9.18 35.49 9.29 34.39 3.31 33.74 3.48 32.1 2.34 31.98 1.9 36.37 3.02 36.49 3.2 34.84"/><path class="cls-1" d="M12.5,24.28c.65-1.21.48-2.18-1.1-3.09L7.52,19l-.85.75,4.24,2.43c.81.48,1,.95.64,1.6s-.85.7-1.67.29L5.53,21.79l-.16,1.12,4,2.05C10.9,25.72,11.83,25.51,12.5,24.28Z"/><path class="cls-1" d="M46.8,21.13h.36c0-.07-.3-2.39-.31-2.44h-.09C46.76,18.91,46.8,20.86,46.8,21.13Z"/><polygon class="cls-1" points="13.45 21.56 14.54 21.21 13.35 18.3 16.38 18.91 16.52 17.74 12.96 17.15 11.7 13.88 10.58 14.21 11.77 16.99 8.82 16.41 8.71 17.61 12.13 18.15 13.45 21.56"/><polygon class="cls-1" points="11.28 26.67 10.2 26.29 9.44 28.5 3.77 26.49 3.4 27.54 10.16 29.91 11.28 26.67"/><polygon class="cls-1" points="73.09 38.81 67.08 38.54 67.03 39.63 73.05 39.91 72.98 41.56 74.12 41.61 74.29 37.2 73.16 37.14 73.09 38.81"/><polygon class="cls-1" points="9.2 40.73 8.99 37.41 7.86 37.48 8.01 39.72 6.13 39.85 6.03 38.25 4.9 38.32 4.99 39.93 3.09 40.06 2.94 37.8 1.84 37.87 2.05 41.18 9.2 40.73"/><path class="cls-1" d="M66.19,43.31A17.43,17.43,0,0,1,59,45.15a2,2,0,0,1-1-.33l-.07,0a.38.38,0,0,1-.17-.29.63.63,0,0,1,.16-.52l.32-.26a1.25,1.25,0,0,0,.15-.27h0a.64.64,0,0,0,0-.71,2.56,2.56,0,0,0-2.27-.42,11.29,11.29,0,0,0-3.22,1.19,14.67,14.67,0,0,1-6.13,1.75,2.12,2.12,0,0,1-1-.34l-.05,0a.51.51,0,0,1-.23-.36.66.66,0,0,1,0-.14.84.84,0,0,1,.18-.52l0,0,.34-.24a1,1,0,0,0,.2-.52.54.54,0,0,0-.1-.3,2.47,2.47,0,0,0-2.31-.46A13,13,0,0,0,40,43.63h0l-.07,0h0l-.7.29a14.51,14.51,0,0,1-4.9,1.18,1.75,1.75,0,0,1-.9-.32l-.05,0a.4.4,0,0,1-.19-.29V44.4a.61.61,0,0,1,.16-.43l.33-.26a1.09,1.09,0,0,0,.24-.63.66.66,0,0,0-.1-.35,2.56,2.56,0,0,0-2.47-.52,11.43,11.43,0,0,0-3.24,1.2,14.81,14.81,0,0,1-6.07,1.72,1.85,1.85,0,0,1-1-.32l0,0a.36.36,0,0,1-.16-.28s0-.07,0-.1A.73.73,0,0,1,21,44l.34-.25a1,1,0,0,0,.23-.62.55.55,0,0,0-.11-.36A2.5,2.5,0,0,0,19,42.21a12.14,12.14,0,0,0-3.25,1.21,14.37,14.37,0,0,1-5.36,1.63c-.16-.63-.39-1.22-.51-1.86H2.05a36.45,36.45,0,0,0,72.1,0H66.22ZM26.36,71.57l-.88-.43.62-3.81L24,68.42l-.52-2.34L20.89,69,20,68.59l4-4.84.69,3.19,2.85-1.51Zm-.83-11a2.41,2.41,0,0,0,2,1,16.79,16.79,0,0,0,6.71-1.86,13.61,13.61,0,0,1,2.58-1,2.65,2.65,0,0,1,.68-.09,2.07,2.07,0,0,0,.21,1.94,2.49,2.49,0,0,0,2.11,1,16.72,16.72,0,0,0,6.74-1.87,12.83,12.83,0,0,1,2.54-1,3.26,3.26,0,0,1,.68-.1,2.17,2.17,0,0,0-.14.75A2.13,2.13,0,0,0,50,60.47a2.35,2.35,0,0,0,1.16.94,7.64,7.64,0,0,0,3.7-.26,28.16,28.16,0,0,1-34.44-.69l1.78-.8a13.48,13.48,0,0,1,2.4-.95,3.28,3.28,0,0,1,.69-.1,2.12,2.12,0,0,0-.14.75A2.15,2.15,0,0,0,25.53,60.58Zm3.68,11.68c-1-.26-1.54-1.8-1.11-3.42s1.64-2.7,2.69-2.43A2,2,0,0,1,32,68.32L31,68c-.1-.33-.27-.59-.49-.62-.53-.13-1.18.62-1.48,1.7s-.1,2.08.43,2.21A.73.73,0,0,0,30.2,71l1,.28A2,2,0,0,1,29.21,72.26ZM38,73.55l-.79-3.82-1.61,1.78-1.31-2-1.35,3.65-1-.1,2-5.91L35.7,69.9l2.17-2.43,1.07,6.14ZM44,73l-1.67-2-1.12,2.36-1,.13,1.49-3.26-2.22-2.75,1-.14,1.68,2.08L43.24,67l1-.09-1.51,3.22,2.23,2.79Zm5.21-1.28-4.16-5,.92-.3,2.39,2.83.3-3.68.94-.3Zm4.06-1.59L50.61,64.7l.89-.42,2.62,5.45ZM55.49,69l-3-5.26.86-.49,3,5.25Zm1.88-9.93a18.49,18.49,0,0,1-4.15,1.06,9.3,9.3,0,0,1-1.09.08,1.77,1.77,0,0,1-.9-.27l-.11-.08A.33.33,0,0,1,51,59.6a.71.71,0,0,1,.16-.55l.32-.26a.82.82,0,0,0,.14-1,2.6,2.6,0,0,0-2.47-.48,11.6,11.6,0,0,0-3.22,1.18,14.22,14.22,0,0,1-6,1.71,2.1,2.1,0,0,1-1-.31l-.06,0a.37.37,0,0,1-.15-.26.41.41,0,0,1,0-.11.77.77,0,0,1,.14-.45l.35-.26a1.08,1.08,0,0,0,.24-.61.71.71,0,0,0-.12-.37,2.55,2.55,0,0,0-2.44-.48,11.39,11.39,0,0,0-3.25,1.19,14.27,14.27,0,0,1-6,1.7,1.79,1.79,0,0,1-.89-.31l-.07,0a.36.36,0,0,1-.17-.27.38.38,0,0,1,0-.1.7.7,0,0,1,.17-.45l.31-.26a1.09,1.09,0,0,0,.25-.62.64.64,0,0,0-.11-.36,2.58,2.58,0,0,0-2.46-.48A11.55,11.55,0,0,0,21.4,58.5c-.17.09-1.48.67-2.19,1a28.85,28.85,0,0,1-5-5.71c.39-.1,1.09-.31,1.49-.45.72-.27,1.34-.57,1.94-.86a12.6,12.6,0,0,1,2.6-1l.16,0,.53-.06a2.16,2.16,0,0,0-.15.78,2.06,2.06,0,0,0,.35,1.14,2.49,2.49,0,0,0,2.15,1.06,17,17,0,0,0,6.77-1.86,13.88,13.88,0,0,1,2.58-1l.17,0,.47-.06a2.35,2.35,0,0,0-.13.74,2.16,2.16,0,0,0,.37,1.22,2.44,2.44,0,0,0,2.08,1,16.44,16.44,0,0,0,6.67-1.86,13.61,13.61,0,0,1,2.58-1l.23,0,.45,0a2.39,2.39,0,0,0-.15.77,2,2,0,0,0,.36,1.16,2.47,2.47,0,0,0,2.11,1,16.91,16.91,0,0,0,6.73-1.86,14,14,0,0,1,2.59-1l.18,0,.47-.06a2.46,2.46,0,0,0-.13.75A2.15,2.15,0,0,0,58,53.18a2.28,2.28,0,0,0,1.36,1A4.27,4.27,0,0,0,61.71,54,29.39,29.39,0,0,1,57.37,59.08Zm5.28-6.38a10.91,10.91,0,0,1-2.26.38,1.5,1.5,0,0,1-1.18-.38.83.83,0,0,1-.21-.43.73.73,0,0,1,.15-.5,1.77,1.77,0,0,1,.35-.25.86.86,0,0,0,.12-1A2.59,2.59,0,0,0,57.17,50a11.66,11.66,0,0,0-3.24,1.19,14.42,14.42,0,0,1-6.06,1.69,2.15,2.15,0,0,1-1-.29l0,0a.45.45,0,0,1-.15-.33.63.63,0,0,1,.17-.48,1.66,1.66,0,0,1,.32-.26.86.86,0,0,0,.12-1A2.58,2.58,0,0,0,44.86,50a11.43,11.43,0,0,0-3.24,1.19,14.15,14.15,0,0,1-6,1.69,2,2,0,0,1-.94-.29l0,0a.5.5,0,0,1-.17-.33.79.79,0,0,1,.14-.5,2.17,2.17,0,0,1,.35-.25.84.84,0,0,0,.12-1A2.57,2.57,0,0,0,32.64,50a11.67,11.67,0,0,0-3.23,1.18,14.52,14.52,0,0,1-6.1,1.7,2.12,2.12,0,0,1-1-.3h0a.49.49,0,0,1-.17-.32V52.2a.69.69,0,0,1,.14-.43l.35-.25a.86.86,0,0,0,.12-1A2.56,2.56,0,0,0,20.26,50,11.09,11.09,0,0,0,17,51.23a17.37,17.37,0,0,1-2.05.91,9.91,9.91,0,0,1-1.56.42,28.16,28.16,0,0,1-2.6-6.18,12.87,12.87,0,0,0,1.37-.21h0a16.19,16.19,0,0,0,4.32-1.55,14.4,14.4,0,0,1,2.56-1,5.57,5.57,0,0,1,.65-.07,2.11,2.11,0,0,0-.14.74,2.05,2.05,0,0,0,.36,1.15,2.56,2.56,0,0,0,2.15,1.1,17.31,17.31,0,0,0,6.82-1.91,14,14,0,0,1,2.5-1l.69-.06a2,2,0,0,0-.14.73,2.19,2.19,0,0,0,.37,1.18,2.47,2.47,0,0,0,2,1.07,17.28,17.28,0,0,0,6.74-1.89,14.19,14.19,0,0,1,2.54-1,4.39,4.39,0,0,1,.69-.06,1.93,1.93,0,0,0-.15.75,2.13,2.13,0,0,0,.34,1.13,2.52,2.52,0,0,0,2.12,1.1,17.44,17.44,0,0,0,6.78-1.9,13.86,13.86,0,0,1,2.51-1l.68-.06a2.24,2.24,0,0,0-.13.73,2.21,2.21,0,0,0,.35,1.17,2.55,2.55,0,0,0,2.09,1.08A18.31,18.31,0,0,0,65.73,45,28.66,28.66,0,0,1,62.65,52.7Z"/><path class="cls-1" d="M50.93,61.54l-.07,0h0Z"/><polygon class="cls-1" points="19.84 15.46 15.3 9.9 14.46 10.61 18.99 16.16 19.84 15.46"/><polygon class="cls-1" points="45.33 8.81 43.12 8.37 43.49 6.52 45.06 6.84 45.29 5.73 43.71 5.4 44.08 3.54 46.3 3.98 46.52 2.9 43.27 2.23 41.84 9.25 45.1 9.91 45.33 8.81"/><polygon class="cls-1" points="37.14 3.79 37.15 3.77 39.76 9.29 40.87 8.94 41.05 1.99 39.96 1.97 39.92 7.32 39.9 7.32 37.24 1.77 36.2 2.13 36.03 9.08 37.12 9.1 37.14 3.79"/><path class="cls-1" d="M46.61,23.86l0,.06c-.37,1-.66,2-.89,2.87a13.55,13.55,0,0,0-.41,3.08c0,.13,0,.25,0,.37A12.85,12.85,0,0,0,47.36,36a6.6,6.6,0,0,1,5.2.15,11.77,11.77,0,0,1-2.27-7v-.4c.08-2.89,2-5.81,3.07-7.13H43a8.57,8.57,0,0,0-1.62,2h5.06Z"/><path class="cls-1" d="M43.58,19.36a11.31,11.31,0,0,1,2.48,1.13,2.16,2.16,0,0,1-.14-.78,2.12,2.12,0,0,1,.13-.74C45.57,19,44.5,19.18,43.58,19.36Z"/><polygon class="cls-1" points="35.37 9.05 35.19 7.93 32.97 8.31 32.65 6.45 34.23 6.19 34.05 5.08 32.46 5.33 32.13 3.45 34.36 3.07 34.18 1.99 30.91 2.53 32.09 9.6 35.37 9.05"/><path class="cls-1" d="M24.34,19.74c-.11,1.28-.21,2.56-.27,3.84v.1L22.18,22c-.26-.17-.45.07-.17.38.53.59,1.65,1.76,1.65,1.76l-3.88.35c-.63.09-.56.59,0,.62l3.83.3-1.5,1.77c-.23.33,0,.62.28.39.59-.49,1.17-1.23,1.69-1.76l.35,12.52c.06.42.36.39.39,0,.1-1.29.43-12.52.43-12.52l1.58,1.63.11.12c.33.24.54-.09.31-.34-.53-.6-1.64-1.8-1.64-1.8l3.86-.31c.63-.1.56-.59,0-.62-1.27-.1-3.86-.35-3.86-.35l1.73-1.76c.32-.33.09-.63-.22-.37-.62.53-1.87,1.75-1.87,1.75l-.3-4C24.85,19.11,24.37,19.21,24.34,19.74Z"/><polygon class="cls-1" points="27.14 4.77 28.86 10.56 29.91 10.23 28.19 4.45 29.75 3.96 29.43 2.87 25.22 4.17 25.55 5.26 27.14 4.77"/><polygon class="cls-1" points="21.56 14.14 18.72 9.68 18.72 9.65 23.88 12.88 24.63 11.98 21.03 6.03 20.1 6.61 22.96 11.14 22.94 11.14 17.71 7.92 17.03 8.78 20.63 14.72 21.56 14.14"/></svg>