<svg id="Capa_1" data-name="Capa 1" xmlns="http://www.w3.org/2000/svg" viewBox="0 0 250 226"><defs><style>.cls-1{fill:#fff;}</style></defs><path class="cls-1" d="M69.23,128.71a4,4,0,0,0-.18-1c-1.59-7.21-9.76-53.94,35.91-91.82,0,0,31.44-24.79,53.73-13.29-4.5-3.39-11.72-8.77-15.08-11.4-7.7-6-13.19-6.14-13.19-6.14a44.85,44.85,0,0,0-21.65,4.15c-39.22,17.1-44.1,61.54-44.1,61.54-4.53,28.79.46,47,4,56.68l.6,1.24"/><path class="cls-1" d="M159,148.1l.05,0Z"/><path class="cls-1" d="M159,148.14l0,0Z"/><path class="cls-1" d="M145.66,24.89c-.65,3.48-2.43,10.54-16.2,19.17-2.31,1.46-3.13,1.65-4.74,2.75-1.34.92-4.21,3.55-.89,6.94,1.56,1.6,14.58,10.32,22.44,16.07.89-.77,2-1.79,2.52-2.26l.33-.3A54.79,54.79,0,0,0,159,54.2c3.71-6.71,5.85-14.48,2.6-21.09,0,0-3.1-7.94-15.9-8.22"/><path class="cls-1" d="M144.53,71.84c-7.36-4.76-11.32-6.91-24.59-13.79,0,0-3.77-1.73-4.07-3.93l0-.19c0,1.22-.51,19.83-2.9,34.38a12.79,12.79,0,0,0-.1,4,10.75,10.75,0,0,0,3.09,5.8c1.27,1.39,8,7.18,24.1,18.56,7.11,5.06,18.69,15.06,19.48,26.24a15.11,15.11,0,0,1-.19,3.24,11.9,11.9,0,0,1-.46,1.94l-.06.24,0,0,.15-.26.18-.32c.48-.91,9-20.41,10.6-24.68,1-2.54,8-14.91-5.06-32.89,0,0-5.75-8.55-20.18-18.4"/><path class="cls-1" d="M150.34,132.27c-.4-.61-.8-1.29-1.26-2,0,0-20.69,17.73-49.68,4.18,0,0-22.61-9.77-25.91-36.14q-.31,1.68-.57,3.42c-6.24,40.53,23.53,62.78,52.14,62.12,21.73-.52,35.57-15.46,25.28-31.62"/><polygon class="cls-1" points="49.58 205.94 61.59 205.94 61.59 200.64 49.58 200.64 49.58 191.73 64.3 191.73 64.3 186.4 43.44 186.4 43.44 220.4 65.06 220.4 65.06 215.08 49.58 215.08 49.58 205.94"/><path class="cls-1" d="M199.46,206.05V206c3.54-1.44,5.68-5.23,5.68-9.28,0-4.52-2.14-7.76-5.51-9.28-1.46-.69-3.13-1-6.78-1H181.29v34h6.13V207.72H194l6.72,12.69h6.83l-7-12.69a8.69,8.69,0,0,0-1.11-1.67m-5.87-3.71h-6.17V191.73h5.33c4.8,0,6.17,2,6.17,5.27s-2,5.34-5.33,5.34"/><path class="cls-1" d="M28,202.54v-.1a8,8,0,0,0,4.08-7.27c0-5.59-4.32-8.76-10.38-8.76H9v34H21.87c6.22,0,11.63-3.07,11.63-9.86,0-3.46-1.74-6.9-5.46-8m-13-10.87h6.58a3.93,3.93,0,0,1,4.3,4.23,4.06,4.06,0,0,1-4.18,4.4h-6.7Zm7.32,23.52H15.05v-9.91h7.32a4.62,4.62,0,0,1,4.9,4.92c0,2.91-1.76,5-4.9,5"/><polygon class="cls-1" points="81.49 186.41 75.37 186.41 75.37 220.41 96.74 220.41 96.74 215.08 81.49 215.08 81.49 186.41"/><path class="cls-1" d="M230.28,186.41H216.6v34h6.13V208.67h7.55c6.32,0,10.72-4.6,10.72-11.19s-4.4-11.07-10.72-11.07m-1.14,16.9h-6.41V191.72h6.52c3.46,0,5.53,2.25,5.53,5.76s-2.07,5.83-5.64,5.83"/><path class="cls-1" d="M118.84,215.33c-7,0-11.35-5.7-11.35-12.15s4.18-11.69,11.3-11.69a14.89,14.89,0,0,1,9.22,3.59l2.92-4.61s-4.22-4.63-12.42-4.63a17,17,0,0,0-17.32,17.44c0,10,7.11,17.7,17.41,17.7a18.06,18.06,0,0,0,13.24-5.51L128.61,211a14.48,14.48,0,0,1-9.77,4.3"/><path class="cls-1" d="M155.08,185.84a17.1,17.1,0,0,0-17.44,17.34c0,10,7.52,17.8,17.44,17.8s17.42-7.79,17.42-17.8a17.09,17.09,0,0,0-17.42-17.34m0,29.49c-6.18,0-11.11-5.17-11.11-12.15,0-6.72,4.93-11.69,11.11-11.69s11.1,5,11.1,11.69c0,7-4.94,12.15-11.1,12.15"/></svg>