<svg id="Capa_1" data-name="Capa 1" xmlns="http://www.w3.org/2000/svg" xmlns:xlink="http://www.w3.org/1999/xlink" viewBox="0 0 250 86"><defs><style>.cls-1{fill:#fff;}.cls-2{clip-path:url(#clip-path);}.cls-3{clip-path:url(#clip-path-2);}.cls-4{clip-path:url(#clip-path-3);}.cls-5{clip-path:url(#clip-path-4);}.cls-6{clip-path:url(#clip-path-5);}.cls-7{clip-path:url(#clip-path-6);}.cls-8{clip-path:url(#clip-path-7);}</style><clipPath id="clip-path"><path class="cls-1" d="M165.94,144.19c-.05,2.11-.12,2.61-.43,3.29a7.86,7.86,0,0,1-5.31,3.92c-2.41.5-5.3-.15-6.26-1.42a4.28,4.28,0,0,1,.85-5.77c1.13-.76,2.28-1.15,6-2.08,1.79-.46,3.69-1,4.19-1.23l.91-.41S166,142.82,165.94,144.19Zm-7.84-20.73c-6.58.61-11,4.16-11.7,9.51a1,1,0,0,0,.85,1.1h5.87a1,1,0,0,0,1-.82l0-.14c.58-2.3,1.94-3.19,4.86-3.5,2.62-.25,5.07.38,6,1.56a3.39,3.39,0,0,1,.37,3.59c-.49,1-2.24,1.52-7.19,2.31-4,.63-6.07,1.18-8.06,2.14a8.84,8.84,0,0,0-5.32,9.27,9,9,0,0,0,3.09,6.53,13.21,13.21,0,0,0,4.94,2.26,21.92,21.92,0,0,0,6.86,0,9.59,9.59,0,0,0,5.62-3.39,2.25,2.25,0,0,1,.51-.62c.07,0,.15.4.22.88a11.91,11.91,0,0,0,.46,1.8l.1.25a1,1,0,0,0,1,.67h5.9a1,1,0,0,0,1-1v-.08c0-.46-.09-.5-.11-.95s-.19-4.38-.19-9.85c0-5-.09-10-.17-11-.41-4.7-2.43-7.75-6.13-9.33A23.68,23.68,0,0,0,158.1,123.46Z"/></clipPath><clipPath id="clip-path-2"><path class="cls-1" d="M195.16,123.56a9.54,9.54,0,0,0-5,2.71c-.65.66-1.41,1.49-1.66,1.81l-.47.6v-3.52a1,1,0,0,0-1-1h-6.51a1,1,0,0,0-1,1v30.67a1,1,0,0,0,1,1h6.67a1,1,0,0,0,1-1v-8.79c0-10.69,0-11.1,1-12.85a7,7,0,0,1,2.91-2.81,4.61,4.61,0,0,1,2.69-.48,5.09,5.09,0,0,1,2.6.41,5.25,5.25,0,0,1,3,4.15c.11.67.17,5.09.17,11.24v9.13a1,1,0,0,0,1,1h6.52a1,1,0,0,0,1-1h0l0-11.1,0-10.38v-.9a9.85,9.85,0,0,0-3.43-7,8.54,8.54,0,0,0-2.66-2A12.77,12.77,0,0,0,195.16,123.56Z"/></clipPath><clipPath id="clip-path-3"><path class="cls-1" d="M231.76,130.05c3,.62,5.06,2.38,6.1,6a16.84,16.84,0,0,1,.44,4.45,12.77,12.77,0,0,1-1.4,6.37,7.21,7.21,0,0,1-5.7,4.18,7.76,7.76,0,0,1-6.4-1.75c-2.25-2.07-3.41-6.08-3-10.35A11.36,11.36,0,0,1,223,134.3,7.41,7.41,0,0,1,231.76,130.05Zm-5.06-6.49a17,17,0,0,0-8.92,4.63c-5.91,5.89-6.53,16.38-1.36,23.15,3.51,4.61,9,6.89,15.34,6.35a16.39,16.39,0,0,0,14.71-12.54,20.11,20.11,0,0,0,0-9.22,16.59,16.59,0,0,0-8.68-10.88A18.92,18.92,0,0,0,226.7,123.56Z"/></clipPath><clipPath id="clip-path-4"><path class="cls-1" d="M117.35,132.62v23.22a1,1,0,0,0,1,1h6.67a1,1,0,0,0,1-1V112.3a1,1,0,0,0-1-1h-6.67a1,1,0,0,0-1,1Z"/></clipPath><clipPath id="clip-path-5"><path class="cls-1" d="M131.9,132.62v23.22a1,1,0,0,0,1,1h6.68a1,1,0,0,0,1-1V102a1,1,0,0,0-1-1h-6.68a1,1,0,0,0-1,1Z"/></clipPath><clipPath id="clip-path-6"><path class="cls-1" d="M98.9,130.16a6.6,6.6,0,0,1,5,5,6,6,0,0,1,.24,1.32V137H97c-5.84,0-7.19,0-7.19-.22a10.82,10.82,0,0,1,2.11-4.66C93.35,130.43,96.3,129.61,98.9,130.16Zm-4.61-6.62A15.93,15.93,0,0,0,81.56,136.1,21.4,21.4,0,0,0,82,146.69c2.48,7.63,9,11.71,17.73,11,5.17-.41,9.68-3.15,11.75-7.14a16,16,0,0,0,.83-2.12h0a1,1,0,0,0-.66-1.3,1.13,1.13,0,0,0-.32-.05H104.9a1,1,0,0,0-1,.65l0,.1a5.29,5.29,0,0,1-3.58,3,10.7,10.7,0,0,1-2.52.25A6.94,6.94,0,0,1,92,148.7a10.14,10.14,0,0,1-2.09-4.13c-.17-.71-.32-1.36-.32-1.44s5.32-.14,11.85-.14h10.74a1,1,0,0,0,1-1v-.05l0-.94c-.39-7.59-3.52-13.37-8.69-16.06A17.39,17.39,0,0,0,94.29,123.54Z"/></clipPath><clipPath id="clip-path-7"><path class="cls-1" d="M75.6,124.07a14.88,14.88,0,0,0-1.53.53,11.7,11.7,0,0,0-3.5,3.53l-.9,1.37,0-2.69,0-1.66a1,1,0,0,0-1-1H62.23a1,1,0,0,0-1,1v30.67a1,1,0,0,0,1,1h6.66a1,1,0,0,0,1-1l0-8.28,0-9.29.48-1.37A7.52,7.52,0,0,1,77,131.66a10,10,0,0,1,2.06-.08.71.71,0,0,0,.81-.61.34.34,0,0,0,0-.1v-6.44a.51.51,0,0,0-.42-.51l-.11,0A11.22,11.22,0,0,0,75.6,124.07Z"/></clipPath></defs><path class="cls-1" d="M131.29,36.45l-.07-.55a2.37,2.37,0,0,1-1.63.63,1.14,1.14,0,0,1-1.24-1.17c0-1.23,1-1.45,2.88-1.87v-.31c0-.59-.26-.89-1-.89a1.53,1.53,0,0,0-1.3.81l-.35-.21a1.76,1.76,0,0,1,1.67-1c1,0,1.5.42,1.5,1.41v2.35a5.32,5.32,0,0,0,.07.82Zm-.09-2.54c-2,.45-2.33.87-2.33,1.44a.74.74,0,0,0,.8.77,2.35,2.35,0,0,0,1.53-.74Z"/><rect class="cls-1" x="133.21" y="30.21" width="0.52" height="6.23"/><path class="cls-1" d="M135.18,30.21h.52V31h-.52Zm.52,6.24h-.52V32h.52Z"/><path class="cls-1" d="M137.17,36.45V32h.51v.68a1.87,1.87,0,0,1,1.5-.77,1.1,1.1,0,0,1,1.08.82,1.93,1.93,0,0,1,1.49-.82,1.07,1.07,0,0,1,1.18,1.22v3.36h-.52V33a.68.68,0,0,0-.77-.75,2,2,0,0,0-1.33.85v3.31h-.52V33a.68.68,0,0,0-.78-.75,2,2,0,0,0-1.33.85v3.31Z"/><path class="cls-1" d="M144.54,34.22c0,1,.42,1.9,1.44,1.9.58,0,.86-.2,1.31-.91l.42.23a1.82,1.82,0,0,1-1.77,1.09c-1.18,0-1.92-.75-1.92-2.33,0-1.39.71-2.33,1.85-2.33s1.79,1,1.79,2.35Zm2.6-.42c-.1-.92-.51-1.51-1.29-1.51s-1.3.92-1.31,1.51Z"/><path class="cls-1" d="M148.79,36.45V32h.52v.71a2,2,0,0,1,1.54-.8c.93,0,1.33.54,1.33,1.51v3.07h-.52v-3c0-.74-.23-1.14-.92-1.14s-.86.33-1.43.85v3.31Z"/><path class="cls-1" d="M153.7,32V30.49h.52V32h1v.41h-1v3.29a.4.4,0,0,0,.46.46,2,2,0,0,0,.53-.1v.43a3.4,3.4,0,0,1-.53.08c-.73,0-1-.24-1-.78V32.37H153V32Z"/><path class="cls-1" d="M158.56,36.45l-.07-.55a2.35,2.35,0,0,1-1.63.63,1.13,1.13,0,0,1-1.23-1.17c0-1.23,1-1.45,2.87-1.87v-.31c0-.59-.26-.89-1-.89a1.53,1.53,0,0,0-1.31.81l-.34-.21a1.76,1.76,0,0,1,1.66-1c1,0,1.5.42,1.5,1.41v2.35a5.32,5.32,0,0,0,.07.82Zm-.08-2.54c-2.06.45-2.33.87-2.33,1.44a.73.73,0,0,0,.8.77,2.37,2.37,0,0,0,1.53-.74Z"/><path class="cls-1" d="M160.45,36.45V32H161v.85h0a1.45,1.45,0,0,1,1.29-.94h.24v.5h-.24A1.55,1.55,0,0,0,161,33.91v2.54Z"/><path class="cls-1" d="M163.41,30.21h.52V31h-.52Zm.52,6.24h-.52V32h.52Z"/><path class="cls-1" d="M167.85,36.45l-.07-.55a2.35,2.35,0,0,1-1.63.63,1.13,1.13,0,0,1-1.23-1.17c0-1.23,1-1.45,2.87-1.87v-.31c0-.59-.26-.89-1-.89a1.53,1.53,0,0,0-1.3.81l-.35-.21a1.77,1.77,0,0,1,1.67-1c1,0,1.5.42,1.5,1.41v2.35a5.32,5.32,0,0,0,.07.82Zm-.09-2.54c-2,.45-2.33.87-2.33,1.44a.74.74,0,0,0,.81.77,2.33,2.33,0,0,0,1.52-.74Z"/><path class="cls-1" d="M173.44,35.61h0L174.7,32h.56l-1.68,4.8c-.3.88-.62,1.27-1.43,1.27a1.52,1.52,0,0,1-.48-.05v-.42a3.58,3.58,0,0,0,.51.06c.37,0,.76-.32,1-1.24L171.63,32h.57Z"/><path class="cls-1" d="M181.88,34.2c0,1.22-.44,2.33-1.84,2.33s-1.85-1.11-1.85-2.33.45-2.33,1.85-2.33,1.84,1.12,1.84,2.33m-3.17,0c0,1.22.4,1.92,1.33,1.92s1.33-.7,1.33-1.92S181,32.29,180,32.29s-1.33.7-1.33,1.91"/><path class="cls-1" d="M183.05,32h.52v.69h0a1.54,1.54,0,0,1,1.35-.78c1.17,0,1.8,1.12,1.8,2.36,0,1.56-.72,2.3-1.77,2.3a1.75,1.75,0,0,1-1.4-.67V38h-.52Zm.52,3.35a1.78,1.78,0,0,0,1.27.81c.93,0,1.39-.74,1.39-2,0-.93-.42-1.84-1.32-1.84-.57,0-.9.35-1.34.82Z"/><path class="cls-1" d="M187.94,34.22c0,1,.43,1.9,1.45,1.9.57,0,.86-.2,1.31-.91l.42.23a1.83,1.83,0,0,1-1.78,1.09c-1.17,0-1.91-.75-1.91-2.33,0-1.39.7-2.33,1.84-2.33s1.8,1,1.8,2.35Zm2.61-.42c-.1-.92-.51-1.51-1.29-1.51s-1.31.92-1.32,1.51Z"/><path class="cls-1" d="M192.16,36.45V32h.52v.85h0a1.46,1.46,0,0,1,1.29-.94h.24v.5H194a1.56,1.56,0,0,0-1.31,1.54v2.54Z"/><path class="cls-1" d="M197.59,36.45l-.07-.55a2.37,2.37,0,0,1-1.63.63,1.14,1.14,0,0,1-1.24-1.17c0-1.23,1-1.45,2.87-1.87v-.31c0-.59-.25-.89-1-.89a1.53,1.53,0,0,0-1.31.81l-.34-.21a1.76,1.76,0,0,1,1.67-1c1,0,1.5.42,1.5,1.41v2.35a4.31,4.31,0,0,0,.07.82Zm-.09-2.54c-2.06.45-2.33.87-2.33,1.44a.74.74,0,0,0,.8.77,2.37,2.37,0,0,0,1.53-.74Z"/><path class="cls-1" d="M202.81,36.45h-.37l-.08-.59a1.67,1.67,0,0,1-1.44.67c-1.17,0-1.81-.83-1.81-2.35,0-1.32.73-2.31,1.77-2.31a1.74,1.74,0,0,1,1.41.68V30.21h.52Zm-.52-3.36a1.8,1.8,0,0,0-1.27-.8c-.93,0-1.39.82-1.39,2s.42,1.85,1.31,1.85a1.62,1.62,0,0,0,1.35-.82Z"/><path class="cls-1" d="M207.67,34.2c0,1.22-.45,2.33-1.85,2.33S204,35.42,204,34.2s.45-2.33,1.85-2.33,1.85,1.12,1.85,2.33m-3.18,0c0,1.22.41,1.92,1.33,1.92s1.33-.7,1.33-1.92-.41-1.91-1.33-1.91-1.33.7-1.33,1.91"/><path class="cls-1" d="M208.71,36.45V32h.52v.85h0a1.45,1.45,0,0,1,1.29-.94h.23v.5h-.23a1.55,1.55,0,0,0-1.31,1.54v2.54Z"/><rect class="cls-1" x="214.13" y="30.21" width="0.52" height="6.23"/><path class="cls-1" d="M219.41,34.2c0,1.22-.45,2.33-1.84,2.33s-1.85-1.11-1.85-2.33.45-2.33,1.85-2.33,1.84,1.12,1.84,2.33m-3.17,0c0,1.22.4,1.92,1.33,1.92s1.33-.7,1.33-1.92-.41-1.91-1.33-1.91-1.33.7-1.33,1.91"/><path class="cls-1" d="M223.94,32.25a1,1,0,0,0-.72.21,1.35,1.35,0,0,1,.32.94A1.53,1.53,0,0,1,221.8,35a2,2,0,0,1-.72-.14c-.29.11-.41.27-.41.43s.17.39,1.38.39,1.91.43,1.91,1.17-.5,1.21-2,1.21-2-.52-2-1.06.15-.71.78-.95h0c-.33-.07-.59-.21-.59-.59a.84.84,0,0,1,.67-.76,1.42,1.42,0,0,1-.65-1.17A1.59,1.59,0,0,1,222,31.87a1.78,1.78,0,0,1,1,.31,1.31,1.31,0,0,1,.95-.39Zm-3.46,4.63c0,.44.43.74,1.36.74,1.12,0,1.6-.3,1.6-.77s-.29-.73-1.64-.73c-1,0-1.32.37-1.32.76m1.38-2.32a1.14,1.14,0,1,0,0-2.27,1.14,1.14,0,1,0,0,2.27"/><path class="cls-1" d="M226.2,30.27,225,31.46h-.44l.95-1.19Zm-.82,6.18h-.52V32h.52Z"/><path class="cls-1" d="M226.73,35.36a1.5,1.5,0,0,0,1.39.76.92.92,0,0,0,1-.86c0-1.3-2.64-.57-2.64-2.16,0-.85.67-1.23,1.43-1.23a1.65,1.65,0,0,1,1.54.81l-.4.28a1.34,1.34,0,0,0-1.16-.67c-.5,0-.89.24-.89.78,0,1.1,2.64.45,2.64,2.19a1.39,1.39,0,0,1-1.55,1.27,2,2,0,0,1-1.74-.9Z"/><path class="cls-1" d="M230.79,32V30.49h.52V32h1v.41h-1v3.29a.4.4,0,0,0,.45.46,1.84,1.84,0,0,0,.53-.1v.43a3.08,3.08,0,0,1-.53.08c-.73,0-1-.24-1-.78V32.37h-.67V32Z"/><path class="cls-1" d="M233.19,30.21h.52V31h-.52Zm.52,6.24h-.52V32h.52Z"/><path class="cls-1" d="M237.88,33.22a1.3,1.3,0,0,0-1.17-.93c-.85,0-1.41.52-1.41,1.91,0,1.15.51,1.92,1.41,1.92.64,0,1-.36,1.35-.93l.41.19a2,2,0,0,1-1.76,1.15c-1.26,0-1.93-1-1.93-2.33,0-1.54.77-2.33,1.93-2.33a1.66,1.66,0,0,1,1.64,1.22Z"/><path class="cls-1" d="M242.85,34.2c0,1.22-.45,2.33-1.85,2.33s-1.85-1.11-1.85-2.33.45-2.33,1.85-2.33,1.85,1.12,1.85,2.33m-3.18,0c0,1.22.41,1.92,1.33,1.92s1.33-.7,1.33-1.92-.41-1.91-1.33-1.91-1.33.7-1.33,1.91"/><path class="cls-1" d="M94.87,36.37a.08.08,0,0,1,0,.05.07.07,0,0,1,0,0l-.09,0h-.28l-.1,0a.1.1,0,0,1,0,0,.07.07,0,0,1,0-.05V30.23s0,0,0-.05a.1.1,0,0,1,0,0l.09,0h.28l.09,0a.07.07,0,0,1,0,0,.08.08,0,0,1,0,.05Z"/><path class="cls-1" d="M99.84,36.37a.07.07,0,0,1,0,.05.1.1,0,0,1,0,0l-.09,0h-.28l-.09,0a.1.1,0,0,1,0,0,.07.07,0,0,1,0-.05V33.74a2.5,2.5,0,0,0-.07-.67,1.18,1.18,0,0,0-.19-.44.87.87,0,0,0-.32-.28,1,1,0,0,0-.46-.1,1.17,1.17,0,0,0-.68.24,3.56,3.56,0,0,0-.71.7v3.18a.07.07,0,0,1,0,.05.1.1,0,0,1,0,0l-.09,0H96.4l-.09,0a.07.07,0,0,1,0,0,.07.07,0,0,1,0-.05V31.94a.07.07,0,0,1,0-.05.12.12,0,0,1,0-.05l.08,0h.27l.09,0,0,.05a.07.07,0,0,1,0,.05v.63a2.85,2.85,0,0,1,.75-.62,1.53,1.53,0,0,1,.73-.19,1.61,1.61,0,0,1,.73.15,1.35,1.35,0,0,1,.49.39,1.61,1.61,0,0,1,.26.58,3.76,3.76,0,0,1,.08.81Z"/><path class="cls-1" d="M104.67,36.37a.13.13,0,0,1,0,.06.1.1,0,0,1,0,0l-.08,0h-.25l-.08,0a.1.1,0,0,1,0,0,.14.14,0,0,1,0-.06v-.64a2.84,2.84,0,0,1-.73.6,1.55,1.55,0,0,1-.82.22,1.74,1.74,0,0,1-.82-.18,1.68,1.68,0,0,1-.55-.51,2.32,2.32,0,0,1-.31-.75,3.71,3.71,0,0,1-.1-.9,4,4,0,0,1,.12-1,2.4,2.4,0,0,1,.37-.77,1.56,1.56,0,0,1,.59-.49,1.9,1.9,0,0,1,.82-.17,1.52,1.52,0,0,1,.73.18,2.73,2.73,0,0,1,.66.52V29.8a.13.13,0,0,1,0-.06.11.11,0,0,1,.05,0l.09,0h.28l.09,0,0,0a.14.14,0,0,1,0,.06Zm-.58-3.2a4,4,0,0,0-.71-.68,1.27,1.27,0,0,0-.71-.23,1,1,0,0,0-.58.16,1.24,1.24,0,0,0-.39.43,1.81,1.81,0,0,0-.22.59,3.08,3.08,0,0,0-.07.68,4.17,4.17,0,0,0,.06.71,2,2,0,0,0,.2.62,1.16,1.16,0,0,0,.38.44,1,1,0,0,0,.58.16,1.06,1.06,0,0,0,.35,0,1.15,1.15,0,0,0,.34-.16,1.83,1.83,0,0,0,.36-.29c.13-.12.26-.27.41-.44Z"/><path class="cls-1" d="M109.52,36.37a.08.08,0,0,1,0,.05s0,0,0,0l-.09,0h-.27l-.09,0a.08.08,0,0,1,0,0,.07.07,0,0,1,0-.05v-.63a2.7,2.7,0,0,1-.75.62,1.49,1.49,0,0,1-.72.19,1.65,1.65,0,0,1-.74-.15,1.24,1.24,0,0,1-.48-.39,1.88,1.88,0,0,1-.27-.59,3.66,3.66,0,0,1-.08-.8V31.94a.08.08,0,0,1,0-.05s0,0,0-.05l.09,0h.29l.09,0,0,.05a.08.08,0,0,1,0,.05v2.62a3,3,0,0,0,.06.67,1.42,1.42,0,0,0,.19.45.9.9,0,0,0,.33.28,1,1,0,0,0,.46.1,1.15,1.15,0,0,0,.67-.24,3.56,3.56,0,0,0,.71-.7V31.94a.08.08,0,0,1,0-.05s0,0,0-.05l.09,0h.29l.09,0,0,.05a.08.08,0,0,1,0,.05Z"/><path class="cls-1" d="M113.4,35.19a1.32,1.32,0,0,1-.12.57,1.18,1.18,0,0,1-.34.43,1.43,1.43,0,0,1-.52.27,2.31,2.31,0,0,1-.67.09,2,2,0,0,1-.43,0,1.93,1.93,0,0,1-.38-.09l-.28-.12a1,1,0,0,1-.17-.11.36.36,0,0,1-.08-.12,1,1,0,0,1,0-.2.37.37,0,0,1,0-.11s0-.06,0-.08,0,0,0-.06h.06a.27.27,0,0,1,.15.07l.26.14a1.58,1.58,0,0,0,.37.15,1.45,1.45,0,0,0,.49.07,1.32,1.32,0,0,0,.41,0,.94.94,0,0,0,.32-.14.62.62,0,0,0,.22-.26.8.8,0,0,0,.07-.36.62.62,0,0,0-.09-.34,1,1,0,0,0-.26-.25,3,3,0,0,0-.36-.19l-.42-.16-.42-.19a1.78,1.78,0,0,1-.36-.25,1.52,1.52,0,0,1-.26-.35,1.28,1.28,0,0,1-.09-.5,1.42,1.42,0,0,1,.08-.45,1.08,1.08,0,0,1,.28-.4,1.28,1.28,0,0,1,.47-.28,1.71,1.71,0,0,1,.67-.11,1.69,1.69,0,0,1,.33,0,1.32,1.32,0,0,1,.3.07l.24.09.15.09.06.07s0,0,0,0,0,.05,0,.08,0,.06,0,.1,0,.07,0,.1,0,.06,0,.08a.11.11,0,0,1,0,0,.06.06,0,0,1,0,0,.28.28,0,0,1-.12-.05,1,1,0,0,0-.21-.12l-.3-.12a1.64,1.64,0,0,0-.41,0,1.62,1.62,0,0,0-.4,0,1.13,1.13,0,0,0-.29.15.69.69,0,0,0-.16.23.72.72,0,0,0-.06.29.57.57,0,0,0,.1.36.81.81,0,0,0,.26.26,2.42,2.42,0,0,0,.36.19l.42.17a3.79,3.79,0,0,1,.42.18,2,2,0,0,1,.37.24,1.23,1.23,0,0,1,.26.34A1.17,1.17,0,0,1,113.4,35.19Z"/><path class="cls-1" d="M116.32,36.11a.7.7,0,0,1,0,.16.23.23,0,0,1,0,.1.3.3,0,0,1-.11.07l-.16.05-.2,0h-.2a1.57,1.57,0,0,1-.56-.09.83.83,0,0,1-.37-.26,1.16,1.16,0,0,1-.22-.46,3,3,0,0,1-.06-.64V32.33h-.66a.11.11,0,0,1-.11-.06.3.3,0,0,1,0-.18.34.34,0,0,1,0-.11.11.11,0,0,1,0-.08l0,0h.73V30.75a.07.07,0,0,1,0-.05l.05-.05.09,0h.28l.09,0,0,.05a.08.08,0,0,1,0,.05v1.09h1.28l0,0,0,.08a.34.34,0,0,1,0,.11.3.3,0,0,1,0,.18.13.13,0,0,1-.11.06H115V35a1.73,1.73,0,0,0,.14.77.57.57,0,0,0,.53.26l.21,0L116,36l.13-.05a.15.15,0,0,1,.09,0h0l0,0a.14.14,0,0,1,0,.07A.34.34,0,0,1,116.32,36.11Z"/><path class="cls-1" d="M119.58,32.16c0,.05,0,.1,0,.13a.19.19,0,0,1,0,.08.08.08,0,0,1,0,.05l0,0-.1,0-.14-.05-.17,0-.21,0a.62.62,0,0,0-.26.06,1.22,1.22,0,0,0-.26.18,1.64,1.64,0,0,0-.3.33l-.34.5v3a.07.07,0,0,1,0,.05.1.1,0,0,1,0,0l-.09,0h-.28l-.09,0a.07.07,0,0,1-.05,0,.07.07,0,0,1,0-.05V31.94a.07.07,0,0,1,0-.05l.05-.05.08,0h.27l.09,0,0,.05a.07.07,0,0,1,0,.05v.7a4.22,4.22,0,0,1,.35-.45,3.29,3.29,0,0,1,.31-.27,1.45,1.45,0,0,1,.29-.13,1.36,1.36,0,0,1,.29,0h.14l.18,0,.17.05a.38.38,0,0,1,.11.05s0,0,0,0,0,0,0,0a.17.17,0,0,1,0,.08A.37.37,0,0,1,119.58,32.16Z"/><path class="cls-1" d="M120.88,30.45a.41.41,0,0,1-.08.31.4.4,0,0,1-.3.09.45.45,0,0,1-.3-.08.68.68,0,0,1,0-.64.48.48,0,0,1,.31-.08.42.42,0,0,1,.29.08C120.86,30.18,120.88,30.29,120.88,30.45Zm-.08,5.92a.08.08,0,0,1,0,.05.08.08,0,0,1,0,0l-.09,0h-.29l-.09,0s0,0,0,0a.08.08,0,0,1,0-.05V31.94a.08.08,0,0,1,0-.05s0,0,0-.05l.09,0h.29l.09,0,0,.05a.08.08,0,0,1,0,.05Z"/><path class="cls-1" d="M125.17,36.37a.11.11,0,0,1,0,.08l-.09,0h-.28l-.09,0a.11.11,0,0,1,0-.08v-.49a2.4,2.4,0,0,1-.66.5,1.78,1.78,0,0,1-.74.17,2,2,0,0,1-.63-.09,1.43,1.43,0,0,1-.47-.26,1.22,1.22,0,0,1-.29-.41,1.33,1.33,0,0,1-.1-.54,1.28,1.28,0,0,1,.15-.63,1.19,1.19,0,0,1,.43-.46,2.14,2.14,0,0,1,.67-.27,3.88,3.88,0,0,1,.87-.09h.71v-.38a1.85,1.85,0,0,0-.06-.5,1,1,0,0,0-.19-.37.84.84,0,0,0-.35-.22,1.53,1.53,0,0,0-.51-.07,1.74,1.74,0,0,0-.53.07,2.7,2.7,0,0,0-.41.16l-.29.16a.57.57,0,0,1-.16.07H122l0,0a.14.14,0,0,1,0-.07.28.28,0,0,1,0-.1.71.71,0,0,1,0-.16.28.28,0,0,1,.08-.12,1,1,0,0,1,.22-.15l.36-.15a2.7,2.7,0,0,1,.43-.12,2.56,2.56,0,0,1,.47,0,2.41,2.41,0,0,1,.77.11,1.29,1.29,0,0,1,.51.31,1.27,1.27,0,0,1,.28.51,2.82,2.82,0,0,1,.08.68Zm-.58-2.09h-.81a2.83,2.83,0,0,0-.62.06,1.62,1.62,0,0,0-.44.19.79.79,0,0,0-.26.29.86.86,0,0,0-.09.39.76.76,0,0,0,.25.61.92.92,0,0,0,.68.23,1.25,1.25,0,0,0,.65-.18,3,3,0,0,0,.64-.55Z"/><polygon class="cls-1" points="94.29 59.51 94.29 42.72 104.17 42.72 104.17 45.47 97.77 45.47 97.77 49.56 103.87 49.56 103.87 52.21 97.77 52.21 97.77 56.73 104.17 56.73 104.17 59.51 94.29 59.51"/><path class="cls-1" d="M111.78,59.83a15.82,15.82,0,0,1-3.45-.42l.13-3.13a10.28,10.28,0,0,0,3.71.64c1.58,0,3.1-.71,3.1-2.35,0-3-7.39-1.42-7.39-6.88,0-3.16,2.45-5.26,6.87-5.26a21.27,21.27,0,0,1,3.2.29l-.13,3a11.8,11.8,0,0,0-3.2-.48c-2.13,0-3.06.84-3.06,2.09,0,2.88,7.49,1.62,7.49,6.88,0,3.42-3,5.65-7.27,5.65"/><path class="cls-1" d="M140.9,59.51l-1.26-8.78c-.23-1.62-.36-2.91-.45-3.84h0a29.1,29.1,0,0,1-.84,3.13l-3.16,9.49h-3.68l-2.87-8.82a34.37,34.37,0,0,1-1-3.77h0c-.06,1.26-.22,2.51-.42,4L126,59.51h-3.49l2.58-16.79h4.36l3.13,9.43a28.39,28.39,0,0,1,.84,3.16h0a30.55,30.55,0,0,1,.87-3.07l3.23-9.52h4.49l2.52,16.79Z"/><polygon class="cls-1" points="149.45 59.51 149.45 42.72 159.33 42.72 159.33 45.47 152.94 45.47 152.94 49.56 159.04 49.56 159.04 52.21 152.94 52.21 152.94 56.73 159.33 56.73 159.33 59.51 149.45 59.51"/><path class="cls-1" d="M172.76,59.51,168,52.6h-.16v6.91H164.3V42.72c1.23-.06,3.42-.1,5.49-.1,4,0,6.32,1.55,6.32,4.65,0,2.75-1.9,4.39-4.58,4.81.39.45.84,1.1,1.36,1.81l4.16,5.62ZM169.27,45.3a9.6,9.6,0,0,0-1.48.07v4.84c.48,0,1.06.06,1.61.06,1.84,0,3-1.06,3-2.64s-1.19-2.33-3.16-2.33"/><path class="cls-1" d="M191.71,59.51l-1.2-3.26h-7l-1.23,3.26h-3.49l6.36-16.79h4.1l6.33,16.79ZM187.9,49c-.33-.88-.65-1.88-.87-2.65h0a21.82,21.82,0,0,1-.84,2.61l-1.8,4.75h5.29Z"/><polygon class="cls-1" points="199 59.51 199 42.72 202.49 42.72 202.49 56.47 208.27 56.47 208.27 59.51 199 59.51"/><path class="cls-1" d="M217,59.6c-2.13,0-3.77-.06-5.22-.09V42.72c1.48,0,4.13-.06,6.1-.06,5.52,0,9.07,2.35,9.07,8.2,0,6-4.3,8.74-10,8.74m.49-14.14c-.68,0-1.55,0-2.23.07V56.6c.49,0,1.36.1,2.1.1,3.45,0,5.87-1.84,5.87-5.65s-1.93-5.59-5.74-5.59"/><path class="cls-1" d="M241.13,59.51l-1.2-3.26h-7l-1.23,3.26h-3.48l6.35-16.79h4.1L245,59.51ZM237.32,49c-.32-.88-.65-1.88-.87-2.65h0a23.66,23.66,0,0,1-.83,2.61l-1.81,4.75h5.29Z"/><path class="cls-1" d="M101.16,82.33c-5.48,0-8.26-3.16-8.26-8.26,0-4.75,2.74-9,9-9a14.17,14.17,0,0,1,3.61.45l-.32,3.07a11.42,11.42,0,0,0-3.55-.58c-3.29,0-5.07,2.39-5.07,5.71,0,3.62,1.94,5.52,5.26,5.52a8.34,8.34,0,0,0,3.52-.77l.29,3.1a13.64,13.64,0,0,1-4.52.74"/><path class="cls-1" d="M116.49,82.39c-5.46,0-8.17-3.48-8.17-8.52A8.49,8.49,0,0,1,117,65c4.87,0,8.26,2.84,8.26,8.52a8.46,8.46,0,0,1-8.81,8.84m.32-14.33c-2.55,0-4.78,1.94-4.78,5.55,0,3.2,1.36,5.72,4.65,5.72,2.68,0,4.88-1.81,4.88-5.56s-1.88-5.71-4.75-5.71"/><path class="cls-1" d="M137.89,82.1l-4.81-6.91h-.16V82.1h-3.49V65.32c1.23-.07,3.43-.1,5.49-.1,4,0,6.33,1.55,6.33,4.65,0,2.74-1.91,4.39-4.59,4.81.39.45.84,1.1,1.36,1.81l4.16,5.61ZM134.4,67.9a11.18,11.18,0,0,0-1.48.06v4.85c.48,0,1.07.06,1.61.06,1.84,0,3-1.06,3-2.65s-1.2-2.32-3.17-2.32"/><path class="cls-1" d="M151.06,76.65c-.42,0-1.06,0-1.48-.07V82.1h-3.49V65.32c1.42,0,3.52-.1,5.49-.1,4.26,0,6.68,2,6.68,5.42,0,3.68-2.94,6-7.2,6m.23-8.62c-.65,0-1.26,0-1.71,0v5.68a7,7,0,0,0,1.48.13c2.16,0,3.49-1,3.49-3,0-1.65-1.1-2.84-3.26-2.84"/><path class="cls-1" d="M165.94,144.19c-.05,2.11-.12,2.61-.43,3.29a7.86,7.86,0,0,1-5.31,3.92c-2.41.5-5.3-.15-6.26-1.42a4.28,4.28,0,0,1,.85-5.77c1.13-.76,2.28-1.15,6-2.08,1.79-.46,3.69-1,4.19-1.23l.91-.41S166,142.82,165.94,144.19Zm-7.84-20.73c-6.58.61-11,4.16-11.7,9.51a1,1,0,0,0,.85,1.1h5.87a1,1,0,0,0,1-.82l0-.14c.58-2.3,1.94-3.19,4.86-3.5,2.62-.25,5.07.38,6,1.56a3.39,3.39,0,0,1,.37,3.59c-.49,1-2.24,1.52-7.19,2.31-4,.63-6.07,1.18-8.06,2.14a8.84,8.84,0,0,0-5.32,9.27,9,9,0,0,0,3.09,6.53,13.21,13.21,0,0,0,4.94,2.26,21.92,21.92,0,0,0,6.86,0,9.59,9.59,0,0,0,5.62-3.39,2.25,2.25,0,0,1,.51-.62c.07,0,.15.4.22.88a11.91,11.91,0,0,0,.46,1.8l.1.25a1,1,0,0,0,1,.67h5.9a1,1,0,0,0,1-1v-.08c0-.46-.09-.5-.11-.95s-.19-4.38-.19-9.85c0-5-.09-10-.17-11-.41-4.7-2.43-7.75-6.13-9.33A23.68,23.68,0,0,0,158.1,123.46Z"/><g class="cls-2"><rect class="cls-1" x="-103.28" y="3.31" width="451.1" height="507.74"/></g><path class="cls-1" d="M195.16,123.56a9.54,9.54,0,0,0-5,2.71c-.65.66-1.41,1.49-1.66,1.81l-.47.6v-3.52a1,1,0,0,0-1-1h-6.51a1,1,0,0,0-1,1v30.67a1,1,0,0,0,1,1h6.67a1,1,0,0,0,1-1v-8.79c0-10.69,0-11.1,1-12.85a7,7,0,0,1,2.91-2.81,4.61,4.61,0,0,1,2.69-.48,5.09,5.09,0,0,1,2.6.41,5.25,5.25,0,0,1,3,4.15c.11.67.17,5.09.17,11.24v9.13a1,1,0,0,0,1,1h6.52a1,1,0,0,0,1-1h0l0-11.1,0-10.38v-.9a9.85,9.85,0,0,0-3.43-7,8.54,8.54,0,0,0-2.66-2A12.77,12.77,0,0,0,195.16,123.56Z"/><g class="cls-3"><rect class="cls-1" x="-103.28" y="3.31" width="451.1" height="507.74"/></g><path class="cls-1" d="M231.76,130.05c3,.62,5.06,2.38,6.1,6a16.84,16.84,0,0,1,.44,4.45,12.77,12.77,0,0,1-1.4,6.37,7.21,7.21,0,0,1-5.7,4.18,7.76,7.76,0,0,1-6.4-1.75c-2.25-2.07-3.41-6.08-3-10.35A11.36,11.36,0,0,1,223,134.3,7.41,7.41,0,0,1,231.76,130.05Zm-5.06-6.49a17,17,0,0,0-8.92,4.63c-5.91,5.89-6.53,16.38-1.36,23.15,3.51,4.61,9,6.89,15.34,6.35a16.39,16.39,0,0,0,14.71-12.54,20.11,20.11,0,0,0,0-9.22,16.59,16.59,0,0,0-8.68-10.88A18.92,18.92,0,0,0,226.7,123.56Z"/><g class="cls-4"><rect class="cls-1" x="-103.28" y="3.31" width="451.1" height="507.74"/></g><path class="cls-1" d="M117.35,132.62v23.22a1,1,0,0,0,1,1h6.67a1,1,0,0,0,1-1V112.3a1,1,0,0,0-1-1h-6.67a1,1,0,0,0-1,1Z"/><g class="cls-5"><rect class="cls-1" x="-103.28" y="3.31" width="451.1" height="507.74"/></g><path class="cls-1" d="M131.9,132.62v23.22a1,1,0,0,0,1,1h6.68a1,1,0,0,0,1-1V102a1,1,0,0,0-1-1h-6.68a1,1,0,0,0-1,1Z"/><g class="cls-6"><rect class="cls-1" x="-103.28" y="3.31" width="451.1" height="507.74"/></g><path class="cls-1" d="M98.9,130.16a6.6,6.6,0,0,1,5,5,6,6,0,0,1,.24,1.32V137H97c-5.84,0-7.19,0-7.19-.22a10.82,10.82,0,0,1,2.11-4.66C93.35,130.43,96.3,129.61,98.9,130.16Zm-4.61-6.62A15.93,15.93,0,0,0,81.56,136.1,21.4,21.4,0,0,0,82,146.69c2.48,7.63,9,11.71,17.73,11,5.17-.41,9.68-3.15,11.75-7.14a16,16,0,0,0,.83-2.12h0a1,1,0,0,0-.66-1.3,1.13,1.13,0,0,0-.32-.05H104.9a1,1,0,0,0-1,.65l0,.1a5.29,5.29,0,0,1-3.58,3,10.7,10.7,0,0,1-2.52.25A6.94,6.94,0,0,1,92,148.7a10.14,10.14,0,0,1-2.09-4.13c-.17-.71-.32-1.36-.32-1.44s5.32-.14,11.85-.14h10.74a1,1,0,0,0,1-1v-.05l0-.94c-.39-7.59-3.52-13.37-8.69-16.06A17.39,17.39,0,0,0,94.29,123.54Z"/><g class="cls-7"><rect class="cls-1" x="-103.28" y="3.31" width="451.1" height="507.74"/></g><path class="cls-1" d="M75.6,124.07a14.88,14.88,0,0,0-1.53.53,11.7,11.7,0,0,0-3.5,3.53l-.9,1.37,0-2.69,0-1.66a1,1,0,0,0-1-1H62.23a1,1,0,0,0-1,1v30.67a1,1,0,0,0,1,1h6.66a1,1,0,0,0,1-1l0-8.28,0-9.29.48-1.37A7.52,7.52,0,0,1,77,131.66a10,10,0,0,1,2.06-.08.71.71,0,0,0,.81-.61.34.34,0,0,0,0-.1v-6.44a.51.51,0,0,0-.42-.51l-.11,0A11.22,11.22,0,0,0,75.6,124.07Z"/><g class="cls-8"><rect class="cls-1" x="-103.28" y="3.31" width="451.1" height="507.74"/></g><path class="cls-1" d="M86.47,77.53V74.37l0-.06V1.91H83.62V70.15l-.7-1-2.13,2.12v-4l.52-.52L80.79,66V1.91H78V61.79L76.48,59.6l-1.34,1.34v-59H72.31V55.78L69.48,58.6v-4l2.17-2.16L70,50.08l-.56.55V1.91H66.66V45.48L63.83,48.3v-4l1.37-1.37-1.37-2v-39H61V36.74l-.63-.94L58.18,38V1.91H55.35V35.66l-2.81,0V1.91H49.7V38.47l-2.83,2.82v-4l1.69-1.69H46.87V1.91H44.05V36.14l-.81.8-.88-1.34H41.22V1.91H38.39V30H35.57V27.12h1.2l-1.2-1.82V1.91H32.74V21l-1.56-2.37H29.92V1.91H27.09V13H24.26V10.17h1.33l-1.33-2V1.91H21.44v2L20,1.69H4.53v.22h0v9.28L6,13H4.53v2.83h5.6v2l.68.81H4.53v2.82H15.79V24.3H4.53v2.82H18l.59.7v-.7h2.83V30H4.53v2.83H22.82l1.44,1.7v-1.7h2.83V35.6H4.53v2.83H27.62l2.3,2.7v-2.7h2.82v1l-1.82,1.82H4.53v2.82H28.09l-2.83,2.83H4.53v2.82H22.42l-2.83,2.83H4.53v2.83H16.75l-.26.26-1.66,2.56H4.53V61H13l-1.83,2.82H4.53v2.83H9.36l-.1.15.15-.15h4l-2.84,2.83h-6v2.82H7.74L4.9,75.17H4.53v.37l0,.06v4L6.07,78h4L7.23,80.82H4.53v2.83h13.7L20,80.82h-.82L44.05,56.07v1.69L45.1,59,20.66,83.37h4l25.05-25v4l-21.05,21h4l18-17.92,1.83,2.16L36.63,83.39h4L55.35,68.71v2.36l.75.88L44.61,83.41h4l9.33-9.31.25.29v-.53L61,71v4l-8.41,8.39h4l5-5,1.83,2.16-2.86,2.85h4l2.1-2.09v2.11h8.48v-2.6L78,78.05v4l-1.43,1.43h4.26V83.2l2.83-2.82v3.08h2.84V81.53l0,0v-4ZM78,62.1v4l-2.82,2.82v-4Zm-5.65,9.63-2.83,2.81v-4l2.83-2.82Zm0-12v4l-2.83,2.82v-4Zm-5.65,1.65-2.83,2.82v-4l2.83-2.81Zm0-12v4l-2.83,2.82v-4ZM61,59.09,58.18,61.9v-4L61,55.1Zm0-8-2.82,2.82V50L61,47.13Zm0-12v4L58.18,46V42Zm-5.65,9.62L52.53,51.6v-4l2.82-2.82Zm0-12v4l-2.82,2.82v-4ZM49.7,42.46v4l-2.83,2.81v-4ZM35.57,52.56h-4l2.83-2.83h4v0Zm-9.66,5.65,2.83-2.82h4l-2.83,2.82ZM27.07,61l-2.83,2.82h-4L23.07,61Zm8.5-20.43,2.18-2.18h.64v2.83H35.57Zm.51,3.47-.51.51v-.51Zm2.31,1.68v1.15H37.25Zm2.85,1.15h0V44.08h2.39l.44-.69v.72Zm2.81-5.65H42.91l1.14-1.13Zm-2.3-2.83-.53.53v-.53Zm-3.36-5.65v2.78H36.65l-.06.05h-1V32.78ZM32.74,30H29.92V27.12h2.82Zm0-8.48V24.3H29.92V21.47ZM27.09,24.3H24.26V21.47h2.83Zm0-8.48v2.83H24.26V15.82Zm-5.65,2.83H18.61V15.82h2.83Zm0-5.66H18.61V10.17h2.83ZM13,4.51h2.83V7.34H13ZM10.13,7.34H7.31V4.51h2.82Zm5.66,2.83V13H13V10.17Zm5.65-5.66V7.34H18.61V4.51ZM7.31,13V10.17h2.82V13ZM13,18.65V15.82h2.83v2.83Zm5.65,5.65V21.47h2.83V24.3ZM24.26,30V27.12h2.83V30Zm5.66,5.65V32.78h2.82V35.6Zm2.17,8.48h.65v.38l1.36,1.6-.85.85h-4Zm-5.67,5.65h4l-2.83,2.83h-4Zm-5.67,5.66h4l-2.84,2.82h-4Zm-8.5,8.47L15.08,61h4l-2.84,2.82Zm5.16,2.83h4l-2.83,2.83h-4ZM8.9,75.17l2.84-2.83h4L12.9,75.17Zm10.83-2.83h4l-2.84,2.83h-4Zm-8.5,8.48L14.06,78h4l-2.83,2.82Zm15.33-11.3h-4l2.84-2.83h3.7l1.82-2.83H28.23L31.07,61h1.66l1.81-2.83H33.9l5.7-5.68,1.62,1.91V50.91l2.83-2.81v4ZM46.87,57.23v-4l2.83-2.82v4Zm5.66-1.65,2.82-2.82v4l-2.82,2.82Zm0,12v-4l2.82-2.81v4Zm5.65,2.33v-4L61,63.07v4Zm5.65-1.65,2.83-2.81v4l-2.83,2.82Zm0,12v-4l2.83-2.81v4Zm5.65,2.34v-4l2.83-2.82v4Zm5.66-5.64v-4L78,70.08v4Zm5.65,2.33v-4l2.83-2.82v4Z"/></svg>