<svg id="Capa_1" data-name="Capa 1" xmlns="http://www.w3.org/2000/svg" viewBox="0 0 250 106"><defs><style>.cls-1{fill:#fff;}</style></defs><path class="cls-1" d="M95.82,104V58c.68,0,1.28,0,1.88,0,7.29-.2,14.59-.23,21.87-.66A25.51,25.51,0,0,0,133,52.16c5.7-4.07,8.21-9.94,9.68-16.45.88-3.93,1.6-7.9,2.49-11.84,3-13,10.29-19.63,23.59-21.12,3.69-.42,7.41-.5,11.27-.74V12.44c-3.41.16-6.77.12-10.08.53a46.39,46.39,0,0,0-9.21,2c-7,2.43-11.43,7.61-13.69,14.46-1.61,4.89-2.56,10-3.73,15-1,4.4-2.12,8.79-4.89,12.47-4.89,6.49-11.56,9.87-19.56,10.65-3.65.36-7.32.46-11.09.68v7.39c2.36,0,4.71.07,7.06,0a32.43,32.43,0,0,0,13.93-3.26A26.22,26.22,0,0,0,143.06,53.9c1.15-5.19,2.41-10.39,4.05-15.44,2-6.25,5.55-11.56,11.58-14.77a30.15,30.15,0,0,1,12.53-3.22c2.92-.18,5.86,0,8.88,0v9.85c-2,0-3.92-.15-5.8,0a80.4,80.4,0,0,0-10.88,1.47C156.26,33.52,151.91,38.56,149,45a67.24,67.24,0,0,0-5.22,17c-2.81,17-16.36,23.65-29,23.85-2.27,0-4.53,0-6.9,0v7.41c11.53.54,22.56-.32,30.75-10,3.57-4.21,4.89-9.37,6-14.61.78-3.64,1.47-7.31,2.5-10.88,3.78-13,11.12-19,24.63-20,2.72-.21,5.47,0,8.34,0v10c-2.94.17-5.82.25-8.69.51-10.61.94-18,6.32-22.18,16.15-2.44,5.7-3.82,11.68-5.22,17.67-1,4.32-2.37,8.51-5.3,11.94-4.12,4.83-9.35,8.2-15.61,8.76C114.05,103.67,105,103.65,95.82,104Z"/><path class="cls-1" d="M0,58c6.69,0,13.26,0,19.83,0a86.66,86.66,0,0,1,8.83.35,13.56,13.56,0,0,1,8.58,4.26c4.34,4.62,4.61,12.74-2,16.68a2.55,2.55,0,0,0,.45.32C44.1,83,45,94.72,37.58,100.11a17,17,0,0,1-9.68,3.38c-9.26.17-18.52.05-27.9.05ZM12.29,93.35c4.54,0,8.93,0,13.31,0a6.11,6.11,0,0,0,2.48-.79,3.58,3.58,0,0,0,2.13-3.2A3.38,3.38,0,0,0,28.07,86a11.92,11.92,0,0,0-4-.9c-3.2-.13-6.41,0-9.61,0H12.29Zm0-18.6c4.28,0,8.41.06,12.54,0a3,3,0,0,0,3-2.45,3.26,3.26,0,0,0-2-3.65,6.57,6.57,0,0,0-2.41-.45c-3.15-.05-6.31,0-9.46,0H12.29Z"/><path class="cls-1" d="M250,48c-3.54,0-7,0-10.45-.05-.49,0-1.05-.57-1.42-1q-9.93-11.73-19.81-23.48l-1.58-1.85V47.88H204.85V2.18a52.42,52.42,0,0,0,6.27-.05c2.88-.35,4.7.77,6.52,3,6.59,8,13.41,15.76,20.15,23.61.05.06.18.06.4.13V2.28H250Z"/><path class="cls-1" d="M79.88,87.66c4.19,5.3,8.29,10.47,12.57,15.87-.75.06-1.18.13-1.61.13-3.83,0-7.66,0-11.48,0a2.47,2.47,0,0,1-2.29-1.18c-3.16-4.35-6.4-8.65-9.56-13a2.35,2.35,0,0,0-2.29-1.18c-1.33.1-2.68,0-4.19,0v15.19H48.86V58H72.67a23.81,23.81,0,0,1,9.67,1.9A14.75,14.75,0,0,1,81,87.31ZM61.05,78.32c4.31,0,8.54.17,12.75,0a4.94,4.94,0,0,0,.12-9.88c-4.26-.26-8.54-.07-12.87-.07Z"/><path class="cls-1" d="M186.34,47.83V2.32h12.14V47.83Z"/></svg>