<svg id="Capa_1" data-name="Capa 1" xmlns="http://www.w3.org/2000/svg" viewBox="0 0 118 226"><defs><style>.cls-1{fill:#fff;}</style></defs><path class="cls-1" d="M113.14,112.27a6.88,6.88,0,0,0-3.19-6,7.27,7.27,0,0,0-.14-11.69,6.86,6.86,0,0,0,3.33-6.07,6.74,6.74,0,0,0-3.76-6.26,6.91,6.91,0,0,0,3-5.87c0-3.39-2.18-6.21-5-6.63a7.12,7.12,0,0,0,2.28-5.33c0-3.55-2.4-6.47-5.4-6.68a7.07,7.07,0,0,0,2.23-5.28c0-3.68-2.56-6.69-5.71-6.69h-.05A7.24,7.24,0,0,0,102.45,41c0-3.69-2.58-6.69-5.73-6.69a4.89,4.89,0,0,0-.54,0A7.3,7.3,0,0,0,97.63,30c0-3.68-2.58-6.68-5.73-6.68a5.15,5.15,0,0,0-1.37.19,7.41,7.41,0,0,0,.61-3c0-3.69-2.57-6.69-5.72-6.69a5,5,0,0,0-2.7.8,7.41,7.41,0,0,0,.14-1.5c0-3.69-2.57-6.69-5.71-6.69a5.16,5.16,0,0,0-3.36,1.28C73.43,4.37,71,1.81,68.11,1.81a5.27,5.27,0,0,0-3.85,1.75,5.36,5.36,0,0,0-10-.08A5.52,5.52,0,0,0,49.73.93C46.59.93,44,3.94,44,7.62c0,.15,0,.3,0,.45a5.44,5.44,0,0,0-4.39-2.39c-3.14,0-5.71,3-5.71,6.68A10.54,10.54,0,0,0,34,13.63a4.85,4.85,0,0,0-1.9-.39c-3.15,0-5.73,3-5.73,6.69a7.44,7.44,0,0,0,1.09,3.91,5,5,0,0,0-2.9-.92c-3.15,0-5.71,3-5.71,6.68A7.36,7.36,0,0,0,20,33.49l-.48,0c-3.15,0-5.72,3-5.72,6.68a7.29,7.29,0,0,0,1.35,4.31c-2.73.51-4.82,3.28-4.82,6.6a7,7,0,0,0,2.64,5.63c-3.11,0-5.65,3-5.65,6.68a7,7,0,0,0,2.93,5.84C7.29,69.52,5,72.39,5,75.86A6.92,6.92,0,0,0,8.1,81.8,7.2,7.2,0,0,0,8.35,94a7.18,7.18,0,0,0-.08,12.27,6.94,6.94,0,0,0-3,5.84,6.63,6.63,0,0,0,4.28,6.48,7,7,0,0,0-2.46,5.49,6.6,6.6,0,0,0,4.2,6.44,7.09,7.09,0,0,0-2.1,5.17c0,3.47,2.28,6.34,5.19,6.65a7.3,7.3,0,0,0-1.58,4.61c0,3.6,2.46,6.55,5.53,6.67a7.45,7.45,0,0,0-.86,3.52c0,3.69,2.57,6.69,5.72,6.69a5,5,0,0,0,1.81-.34A7.36,7.36,0,0,0,24,167.33C24,171,26.55,174,29.72,174a4.94,4.94,0,0,0,1.91-.39,7.89,7.89,0,0,0-.41,2.5c0,3.68,2.56,6.68,5.71,6.68a4.85,4.85,0,0,0,2.29-.56c.29,3.38,2.74,6,5.69,6a5.13,5.13,0,0,0,3.2-1.14c.65,2.87,2.88,5,5.54,5a5.61,5.61,0,0,0,4.89-3.2,5.67,5.67,0,0,0,5.05,3.56c2.68,0,4.93-2.17,5.55-5.08A5.49,5.49,0,0,0,73.67,190c3.16,0,5.74-3,5.74-6.68a6.66,6.66,0,0,0-.08-1,5.17,5.17,0,0,0,2.78.85c3.15,0,5.73-3,5.73-6.7a7.31,7.31,0,0,0-.13-1.33,5.08,5.08,0,0,0,2.08.45c3.16,0,5.72-3,5.72-6.68a7.45,7.45,0,0,0-1.18-4.07,3,3,0,0,0,.43,0c3.15,0,5.72-3,5.72-6.68a7.31,7.31,0,0,0-1.42-4.41h.23c3.14,0,5.71-3,5.71-6.68a7.28,7.28,0,0,0-1.56-4.58h.21c3.15,0,5.72-3,5.72-6.68a7.08,7.08,0,0,0-2.36-5.4c2.62-.6,4.61-3.31,4.61-6.56a7.12,7.12,0,0,0-2.26-5.33A6.7,6.7,0,0,0,113.14,112.27ZM59.06,186.34c-26.3,0-47.73-40.43-47.73-90s21.43-90,47.73-90,47.72,40.44,47.72,90S85.34,186.34,59.06,186.34Z"/><path class="cls-1" d="M55.48,30.33H61.2c1,0,1.59,0,1.79-.07a.93.93,0,0,0,.49-.17,1.05,1.05,0,0,0,.38-.55,5.09,5.09,0,0,0,.1-1.12,3.75,3.75,0,0,0-.12-1.1,1,1,0,0,0-.42-.54,1.42,1.42,0,0,0-.52-.12c-.21,0-.78,0-1.71,0H55.48ZM51.41,37.9v-15h9.83c2.3,0,3.69,0,4.15.08a2.81,2.81,0,0,1,1.31.51,2.64,2.64,0,0,1,1,1.43A10.28,10.28,0,0,1,68,27.75a12.44,12.44,0,0,1-.18,2.41,2.4,2.4,0,0,1-.68,1.23,3.16,3.16,0,0,1-1.63.68,2.46,2.46,0,0,1,1.83.83,2,2,0,0,1,.42,1,22.38,22.38,0,0,1,.09,2.56v1.4h-4v-.81a12.48,12.48,0,0,0-.08-1.78,1.87,1.87,0,0,0-.3-.83,1.1,1.1,0,0,0-.63-.33,10.11,10.11,0,0,0-1.65-.07H55.48V37.9Z"/><path class="cls-1" d="M31.06,111.66h4.16c0,.84,0,1.38,0,1.62a8.47,8.47,0,0,1-.46,3.1,3,3,0,0,1-2,1.71,20.37,20.37,0,0,1-5.23.45c-2.6,0-4.46-.06-5.56-.18a5.75,5.75,0,0,1-2.5-.74,2.93,2.93,0,0,1-1.12-1.31,6.89,6.89,0,0,1-.48-2.27c-.05-.78-.09-2.18-.09-4.22s0-3.42.09-4.3a7.29,7.29,0,0,1,.36-2,3.2,3.2,0,0,1,2.3-2.12,33.2,33.2,0,0,1,7-.48,37.46,37.46,0,0,1,3.84.15,5.2,5.2,0,0,1,1.92.57,3.09,3.09,0,0,1,1.32,1.64,10.38,10.38,0,0,1,.37,3.2c0,.07,0,.35,0,.85H30.84a7.41,7.41,0,0,0-.08-1.15,1,1,0,0,0-.23-.48,2.16,2.16,0,0,0-1.21-.38,24.49,24.49,0,0,0-2.94-.11,24.18,24.18,0,0,0-2.71.09,1.94,1.94,0,0,0-1.06.43A2.4,2.4,0,0,0,22.1,107a20.41,20.41,0,0,0-.15,2.83,22.76,22.76,0,0,0,.13,2.75,2.09,2.09,0,0,0,.5,1.15,2.08,2.08,0,0,0,1.13.45,22.61,22.61,0,0,0,2.7.11,31.27,31.27,0,0,0,3.2-.1,1.67,1.67,0,0,0,1.07-.44,3.63,3.63,0,0,0,.38-2"/><polygon class="cls-1" points="85.88 101.22 92.04 101.22 92.04 113.22 100.82 113.22 100.82 117.33 85.88 117.33 85.88 101.22"/><path class="cls-1" d="M86,46.12,59.69,158.23,33.32,46.35Zm6.33-5.87-66.73.38L59,177.84Z"/><path class="cls-1" d="M74.53,61.35l-15,64.81L44.68,61.76l.92-4.42a1.55,1.55,0,0,0,.13-1.05L44,48.6a1.09,1.09,0,0,0-1.35-.9L39,48.85a1.32,1.32,0,0,0-.78,1.58L40,58.12a1.27,1.27,0,0,0,.57.81l2.8,3.23,15.49,67-2.65,11.48,1.3.41,2.05-8.86,2.14,9.27,1.31-.41-2.75-11.89L75.83,61.76l2.81-3.23a1.33,1.33,0,0,0,.57-.81L81,50a1.3,1.3,0,0,0-.77-1.57l-3.61-1.16a1.11,1.11,0,0,0-1.36.91l-1.79,7.69a1.5,1.5,0,0,0,.15,1Z"/><path class="cls-1" d="M90.46,199.93l-1.6,3.46C88.08,205.1,87,206,85.77,206a18.51,18.51,0,0,1-4.29-1l-.65,1.29q6.45,3.63,6.45,8.45a9.35,9.35,0,0,1-1,4.33,12.66,12.66,0,0,1-3.15,3.8L79.41,226l-.71-1.27,2.37-2.06a6.28,6.28,0,0,0,2.06-4.85,6.4,6.4,0,0,0-1.87-4.5,18.56,18.56,0,0,0-3.79-2.67l5.06-10.93a11.3,11.3,0,0,0,4.35.74l1.8-.12a6.54,6.54,0,0,0,1.78-.36M74.4,201.8l-2.19,4.7c-.82,1.73-1.65,3.8-2.51,6.19a26.42,26.42,0,0,0-1.87,7.72l.08,1-5.18,3.53,7.08-18.28a13.57,13.57,0,0,1-3.16.33,7.84,7.84,0,0,1-4.14-.78,1.53,1.53,0,0,1-.61-1.37c0-.87.77-2.11,2.28-3.71l1.35-1.44a3,3,0,0,0,1,1.24,5.62,5.62,0,0,0,3.2.49l4.15-.33ZM54.17,217.14c0-1.74-1.13-3.17-3.41-4.33a6.19,6.19,0,0,0-1.52,3.93,4,4,0,0,0,.75,2.51,2.27,2.27,0,0,0,1.84,1,2,2,0,0,0,1.67-.88,3.57,3.57,0,0,0,.67-2.22m3.92-2.43a5.16,5.16,0,0,1-.88,2.63,14.89,14.89,0,0,1-3.85,4.14L51,223.29a3.58,3.58,0,0,1-2.27.8,3.3,3.3,0,0,1-2.58-1.34A4.89,4.89,0,0,1,45,219.46a7.2,7.2,0,0,1,1.63-4.41,22.25,22.25,0,0,1,2.88-2.89,10.58,10.58,0,0,1-2-1.12,4.67,4.67,0,0,1-1.93-3.71,4.86,4.86,0,0,1,.38-2.11,7.37,7.37,0,0,1,1.37-1.87l2.81-3,.6.82a5,5,0,0,0-1.24,3.14c0,1.91,1.11,3.34,3.31,4.28a4,4,0,0,0,1-2.63,3.29,3.29,0,0,0-.52-1.85,3.59,3.59,0,0,0-1.68-1.26l1.18-1.43a4.33,4.33,0,0,1,1.34-1.26,3.35,3.35,0,0,1,1.57-.63,1.49,1.49,0,0,1,1.46,1,4.31,4.31,0,0,1,.53,2.25,6.45,6.45,0,0,1-1,3.4,20.55,20.55,0,0,1-2.66,3.08,7.3,7.3,0,0,1,3,2.34,5.22,5.22,0,0,1,1,3.14M37.25,219a16,16,0,0,1-.09,2.15l-4.26,3.69v-6.37c0-.53,0-1.44,0-2.72s0-2.07,0-2.72q0-7.22-1.44-7.21l-1.15.26-.28-1,5-4.58a2.1,2.1,0,0,1,.88-.3,1,1,0,0,1,1,.84,10.44,10.44,0,0,1,.25,2.75Z"/></svg>