<svg id="Capa_1" data-name="Capa 1" xmlns="http://www.w3.org/2000/svg" viewBox="0 0 250 114"><defs><style>.cls-1{fill:#fff;}</style></defs><path class="cls-1" d="M47.91,86.07c0-12.72,9.78-21.8,21.87-21.8,7.64,0,13.28,2.82,17,8.45l-5.08,3.64c-2.38-3.7-6.39-6.14-12-6.14-8.84,0-15.1,6.76-15.1,15.85S60.94,102,69.78,102a14.32,14.32,0,0,0,12.59-6.7l5.07,3.57c-3.69,5.63-9.71,9.08-17.66,9.08A21.46,21.46,0,0,1,47.91,86.07Z"/><path class="cls-1" d="M137.81,64.77h26.5v5.82H144.45V87.7h18v5.88h-18v13.79h-6.64Z"/><path class="cls-1" d="M174.15,64.77h27.06v5.82H180.79V87.13h16.86v5.7H180.79v8.71h21.3v5.83H174.15Z"/><path class="cls-1" d="M117.26,95.58c.06,0-6.89-16.68-6.89-16.68l-7,16.68-2.48,5.9-2.41,5.89h-6.7l18.48-43h.37l18.54,43h-7l-2.42-5.89Z"/><path class="cls-1" d="M55.86,34.24V7h6.62V33.87c0,6.74,3.34,9.77,9.47,9.77s9.4-3,9.4-9.77V7H88V34.24c0,10.27-6.93,15.4-16,15.4S55.86,44.51,55.86,34.24Z"/><path class="cls-1" d="M100.15,7h6.62V49.09h-6.62Z"/><path class="cls-1" d="M125.39,21.43V49.09h-6.18V6.4h.49l27,28.27V7h6.18V49.71h-.49Z"/><path class="cls-1" d="M235.71,37.33c.06,0-6.89-16.69-6.89-16.69l-7,16.69-2.48,5.89-2.42,5.89h-6.7l18.48-43h.37l18.55,43h-7l-2.42-5.89Z"/><path class="cls-1" d="M184.72,6.46A21.29,21.29,0,0,0,163,28.05a21.72,21.72,0,0,0,43.43,0A21.29,21.29,0,0,0,184.72,6.46Zm0,37.18h-.1A6.36,6.36,0,0,1,181.73,41a11.51,11.51,0,0,1,.75-10.22,27.88,27.88,0,0,1,3.81-3.95,20.49,20.49,0,0,0,3.42-4.29,9.08,9.08,0,0,1-3.09,5.76A15.52,15.52,0,0,0,183.36,32c-.66,1.28-1.25,3.64-.17,4.83,2.54,2.77,6.92,1.38,8.61-3.3,1.9-5.28.08-11.74-.34-17.12-.6,2.09-3.2,3.78-4.74,5.15-3,2.62-5.42,5.19-7,8.88-1.08,2.56-2.32,8.15,0,11.27a6,6,0,0,0,2.39,1.71c-7.33-1.18-12.28-7.37-12.28-15.37,0-8.91,6.13-15.59,14.85-15.59s14.85,6.68,14.85,15.59S193.44,43.64,184.72,43.64Z"/><path class="cls-1" d="M176.94,39.28c-2.44-6.27,1.18-13.91,2.7-20-1.83,2.68-4.73,6.61-5.22,9.79C174,32,174.31,37.5,176.94,39.28Z"/><path class="cls-1" d="M46.53,45.89l-5-5a21.55,21.55,0,0,0,4.24-13.05A21.26,21.26,0,0,0,24.07,6.27,21.26,21.26,0,0,0,2.38,27.83,21.26,21.26,0,0,0,24.07,49.39a22,22,0,0,0,12.67-3.9l5.1,5.09ZM24.07,43.4c-8.71,0-14.83-6.67-14.83-15.57s6.12-15.57,14.83-15.57S38.9,18.93,38.9,27.83a16.77,16.77,0,0,1-2.11,8.32L32,31.38l-4.69,4.7L32.27,41A14.75,14.75,0,0,1,24.07,43.4Z"/></svg>