<svg id="Capa_1" data-name="Capa 1" xmlns="http://www.w3.org/2000/svg" viewBox="0 0 173 226"><defs><style>.cls-1{fill:#fff;}</style></defs><path class="cls-1" d="M79.57,17.43c4.7,2.17,9.21,4.62,13.65,7.21a278.31,278.31,0,0,1,40,28.53,1.85,1.85,0,0,1,.75,2.09,140.9,140.9,0,0,1-22.5,52,127.22,127.22,0,0,1-28.49,29c-.55.41-1.2,1.22-1.8.85s.09-1.2.25-1.78c3.16-11.37,6.42-22.7,7.71-34.5a188.15,188.15,0,0,0,.23-39.77,171.12,171.12,0,0,0-9.86-42.66A.85.85,0,0,1,79.57,17.43Z"/><path class="cls-1" d="M82.66,107.54a198.12,198.12,0,0,1-1.64,28c-.2,1.53-.41,1.62-1.64.72A125.59,125.59,0,0,1,50,105.61,144,144,0,0,1,30.11,62.17q-1.83-6.63-3-13.41c-.15-.87,0-1.29.88-1.52,13.78-3.44,27.36-3.31,40.72,2C73.08,51,76,53.44,77,58.62c2,10.53,4,21,4.89,31.72Q82.57,98.93,82.66,107.54Z"/><path class="cls-1" d="M73.48,47.25A54.53,54.53,0,0,0,61.11,40a69.23,69.23,0,0,0-34.33-5.06c-1.25.13-1.51-.14-1.63-1.37A157.75,157.75,0,0,1,25.3,4.72c.17-2,.34-2.06,2.33-1.73A210.24,210.24,0,0,1,56,9.84a5,5,0,0,1,3.22,2.48A174,174,0,0,1,73.54,46.39.76.76,0,0,1,73.48,47.25Z"/><path class="cls-1" d="M60.56,201.21a10.13,10.13,0,0,1,8.77-2.72c4.61.71,7,3.26,7.1,7.93.09,3.55,0,7.11,0,10.66,0,2.06.17,2.25,2,1.43,1.31-.57,1.48.43,2,1.07.59.8.14,1.3-.54,1.72a8.24,8.24,0,0,1-3.34,1.26c-3.2.4-5-1.2-5-4.44,0-3.55,0-7.1,0-10.66,0-2.64-.84-4.18-2.62-4.81a5.92,5.92,0,0,0-6.39,1.76,9.08,9.08,0,0,0-1.93,6c-.05,3.5-.07,7,0,10.5,0,1.11-.27,1.5-1.45,1.49-3.36,0-3.36,0-3.36-3.35v-28.7c0-2.24-.24-2.45-2.32-1.65-1.21.47-1.19-.62-1.63-1.1a.85.85,0,0,1,.2-1.48,9.62,9.62,0,0,1,3.62-1.47c2.89-.48,4.84,1.09,4.9,4,.06,3.38,0,6.77,0,10.16Z"/><path class="cls-1" d="M15.13,223.16a29.11,29.11,0,0,1-9.24-1.38c-1.12-.37-1.68-.88-1.48-2.07a1.82,1.82,0,0,0,0-.33c0-2.69,0-2.68,2.46-1.79a20.21,20.21,0,0,0,9.83,1.16c2.92-.4,4.87-2.06,5.24-4.42.42-2.75-.69-4.89-3.47-6.21-1.71-.82-3.54-1.42-5.32-2.09a24.16,24.16,0,0,1-4.89-2.28,8.56,8.56,0,0,1-4-8.56,8.37,8.37,0,0,1,5.49-7.35c5.21-2.13,10.38-1.31,15.5.46.58.2.69.48.52,1.1-.75,2.86-.82,2.9-3.67,2.08a17.6,17.6,0,0,0-7.93-.65c-2.87.5-4.69,2.06-5,4.25-.33,2.62.75,4.41,3.7,5.67,2.51,1.07,5.12,1.89,7.64,2.92,3.36,1.38,5.81,3.59,6.55,7.37a9.64,9.64,0,0,1-6.66,11.29A17.69,17.69,0,0,1,15.13,223.16Z"/><path class="cls-1" d="M146,166.56c.18-4-1.16-5.6-4.91-5.9a11.23,11.23,0,0,0-5.6.94c-1.52.71-1.41-.69-1.81-1.35s-.76-1.45.42-2a16.37,16.37,0,0,1,11.5-.71,6.89,6.89,0,0,1,5.09,6.7c.2,3.55.1,7.1.14,10.66,0,2.08.15,2.21,2.13,1.46,1.11-.42,1.3.38,1.72,1a1.09,1.09,0,0,1-.24,1.69,5.78,5.78,0,0,1-7.8-.18c-.63-.58-.86,0-1.2.22a10.52,10.52,0,0,1-9.49,1.52c-4.25-1.22-6.25-4.41-5.79-8.66a8,8,0,0,1,7.51-7.19A12.34,12.34,0,0,1,146,166.56Zm-5.61,10.88a6.2,6.2,0,0,0,3.79-1.11,4.28,4.28,0,0,0,.63-6.57,7.35,7.35,0,0,0-7.84-.8,4.68,4.68,0,0,0-1.83,5.34C135.72,176.35,137.43,177.42,140.36,177.44Z"/><path class="cls-1" d="M38.25,171c0-1.75,0-3.49,0-5.24,0-2-.47-3.82-2.51-4.57a5.64,5.64,0,0,0-6.11,1.17c-1.91,1.78-2.3,4.17-2.35,6.61-.07,3.33-.07,6.67,0,10,0,1.22-.31,1.61-1.56,1.59-3.17,0-3.17,0-3.17-3.21,0-4.75,0-9.51,0-14.27,0-2.05-.45-2.41-2.32-1.64-1.37.56-1.38-.65-1.87-1.22s0-1.06.53-1.36c1.63-.93,3.27-1.77,5.26-1.32a2.7,2.7,0,0,1,2,1.26c.58,1.2,1,1.07,1.93.26A10.61,10.61,0,0,1,39.34,158a7,7,0,0,1,3.76,6.46c.08,3.66.07,7.32.12,11,0,1.83.33,2.08,2,1.31,1.29-.59,1.46.45,2,1.07s.15,1.2-.46,1.58a8.59,8.59,0,0,1-3.33,1.3c-3.4.44-5.07-1-5.13-4.41,0-1.75,0-3.5,0-5.25Z"/><path class="cls-1" d="M52.6,170.91c0-2.74,0-5.47,0-8.2,0-1.63-.6-2.09-2-1.36s-1.56-.38-2.07-1c-.73-1,.17-1.23.73-1.56A6.93,6.93,0,0,1,54,157.5a3.08,3.08,0,0,1,2.4,1.53c.51,1,.82.88,1.58.22A10.59,10.59,0,0,1,69.5,158c2.67,1.44,3.65,3.83,3.72,6.66.08,3.61,0,7.22.07,10.83,0,1.7.41,2,2,1.26,1.35-.65,1.62.36,2.09,1.09s0,1.3-.71,1.65a14.84,14.84,0,0,1-2.07.95c-3.79,1.2-6.16-.5-6.2-4.43,0-3.28,0-6.56,0-9.84,0-3.12-1-4.64-3-5.19a6,6,0,0,0-6.83,3A10.46,10.46,0,0,0,57.35,169c0,3.33-.05,6.67,0,10,0,1.1-.24,1.54-1.45,1.54-3.3,0-3.3,0-3.31-3.28Z"/><path class="cls-1" d="M102.86,169c0,4.41-1.28,8.29-5.41,10.51a12.82,12.82,0,0,1-13.27-.34A9.2,9.2,0,0,1,81.13,176c-4.27-6.71-1.1-16.71,6.12-18.58C95.7,155.22,103,159.7,102.86,169Zm-5,0a9.89,9.89,0,0,0-.75-4.33,6.06,6.06,0,0,0-5.33-4,5.89,5.89,0,0,0-6.08,3,10.55,10.55,0,0,0-.07,10.51,5.86,5.86,0,0,0,6,3.19,6.09,6.09,0,0,0,5.47-4.06A9.84,9.84,0,0,0,97.85,169Z"/><path class="cls-1" d="M122.08,222.87c-7.13,0-11.77-4.59-11.81-11.78,0-7.55,4.55-12.42,11.75-12.44,7,0,11.82,4.86,11.84,12C133.89,218.14,129.35,222.83,122.08,222.87Zm-6.84-12.12a11.42,11.42,0,0,0,1,4.61,6.38,6.38,0,0,0,11.49.37,10.81,10.81,0,0,0,0-9.93,5.81,5.81,0,0,0-5.72-3.38,5.92,5.92,0,0,0-5.69,3.72A11.55,11.55,0,0,0,115.24,210.75Z"/><path class="cls-1" d="M106.16,210.9c-.07,7.51-4.57,12-11.93,12-7.14-.06-11.65-4.78-11.59-12.15s4.76-12.14,11.94-12.06S106.22,203.55,106.16,210.9Zm-5.06-.09a9.84,9.84,0,0,0-.79-4.5,6,6,0,0,0-5.09-3.86,5.82,5.82,0,0,0-6,2.76,10.39,10.39,0,0,0-.18,10.9c1.32,2.44,3.55,3.25,6.24,3a6,6,0,0,0,5.21-4.13A9.89,9.89,0,0,0,101.1,210.81Z"/><path class="cls-1" d="M159.69,222.88a18,18,0,0,1-7.66-1.57c-1-.46-1.72-3.44-1-4.28.48-.6.89,0,1.26.18a13.6,13.6,0,0,0,7.7,1.86,9,9,0,0,0,1.92-.37,2.87,2.87,0,0,0,2.19-2.75,2.56,2.56,0,0,0-2-2.53c-1.86-.63-3.75-1.16-5.61-1.77-3.93-1.28-5.57-3.18-5.42-6.21s2.54-5.61,6.23-6.44a15.84,15.84,0,0,1,9.73,1.25c1.28.54.72,1.26.36,1.95s-.32,2-1.83,1.3a12.4,12.4,0,0,0-6.39-1.08,4.47,4.47,0,0,0-2.46.79,2.18,2.18,0,0,0,.31,3.86,24,24,0,0,0,5.42,1.77c2.51.71,5,1.55,6,4.34,1.48,4.13-1.06,8.36-5.64,9.38A11.44,11.44,0,0,1,159.69,222.88Z"/><path class="cls-1" d="M117.47,174.67c1.08-2.48,2.16-4.92,3.21-7.36,1.3-3,2.6-6,3.84-9.05.37-.93.77-1.08,1.72-.74,2.9,1,3,1,1.71,3.82-2.63,6-5.32,12-7.92,18a1.82,1.82,0,0,1-2,1.24c-3.36,0-3.41,0-4.65-3.07-1.9-4.71-3.72-9.45-5.57-14.18-.58-1.51-1.24-2.7-3.22-1.69-1,.52-1-.72-1.39-1.18s-.41-.9.14-1.38c3.13-2.79,7.23-1.91,8.75,2s3,8,4.46,12C116.78,173.56,116.79,174.21,117.47,174.67Z"/><path class="cls-1" d="M12.14,163.53c0,4,0,8,0,12,0,1.08.3,1.52,1.37,1.34,1.82-.29,1.46,1,1.56,2.05.11,1.3-.34,1.73-1.66,1.67-2.46-.1-4.93-.1-7.39,0-1.36.06-1.58-.58-1.45-1.67.1-.92-.48-2.3,1.35-2,1.28.18,1.55-.42,1.54-1.6q-.07-11.81,0-23.63c0-1.2-.28-1.77-1.54-1.57-1.85.29-1.26-1.08-1.35-2s0-1.75,1.41-1.69c2.62.11,5.25.09,7.87,0,1.49,0,1.22.93,1.18,1.75s.46,2.13-1.16,1.9-1.76.5-1.73,1.83C12.19,155.76,12.14,159.64,12.14,163.53Z"/><path class="cls-1" d="M143.57,202.76c0,4.76,0,9.52,0,14.27,0,2,.35,2.25,2.07,1.45,1.12-.52,1.29.29,1.71.87s.58,1.27-.22,1.81a7.65,7.65,0,0,1-3.78,1.43c-2.6.18-4-1-4.33-3.57a22.86,22.86,0,0,1-.08-2.62q0-13.12,0-26.25c0-2.09-.2-2.27-2.14-1.49-.84.33-1.1-.08-1.35-.65s-1-1.17-.13-1.84a6.94,6.94,0,0,1,5-1.57c2.11.28,3.2,1.67,3.21,4.05C143.59,193.36,143.57,198.06,143.57,202.76Z"/><path class="cls-1" d="M42.49,222.94c-8-.06-12.67-5.36-12-13.78.53-6.75,7-11.45,14.14-10.3a32.52,32.52,0,0,1,4.58,1.22c1,.31,1.2.78.68,1.67a5.76,5.76,0,0,0-.53,1.19c-.27.92-.77,1-1.6.65a12.1,12.1,0,0,0-4.8-.92c-4.07,0-6.61,2-7.39,6a10.5,10.5,0,0,0,.65,6.42c1.39,3.15,4.57,4.56,8.72,3.87a12.73,12.73,0,0,0,4-1.32c.86-.47,1.16-.17,1.23.74.25,2.76.11,3-2.54,3.79a15.26,15.26,0,0,1-2.23.48C44.45,222.76,43.47,222.83,42.49,222.94Z"/></svg>