<svg id="Capa_1" data-name="Capa 1" xmlns="http://www.w3.org/2000/svg" xmlns:xlink="http://www.w3.org/1999/xlink" viewBox="0 0 250 88"><defs><style>.cls-1{fill:#fff;}.cls-2{clip-path:url(#clip-path);}.cls-3{clip-path:url(#clip-path-2);}.cls-4{clip-path:url(#clip-path-3);}.cls-5{clip-path:url(#clip-path-4);}.cls-6{clip-path:url(#clip-path-5);}.cls-7{clip-path:url(#clip-path-7);}.cls-8{clip-path:url(#clip-path-9);}.cls-9{clip-path:url(#clip-path-11);}.cls-10{clip-path:url(#clip-path-13);}</style><clipPath id="clip-path"><polygon class="cls-1" points="4.48 -24.75 4.47 -15.66 86.46 -15.53 86.47 -24.63 60.3 -63.31 29.5 -63.49 4.48 -24.75"/></clipPath><clipPath id="clip-path-2"><path class="cls-1" d="M165.94,45.19c-.05,2.11-.12,2.61-.43,3.29a7.86,7.86,0,0,1-5.31,3.92c-2.41.5-5.3-.15-6.26-1.42a4.28,4.28,0,0,1,.85-5.77c1.13-.76,2.28-1.15,6-2.08,1.79-.46,3.69-1,4.19-1.23l.91-.41S166,43.82,165.94,45.19ZM158.1,24.46c-6.58.61-11,4.16-11.7,9.51a1,1,0,0,0,.85,1.1h5.87a1,1,0,0,0,1-.82l0-.14c.58-2.3,1.94-3.19,4.86-3.5,2.62-.25,5.07.38,6,1.56a3.39,3.39,0,0,1,.37,3.59c-.49,1-2.24,1.52-7.19,2.31-4,.63-6.07,1.18-8.06,2.14a8.84,8.84,0,0,0-5.32,9.27A9,9,0,0,0,147.89,56a13.21,13.21,0,0,0,4.94,2.26,21.92,21.92,0,0,0,6.86,0,9.59,9.59,0,0,0,5.62-3.39,2.25,2.25,0,0,1,.51-.62c.07,0,.15.4.22.88a11.91,11.91,0,0,0,.46,1.8l.1.25a1,1,0,0,0,1,.67h5.9a1,1,0,0,0,1-1v-.08c0-.46-.09-.5-.11-.95s-.19-4.38-.19-9.85c0-5-.09-10-.17-11-.41-4.7-2.43-7.75-6.13-9.33A23.68,23.68,0,0,0,158.1,24.46Z"/></clipPath><clipPath id="clip-path-3"><rect class="cls-1" x="-103.28" y="-95.69" width="451.1" height="507.74"/></clipPath><clipPath id="clip-path-4"><path class="cls-1" d="M195.16,24.56a9.54,9.54,0,0,0-5,2.71c-.65.66-1.41,1.49-1.66,1.81l-.47.6V26.16a1,1,0,0,0-1-1h-6.51a1,1,0,0,0-1,1V56.84a1,1,0,0,0,1,1h6.67a1,1,0,0,0,1-1V48.05c0-10.69,0-11.1,1-12.85a7,7,0,0,1,2.91-2.81,4.61,4.61,0,0,1,2.69-.48,5.09,5.09,0,0,1,2.6.41,5.25,5.25,0,0,1,3,4.15c.11.67.17,5.09.17,11.24v9.13a1,1,0,0,0,1,1h6.52a1,1,0,0,0,1-1h0l0-11.1,0-10.38v-.9a9.85,9.85,0,0,0-3.43-7,8.54,8.54,0,0,0-2.66-2A12.77,12.77,0,0,0,195.16,24.56Z"/></clipPath><clipPath id="clip-path-5"><path class="cls-1" d="M231.76,31.05c3,.62,5.06,2.38,6.1,6a16.84,16.84,0,0,1,.44,4.45,12.77,12.77,0,0,1-1.4,6.37,7.21,7.21,0,0,1-5.7,4.18,7.76,7.76,0,0,1-6.4-1.75c-2.25-2.07-3.41-6.08-3-10.35A11.36,11.36,0,0,1,223,35.3,7.41,7.41,0,0,1,231.76,31.05Zm-5.06-6.49a17,17,0,0,0-8.92,4.63c-5.91,5.89-6.53,16.38-1.36,23.15,3.51,4.61,9,6.89,15.34,6.35a16.39,16.39,0,0,0,14.71-12.54,20.11,20.11,0,0,0,0-9.22,16.59,16.59,0,0,0-8.68-10.88A18.92,18.92,0,0,0,226.7,24.56Z"/></clipPath><clipPath id="clip-path-7"><path class="cls-1" d="M117.35,33.62V56.84a1,1,0,0,0,1,1h6.67a1,1,0,0,0,1-1V13.3a1,1,0,0,0-1-1h-6.67a1,1,0,0,0-1,1Z"/></clipPath><clipPath id="clip-path-9"><path class="cls-1" d="M131.9,33.62V56.84a1,1,0,0,0,1,1h6.68a1,1,0,0,0,1-1V3a1,1,0,0,0-1-1h-6.68a1,1,0,0,0-1,1Z"/></clipPath><clipPath id="clip-path-11"><path class="cls-1" d="M98.9,31.16a6.6,6.6,0,0,1,5,5,6,6,0,0,1,.24,1.32V38H97c-5.84,0-7.19,0-7.19-.22a10.82,10.82,0,0,1,2.11-4.66C93.35,31.43,96.3,30.61,98.9,31.16Zm-4.61-6.62A15.93,15.93,0,0,0,81.56,37.1,21.4,21.4,0,0,0,82,47.69c2.48,7.63,9,11.71,17.73,11,5.17-.41,9.68-3.15,11.75-7.14a16,16,0,0,0,.83-2.12h0a1,1,0,0,0-.66-1.3,1.13,1.13,0,0,0-.32,0H104.9a1,1,0,0,0-1,.65l0,.1a5.29,5.29,0,0,1-3.58,3,10.7,10.7,0,0,1-2.52.25A6.94,6.94,0,0,1,92,49.7a10.14,10.14,0,0,1-2.09-4.13c-.17-.71-.32-1.36-.32-1.44S94.94,44,101.47,44h10.74a1,1,0,0,0,1-1v-.05l0-.94c-.39-7.59-3.52-13.37-8.69-16.06A17.39,17.39,0,0,0,94.29,24.54Z"/></clipPath><clipPath id="clip-path-13"><path class="cls-1" d="M75.6,25.07a14.88,14.88,0,0,0-1.53.53,11.7,11.7,0,0,0-3.5,3.53l-.9,1.37,0-2.69,0-1.66a1,1,0,0,0-1-1H62.23a1,1,0,0,0-1,1V56.84a1,1,0,0,0,1,1h6.66a1,1,0,0,0,1-1l0-8.28,0-9.29.48-1.37A7.52,7.52,0,0,1,77,32.66,10,10,0,0,1,79,32.58a.71.71,0,0,0,.81-.61.34.34,0,0,0,0-.1V25.43a.51.51,0,0,0-.42-.51l-.11,0A11.22,11.22,0,0,0,75.6,25.07Z"/></clipPath></defs><polygon class="cls-1" points="4.48 -24.75 4.47 -15.66 86.46 -15.53 86.47 -24.63 60.3 -63.31 29.5 -63.49 4.48 -24.75"/><g class="cls-2"><polygon class="cls-1" points="41.63 23.25 39.63 21.26 97.8 -36.74 99.79 -34.75 41.63 23.25"/><polygon class="cls-1" points="45.63 27.23 43.63 25.24 101.79 -32.76 103.79 -30.77 45.63 27.23"/><polygon class="cls-1" points="37.63 19.26 35.63 17.27 93.8 -40.73 95.8 -38.74 37.63 19.26"/><polygon class="cls-1" points="33.63 15.28 31.64 13.28 89.8 -44.72 91.8 -42.72 33.63 15.28"/><polygon class="cls-1" points="29.64 11.29 27.64 9.3 85.8 -48.7 87.8 -46.71 29.64 11.29"/><polygon class="cls-1" points="25.64 7.31 23.64 5.31 81.81 -52.69 83.81 -50.69 25.64 7.31"/><polygon class="cls-1" points="21.64 3.32 19.64 1.33 77.81 -56.67 79.81 -54.68 21.64 3.32"/></g><path class="cls-1" d="M58.06,33.13l-2.73-6.25c-.09-.19-.21-.21-.42-.12l-3.29,1.42-.15.09L48.15,29.7l3,6.92,6.67-2.92C58.16,33.55,58.21,33.47,58.06,33.13Z"/><path class="cls-1" d="M165.94,45.19c-.05,2.11-.12,2.61-.43,3.29a7.86,7.86,0,0,1-5.31,3.92c-2.41.5-5.3-.15-6.26-1.42a4.28,4.28,0,0,1,.85-5.77c1.13-.76,2.28-1.15,6-2.08,1.79-.46,3.69-1,4.19-1.23l.91-.41S166,43.82,165.94,45.19ZM158.1,24.46c-6.58.61-11,4.16-11.7,9.51a1,1,0,0,0,.85,1.1h5.87a1,1,0,0,0,1-.82l0-.14c.58-2.3,1.94-3.19,4.86-3.5,2.62-.25,5.07.38,6,1.56a3.39,3.39,0,0,1,.37,3.59c-.49,1-2.24,1.52-7.19,2.31-4,.63-6.07,1.18-8.06,2.14a8.84,8.84,0,0,0-5.32,9.27A9,9,0,0,0,147.89,56a13.21,13.21,0,0,0,4.94,2.26,21.92,21.92,0,0,0,6.86,0,9.59,9.59,0,0,0,5.62-3.39,2.25,2.25,0,0,1,.51-.62c.07,0,.15.4.22.88a11.91,11.91,0,0,0,.46,1.8l.1.25a1,1,0,0,0,1,.67h5.9a1,1,0,0,0,1-1v-.08c0-.46-.09-.5-.11-.95s-.19-4.38-.19-9.85c0-5-.09-10-.17-11-.41-4.7-2.43-7.75-6.13-9.33A23.68,23.68,0,0,0,158.1,24.46Z"/><g class="cls-3"><rect class="cls-1" x="-103.28" y="-95.69" width="451.1" height="507.74"/><g class="cls-4"><rect class="cls-1" x="142.19" y="21.79" width="34.87" height="39.34"/></g></g><path class="cls-1" d="M195.16,24.56a9.54,9.54,0,0,0-5,2.71c-.65.66-1.41,1.49-1.66,1.81l-.47.6V26.16a1,1,0,0,0-1-1h-6.51a1,1,0,0,0-1,1V56.84a1,1,0,0,0,1,1h6.67a1,1,0,0,0,1-1V48.05c0-10.69,0-11.1,1-12.85a7,7,0,0,1,2.91-2.81,4.61,4.61,0,0,1,2.69-.48,5.09,5.09,0,0,1,2.6.41,5.25,5.25,0,0,1,3,4.15c.11.67.17,5.09.17,11.24v9.13a1,1,0,0,0,1,1h6.52a1,1,0,0,0,1-1h0l0-11.1,0-10.38v-.9a9.85,9.85,0,0,0-3.43-7,8.54,8.54,0,0,0-2.66-2A12.77,12.77,0,0,0,195.16,24.56Z"/><g class="cls-5"><rect class="cls-1" x="-103.28" y="-95.69" width="451.1" height="507.74"/></g><path class="cls-1" d="M231.76,31.05c3,.62,5.06,2.38,6.1,6a16.84,16.84,0,0,1,.44,4.45,12.77,12.77,0,0,1-1.4,6.37,7.21,7.21,0,0,1-5.7,4.18,7.76,7.76,0,0,1-6.4-1.75c-2.25-2.07-3.41-6.08-3-10.35A11.36,11.36,0,0,1,223,35.3,7.41,7.41,0,0,1,231.76,31.05Zm-5.06-6.49a17,17,0,0,0-8.92,4.63c-5.91,5.89-6.53,16.38-1.36,23.15,3.51,4.61,9,6.89,15.34,6.35a16.39,16.39,0,0,0,14.71-12.54,20.11,20.11,0,0,0,0-9.22,16.59,16.59,0,0,0-8.68-10.88A18.92,18.92,0,0,0,226.7,24.56Z"/><g class="cls-6"><rect class="cls-1" x="-103.28" y="-95.69" width="451.1" height="507.74"/><g class="cls-4"><rect class="cls-1" x="210.34" y="21.72" width="39.23" height="39.62"/></g></g><polygon class="cls-1" points="40.43 41.35 37.45 34.44 17.48 43.12 13.07 53.2 40.43 41.35"/><path class="cls-1" d="M57.67,56.18,34.13,2.56a1,1,0,0,0-.36-.47,1.5,1.5,0,0,0-.64-.16H25.29a1.16,1.16,0,0,0-.52.08.81.81,0,0,0-.27.28L.9,56.09h0a1.39,1.39,0,0,0-.09.46A1.29,1.29,0,0,0,2.1,57.84a1.34,1.34,0,0,0,.49-.1h0L9.84,54.6,29.26,10.21,49.65,56.62a1.53,1.53,0,0,0,1.65,1h5.81C57.76,57.59,58,57,57.67,56.18Z"/><path class="cls-1" d="M117.35,33.62V56.84a1,1,0,0,0,1,1h6.67a1,1,0,0,0,1-1V13.3a1,1,0,0,0-1-1h-6.67a1,1,0,0,0-1,1Z"/><g class="cls-7"><rect class="cls-1" x="-103.28" y="-95.69" width="451.1" height="507.74"/><g class="cls-4"><rect class="cls-1" x="114.78" y="9.69" width="13.88" height="50.75"/></g></g><path class="cls-1" d="M131.9,33.62V56.84a1,1,0,0,0,1,1h6.68a1,1,0,0,0,1-1V3a1,1,0,0,0-1-1h-6.68a1,1,0,0,0-1,1Z"/><g class="cls-8"><rect class="cls-1" x="-103.28" y="-95.69" width="451.1" height="507.74"/><g class="cls-4"><rect class="cls-1" x="129.33" y="-0.65" width="13.88" height="61.1"/></g></g><path class="cls-1" d="M98.9,31.16a6.6,6.6,0,0,1,5,5,6,6,0,0,1,.24,1.32V38H97c-5.84,0-7.19,0-7.19-.22a10.82,10.82,0,0,1,2.11-4.66C93.35,31.43,96.3,30.61,98.9,31.16Zm-4.61-6.62A15.93,15.93,0,0,0,81.56,37.1,21.4,21.4,0,0,0,82,47.69c2.48,7.63,9,11.71,17.73,11,5.17-.41,9.68-3.15,11.75-7.14a16,16,0,0,0,.83-2.12h0a1,1,0,0,0-.66-1.3,1.13,1.13,0,0,0-.32,0H104.9a1,1,0,0,0-1,.65l0,.1a5.29,5.29,0,0,1-3.58,3,10.7,10.7,0,0,1-2.52.25A6.94,6.94,0,0,1,92,49.7a10.14,10.14,0,0,1-2.09-4.13c-.17-.71-.32-1.36-.32-1.44S94.94,44,101.47,44h10.74a1,1,0,0,0,1-1v-.05l0-.94c-.39-7.59-3.52-13.37-8.69-16.06A17.39,17.39,0,0,0,94.29,24.54Z"/><g class="cls-9"><rect class="cls-1" x="-103.28" y="-95.69" width="451.1" height="507.74"/><g class="cls-4"><rect class="cls-1" x="78.53" y="21.73" width="37.29" height="39.63"/></g></g><path class="cls-1" d="M75.6,25.07a14.88,14.88,0,0,0-1.53.53,11.7,11.7,0,0,0-3.5,3.53l-.9,1.37,0-2.69,0-1.66a1,1,0,0,0-1-1H62.23a1,1,0,0,0-1,1V56.84a1,1,0,0,0,1,1h6.66a1,1,0,0,0,1-1l0-8.28,0-9.29.48-1.37A7.52,7.52,0,0,1,77,32.66,10,10,0,0,1,79,32.58a.71.71,0,0,0,.81-.61.34.34,0,0,0,0-.1V25.43a.51.51,0,0,0-.42-.51l-.11,0A11.22,11.22,0,0,0,75.6,25.07Z"/><g class="cls-10"><rect class="cls-1" x="-103.28" y="-95.69" width="451.1" height="507.74"/><g class="cls-4"><rect class="cls-1" x="58.63" y="22.24" width="23.81" height="38.21"/></g></g><path class="cls-1" d="M6.85,79a1.83,1.83,0,0,1-.44,1.16,2,2,0,0,1-1.48.62,2.08,2.08,0,0,1-1.48-.62,3.83,3.83,0,0,1-.7-2.73,3.81,3.81,0,0,1,.7-2.73A2.08,2.08,0,0,1,4.93,74a2,2,0,0,1,1.46.59,1.77,1.77,0,0,1,.45,1.12v.15H8.28v-.16a3.11,3.11,0,0,0-.91-2.09,3.49,3.49,0,0,0-2.43-.94,3.53,3.53,0,0,0-2.47,1c-.95.93-1.14,2.15-1.14,3.71s.19,2.78,1.14,3.7a3.49,3.49,0,0,0,2.47,1,3.51,3.51,0,0,0,2.45-1h0A3.22,3.22,0,0,0,8.28,79v-.15H6.85Z"/><path class="cls-1" d="M16.34,72.7a3.48,3.48,0,0,0-2.46,1,4.89,4.89,0,0,0-1.17,3.71,4.88,4.88,0,0,0,1.17,3.7,3.58,3.58,0,0,0,4.92,0A4.88,4.88,0,0,0,20,77.38a4.89,4.89,0,0,0-1.16-3.71A3.5,3.5,0,0,0,16.34,72.7Zm2.19,4.68a3.87,3.87,0,0,1-.71,2.73,2.13,2.13,0,0,1-3,0,3.87,3.87,0,0,1-.71-2.73,3.86,3.86,0,0,1,.71-2.73A2,2,0,0,1,16.34,74a2.07,2.07,0,0,1,1.48.61A3.91,3.91,0,0,1,18.53,77.38Z"/><polygon class="cls-1" points="30.66 79.52 26.65 72.93 26.6 72.85 25.14 72.85 25.14 81.89 26.5 81.89 26.5 75.25 30.55 81.89 32.02 81.89 32.02 72.85 30.66 72.85 30.66 79.52"/><path class="cls-1" d="M41.49,76.71,41,76.64l-1-.15c-.35,0-1.18-.25-1.18-1.08a1.27,1.27,0,0,1,.32-.85,2.15,2.15,0,0,1,2.87,0,1.72,1.72,0,0,1,.4,1v.15h1.45v-.16a2.76,2.76,0,0,0-.88-2,3.49,3.49,0,0,0-2.37-.87,3.39,3.39,0,0,0-2.4.9,2.56,2.56,0,0,0-.81,1.83c0,1.33.9,2.23,2.46,2.47l.73.11.65.1c.86.13,1.34.58,1.34,1.25a1.18,1.18,0,0,1-.4.92,2.14,2.14,0,0,1-1.52.46,2.37,2.37,0,0,1-1.58-.5A1.86,1.86,0,0,1,38.53,79v-.15H37.09V79a3,3,0,0,0,1,2.2,3.76,3.76,0,0,0,2.61.88,3.68,3.68,0,0,0,2.58-.92A2.42,2.42,0,0,0,44,79.34,2.64,2.64,0,0,0,41.49,76.71Z"/><path class="cls-1" d="M54.22,78.56c0,1.46-.64,2.17-1.95,2.17s-1.94-.71-1.94-2.17V72.85h-1.4v5.69c0,2.2,1.25,3.51,3.34,3.51s3.34-1.31,3.34-3.51V72.85H54.22Z"/><polygon class="cls-1" points="62.51 72.85 61.12 72.85 61.12 81.89 66.72 81.89 66.72 80.57 62.51 80.57 62.51 72.85"/><polygon class="cls-1" points="70.33 74.18 72.94 74.18 72.94 81.89 74.34 81.89 74.34 74.18 76.94 74.18 76.94 72.85 70.33 72.85 70.33 74.18"/><path class="cls-1" d="M84.67,72.7a3.48,3.48,0,0,0-2.46,1A4.85,4.85,0,0,0,81,77.38a4.84,4.84,0,0,0,1.17,3.7,3.58,3.58,0,0,0,4.92,0,4.88,4.88,0,0,0,1.16-3.7,4.89,4.89,0,0,0-1.16-3.71A3.5,3.5,0,0,0,84.67,72.7Zm0,8a2.07,2.07,0,0,1-1.48-.6,3.87,3.87,0,0,1-.71-2.73,3.86,3.86,0,0,1,.71-2.73A2,2,0,0,1,84.67,74a2.07,2.07,0,0,1,1.48.61,3.91,3.91,0,0,1,.71,2.73,3.92,3.92,0,0,1-.71,2.73A2.1,2.1,0,0,1,84.67,80.71Z"/><path class="cls-1" d="M99.39,77.38a2.48,2.48,0,0,0,.71-1.83,2.57,2.57,0,0,0-.74-1.87A3.09,3.09,0,0,0,97,72.85H93.46v9h1.4V78.26H97l1.65,3.63h1.54L98.44,78A2.46,2.46,0,0,0,99.39,77.38Zm-.73-1.83q0,1.38-1.62,1.38H94.86V74.17H97Q98.66,74.17,98.66,75.55Z"/><polygon class="cls-1" points="104.43 71.83 104.95 72.65 107.49 71.29 106.77 70.14 104.43 71.83"/><rect class="cls-1" x="105.21" y="72.85" width="1.42" height="9.04"/><path class="cls-1" d="M114.37,72.85l-3.19,9h1.43l.7-2.07h3.58l.72,2.07h1.45l-3.2-9Zm2.06,5.63h-2.67l1.33-3.91Z"/><path class="cls-1" d="M133.43,72.85H130v9h1.39V78.5h2a3.07,3.07,0,0,0,2.25-.77,3.14,3.14,0,0,0,.07-4A3.07,3.07,0,0,0,133.43,72.85Zm-2,1.3h2c.74,0,1.63.26,1.63,1.49,0,1.07-.51,1.56-1.61,1.56h-2Z"/><path class="cls-1" d="M143.34,72.85l-3.19,9h1.43l.7-2.07h3.59l.71,2.07H148l-3.2-9Zm2.06,5.63h-2.67l1.33-3.91Z"/><path class="cls-1" d="M158.51,77.38a2.46,2.46,0,0,0,.71-1.83,2.6,2.6,0,0,0-.73-1.87,3.11,3.11,0,0,0-2.33-.83h-3.57v9H154V78.26h2.17l1.65,3.63h1.54L157.56,78A2.39,2.39,0,0,0,158.51,77.38Zm-.72-1.83c0,.92-.55,1.38-1.63,1.38H154V74.17h2.18C157.24,74.17,157.79,74.63,157.79,75.55Z"/><path class="cls-1" d="M166.32,72.85l-3.18,9h1.42l.71-2.07h3.58l.71,2.07H171l-3.2-9Zm2.07,5.63h-2.68L167,74.57Z"/><path class="cls-1" d="M186.94,79a1.83,1.83,0,0,1-.44,1.16,2,2,0,0,1-1.48.62,2.08,2.08,0,0,1-1.48-.62,3.88,3.88,0,0,1-.7-2.73,3.92,3.92,0,0,1,.7-2.73A2.08,2.08,0,0,1,185,74a2,2,0,0,1,1.47.59,1.71,1.71,0,0,1,.44,1.12v.15h1.44v-.16a3.1,3.1,0,0,0-.9-2.09A3.49,3.49,0,0,0,185,72.7a3.56,3.56,0,0,0-2.47,1,4.82,4.82,0,0,0-1.14,3.71,4.78,4.78,0,0,0,1.14,3.7,3.53,3.53,0,0,0,2.47,1,3.49,3.49,0,0,0,2.45-1h0a3.19,3.19,0,0,0,.91-2.12v-.15H187Z"/><path class="cls-1" d="M199.31,77.38a2.48,2.48,0,0,0,.71-1.83,2.6,2.6,0,0,0-.73-1.87,3.11,3.11,0,0,0-2.33-.83h-3.57v9h1.39V78.26H197l1.65,3.63h1.54L198.36,78A2.39,2.39,0,0,0,199.31,77.38Zm-.72-1.83c0,.92-.55,1.38-1.63,1.38h-2.18V74.17H197C198,74.17,198.59,74.63,198.59,75.55Z"/><polygon class="cls-1" points="205.13 81.89 211.27 81.89 211.27 80.58 206.53 80.58 206.53 77.86 210.69 77.86 210.69 76.53 206.53 76.53 206.53 74.17 211.27 74.17 211.27 72.85 205.13 72.85 205.13 81.89"/><path class="cls-1" d="M221.37,79a1.83,1.83,0,0,1-.44,1.16,2,2,0,0,1-1.48.62,2.08,2.08,0,0,1-1.48-.62,3.88,3.88,0,0,1-.7-2.73,3.92,3.92,0,0,1,.7-2.73,2.08,2.08,0,0,1,1.48-.62,2,2,0,0,1,1.47.59,1.71,1.71,0,0,1,.44,1.12v.15h1.44v-.16a3.1,3.1,0,0,0-.9-2.09,3.49,3.49,0,0,0-2.44-.94,3.56,3.56,0,0,0-2.47,1c-.95.93-1.14,2.15-1.14,3.71s.19,2.78,1.14,3.7a3.53,3.53,0,0,0,2.47,1,3.49,3.49,0,0,0,2.45-1h0a3.13,3.13,0,0,0,.9-2.12v-.15h-1.43Z"/><polygon class="cls-1" points="227.82 81.89 233.96 81.89 233.96 80.58 229.21 80.58 229.21 77.86 233.38 77.86 233.38 76.53 229.21 76.53 229.21 74.17 233.96 74.17 233.96 72.85 227.82 72.85 227.82 81.89"/><path class="cls-1" d="M244.08,78a2.47,2.47,0,0,0,1.66-2.43,2.6,2.6,0,0,0-.73-1.87,3.13,3.13,0,0,0-2.33-.83h-3.57v9h1.39V78.26h2.17l1.65,3.63h1.54Zm.22-2.43q0,1.38-1.62,1.38H240.5V74.17h2.18Q244.3,74.17,244.3,75.55Z"/></svg>