<svg id="Capa_1" data-name="Capa 1" xmlns="http://www.w3.org/2000/svg" viewBox="0 0 250 102"><defs><style>.cls-1{fill:#fff;}</style></defs><path class="cls-1" d="M14,29.84c0,1.12-1.81,1.53-3.81,1.53a20.67,20.67,0,0,1-7.63-1.46v5.76a38.07,38.07,0,0,0,9.15,1c4.92,0,10.8-1.49,10.8-7.45,0-8.57-11.66-5.83-11.66-8.73,0-1.43,2.32-1.46,3.65-1.46a20,20,0,0,1,6.58,1.11v-5.7a37.55,37.55,0,0,0-7.34-.77c-5.05,0-11.4,1.09-11.4,7.2C2.31,29.56,14,26.85,14,29.84m21.91,6.88c6.7,0,11.12-2.35,11.12-9.55V14.11H38.68V27.33c0,2.16-.48,3.66-2.7,3.66-2,0-2.64-1.59-2.64-3.7V14.11H24.83v13.5C24.83,34.18,29.69,36.72,35.88,36.72ZM61,29.84c0,1.12-1.81,1.53-3.82,1.53a20.66,20.66,0,0,1-7.62-1.46v5.76a38.07,38.07,0,0,0,9.15,1c4.92,0,10.8-1.49,10.8-7.45,0-8.57-11.66-5.83-11.66-8.73,0-1.43,2.32-1.46,3.65-1.46a20,20,0,0,1,6.58,1.11v-5.7a37.63,37.63,0,0,0-7.34-.77c-5,0-11.4,1.09-11.4,7.2C49.35,29.56,61,26.85,61,29.84Zm16.16,6.5h8.51V20.67h7.5V14.11H69.68v6.56h7.49Zm21.34,0,1.37-4.81h7.18l1.46,4.81h8.92l-7.91-22.23H97.82L90,36.34Zm5-17.45h.07L106,26.18h-4.92Zm15.72,17.45h8.51V14.11h-8.51Zm42.45,0L163,31.53h7.17l1.46,4.81h8.93l-7.91-22.23H168.4a106.45,106.45,0,0,1,8.66-9.95,3.32,3.32,0,0,0-2.53.39A158.88,158.88,0,0,0,155,22V14.11h-7.31V29.78h-.06l-4.1-15.67H130.78V36.34h7.31V20.22h.06l4.32,16.12h.45c-9.83,13.15-14,23.06-14,23.06-3.53-5.89-13.14-14.31-13.14-14.31l-5.38,7.27v-.08c0-7-4.87-9.69-12.76-9.69H77.13V79H89.8V66.61h2.84c1.56,0,2.84.21,3.6,1.88,1,2.19,1.18,7.87,1.74,10.47h13.2c-1.33-3.54-1.18-9.17-3.12-13A7.94,7.94,0,0,0,102.48,62v-.11a12.84,12.84,0,0,0,4.42-2,175.75,175.75,0,0,1,23.76,23.77c4.8-8.28,10.6-22.52,18.25-37.67V79h28.94V70.21H161.3V65.26h15.51V56.5H161.3V51.34h16.22V42.59H150.66q1.62-3.12,3.35-6.25Zm5-17.45h.06l2.41,7.29h-4.92ZM92.54,58.48H89.23V50.72h3.5c2.56,0,5,.47,5,3.75C97.7,58.17,95.14,58.48,92.54,58.48Zm111-28.32a5.47,5.47,0,0,0-5-5.06V25c3-.76,4.58-2.39,4.58-5.44,0-4.24-3.78-5.48-7.63-5.48H181.6V36.34h12.86C199.07,36.34,203.58,35.77,203.58,30.16Zm-14-11.85h2.31c1.53,0,2.93.51,2.93,2.17s-1.63,2.13-3.12,2.13h-2.12Zm2.22,13.45h-2.22V27.2h2.28c1.59,0,3.18.35,3.18,2.26C195.07,31.18,193.38,31.76,191.83,31.76Zm33.44-2H214.83V14.11h-8.52V36.34h19ZM247.6,31H236.49V28H246.9V22.61H236.49V19.46h10.89V14.11H228.16V36.34H247.6Zm-200,11.6L36.28,78.21V42.59H23.61V55.15H15.14V42.59H2.47V79H15.14V65.88h8.47V79h25l2-7.86H61.38L63.56,79H76.85L65.07,42.59Zm4.83,19.75,3.64-11.93h.09l3.6,11.93Zm142.18-9.22c0-2.35,3.46-2.4,5.44-2.4a27.48,27.48,0,0,1,9.79,1.82V43.22A50.81,50.81,0,0,0,198.94,42c-7.52,0-17,1.78-17,11.78,0,14.12,17.36,9.7,17.36,14.59,0,1.83-2.7,2.5-5.68,2.5a28.28,28.28,0,0,1-11.35-2.39v9.43a52.23,52.23,0,0,0,13.62,1.72c7.33,0,16.08-2.45,16.08-12.2C212,53.38,194.63,57.86,194.63,53.12ZM212.7,42.59V53.32h11.16V79h12.67V53.32h11.16V42.59Z"/><polyline class="cls-1" points="241.98 75.76 244.38 75.76 244.38 76.12 243.38 76.12 243.38 78.73 242.98 78.73 242.98 76.12 241.98 76.12 241.98 75.76"/><path class="cls-1" d="M247.19,78.73V76.24h0l-.84,2.49H246l-.83-2.49h0v.62c0,.06,0,.1,0,.12v1.75h-.39v-3h.57l.84,2.51h0l.84-2.51h.57v3h-.38"/><path class="cls-1" d="M2.75,87.31H9.2a8.63,8.63,0,0,1,1.69.15,3.49,3.49,0,0,1,1.26.49,2.2,2.2,0,0,1,.8.86,2.69,2.69,0,0,1,.28,1.28,2.43,2.43,0,0,1-.69,1.85,4,4,0,0,1-1.8.92v0a2.5,2.5,0,0,1,1.06.41,2.63,2.63,0,0,1,.7.71,4.3,4.3,0,0,1,.35.91q.12.49.21,1c.06.34.12.66.18,1a3.48,3.48,0,0,0,.24.86H9.32a4.78,4.78,0,0,1-.12-.7c0-.27-.06-.56-.1-.85S9,95.63,9,95.37a2.46,2.46,0,0,0-.2-.63.79.79,0,0,0-.47-.45,2.19,2.19,0,0,0-.66-.09h-.9v3.55h-4V87.31m3.82,4.56h1a5.74,5.74,0,0,0,.6,0,1.38,1.38,0,0,0,.52-.15,1,1,0,0,0,.36-.34,1.13,1.13,0,0,0,.14-.63,1,1,0,0,0-.13-.57,1,1,0,0,0-.35-.32,1.33,1.33,0,0,0-.5-.15,5.46,5.46,0,0,0-.58,0H6.57Z"/><polyline class="cls-1" points="17.33 87.31 26.35 87.31 26.35 89.82 21.23 89.82 21.23 91.3 26.12 91.3 26.12 93.81 21.23 93.81 21.23 95.23 26.45 95.23 26.45 97.75 17.33 97.75 17.33 87.31"/><polyline class="cls-1" points="30.65 87.31 34.65 87.31 34.65 94.67 39.55 94.67 39.55 97.75 30.65 97.75 30.65 87.31"/><path class="cls-1" d="M46.26,87.31h5.5l3.71,10.44H51.28l-.68-2.26H47.23l-.64,2.26h-4l3.65-10.44M47.78,93h2.31L49,89.55h0Z"/><polyline class="cls-1" points="68.39 90.39 64.88 90.39 64.88 97.75 60.88 97.75 60.88 90.39 57.36 90.39 57.36 87.31 68.39 87.31 68.39 90.39"/><rect class="cls-1" x="72.28" y="87.31" width="3.99" height="10.44"/><path class="cls-1" d="M91.49,94.87a4.46,4.46,0,0,1-1.15,1.69,4.94,4.94,0,0,1-1.83,1,8,8,0,0,1-2.44.34,6.15,6.15,0,0,1-4.25-1.36,5.13,5.13,0,0,1-1.52-4,6.37,6.37,0,0,1,.39-2.32,4.53,4.53,0,0,1,1.13-1.69,5,5,0,0,1,1.81-1,8.68,8.68,0,0,1,4.88,0,5,5,0,0,1,1.83,1,4.46,4.46,0,0,1,1.15,1.69,6.37,6.37,0,0,1,.39,2.32,6.48,6.48,0,0,1-.39,2.34m-7-1.42a3.23,3.23,0,0,0,.22.94,1.86,1.86,0,0,0,.48.73,1.17,1.17,0,0,0,.85.29,1.33,1.33,0,0,0,.93-.29,1.86,1.86,0,0,0,.48-.73,3.57,3.57,0,0,0,.19-.94c0-.34,0-.64,0-.92s0-.53,0-.86a3.75,3.75,0,0,0-.21-1A2.08,2.08,0,0,0,87,90a1.25,1.25,0,0,0-.9-.32,1.18,1.18,0,0,0-.87.32,1.94,1.94,0,0,0-.48.76,4.22,4.22,0,0,0-.2,1c0,.33,0,.62,0,.86S84.49,93.11,84.52,93.45Z"/><polyline class="cls-1" points="95.82 87.31 101.8 87.31 103.72 94.67 103.75 94.67 103.75 87.31 107.18 87.31 107.18 97.75 101.3 97.75 99.28 90.18 99.25 90.18 99.25 97.75 95.82 97.75 95.82 87.31"/><path class="cls-1" d="M120,90.17a10,10,0,0,0-1.46-.39,9.51,9.51,0,0,0-1.63-.14l-.54,0a2.52,2.52,0,0,0-.56.08,1.07,1.07,0,0,0-.43.2.46.46,0,0,0-.18.39.52.52,0,0,0,.4.5,5.73,5.73,0,0,0,1,.28c.41.08.85.17,1.32.28a4.66,4.66,0,0,1,1.32.49,2.76,2.76,0,0,1,1,.94,2.84,2.84,0,0,1,.41,1.61,3,3,0,0,1-.47,1.72,3.42,3.42,0,0,1-1.2,1.07,5.56,5.56,0,0,1-1.64.55,10.73,10.73,0,0,1-1.76.15,17.38,17.38,0,0,1-4.3-.49v-2.7a7.91,7.91,0,0,0,1.75.51,9.74,9.74,0,0,0,1.83.17c.24,0,.47,0,.68,0a3,3,0,0,0,.57-.13,1.22,1.22,0,0,0,.39-.23.39.39,0,0,0,.15-.32.47.47,0,0,0-.24-.42,2.27,2.27,0,0,0-.62-.26c-.25-.07-.54-.13-.87-.19s-.66-.14-1-.23-.68-.22-1-.35a2.85,2.85,0,0,1-.87-.57,3,3,0,0,1-.62-.88,3.1,3.1,0,0,1-.24-1.29,2.83,2.83,0,0,1,.5-1.74,3.24,3.24,0,0,1,1.28-1,6.3,6.3,0,0,1,1.73-.48,14,14,0,0,1,3.58,0c.59.06,1.16.15,1.71.26v2.68"/><polyline class="cls-1" points="131.43 87.31 135.42 87.31 135.42 97.75 131.43 97.75 131.43 93.99 128.76 93.99 128.76 97.75 124.76 97.75 124.76 87.31 128.76 87.31 128.76 90.91 131.43 90.91 131.43 87.31"/><rect class="cls-1" x="139.91" y="87.31" width="3.99" height="10.44"/><path class="cls-1" d="M148.39,87.31h6.87a4.85,4.85,0,0,1,1.28.17,3.59,3.59,0,0,1,1.24.57,3,3,0,0,1,.93,1.11,3.62,3.62,0,0,1,.37,1.74,4.42,4.42,0,0,1-.31,1.75,3.14,3.14,0,0,1-.83,1.19,3.11,3.11,0,0,1-1.22.68,4.76,4.76,0,0,1-1.47.22h-2.86v3h-4V87.31m3.89,5h.88a5.36,5.36,0,0,0,.7,0,1.73,1.73,0,0,0,.62-.18,1.24,1.24,0,0,0,.44-.41,1.36,1.36,0,0,0,.16-.71,1.15,1.15,0,0,0-.16-.66,1.08,1.08,0,0,0-.44-.38,1.94,1.94,0,0,0-.63-.16,5.48,5.48,0,0,0-.7,0h-.87Z"/><path class="cls-1" d="M180.36,97.51a13,13,0,0,1-1.33.29,9.86,9.86,0,0,1-1.53.12,8.35,8.35,0,0,1-2.43-.34,5.84,5.84,0,0,1-2-1,4.84,4.84,0,0,1-1.34-1.74,5.76,5.76,0,0,1-.48-2.43,4.77,4.77,0,0,1,1.86-3.93,5.9,5.9,0,0,1,2-1,8.45,8.45,0,0,1,2.38-.33c.28,0,.53,0,.76,0s.45,0,.67.06l.67.1.73.14v2.75c-.33-.11-.66-.2-1-.28a4.88,4.88,0,0,0-1-.11,4.05,4.05,0,0,0-1.18.17,3,3,0,0,0-1,.51,2.09,2.09,0,0,0-.62.81,2.65,2.65,0,0,0-.22,1.13,3.07,3.07,0,0,0,.2,1.18,2.24,2.24,0,0,0,.59.84,2.43,2.43,0,0,0,.9.51,3.51,3.51,0,0,0,1.15.17,5.49,5.49,0,0,0,1.08-.1,8,8,0,0,0,1.08-.3v2.77"/><path class="cls-1" d="M195.1,94.87A4.57,4.57,0,0,1,194,96.56a4.94,4.94,0,0,1-1.83,1,8.09,8.09,0,0,1-2.44.34,6.13,6.13,0,0,1-4.25-1.36,5.13,5.13,0,0,1-1.52-4,6.37,6.37,0,0,1,.39-2.32,4.31,4.31,0,0,1,1.13-1.69,5,5,0,0,1,1.81-1,7.89,7.89,0,0,1,2.44-.35,8.08,8.08,0,0,1,2.44.35,5,5,0,0,1,1.83,1,4.57,4.57,0,0,1,1.15,1.69,6.37,6.37,0,0,1,.39,2.32,6.48,6.48,0,0,1-.39,2.34m-7-1.42a3.58,3.58,0,0,0,.21.94,2,2,0,0,0,.49.73,1.17,1.17,0,0,0,.85.29,1.3,1.3,0,0,0,.92-.29,1.78,1.78,0,0,0,.49-.73,3.57,3.57,0,0,0,.19-.94c0-.34,0-.64,0-.92s0-.53,0-.86a3.75,3.75,0,0,0-.21-1,2,2,0,0,0-.49-.76,1.38,1.38,0,0,0-1.77,0,1.92,1.92,0,0,0-.47.76,4.22,4.22,0,0,0-.2,1c0,.33,0,.62,0,.86S188.1,93.11,188.13,93.45Z"/><polyline class="cls-1" points="199.37 87.31 208.28 87.31 208.28 89.82 203.36 89.82 203.36 91.51 208.13 91.51 208.13 94.02 203.36 94.02 203.36 97.75 199.37 97.75 199.37 87.31"/><polyline class="cls-1" points="212.29 87.31 221.2 87.31 221.2 89.82 216.28 89.82 216.28 91.51 221.05 91.51 221.05 94.02 216.28 94.02 216.28 97.75 212.29 97.75 212.29 87.31"/><polyline class="cls-1" points="225.21 87.31 234.23 87.31 234.23 89.82 229.12 89.82 229.12 91.3 234.01 91.3 234.01 93.81 229.12 93.81 229.12 95.23 234.33 95.23 234.33 97.75 225.21 97.75 225.21 87.31"/><polyline class="cls-1" points="238.4 87.31 247.42 87.31 247.42 89.82 242.31 89.82 242.31 91.3 247.2 91.3 247.2 93.81 242.31 93.81 242.31 95.23 247.53 95.23 247.53 97.75 238.4 97.75 238.4 87.31"/></svg>