<svg id="Capa_1" data-name="Capa 1" xmlns="http://www.w3.org/2000/svg" xmlns:xlink="http://www.w3.org/1999/xlink" viewBox="0 0 313 226"><defs><style>.cls-1{fill:#fff;}.cls-2{clip-path:url(#clip-path);}.cls-3{clip-path:url(#clip-path-2);}.cls-4{clip-path:url(#clip-path-3);}.cls-5{clip-path:url(#clip-path-4);}.cls-6{clip-path:url(#clip-path-5);}.cls-7{clip-path:url(#clip-path-6);}.cls-8{clip-path:url(#clip-path-7);}</style><clipPath id="clip-path"><path class="cls-1" d="M553.94-243.81c-.05,2.11-.12,2.61-.43,3.29a7.86,7.86,0,0,1-5.31,3.92c-2.41.5-5.3-.15-6.26-1.42a4.28,4.28,0,0,1,.85-5.77c1.13-.76,2.28-1.15,6-2.08,1.79-.46,3.69-1,4.19-1.23l.91-.41S554-245.18,553.94-243.81Zm-7.84-20.73c-6.58.61-11,4.16-11.7,9.51a1,1,0,0,0,.85,1.1h5.87a1,1,0,0,0,1-.82l0-.14c.58-2.3,1.94-3.19,4.86-3.5,2.62-.25,5.07.38,6,1.56a3.39,3.39,0,0,1,.37,3.59c-.49,1-2.24,1.52-7.19,2.31-4,.63-6.07,1.18-8.06,2.14a8.84,8.84,0,0,0-5.32,9.27,9,9,0,0,0,3.09,6.53,13.21,13.21,0,0,0,4.94,2.26,21.92,21.92,0,0,0,6.86,0,9.59,9.59,0,0,0,5.62-3.39,2.25,2.25,0,0,1,.51-.62c.07,0,.15.4.22.88a11.91,11.91,0,0,0,.46,1.8l.1.25a1,1,0,0,0,1,.67h5.9a1,1,0,0,0,1-1v-.08c0-.46-.09-.5-.11-.95s-.19-4.38-.19-9.85c0-5-.09-10-.17-11-.41-4.7-2.43-7.75-6.13-9.33A23.68,23.68,0,0,0,546.1-264.54Z"/></clipPath><clipPath id="clip-path-2"><path class="cls-1" d="M583.16-264.44a9.54,9.54,0,0,0-5,2.71c-.65.66-1.41,1.49-1.66,1.81l-.47.6v-3.52a1,1,0,0,0-1-1h-6.51a1,1,0,0,0-1,1v30.67a1,1,0,0,0,1,1h6.67a1,1,0,0,0,1-1v-8.79c0-10.69,0-11.1,1-12.85a7,7,0,0,1,2.91-2.81,4.61,4.61,0,0,1,2.69-.48,5.09,5.09,0,0,1,2.6.41,5.25,5.25,0,0,1,3,4.15c.11.67.17,5.09.17,11.24v9.13a1,1,0,0,0,1,1h6.52a1,1,0,0,0,1-1h0l0-11.1,0-10.38v-.9a9.85,9.85,0,0,0-3.43-7,8.54,8.54,0,0,0-2.66-2A12.77,12.77,0,0,0,583.16-264.44Z"/></clipPath><clipPath id="clip-path-3"><path class="cls-1" d="M619.76-257.95c3,.62,5.06,2.38,6.1,6a16.84,16.84,0,0,1,.44,4.45,12.77,12.77,0,0,1-1.4,6.37,7.21,7.21,0,0,1-5.7,4.18,7.76,7.76,0,0,1-6.4-1.75c-2.25-2.07-3.41-6.08-3-10.35A11.36,11.36,0,0,1,611-253.7,7.41,7.41,0,0,1,619.76-257.95Zm-5.06-6.49a17,17,0,0,0-8.92,4.63c-5.91,5.89-6.53,16.38-1.36,23.15,3.51,4.61,9,6.89,15.34,6.35a16.32,16.32,0,0,0,10.17-4.57,16.47,16.47,0,0,0,4.54-8,20.11,20.11,0,0,0,0-9.22,16.59,16.59,0,0,0-8.68-10.88A18.92,18.92,0,0,0,614.7-264.44Z"/></clipPath><clipPath id="clip-path-4"><path class="cls-1" d="M505.35-255.38v23.22a1,1,0,0,0,1,1h6.67a1,1,0,0,0,1-1V-275.7a1,1,0,0,0-1-1h-6.67a1,1,0,0,0-1,1Z"/></clipPath><clipPath id="clip-path-5"><path class="cls-1" d="M519.9-255.38v23.22a1,1,0,0,0,1,1h6.68a1,1,0,0,0,1-1V-286a1,1,0,0,0-1-1h-6.68a1,1,0,0,0-1,1Z"/></clipPath><clipPath id="clip-path-6"><path class="cls-1" d="M486.9-257.84a6.6,6.6,0,0,1,5,5,6,6,0,0,1,.24,1.32v.48H485c-5.84,0-7.19,0-7.19-.22a10.82,10.82,0,0,1,2.11-4.66C481.35-257.57,484.3-258.39,486.9-257.84Zm-4.61-6.62a15.93,15.93,0,0,0-12.73,12.56,21.4,21.4,0,0,0,.46,10.59c2.48,7.63,9,11.71,17.73,11,5.17-.41,9.68-3.15,11.75-7.14a16,16,0,0,0,.83-2.12h0a1,1,0,0,0-.66-1.3,1.13,1.13,0,0,0-.32-.05H492.9a1,1,0,0,0-1,.65l0,.1a5.29,5.29,0,0,1-3.58,3,10.7,10.7,0,0,1-2.52.25A6.94,6.94,0,0,1,480-239.3a10.14,10.14,0,0,1-2.09-4.13c-.17-.71-.32-1.36-.32-1.44s5.32-.14,11.85-.14h10.74a1,1,0,0,0,1-1v-.05l-.05-.94c-.39-7.59-3.52-13.37-8.69-16.06A17.39,17.39,0,0,0,482.29-264.46Z"/></clipPath><clipPath id="clip-path-7"><path class="cls-1" d="M463.6-263.93a14.88,14.88,0,0,0-1.53.53,11.7,11.7,0,0,0-3.5,3.53l-.9,1.37-.05-2.69,0-1.66a1,1,0,0,0-1-1h-6.33a1,1,0,0,0-1,1v30.67a1,1,0,0,0,1,1h6.66a1,1,0,0,0,1-1l.05-8.28,0-9.29.48-1.37a7.52,7.52,0,0,1,6.48-5.25,10,10,0,0,1,2.06-.08.71.71,0,0,0,.81-.61.34.34,0,0,0,0-.1v-6.44a.51.51,0,0,0-.42-.51l-.11,0A11.22,11.22,0,0,0,463.6-263.93Z"/></clipPath></defs><path class="cls-1" d="M553.94-243.81c-.05,2.11-.12,2.61-.43,3.29a7.86,7.86,0,0,1-5.31,3.92c-2.41.5-5.3-.15-6.26-1.42a4.28,4.28,0,0,1,.85-5.77c1.13-.76,2.28-1.15,6-2.08,1.79-.46,3.69-1,4.19-1.23l.91-.41S554-245.18,553.94-243.81Zm-7.84-20.73c-6.58.61-11,4.16-11.7,9.51a1,1,0,0,0,.85,1.1h5.87a1,1,0,0,0,1-.82l0-.14c.58-2.3,1.94-3.19,4.86-3.5,2.62-.25,5.07.38,6,1.56a3.39,3.39,0,0,1,.37,3.59c-.49,1-2.24,1.52-7.19,2.31-4,.63-6.07,1.18-8.06,2.14a8.84,8.84,0,0,0-5.32,9.27,9,9,0,0,0,3.09,6.53,13.21,13.21,0,0,0,4.94,2.26,21.92,21.92,0,0,0,6.86,0,9.59,9.59,0,0,0,5.62-3.39,2.25,2.25,0,0,1,.51-.62c.07,0,.15.4.22.88a11.91,11.91,0,0,0,.46,1.8l.1.25a1,1,0,0,0,1,.67h5.9a1,1,0,0,0,1-1v-.08c0-.46-.09-.5-.11-.95s-.19-4.38-.19-9.85c0-5-.09-10-.17-11-.41-4.7-2.43-7.75-6.13-9.33A23.68,23.68,0,0,0,546.1-264.54Z"/><g class="cls-2"><rect class="cls-1" x="284.72" y="-384.69" width="451.1" height="507.74"/></g><path class="cls-1" d="M583.16-264.44a9.54,9.54,0,0,0-5,2.71c-.65.66-1.41,1.49-1.66,1.81l-.47.6v-3.52a1,1,0,0,0-1-1h-6.51a1,1,0,0,0-1,1v30.67a1,1,0,0,0,1,1h6.67a1,1,0,0,0,1-1v-8.79c0-10.69,0-11.1,1-12.85a7,7,0,0,1,2.91-2.81,4.61,4.61,0,0,1,2.69-.48,5.09,5.09,0,0,1,2.6.41,5.25,5.25,0,0,1,3,4.15c.11.67.17,5.09.17,11.24v9.13a1,1,0,0,0,1,1h6.52a1,1,0,0,0,1-1h0l0-11.1,0-10.38v-.9a9.85,9.85,0,0,0-3.43-7,8.54,8.54,0,0,0-2.66-2A12.77,12.77,0,0,0,583.16-264.44Z"/><g class="cls-3"><rect class="cls-1" x="284.72" y="-384.69" width="451.1" height="507.74"/></g><path class="cls-1" d="M619.76-257.95c3,.62,5.06,2.38,6.1,6a16.84,16.84,0,0,1,.44,4.45,12.77,12.77,0,0,1-1.4,6.37,7.21,7.21,0,0,1-5.7,4.18,7.76,7.76,0,0,1-6.4-1.75c-2.25-2.07-3.41-6.08-3-10.35A11.36,11.36,0,0,1,611-253.7,7.41,7.41,0,0,1,619.76-257.95Zm-5.06-6.49a17,17,0,0,0-8.92,4.63c-5.91,5.89-6.53,16.38-1.36,23.15,3.51,4.61,9,6.89,15.34,6.35a16.32,16.32,0,0,0,10.17-4.57,16.47,16.47,0,0,0,4.54-8,20.11,20.11,0,0,0,0-9.22,16.59,16.59,0,0,0-8.68-10.88A18.92,18.92,0,0,0,614.7-264.44Z"/><g class="cls-4"><rect class="cls-1" x="284.72" y="-384.69" width="451.1" height="507.74"/></g><path class="cls-1" d="M505.35-255.38v23.22a1,1,0,0,0,1,1h6.67a1,1,0,0,0,1-1V-275.7a1,1,0,0,0-1-1h-6.67a1,1,0,0,0-1,1Z"/><g class="cls-5"><rect class="cls-1" x="284.72" y="-384.69" width="451.1" height="507.74"/></g><path class="cls-1" d="M519.9-255.38v23.22a1,1,0,0,0,1,1h6.68a1,1,0,0,0,1-1V-286a1,1,0,0,0-1-1h-6.68a1,1,0,0,0-1,1Z"/><g class="cls-6"><rect class="cls-1" x="284.72" y="-384.69" width="451.1" height="507.74"/></g><path class="cls-1" d="M486.9-257.84a6.6,6.6,0,0,1,5,5,6,6,0,0,1,.24,1.32v.48H485c-5.84,0-7.19,0-7.19-.22a10.82,10.82,0,0,1,2.11-4.66C481.35-257.57,484.3-258.39,486.9-257.84Zm-4.61-6.62a15.93,15.93,0,0,0-12.73,12.56,21.4,21.4,0,0,0,.46,10.59c2.48,7.63,9,11.71,17.73,11,5.17-.41,9.68-3.15,11.75-7.14a16,16,0,0,0,.83-2.12h0a1,1,0,0,0-.66-1.3,1.13,1.13,0,0,0-.32-.05H492.9a1,1,0,0,0-1,.65l0,.1a5.29,5.29,0,0,1-3.58,3,10.7,10.7,0,0,1-2.52.25A6.94,6.94,0,0,1,480-239.3a10.14,10.14,0,0,1-2.09-4.13c-.17-.71-.32-1.36-.32-1.44s5.32-.14,11.85-.14h10.74a1,1,0,0,0,1-1v-.05l-.05-.94c-.39-7.59-3.52-13.37-8.69-16.06A17.39,17.39,0,0,0,482.29-264.46Z"/><g class="cls-7"><rect class="cls-1" x="284.72" y="-384.69" width="451.1" height="507.74"/></g><path class="cls-1" d="M463.6-263.93a14.88,14.88,0,0,0-1.53.53,11.7,11.7,0,0,0-3.5,3.53l-.9,1.37-.05-2.69,0-1.66a1,1,0,0,0-1-1h-6.33a1,1,0,0,0-1,1v30.67a1,1,0,0,0,1,1h6.66a1,1,0,0,0,1-1l.05-8.28,0-9.29.48-1.37a7.52,7.52,0,0,1,6.48-5.25,10,10,0,0,1,2.06-.08.71.71,0,0,0,.81-.61.34.34,0,0,0,0-.1v-6.44a.51.51,0,0,0-.42-.51l-.11,0A11.22,11.22,0,0,0,463.6-263.93Z"/><g class="cls-8"><rect class="cls-1" x="284.72" y="-384.69" width="451.1" height="507.74"/></g><g id="g3378"><g id="g3380"><path id="path3382" class="cls-1" d="M229.52,88.56A55.41,55.41,0,0,0,185,104.84a56.56,56.56,0,0,0-15.67,51.34,78.58,78.58,0,0,0,60.15-67.62"/></g><g id="g3384"><path id="path3386" class="cls-1" d="M73.5,88.94a78.59,78.59,0,0,0,61.44,67.53,55.22,55.22,0,0,0-15.24-51A56.74,56.74,0,0,0,73.5,88.94"/></g><g id="g3388"><path id="path3390" class="cls-1" d="M151.49,1.16A78.53,78.53,0,0,0,73,79.69v.58a63.63,63.63,0,0,1,7.85-.5,54.57,54.57,0,0,1,15.93,2.4,54.92,54.92,0,0,1,109.53.48A53,53,0,0,1,223,79.77a65.42,65.42,0,0,1,7,.39v-.47A78.53,78.53,0,0,0,151.49,1.16"/></g><g id="g3392"><path id="path3394" class="cls-1" d="M159.68,143.07c0-25.41,18.15-47.32,39.18-57.4h0a47,47,0,0,0-94-.21c19.27,9.23,33.71,28.33,37.78,47.16h.07a49.49,49.49,0,0,1,1.17,10.44,63.54,63.54,0,0,1-1.72,14.63,48.83,48.83,0,0,0,19.22,0h0a63.25,63.25,0,0,1-1.72-14.66"/></g><g id="g3396"><path id="path3398" class="cls-1" d="M162.37,199.34s-4.63-12.93-5.23-15.15H157c-.6,2.22-5.13,15.15-5.13,15.15Zm-12.43,6.15-3.39,8.43h-8L153,176.59h8.56L176,213.92h-8.39l-5.06-14.06Z"/></g><g id="g3400"><path id="path3402" class="cls-1" d="M177.74,195.36c0-3.92-.06-6.47-.22-8.76h6.35v5.94l.33-1a8,8,0,0,1,7.8-5.69,7.37,7.37,0,0,1,1.65.15l0,7.39a4.84,4.84,0,0,0-2.75-.6c-3.92,0-5.26,2.49-5.8,5a17.94,17.94,0,0,0-.28,2.54l-.11,13.59h-7Z"/></g><g id="g3404"><path id="path3406" class="cls-1" d="M211.19,201.13c-7.85-.24-10.85,1.45-10.85,4.34,0,2.4,1.82,3.73,4.38,3.73a6.27,6.27,0,0,0,5.42-3,9.15,9.15,0,0,0,1-2.62Zm6.66,5.71a41.61,41.61,0,0,0,.43,7h-6.45l-.28-4.09-.33.33a10.69,10.69,0,0,1-8.89,4.26c-5.39,0-9-3.88-9-8.13,0-7.56,5.83-9.59,17.78-9.36l0-1.26c0-2.65-2.18-4.53-6.27-4.53-2.72,0-6.46,1.86-8.2,2.95v-6.15a21.86,21.86,0,0,1,9.68-2.08c8.87,0,11.31,4.28,11.31,11.73Z"/></g><g id="g3408"><path id="path3410" class="cls-1" d="M247,204.72c0,3.48.11,6.91.21,9.14h-6.83V210H240a10.72,10.72,0,0,1-8.9,4.34c-5.44,0-9.08-3.57-9.08-9.76v-18h7.07V201c0,4.86.92,7.89,4.83,7.89,3.47,0,4.86-3.26,5.36-4.57a4.56,4.56,0,0,0,.32-1.8V186.64H247Z"/></g><g id="g3412"><path id="path3414" class="cls-1" d="M270.4,213.34c-1.5.72-4.56,1-7.78,1-8.77,0-12.76-6.05-12.76-14.55,0-7.94,3.82-13.77,13.93-13.77a17.21,17.21,0,0,1,6,.92l-.44,5.36a12,12,0,0,0-4.87-1c-4.44,0-7.3,4.37-7.24,8.81,0,5,3.28,8.52,7.39,8.52a16.06,16.06,0,0,0,5.55-.88Z"/></g><g id="g3416"><path id="path3418" class="cls-1" d="M278.1,200.18c0,5,2.46,8.67,7,8.67,4.22,0,6.83-3.48,6.83-8.73,0-4.24-2-8.6-6.83-8.6-5.07,0-7,4.42-7,8.66m20.89-.27c0,9.92-7.05,14.47-14.31,14.47-7.93,0-14-5.21-14-14S276.42,186,285.18,186c8.26,0,13.81,5.71,13.81,13.92"/></g><g id="g3420"><path id="path3422" class="cls-1" d="M7.83,194.63s2.78.12,4.26.12c5.35,0,8.63-2.64,8.63-7.73s-3.21-7.17-8-7.17c-1.94,0-4.84.12-4.84.12ZM4,176.64h8.51c4.38,0,7.19.81,9.23,2.82A10,10,0,0,1,24.62,187c0,3.41-.65,5.18-2.38,7.13-2.4,2.75-5.91,3.71-10.24,3.71l-4.31.05v15.78H4Z"/></g><g id="g3424"><path id="path3426" class="cls-1" d="M51.11,195.63c0-3.19,0-6.43-.2-8.95h3.17v5.87h.16c1.12-3.63,3.84-6.34,6.84-6.34a10.37,10.37,0,0,1,2.55.41v3.28a14.14,14.14,0,0,0-2.82-.21c-3.16,0-5.4,2.58-6,6.27-.1.67-.16,3.09-.16,3.87v14H51.11Z"/></g><g id="g3428"><path id="path3430" class="cls-1" d="M82.93,197.69a13,13,0,0,0-.5-2.57c-.79-3.31-3.37-6.13-7.08-6.13-5.11,0-8.2,4.72-8.2,11.35,0,5.95,2.58,11,8,11,3.2,0,6-2.15,7.08-5.83a17.12,17.12,0,0,0,.76-3.32Zm.26,11.46-.41.44c-1.37,2.63-3.24,4.79-8.7,4.79-5.76,0-10.45-5.42-10.45-13.65,0-10.18,4.13-14.6,11.16-14.6,3.82,0,6.72,1.9,7.94,4.48l.42.47,0-4.39h3.74c-.1,2.23-.21,4.64-.21,7.44v30.71H83.19Z"/></g><g id="g3432"><path id="path3434" class="cls-1" d="M113,206.26c0,2.86,0,5.32.21,7.44h-3.35v-4.83l-.34.6c-1.13,2.18-3.24,4.85-8.8,4.85-4.89,0-8.88-2.41-8.88-11.86V186.62h3.54v14.94c0,8.6,2.79,9.87,6.82,9.87,4.25,0,6.08-3.49,6.9-5.73a7.41,7.41,0,0,0,.41-2.51V186.62H113Z"/></g><g id="g3436"><path id="path3438" class="cls-1" d="M135,198.23c.06-3.6-1.33-9.28-7-9.28-5.18,0-7.37,5.29-7.77,9.28Zm-14.67,2.89c.1,6.66,4.23,10.28,8.76,10.28a18.16,18.16,0,0,0,7.69-1.91l-.12,3.28a17.7,17.7,0,0,1-8,1.61c-7.6,0-12.13-5.54-12.13-13.71s4.38-14.54,11.57-14.54c8.77,0,10.54,7.72,10.54,12.7a15.58,15.58,0,0,1,0,2.29Z"/></g><g id="g3440"><path id="path3442" class="cls-1" d="M42.35,200c-6-.12-13.46.91-13.46,6.59,0,3.51,2.33,4.89,5.09,4.89,4,0,6.64-1.34,7.52-3.82a26.41,26.41,0,0,0,.89-3.23Zm3.73,13.66-3.25.06,0-4.2-.58.88a9.45,9.45,0,0,1-7.86,3.87c-5.72,0-9.15-2.65-9.15-7.59,0-7.19,6.87-9.5,16.4-9.44h.82c0-2.18.66-8.31-6.34-8.31a14.85,14.85,0,0,0-7.53,2.21l0-3.1a18.72,18.72,0,0,1,8.16-2c7.54,0,9.24,4.82,9.24,11v12.52Z"/></g><g id="g3444"><path id="path3446" class="cls-1" d="M298.41,173.35h2c2,0,2.66-.76,2.66-1.69s-.68-1.67-2.66-1.67h-2Zm0,5.37H297.3v-9.63h3.36c2.22,0,3.59.84,3.59,2.57,0,1.34-1,2.36-2.79,2.49l3.15,4.57h-1.36l-3-4.47h-1.85Z"/></g><g id="g3448"><path id="path3450" class="cls-1" d="M300.3,180.84a6.93,6.93,0,1,1,6.93-6.93,6.93,6.93,0,0,1-6.93,6.93m0-15.63a8.7,8.7,0,1,0,8.7,8.7,8.69,8.69,0,0,0-8.7-8.7"/></g></g></svg>