<?xml version="1.0" encoding="utf-8"?>
<!-- Generator: Adobe Illustrator 24.1.1, SVG Export Plug-In . SVG Version: 6.00 Build 0)  -->
<svg version="1.1" id="Capa_1" xmlns="http://www.w3.org/2000/svg" xmlns:xlink="http://www.w3.org/1999/xlink" x="0px" y="0px"
	 viewBox="0 0 665 496" style="enable-background:new 0 0 665 496;" xml:space="preserve">
<style type="text/css">
	.st0{fill:#FFFFFF;}
	.st1{fill:#6387A6;}
	.st2{fill:#01D7D9;}
</style>
<g>
	<g>
		<path class="st2" d="M159.5,85.9c-20,43.3-46.8,153.3-41,184.9c-14-0.9-22.4-6.8-25.3-17.9c1.1-10.2,4.1-25.5,8.3-43.4
			c-5.4,1.9-11,3.8-16.5,6.2C64.7,261.2,44.9,304,34.7,316.5c-8.1,5.2-19.1,6.2-27.7,0.8c10.8-8.8,32.1-47.3,54.4-91
			c-14.7,7.3-27.1,15.2-31,21.2c-3.4-7-3.6-17.9,0-22.9c12.7-7.5,27-14.3,41.8-19.5c24.4-49.5,47.7-100.6,56.3-120.7
			c2.8-0.5,5.1-0.9,6.7-1l0.9-3.2C144.7,77.6,152.1,78.7,159.5,85.9z M120.8,134.7c-8.3,18.9-18.2,41.3-28.2,64
			c4.1-1.2,8.2-1.9,12.3-2.9C109.7,175.9,115.4,154.2,120.8,134.7z"/>
		<path class="st2" d="M221,126.5c-14.6,31.9-22.2,60.6-22.9,86.2c2.6,27.2,43.4-99.6,43-118.1c7.7-1.1,16.6,2.3,20.2,7.6
			c1.7,16.1-34.8,129.7-61.4,136.5c-0.2,0-0.5,0.1-0.5,0.1l-0.2,0c-13.3-1-21.5-6.9-24.3-17.9c0.5-5.3,1-10.6,1.7-16l-18,41
			c-13.9-0.6-22.3-6.5-25.3-17.7c3.2-35.8,13.5-66.4,23.1-100c7.9-4,15.6-2.3,23.3,5.4c-15,32.4-22.5,61.4-23.2,87.2l29-56.8
			c3.9-14.3,8.1-28.6,12.4-43.1C205.8,117.1,213.4,118.8,221,126.5z"/>
		<path class="st2" d="M275.2,180.1c-0.7,5.4-1.2,10.7-1.7,16.2c0.4,5.2,3.3,13.5,12.4,4.2c12.9-13.5,35.7-48.9,45.3-64.7
			c9.4,10.2,0.7,21.8-5,30.9c-11.9,18.8-36.4,57.1-52.1,58.5c0,0-17.4-10.7-19.2-11.8c-2.8-3.8-3.9-7.4-3.6-10.8
			c0.2-36.7,8.6-67.5,22.2-91.5c3.2-4.8,7.9-6.6,14.5-5.4c12.3,3.5,17,5.8,17,5.8c15.4,5.1,1.3,57.2-13.5,70.7
			C286.6,184.2,279.2,183.9,275.2,180.1z M285.8,164.6c5.2-9.7,15.9-57.1,4.7-36.8c-5.9,12.2-10.3,25.4-13.1,39.2
			C281,168.3,283.7,167.4,285.8,164.6z"/>
		<path class="st2" d="M362.8,107c-2.5-2.2-5.8-0.4-10,4.1c-25.5,25.7-0.5,59.1,19.7,74.1c1.3,23.6-23.5,30.1-44.9,28.9
			c-7.2-3.2-6.5-9.8-3.2-20.6c8.9,6,17.9,5.9,28,2.4c-18.2-19.6-33.5-32.2-30.6-62.7c1.7-18.9,14.3-39.2,34.3-41.8
			c3.7-0.4,6.9,0.2,9.7,2.1c0.9-1.6,1.9-2.7,2.9-2.4l15.6,3.7c-5.9,7.2-9.5,27.2-12.5,37.2l-9.5,1.4
			C361.4,128.9,361.5,117,362.8,107z"/>
		<path class="st2" d="M413.9,74.2l16.2-2.8c25.2,27,10.1,135.4-30.1,130.3c-8.7-0.8-16-4.3-19.1-12.3
			c-10.5-25.5,5.3-88.6,29.1-105.1l7.4,1.5C416.4,81.8,415.6,78.2,413.9,74.2z M421.1,97.4c-13.8,20.1-27.5,65.6-22.5,89.9
			C410.5,185.7,428.9,122.7,421.1,97.4z"/>
		<path class="st2" d="M536.2,70.7c-8.2,18.1-14.5,35.4-18.3,51.6c13.4-30.9,28.7-56,37.9-64.5c7.9-4,15.8-2.3,23.3,5.4
			c-14.2,31.3-22.1,59.8-23.1,85l39.5-70.3c5.7,1.4,6.6,6.5,2.5,15.3L558,175.9c-14-0.9-22.4-6.8-25.3-17.9
			c2.4-25.7,8.3-48.6,14.9-72.2c-14.8,20.2-35.2,77.2-33.1,95.8c0.1,0.5,0.2,1.2,0.3,1.8c-0.5,0.1-1.2,0-1.9-0.1
			c-12.6-1.3-20.5-7.1-23.4-17.8c2.4-25.7,8.3-48.6,15.1-72.2c-14.8,20.2-35.2,77.2-33.1,95.8c0.1,0.5,0.2,1.2,0.3,1.8
			c-0.7,0.1-1.2,0-1.9-0.1c-12.8-1.3-20.5-7.1-23.4-17.8c3.4-35.8,13.5-66.7,23.3-100.3c7.9-4,15.6-2.3,23.3,5.4
			c-8.5,18.2-14.5,35.4-18.3,51.6c13.1-30.9,28.5-56,37.9-64.5C520.7,61.3,528.6,63,536.2,70.7z"/>
		<path class="st2" d="M597.8,123.2c-0.7,5.4-1.2,10.7-1.7,16.2c0.4,5.2,3.3,13.5,12.4,4.2c12.9-13.5,35.7-48.9,45.3-64.7
			c9.4,10.2,0.7,21.8-5,30.9c-11.9,18.8-36.4,57.1-52.1,58.5c0,0-17.4-10.7-19.2-11.8c-2.8-3.8-3.9-7.4-3.6-10.8
			c0.2-36.7,8.6-67.5,22.2-91.5c3.2-4.8,7.9-6.6,14.5-5.4c12.3,3.5,17,5.8,17,5.8c15.4,5.1,1.3,57.2-13.5,70.7
			C609.2,127.4,601.8,127,597.8,123.2z M608.4,107.7c5.2-9.7,15.9-57.1,4.7-36.8c-5.9,12.2-10.3,25.4-13.1,39.2
			C603.6,111.5,606.3,110.5,608.4,107.7z"/>
		<path class="st2" d="M148.9,486.2c-6.9-2.6-15.6-10.1-17.6-18.6c7.5-2,62.5-37.2,59.9-45.3c-1.2-4.1-56.8-9-69.7-25.1
			c-15.5-19.2-0.3-51.4,24-81.1c20.7-25.8,48.2-49.5,68.2-61.8c1.4-0.2,12.9,3,19.3,5.6c10.7,35-28.5,92.2-51.5,115.7
			c-8.6,5.3-18.6-5.5-22.3-13c36-28,62.3-88.4,59.2-92.1c-34,27.4-95.2,89.4-77.4,112.2c4.9,6.3,51.7,16.1,61.1,19.5
			c5.1,3.2,10.8,12.4,11.5,21.8C203.9,444.1,174.5,469,148.9,486.2z"/>
		<path class="st2" d="M279.7,253.1c-3.2,7.2-6.6,16.9-9.9,26.5c2.1-0.4,3.9-0.7,5.6-0.5c2.2,1.5,3.8,4.1,4.6,7.3
			c-4.2,0.7-8.8,1.5-12.8,2.7c-9.8,32.4-17.4,71.6-19.5,100.3l38.4-68.4c5.7,1.1,6.6,6.2,2.4,14.8l-39.9,83c-14-1.1-22.8-6.7-26-18
			c1.6-23.6,12.3-69.3,21.8-107.2c-1.8,0.8-3.4,1.1-5.5,1.4c-3.2-2.1-6.4-5.3-7.7-9.8c5.1-0.9,10.4-1.6,15.5-2.5
			c4-14,7-26.5,9.3-35.2C264.7,244.8,272.3,245.8,279.7,253.1z"/>
		<path class="st2" d="M301.5,282.1l16.2-2.8c25.2,27,10.1,135.4-30.1,130.3c-8.7-0.8-16-4.3-19.1-12.3
			c-10.5-25.5,5.3-88.6,29.1-105.1l7.4,1.6C304.1,289.8,303.2,286.1,301.5,282.1z M308.7,305.4c-13.8,20.1-27.5,65.6-22.5,89.9
			C298.1,393.7,316.5,330.7,308.7,305.4z"/>
		<path class="st2" d="M361.9,371c2.7-28.1,14.1-53.4,22.9-79.3c-3.3-3.9-8.3-5.2-12.8-2.5c-14.5,39.2-26.9,94.7-22.8,121.6
			c-6.9,1.2-21.8-5-20.9-14.6c5.4-34.1,22-109.1,38.7-134.4l19.2-3.4c-2.9,5-6.1,11.3-9.1,18.5c16.9-1.3,26.8,3.4,31.2,13.8
			c0.2-0.3-19,35.5-23,71l36.2-66.4c5.2,1.2,6.1,6.1,2.3,14.6l-37.9,78.1C372.7,387.2,364.7,381.4,361.9,371z"/>
		<path class="st2" d="M427.9,268.4c7.6-4,15.3-2.2,23.1,5.5c-14.3,31.1-21.9,59.3-23,84.5l39.1-70c5.7,1.4,6.3,6.3,2.5,15.3
			l-39.8,82.3c-13.7-0.9-22.2-6.8-25.1-18C408.2,332.3,418.3,301.7,427.9,268.4z M435.7,250.6c5.3,0.5,9.6,1.6,17.1,2.7l15.9-39.2
			c-6.7-2.9-17.1-2.2-23.6,0.1L435.7,250.6z"/>
		<path class="st2" d="M469.5,333.9c-0.7,5.4-1.2,10.7-1.7,16.2c0.4,5.2,3.3,13.5,12.4,4.2c12.9-13.5,35.7-48.9,45.3-64.7
			c9.4,10.2,0.7,21.8-5,30.9c-11.9,18.8-36.4,57.1-52.1,58.5c0,0-17.4-10.7-19.2-11.8c-2.8-3.8-3.9-7.4-3.6-10.8
			c0.2-36.7,8.6-67.5,22.2-91.5c3.2-4.8,7.9-6.6,14.5-5.4c12.3,3.5,17,5.8,17,5.8c15.4,5.1,1.3,57.2-13.5,70.7
			C480.9,338.1,473.5,337.7,469.5,333.9z M480.1,318.5c5.2-9.7,15.9-57.1,4.7-36.8c-5.9,12.2-10.3,25.4-13.1,39.2
			C475.3,322.2,477.9,321.2,480.1,318.5z"/>
		<path class="st2" d="M557.1,260.9c-2.5-2.2-5.8-0.4-10,4.1c-25.5,25.7-0.5,59.1,19.7,74.1c1.3,23.6-23.5,30.1-44.9,28.9
			c-7.2-3.2-6.5-9.8-3.2-20.6c8.9,6,17.9,5.9,28,2.4c-18.2-19.6-33.5-32.2-30.6-62.7c1.7-18.9,14.3-39.2,34.3-41.8
			c3.7-0.4,6.9,0.2,9.7,2.1c0.9-1.6,1.9-2.7,2.9-2.4l15.6,3.7c-5.9,7.2-9.5,27.2-12.5,37.2l-9.5,1.4
			C555.7,282.8,555.7,270.9,557.1,260.9z"/>
	</g>
	<g>
		<path class="st2" d="M273.3,26.2l6.2-0.5l-8.9,25.8l-5.2,0.5l-5.2-14.4l-5.3,15.3l-5.2,0.5l-8.9-24.3l6.7-0.6l5.1,15.3l5.6-16.3
			l4.5-0.4l5.3,15.6L273.3,26.2z"/>
		<path class="st2" d="M285.7,50.2v-25l17.7-1.6v5.1l-11.3,1v4.7l10.6-0.9v5.1l-10.6,0.9v5.1l11.3-1v5.1L285.7,50.2z"/>
		<path class="st2" d="M329.2,45.1c-1.9-0.9-3.4-2.3-4.4-4.1c-1-1.9-1.6-4.1-1.6-6.6c0-2.5,0.5-4.8,1.6-6.8c1-2,2.5-3.7,4.4-4.9
			c1.9-1.2,4.2-2,6.8-2.2c1.6-0.1,3.2,0,4.7,0.3c1.5,0.4,2.8,0.9,3.7,1.7l-2,4.9c-2-1.3-4.1-1.9-6.3-1.7c-2,0.2-3.5,0.9-4.6,2.3
			c-1.1,1.4-1.6,3.3-1.6,5.8c0,2.5,0.5,4.4,1.6,5.6s2.6,1.7,4.6,1.5c2.2-0.2,4.3-1.1,6.3-2.8l2,4.5c-0.9,0.9-2.2,1.7-3.7,2.3
			c-1.5,0.6-3.1,1-4.7,1.2C333.4,46.4,331.1,46,329.2,45.1z"/>
		<path class="st2" d="M372.9,42.6l-6.9,0.6l-3.2-8.1c-0.4-0.9-1.2-1.3-2.6-1.2l-2.4,0.2v9.7l-6.5,0.6v-25l11.6-1
			c3-0.3,5.3,0.2,6.8,1.4c1.5,1.2,2.3,3,2.3,5.4c0,1.7-0.4,3.2-1.3,4.5c-0.9,1.3-2.2,2.3-3.8,3c0.7,0.1,1.3,0.4,1.9,0.8
			c0.6,0.5,1,1.1,1.3,2L372.9,42.6z M364.8,28c0.6-0.5,0.9-1.2,0.9-2.1c0-1-0.3-1.6-0.9-2c-0.6-0.4-1.6-0.5-3.1-0.4l-4.1,0.4v5.4
			l4.1-0.4C363.2,28.8,364.2,28.5,364.8,28z"/>
		<path class="st2" d="M398.3,40.4l-2.2-5l-11,1l-2.2,5.4l-6.6,0.6l11.6-26.1l5.2-0.5l11.7,24L398.3,40.4z M387.2,31.2l6.8-0.6
			l-3.4-7.6L387.2,31.2z"/>
		<path class="st2" d="M409.6,39.4v-25l17.3-1.5V18l-10.9,1v4.6l10.2-0.9v5.1l-10.2,0.9v10.2L409.6,39.4z"/>
		<path class="st2" d="M440,36.7V17l-7.4,0.6v-5.3l21.4-1.9v5.3l-7.4,0.6v19.7L440,36.7z"/>
	</g>
	<path class="st2" d="M577.2,431.8c0,5.9-7.5,9.9-14.2,9.9c-2.7,0-5.4-0.3-8.3-1.1c-17.4-1.3-35.4-1.9-53-1.9
		c-59.2,0-111.7,4.8-162,17.1c-18.7,4.6-37.8,10.7-54.4,20.6c-1.9,1.3-11.8,9.1-15,9.1c-0.5,0-0.8-0.3-0.8-0.8
		c0-35.1,42.3-47.4,64.8-53.6c56.8-12.3,116.5-13.7,174.4-15C515.9,416.2,577.2,420.2,577.2,431.8z M448.9,422.9
		c-64.8,1.6-112,8.8-141.2,21.7C339.4,433.6,386.5,426.4,448.9,422.9z"/>
</g>
</svg>
