<?xml version="1.0" encoding="utf-8"?>
<!-- Generator: Adobe Illustrator 24.1.1, SVG Export Plug-In . SVG Version: 6.00 Build 0)  -->
<svg version="1.1" id="Capa_1" xmlns="http://www.w3.org/2000/svg" xmlns:xlink="http://www.w3.org/1999/xlink" x="0px" y="0px"
	 viewBox="0 0 609 496" style="enable-background:new 0 0 609 496;" xml:space="preserve">
<style type="text/css">
	.st0{fill:#674BB5;}
	.st1{fill:#FFFFFF;}
	.st2{fill:#01D7D9;}
</style>
<g>
	<g>
		<path class="st1" d="M140.5,378.7c-16.1,1.1-31.2-18.9-33-34c12.9-46,71-250.6,67.2-289.4c-42,2.3-135.4,184.1-98.7,244.4
			c-17.3,9-35.8,8-44.4,3.1C-1.2,250.3,85.3,53.9,159.8,38.7c9.6-1.7,30.8,2.3,45.7,13.8c0.4,14.5-4.4,43.2-12,77.9
			c19-47.5,36.8-90,45.2-108.2c27.5,7.6,40.1,28.1,45.6,51.9C308.6,176,240.1,344,140.5,378.7z M243.6,79.5
			c-18.9,36.3-70.5,190.2-94.1,262.9C205.6,303.8,275.6,139.4,243.6,79.5z"/>
		<path class="st1" d="M446.5,98.2c-25.6,56.3-39.8,107.2-41.2,152.5l70.7-126c9.8,2.1,11.4,11.3,4.4,27.5l-71.9,148.4
			c-25.1-1.6-40.3-12.2-45.5-32.2c1.5-13.5,3-26.7,5.4-39.9c0,0-13.3,34-37.1,85.8c-25.1-1.6-40.3-12.2-45.5-32.2
			c6.2-64.5,24.3-119.5,41.4-180.3c14.2-6.8,28.5-3.7,42,10.1c-26.6,58.2-40.4,110.8-41.6,157.7c-0.1-0.4,19.4-40.7,57.3-112
			c6.2-22.9,13-45.5,19.5-69.4C418.7,81.2,432.9,84.3,446.5,98.2z"/>
		<path class="st1" d="M507.3,54.5l29.1-5.1c45.4,48.5,18.1,243.5-54.2,234.4c-15.7-1.5-28.8-7.8-34.3-22.2
			c-18.8-45.9,9.6-159.3,52.3-189.1l13.3,2.8C511.9,68.2,510.3,61.6,507.3,54.5z M520.2,96.3c-24.9,36.1-49.4,117.9-40.4,161.7
			C501.1,255.1,534.3,141.8,520.2,96.3z"/>
	</g>
	<path class="st1" d="M584.5,352.4c0.7,10.4-9,18.2-18.1,18.7c-3.6,0.2-7.3,0-11.3-1.2c-23.7-0.9-48-0.3-71.8,1.2
		c-79.9,5.1-150.3,18.1-216.9,44.2c-24.8,9.7-49.8,22.2-71.1,41.1c-2.4,2.5-14.9,17.1-19.2,17.4c-0.7,0-1.1-0.4-1.2-1.4
		c-3.9-62,51.9-87.5,81.6-100.3c75.3-26.6,155.8-34.1,233.8-41.4C500,330.2,583.2,332,584.5,352.4z M410.3,347.7
		c-87.4,8.4-150.2,25.2-188.2,50.4C263.5,376,326.4,359.2,410.3,347.7z"/>
</g>
</svg>
