<?xml version="1.0" encoding="utf-8"?>
<!-- Generator: Adobe Illustrator 24.1.1, SVG Export Plug-In . SVG Version: 6.00 Build 0)  -->
<svg version="1.1" id="Capa_1" xmlns="http://www.w3.org/2000/svg" xmlns:xlink="http://www.w3.org/1999/xlink" x="0px" y="0px"
	 viewBox="0 0 547 496" style="enable-background:new 0 0 547 496;" xml:space="preserve">
<style type="text/css">
	.st0{fill:#674BB5;}
	.st1{fill:#FFFFFF;}
	.st2{fill:#01D7D9;}
</style>
<g>
	<g>
		<path class="st1" d="M53,182.3c-1.3,6.9-5.9,37,2.6,40.8c3.8,1.9,9.2-3.5,11.5-6.2c16.2-19.8,38.9-68.1,44-79.3l18.3-5.3
			c-8.1,25.7-31.5,108.9-20.6,139.4c-13.1,2.5-24-4.9-25.2-23.3c0-6.6,0.9-13.2,2.4-21.3c1.1-6.6,2.8-13.8,4.8-21.9
			c-6.3,12.6-18.4,32.1-27.1,42.8c-8.6,0.4-14.5-1.8-21.5-6.1C5.5,214.5,55.6,92.6,89,62.6c5.7-0.3,20.1,5.9,25.7,12
			c6.7,16.9-3.5,53.1-15.7,73.4c-6.7,6.4-17.1,9.9-25.4,5.4c12.9-14.2,27.4-58.9,28.5-75.2C84.6,97.4,60.2,146.1,53,182.3z"/>
		<path class="st1" d="M153.1,171.3c-0.7,5.2-1.2,10.3-1.6,15.6c0.4,5,3.2,13,12,4.1c12.4-13,34.3-47.1,43.6-62.3
			c9.1,9.9,0.7,21-4.8,29.7c-11.5,18.1-35,55-50.1,56.3c0,0-16.7-10.4-18.5-11.4c-2.7-3.7-3.8-7.1-3.4-10.4
			c0.2-35.3,8.3-65,21.4-88.1c3.1-4.7,7.6-6.4,14-5.2c11.8,3.4,16.3,5.6,16.3,5.6c14.9,4.9,1.2,55-13,68.1
			C164.1,175.3,157,174.9,153.1,171.3z M163.3,156.4c5-9.4,15.3-55,4.5-35.4c-5.7,11.8-9.9,24.4-12.6,37.8
			C158.7,160,161.3,159,163.3,156.4z"/>
		<path class="st1" d="M244.1,45.2c-3.1,7-6.3,16.2-9.5,25.5c2-0.4,3.8-0.7,5.4-0.5c2.1,1.5,3.7,3.9,4.4,7c-4,0.7-8.4,1.5-12.4,2.6
			c-9.4,31.2-16.7,69-18.7,96.6l37-65.9c5.5,1.1,6.3,6,2.3,14.3l-38.4,79.9c-13.5-1.1-22-6.4-25.1-17.4c1.5-22.7,11.8-66.7,21-103.2
			c-1.7,0.8-3.3,1-5.3,1.4c-3.1-2-6.2-5.1-7.4-9.5c4.9-0.9,10-1.5,14.9-2.4c3.8-13.5,6.7-25.5,8.9-33.9
			C229.7,37.2,237,38.2,244.1,45.2z"/>
		<path class="st1" d="M371.4,61.9c-2.1,11.4-15.7,74.5-29.6,119.4c3.9-0.2,7.8,0,11.3,0.5c2.7,2.5,5.1,12.2,5.1,19.7
			c-6.3-6-40.7-3.1-52.2,4.2c-1.9-2.9-2.6-5.5-3.5-10.6c3.9-2.7,7.8-5.3,11.8-7.1c4-9.9,7.8-20.6,11.4-31.8
			c4.6-14.1,35.6-117.7,34.3-130.3c-22.3,1-72.4,98-52.7,130.3c-9,4.8-19.2,4.3-23.6,1.4c-17.5-27.9,28.7-132.5,68.5-140.7
			c5.1-0.9,16.3,1.3,24.2,7.4C376.8,35.7,373.6,51.4,371.4,61.9z"/>
		<path class="st1" d="M409.8,65.5c-8,17.2-13.8,33.6-17.5,49.2C405,84.9,419.6,61,428.7,52.7c7.6-3.9,15-2,22.3,5.5
			c-13.8,29.9-21.1,56.9-22.1,81.2l37.7-67.2c5.5,1.1,6.3,6,2.5,14.5l-38.3,79.2c-13.4-0.6-21.6-6.5-24.3-17
			c2.3-24.5,8.1-46.6,14.4-69c-14.3,19.3-33.8,73.8-31.8,91.6c0.1,0.7,0.2,1.3,0.3,1.8c-0.4,0.1-1.2,0-1.9-0.1
			c-12.1-1.1-19.6-6.9-22.2-16.9c3.1-34.3,13.1-63.7,22-96.1C394.9,56.2,402.3,58.1,409.8,65.5z"/>
		<path class="st1" d="M72.4,393.9l0-0.2c2,7.4,6.6,11.2,16.1,4c18.4-14,44.1-61.9,49.3-71.7c3.1,2,4,6.9,3.9,11.9
			c0.1,8.2-17.5,41.4-35.1,66.5c-6.2,8-12.9,15.3-21.3,20.7c-8.6,0.6-19.3-1.6-26.5-5.9C21.8,392,74.4,270.4,108.1,240.4
			c5.5-0.3,19.8,5.9,25.5,12c6.9,16.9-3.2,53.1-15.5,73.4c-6.7,6.4-17.3,9.9-25.6,5.4c13.1-14.2,27-56.3,28.1-72.4
			C97,283.9,63.9,356.2,72.4,393.9z"/>
		<path class="st1" d="M158.3,273.1l15.6-2.7c24.3,26,9.7,130.4-29,125.5c-8.4-0.8-15.4-4.2-18.4-11.9c-10.1-24.6,5.1-85.3,28-101.2
			l7.1,1.5C160.8,280.4,159.9,276.9,158.3,273.1z M165.3,295.4c-13.3,19.3-26.5,63.1-21.6,86.6C155,380.5,172.8,319.8,165.3,295.4z"
			/>
		<path class="st1" d="M232.1,277.9c-8,17.2-13.8,33.6-17.5,49.2c12.6-29.7,27.2-53.6,36.3-61.9c7.6-3.9,15-2,22.3,5.5
			c-13.8,29.9-21.1,56.9-22.1,81.2l37.7-67.2c5.5,1.1,6.3,6,2.5,14.5L253,378.3c-13.4-0.6-21.6-6.5-24.3-17
			c2.3-24.5,8.1-46.6,14.4-69c-14.3,19.3-33.8,73.8-31.8,91.6c0.1,0.7,0.2,1.3,0.3,1.8c-0.4,0.1-1.2,0-1.9-0.1
			c-12.1-1.1-19.6-6.9-22.2-16.9c3.1-34.3,13.1-63.7,22-96.1C217.2,268.6,224.6,270.5,232.1,277.9z"/>
		<path class="st1" d="M326.2,211.8c-3.1,7-6.3,16.2-9.5,25.5c2-0.4,3.8-0.7,5.4-0.5c2.1,1.5,3.7,3.9,4.4,7c-4,0.7-8.4,1.5-12.4,2.6
			c-9.4,31.2-16.7,69-18.7,96.6l37-65.9c5.5,1.1,6.3,6,2.3,14.3l-38.4,79.9c-13.5-1.1-22-6.4-25.1-17.4c1.5-22.7,11.8-66.7,21-103.2
			c-1.7,0.8-3.3,1-5.3,1.4c-3.1-2-6.2-5.1-7.4-9.5c4.9-0.9,10-1.5,14.9-2.4c3.8-13.5,6.7-25.5,8.9-33.9
			C311.7,203.8,319,204.8,326.2,211.8z"/>
		<path class="st1" d="M417.5,277.1l-38.5,79.2c-13.2-0.9-21.3-6.6-24.3-17c0.8-7.2,1.8-14.5,2.9-21.4c0,0-7.1,18.2-19.7,45.7
			c-13.4-0.8-21.6-6.5-24.3-17c3.1-34.5,13-64,22.2-96.3c7.6-3.9,15-2,22.2,5.2l11.2,14.1c2.6-8.7,5.2-17.4,7.7-26.6
			c7.6-3.9,15-2,22.5,5.2c-13.9,30.2-21.3,57.4-22.1,81.6l37.6-67.4C420.3,263.5,421.2,268.4,417.5,277.1z M366.4,279.9l-12.1-15.5
			c-11.9,27.5-18,52.7-18.4,75.2C336,339.4,346.2,317.9,366.4,279.9z"/>
		<path class="st1" d="M469.8,285.3c-1.5,9.9-42,65.9-47.3,63.1c0,0-6.3-3.2-18.8-10.2c-2.7-3.4-3.7-6.7-3.6-10.1
			c-0.6-36.1,6.8-65.4,19.3-89.6c2.7-5.3,9-7.3,13.8-6.3l7.4,1.7c1-3.4,2.3-5,3.8-4.6l15.1,6.5c-5.7,8.1-9.3,31.7-12.5,43.5
			l-9.4,0.3c-1.1-6-0.8-21.4,0.8-33.4c-10.7,27.8-16.8,49.3-17.2,75.5l0.2-2.8c-1.4,32.1,43.7-43.5,45.3-46.3
			C470,276.1,470.5,280.4,469.8,285.3z"/>
		<path class="st1" d="M506.5,180c-3.1,7-6.3,16.2-9.5,25.5c2-0.4,3.8-0.7,5.4-0.5c2.1,1.5,3.7,3.9,4.4,7c-4,0.7-8.4,1.5-12.4,2.6
			c-9.4,31.2-16.7,69-18.7,96.6l37-65.9c5.5,1.1,6.3,6,2.3,14.3l-38.4,79.9c-13.5-1.1-22-6.4-25.1-17.4c1.5-22.7,11.8-66.7,21-103.2
			c-1.7,0.8-3.3,1-5.3,1.4c-3.1-2-6.2-5.1-7.4-9.5c4.9-0.9,10-1.5,14.9-2.4c3.8-13.5,6.7-25.5,8.9-33.9C492,172,499.3,173,506.5,180
			z"/>
	</g>
	<path class="st1" d="M79.8,473.3c1.2,5.5,12.2,7.1,21.3,5.1c3.6-0.8,7.2-1.8,11-3.5c23.3-6.4,47.5-12.2,71.4-17.4
		c80.1-17.5,152.2-28.5,222.9-31.8c26.3-1.3,53.3-1.1,77.8,3.3c2.8,0.7,17.8,5.1,22.2,4.1c0.7-0.2,1-0.5,0.9-1
		c-7.2-33-67-32.1-98.8-31.2c-79.4,5.2-160.5,21.6-239.1,37.5C159.7,440.6,77.5,462.5,79.8,473.3z M251.7,427.1
		c88.1-17.7,153.4-24.8,195.5-21.3C402.2,404.7,336.9,411.9,251.7,427.1z"/>
</g>
</svg>
